<svg id="svg" version="1.1" width="400" height="483.28075709779176" viewBox="0 0 400 483.28075709779176" xmlns="http://www.w3.org/2000/svg" xmlns:xlink="http://www.w3.org/1999/xlink" ><g id="svgg"><path id="path0" d="M234.000 124.000 L 234.000 248.000 237.200 248.000 L 240.400 248.000 240.400 124.000 L 240.400 0.000 237.200 0.000 L 234.000 0.000 234.000 124.000 M208.600 17.883 C 207.280 18.660,204.400 20.284,202.200 21.492 C 200.000 22.700,198.100 23.848,197.978 24.042 C 197.856 24.236,196.776 24.906,195.578 25.529 C 191.896 27.446,183.834 32.040,183.200 32.581 C 182.870 32.863,181.182 33.846,179.449 34.766 C 175.559 36.829,169.870 40.076,169.600 40.386 C 169.353 40.670,162.886 44.400,162.641 44.400 C 162.363 44.400,155.425 48.446,155.200 48.739 C 155.090 48.883,154.370 49.333,153.600 49.741 C 149.799 51.752,141.376 56.546,141.200 56.799 C 141.090 56.957,139.830 57.716,138.400 58.485 C 134.169 60.759,127.138 64.790,126.029 65.576 C 125.463 65.978,123.920 66.886,122.600 67.595 C 119.808 69.094,113.427 72.752,110.736 74.396 C 109.711 75.022,107.281 76.390,105.336 77.436 C 103.391 78.482,101.094 79.802,100.232 80.369 C 98.393 81.578,97.621 82.025,90.200 86.178 C 87.120 87.902,84.509 89.450,84.399 89.620 C 84.288 89.789,83.028 90.540,81.599 91.288 C 78.116 93.113,72.659 96.230,70.200 97.800 C 69.100 98.502,66.940 99.755,65.400 100.584 C 62.546 102.121,57.401 105.091,53.800 107.279 C 52.700 107.948,50.270 109.313,48.400 110.312 C 46.530 111.312,44.303 112.595,43.452 113.165 C 42.600 113.734,41.070 114.659,40.052 115.219 C 33.675 118.728,27.772 122.118,27.600 122.368 C 27.490 122.528,26.590 123.090,25.600 123.615 C 22.318 125.358,15.430 129.306,13.400 130.608 C 12.300 131.313,10.140 132.563,8.600 133.385 C 2.142 136.830,-0.000 138.181,-0.000 138.809 C -0.000 139.682,2.362 144.000,2.839 144.000 C 3.294 144.000,9.149 140.716,11.400 139.198 C 12.280 138.605,14.620 137.256,16.600 136.201 C 18.580 135.146,22.360 132.989,25.000 131.408 C 27.640 129.827,31.420 127.663,33.400 126.598 C 35.380 125.533,37.702 124.198,38.560 123.631 C 39.418 123.064,40.318 122.473,40.560 122.319 C 41.255 121.875,48.439 117.904,50.545 116.800 C 51.594 116.250,52.770 115.507,53.158 115.148 C 53.546 114.789,55.019 113.879,56.432 113.126 C 60.963 110.708,68.194 106.632,68.400 106.379 C 68.665 106.054,73.216 103.422,74.069 103.101 C 74.437 102.963,77.407 101.249,80.669 99.294 C 83.931 97.338,88.220 94.871,90.200 93.810 C 92.180 92.750,94.502 91.414,95.360 90.841 C 96.218 90.269,97.118 89.672,97.360 89.516 C 98.004 89.101,104.188 85.681,107.200 84.074 C 108.630 83.312,110.160 82.376,110.600 81.996 C 111.040 81.615,112.930 80.485,114.800 79.485 C 119.212 77.125,124.491 74.128,125.000 73.696 C 125.545 73.232,130.394 70.400,130.643 70.400 C 130.753 70.400,132.557 69.410,134.653 68.200 C 136.749 66.990,138.629 66.000,138.832 66.000 C 139.034 66.000,139.200 65.854,139.200 65.675 C 139.200 65.376,143.071 63.104,148.400 60.275 C 149.610 59.633,151.633 58.409,152.895 57.554 C 154.158 56.699,155.301 56.000,155.435 56.000 C 155.569 56.000,157.326 55.050,159.340 53.888 C 161.353 52.727,163.810 51.351,164.800 50.830 C 165.790 50.310,166.960 49.573,167.400 49.194 C 167.840 48.814,169.820 47.649,171.800 46.603 C 173.780 45.558,175.580 44.571,175.800 44.410 C 176.020 44.248,177.460 43.435,179.000 42.602 C 180.540 41.770,181.890 40.967,182.000 40.818 C 182.237 40.498,186.663 37.929,187.703 37.509 C 189.055 36.962,195.400 33.110,195.533 32.754 C 195.607 32.559,195.845 32.400,196.064 32.400 C 196.282 32.400,197.662 31.703,199.130 30.852 C 200.599 30.000,203.060 28.625,204.600 27.795 C 206.140 26.966,208.392 25.638,209.605 24.844 C 210.817 24.050,212.482 23.057,213.305 22.637 C 215.048 21.748,215.085 21.571,213.935 19.647 C 211.800 16.073,211.722 16.047,208.600 17.883 M274.000 144.800 L 274.000 268.800 277.200 268.800 L 280.400 268.800 280.400 144.800 L 280.400 20.800 277.200 20.800 L 274.000 20.800 274.000 144.800 M313.200 167.000 L 313.200 291.200 316.400 291.200 L 319.600 291.200 319.600 167.000 L 319.600 42.800 316.400 42.800 L 313.200 42.800 313.200 167.000 M210.600 64.478 C 210.160 64.727,209.710 65.047,209.600 65.188 C 209.366 65.488,203.622 68.800,203.335 68.800 C 202.868 68.800,196.000 72.997,196.000 73.283 C 196.000 73.457,195.810 73.600,195.579 73.600 C 195.347 73.600,193.496 74.545,191.465 75.700 C 189.435 76.855,186.736 78.340,185.468 79.000 C 184.200 79.660,182.856 80.479,182.481 80.820 C 182.106 81.161,181.260 81.735,180.600 82.094 C 174.068 85.656,168.717 88.695,167.400 89.592 C 166.520 90.190,164.270 91.498,162.400 92.497 C 160.530 93.496,157.650 95.133,156.000 96.134 C 152.227 98.425,148.879 100.350,145.800 102.001 C 141.902 104.090,139.200 105.765,139.200 106.093 C 139.200 106.262,138.996 106.400,138.747 106.400 C 138.499 106.400,136.744 107.286,134.847 108.368 C 132.951 109.450,130.261 110.952,128.869 111.706 C 127.477 112.459,126.010 113.356,125.610 113.699 C 125.209 114.042,123.558 115.033,121.941 115.901 C 116.830 118.643,111.443 121.731,110.200 122.629 C 109.540 123.106,107.380 124.356,105.400 125.407 C 103.420 126.458,99.640 128.611,97.000 130.192 C 94.360 131.773,90.580 133.937,88.600 135.002 C 86.620 136.067,84.298 137.402,83.440 137.969 C 82.582 138.536,81.682 139.127,81.440 139.281 C 80.745 139.725,73.561 143.696,71.455 144.800 C 70.406 145.350,69.230 146.093,68.842 146.452 C 68.454 146.811,66.981 147.721,65.568 148.474 C 61.388 150.705,53.816 154.958,53.600 155.197 C 53.241 155.595,51.463 156.642,47.800 158.613 C 45.820 159.679,42.220 161.748,39.800 163.212 C 37.380 164.676,33.780 166.739,31.800 167.796 C 29.820 168.853,27.498 170.186,26.640 170.759 C 25.782 171.331,24.882 171.928,24.640 172.084 C 23.996 172.499,17.812 175.919,14.800 177.526 C 13.370 178.288,11.840 179.224,11.400 179.604 C 10.960 179.985,9.160 181.058,7.400 181.990 C -0.766 186.310,-0.485 185.978,1.256 189.244 C 2.734 192.017,2.968 192.056,6.264 190.078 C 8.528 188.720,11.579 186.964,20.200 182.059 C 21.960 181.058,23.490 180.126,23.600 179.988 C 23.710 179.851,26.230 178.416,29.200 176.799 C 32.170 175.183,35.770 173.107,37.200 172.187 C 38.630 171.267,42.230 169.192,45.200 167.576 C 48.170 165.960,51.590 163.974,52.800 163.164 C 54.010 162.353,56.260 161.046,57.800 160.260 C 59.340 159.473,61.770 158.117,63.200 157.246 C 66.120 155.469,72.045 152.068,76.080 149.854 C 77.553 149.045,78.993 148.158,79.280 147.883 C 79.566 147.607,83.040 145.613,87.000 143.450 C 90.960 141.288,94.290 139.377,94.400 139.204 C 94.510 139.031,96.490 137.859,98.800 136.600 C 104.663 133.405,106.307 132.463,108.600 130.982 C 109.700 130.272,112.670 128.565,115.200 127.188 C 117.730 125.810,120.710 124.104,121.823 123.396 C 122.935 122.688,126.535 120.618,129.823 118.797 C 133.110 116.975,136.160 115.177,136.600 114.800 C 137.040 114.423,137.940 113.853,138.600 113.532 C 140.785 112.473,150.996 106.693,151.200 106.401 C 151.310 106.244,153.380 105.030,155.800 103.705 C 158.220 102.380,161.220 100.689,162.466 99.948 C 163.712 99.206,166.592 97.537,168.866 96.237 C 171.140 94.937,174.585 92.957,176.522 91.837 C 178.459 90.717,182.882 88.180,186.352 86.200 C 189.821 84.220,193.186 82.227,193.830 81.770 C 194.473 81.314,195.720 80.573,196.600 80.123 C 199.623 78.579,207.800 73.931,208.400 73.416 C 208.730 73.133,210.305 72.205,211.900 71.354 C 214.985 69.709,215.179 69.391,214.135 67.686 C 211.677 63.671,211.810 63.792,210.600 64.478 M354.000 191.017 L 354.000 315.234 357.100 315.117 L 360.200 315.000 360.301 190.900 L 360.401 66.800 357.201 66.800 L 354.000 66.800 354.000 191.017 M393.200 214.800 L 393.200 338.800 396.200 338.800 L 399.200 338.800 399.200 214.800 L 399.200 90.800 396.200 90.800 L 393.200 90.800 393.200 214.800 M206.083 110.560 C 203.158 112.181,200.458 113.776,200.083 114.105 C 199.707 114.433,197.222 115.883,194.559 117.328 C 191.897 118.772,188.837 120.491,187.759 121.148 C 185.770 122.362,179.996 125.688,175.113 128.434 C 173.634 129.265,172.194 130.147,171.913 130.393 C 171.631 130.639,168.482 132.445,164.917 134.406 C 161.351 136.367,157.679 138.518,156.757 139.186 C 155.834 139.853,154.955 140.400,154.802 140.400 C 154.436 140.400,145.323 145.545,142.000 147.628 C 140.570 148.524,137.510 150.294,135.200 151.561 C 129.707 154.574,129.038 154.957,128.800 155.226 C 128.605 155.446,124.114 157.996,118.720 160.949 C 117.247 161.756,115.807 162.648,115.520 162.932 C 115.234 163.216,114.460 163.719,113.800 164.050 C 111.039 165.435,100.583 171.364,100.385 171.656 C 100.266 171.831,99.276 172.448,98.185 173.029 C 93.424 175.560,87.305 179.035,86.200 179.836 C 85.540 180.314,83.560 181.471,81.800 182.407 C 77.541 184.673,72.249 187.695,72.000 188.004 C 71.810 188.240,67.638 190.619,62.000 193.706 C 60.570 194.489,58.967 195.505,58.439 195.965 C 57.910 196.424,57.350 196.800,57.195 196.800 C 56.790 196.800,43.840 204.050,43.600 204.411 C 43.490 204.576,41.600 205.693,39.400 206.894 C 32.452 210.687,30.633 211.730,29.400 212.629 C 28.740 213.110,26.030 214.681,23.378 216.119 C 20.725 217.557,16.945 219.711,14.978 220.906 C 13.010 222.102,9.240 224.277,6.600 225.740 C 3.960 227.204,1.387 228.751,0.882 229.179 L -0.035 229.957 0.950 231.878 C 2.839 235.559,2.750 235.516,5.377 234.013 C 6.640 233.290,8.718 232.137,9.995 231.450 C 11.271 230.762,12.740 229.882,13.258 229.494 C 14.102 228.861,19.093 226.023,25.200 222.703 C 26.410 222.046,27.490 221.384,27.600 221.233 C 27.868 220.864,29.934 219.649,33.800 217.585 C 35.560 216.646,39.665 214.285,42.923 212.338 C 46.180 210.392,48.933 208.800,49.041 208.800 C 49.325 208.800,55.762 205.091,56.000 204.791 C 56.110 204.652,59.223 202.866,62.918 200.822 C 66.613 198.779,69.854 196.889,70.119 196.623 C 70.385 196.358,72.222 195.277,74.201 194.222 C 76.181 193.166,77.980 192.171,78.200 192.010 C 78.420 191.848,79.860 191.035,81.400 190.202 C 82.940 189.370,84.290 188.570,84.400 188.425 C 84.661 188.081,88.159 186.054,90.200 185.063 C 91.080 184.636,94.590 182.633,98.000 180.613 C 101.410 178.593,106.055 175.916,108.321 174.666 C 110.588 173.415,112.827 172.034,113.297 171.596 C 113.766 171.158,114.303 170.800,114.489 170.800 C 114.675 170.800,116.264 169.985,118.019 168.989 C 119.775 167.993,122.064 166.713,123.106 166.145 C 124.148 165.576,125.990 164.486,127.200 163.722 C 128.410 162.957,132.010 160.872,135.200 159.087 C 138.390 157.302,141.090 155.723,141.200 155.578 C 141.310 155.433,143.650 154.091,146.400 152.596 C 152.080 149.508,154.486 148.055,154.855 147.489 C 154.996 147.274,155.295 147.212,155.521 147.351 C 155.747 147.491,155.992 147.443,156.066 147.244 C 156.186 146.920,163.067 142.800,163.488 142.800 C 163.752 142.800,169.372 139.503,169.600 139.215 C 169.710 139.075,172.230 137.633,175.200 136.010 C 178.170 134.388,181.770 132.309,183.200 131.392 C 184.630 130.475,187.870 128.586,190.400 127.196 C 197.444 123.324,197.786 123.127,198.000 122.830 C 198.194 122.562,201.539 120.655,205.754 118.411 C 206.879 117.812,208.700 116.760,209.800 116.074 C 210.900 115.387,212.475 114.456,213.300 114.005 C 215.083 113.029,215.145 112.464,213.735 110.035 C 211.966 106.988,212.608 106.944,206.083 110.560 M208.200 157.251 C 206.660 158.151,204.025 159.633,202.345 160.544 C 200.665 161.455,198.865 162.518,198.345 162.906 C 197.510 163.530,191.716 166.829,186.913 169.415 C 185.985 169.914,184.185 170.988,182.913 171.802 C 181.641 172.616,178.080 174.715,175.000 176.467 C 171.920 178.218,168.590 180.148,167.600 180.755 C 166.610 181.362,164.360 182.629,162.600 183.571 C 157.984 186.040,155.200 187.741,155.200 188.093 C 155.200 188.262,155.017 188.400,154.793 188.400 C 154.569 188.400,152.724 189.337,150.693 190.483 C 148.662 191.629,145.969 193.115,144.710 193.786 C 143.450 194.456,142.060 195.313,141.621 195.689 C 141.181 196.066,139.512 197.081,137.911 197.946 C 132.726 200.747,127.416 203.780,126.194 204.638 C 125.537 205.100,123.740 206.155,122.200 206.985 C 119.364 208.511,114.142 211.525,110.736 213.599 C 109.711 214.224,107.281 215.590,105.336 216.636 C 101.659 218.613,98.744 220.346,98.400 220.760 C 98.290 220.892,97.570 221.333,96.800 221.741 C 92.879 223.815,84.575 228.549,84.400 228.810 C 84.290 228.974,82.940 229.784,81.400 230.609 C 76.924 233.009,72.359 235.620,70.200 237.015 C 69.100 237.726,66.310 239.337,64.000 240.596 C 61.690 241.854,58.090 243.917,56.000 245.180 C 53.910 246.444,50.040 248.680,47.400 250.150 C 44.760 251.620,42.150 253.154,41.600 253.559 C 41.050 253.965,37.720 255.872,34.200 257.798 C 30.680 259.724,27.710 261.437,27.600 261.605 C 27.490 261.774,25.420 262.994,23.000 264.317 C 18.518 266.768,16.144 268.131,11.314 271.029 C 9.821 271.924,6.665 273.721,4.300 275.020 C 1.173 276.739,0.000 277.591,0.000 278.143 C 0.000 278.984,2.290 283.200,2.748 283.200 C 3.156 283.200,10.371 279.174,11.806 278.144 C 12.463 277.674,14.366 276.557,16.035 275.663 C 17.704 274.768,20.584 273.142,22.435 272.050 C 26.641 269.567,32.572 266.179,36.080 264.254 C 37.553 263.445,38.993 262.552,39.280 262.268 C 39.566 261.984,40.340 261.482,41.000 261.151 C 43.590 259.854,53.411 254.271,53.600 253.989 C 53.710 253.824,55.690 252.659,58.000 251.400 C 64.002 248.129,65.429 247.309,68.800 245.192 C 70.450 244.156,72.770 242.818,73.956 242.219 C 75.142 241.620,78.922 239.463,82.356 237.427 C 85.790 235.391,90.130 232.898,92.000 231.888 C 93.870 230.878,95.760 229.763,96.200 229.411 C 96.640 229.059,99.970 227.137,103.600 225.139 C 107.230 223.141,110.290 221.367,110.400 221.198 C 110.510 221.028,112.400 219.903,114.600 218.698 C 116.800 217.493,120.130 215.596,122.000 214.484 C 123.870 213.371,126.930 211.609,128.800 210.568 C 130.670 209.527,133.640 207.817,135.400 206.769 C 137.160 205.721,140.580 203.745,143.000 202.378 C 150.192 198.315,152.988 196.681,153.200 196.418 C 153.310 196.282,156.460 194.485,160.200 192.426 C 163.940 190.367,167.090 188.565,167.200 188.421 C 167.484 188.050,171.552 185.602,171.906 185.589 C 172.068 185.584,174.450 184.242,177.200 182.608 C 179.950 180.974,183.730 178.791,185.600 177.756 C 187.470 176.722,190.440 175.017,192.200 173.969 C 193.960 172.921,197.380 170.945,199.800 169.578 C 207.459 165.251,209.794 163.875,210.004 163.565 C 210.116 163.399,211.144 162.793,212.289 162.218 C 214.964 160.874,215.024 160.740,213.806 158.810 C 211.465 155.102,211.744 155.179,208.200 157.251 M206.000 200.039 C 203.250 201.581,200.100 203.434,199.000 204.156 C 197.275 205.288,192.790 207.848,187.000 211.006 C 186.120 211.486,184.680 212.373,183.800 212.978 C 182.920 213.582,181.172 214.598,179.916 215.235 C 178.660 215.873,174.282 218.376,170.186 220.798 C 166.091 223.219,162.650 225.200,162.540 225.200 C 162.258 225.200,156.643 228.477,156.400 228.783 C 156.290 228.922,153.410 230.581,150.000 232.470 C 146.590 234.360,142.900 236.486,141.800 237.197 C 140.700 237.907,137.190 239.938,134.000 241.710 C 130.810 243.482,128.110 245.048,128.000 245.189 C 127.793 245.456,122.507 248.488,121.800 248.746 C 121.133 248.989,115.042 252.502,114.400 253.014 C 114.070 253.277,110.650 255.247,106.800 257.392 C 102.950 259.538,99.710 261.412,99.600 261.559 C 99.425 261.791,97.361 262.966,88.600 267.818 C 87.500 268.427,86.060 269.324,85.400 269.811 C 84.740 270.298,82.670 271.510,80.800 272.505 C 78.930 273.500,75.870 275.223,74.000 276.333 C 72.130 277.444,68.260 279.652,65.400 281.240 C 62.540 282.827,59.300 284.706,58.200 285.414 C 56.054 286.795,48.433 291.200,48.190 291.200 C 47.917 291.200,43.002 294.132,42.800 294.415 C 42.690 294.569,41.610 295.224,40.400 295.871 C 36.291 298.066,29.001 302.175,28.800 302.408 C 28.506 302.750,24.428 305.200,24.153 305.200 C 23.931 305.200,16.301 309.591,12.400 311.964 C 11.410 312.566,8.980 313.927,7.000 314.988 C -0.548 319.033,-0.630 319.134,1.039 322.286 C 2.527 325.095,2.719 325.147,5.486 323.483 C 6.759 322.718,8.610 321.691,9.600 321.201 C 10.590 320.711,11.760 319.984,12.200 319.587 C 12.640 319.189,14.170 318.249,15.600 317.497 C 19.645 315.371,26.578 311.451,26.800 311.165 C 26.910 311.023,28.710 309.956,30.800 308.795 C 36.417 305.673,40.174 303.497,40.400 303.233 C 40.510 303.105,40.960 302.803,41.400 302.563 C 48.798 298.524,54.428 295.279,55.331 294.533 C 55.953 294.020,56.600 293.600,56.769 293.600 C 57.177 293.600,66.307 288.466,69.600 286.386 C 71.030 285.482,74.670 283.361,77.688 281.671 C 80.706 279.982,84.576 277.773,86.288 276.762 C 88.000 275.750,91.110 273.972,93.200 272.808 C 95.290 271.645,97.090 270.574,97.200 270.428 C 97.310 270.282,100.460 268.477,104.200 266.417 C 107.940 264.357,111.450 262.325,112.000 261.900 C 112.550 261.476,115.785 259.607,119.188 257.746 C 122.591 255.885,125.471 254.217,125.588 254.039 C 125.705 253.860,127.870 252.590,130.400 251.216 C 132.930 249.841,137.340 247.325,140.200 245.624 C 143.060 243.922,147.290 241.491,149.600 240.220 C 151.910 238.949,153.890 237.780,154.000 237.623 C 154.110 237.466,156.540 236.060,159.400 234.498 C 162.260 232.936,166.114 230.700,167.964 229.529 C 169.814 228.358,171.809 227.197,172.396 226.948 C 172.984 226.699,174.170 226.055,175.032 225.516 C 175.894 224.977,177.860 223.850,179.400 223.012 C 180.940 222.174,182.290 221.359,182.400 221.201 C 182.510 221.043,184.760 219.738,187.400 218.300 C 190.040 216.862,194.579 214.271,197.488 212.543 C 200.396 210.814,204.419 208.500,206.427 207.400 C 208.435 206.300,210.556 204.995,211.139 204.500 C 211.723 204.006,212.385 203.601,212.611 203.600 C 212.837 203.600,213.421 203.321,213.908 202.979 L 214.795 202.358 214.036 200.879 C 211.860 196.639,212.032 196.657,206.000 200.039 M184.497 250.100 C 183.794 250.978,182.400 253.947,182.400 254.567 C 182.400 254.897,183.165 255.598,184.100 256.126 C 192.592 260.920,194.971 262.286,197.400 263.761 C 198.940 264.697,201.820 266.326,203.800 267.383 C 205.780 268.440,207.940 269.685,208.600 270.151 C 209.933 271.091,217.995 275.725,220.800 277.164 C 221.790 277.672,222.690 278.214,222.800 278.368 C 223.037 278.701,227.809 281.600,228.120 281.600 C 228.238 281.600,230.164 282.680,232.400 284.000 C 234.636 285.320,236.531 286.400,236.613 286.400 C 236.694 286.400,237.534 286.917,238.480 287.548 C 239.426 288.180,241.614 289.454,243.342 290.380 C 245.071 291.306,248.761 293.427,251.542 295.094 C 254.324 296.761,258.580 299.202,261.000 300.519 C 263.420 301.837,265.490 303.047,265.600 303.209 C 265.801 303.505,270.051 305.929,275.600 308.912 C 277.250 309.799,278.960 310.833,279.400 311.209 C 279.840 311.586,283.260 313.574,287.000 315.628 C 290.740 317.682,293.890 319.486,294.000 319.636 C 294.272 320.006,297.456 321.862,301.800 324.183 C 303.780 325.240,306.300 326.689,307.400 327.403 C 309.286 328.627,315.625 332.257,319.600 334.390 C 320.590 334.921,321.644 335.596,321.942 335.891 C 322.240 336.185,323.230 336.807,324.142 337.271 C 325.054 337.736,327.630 339.170,329.867 340.458 C 332.104 341.746,334.095 342.800,334.292 342.800 C 334.488 342.800,335.000 343.127,335.429 343.527 C 336.198 344.243,341.739 347.600,342.153 347.600 C 342.270 347.600,345.119 349.245,348.483 351.256 C 351.847 353.267,356.400 355.892,358.600 357.090 C 360.800 358.288,363.500 359.861,364.600 360.586 C 365.700 361.310,368.549 362.960,370.932 364.251 C 373.315 365.543,376.195 367.208,377.332 367.951 C 378.469 368.694,382.280 370.890,385.800 372.831 C 389.320 374.771,392.394 376.527,392.631 376.731 C 393.419 377.411,396.379 379.200,396.715 379.200 C 397.679 379.200,399.797 373.542,399.010 373.068 C 398.584 372.811,396.493 371.610,394.364 370.400 C 392.235 369.190,389.797 367.736,388.946 367.169 C 388.096 366.602,385.809 365.282,383.864 364.236 C 381.919 363.190,379.489 361.824,378.464 361.201 C 374.542 358.815,367.626 354.800,367.439 354.800 C 367.135 354.800,362.225 351.901,362.000 351.589 C 361.890 351.436,360.540 350.630,359.000 349.798 C 357.460 348.965,356.020 348.152,355.800 347.990 C 355.580 347.829,353.781 346.834,351.801 345.778 C 349.822 344.723,347.968 343.625,347.681 343.338 C 347.394 343.051,345.953 342.155,344.480 341.346 C 337.089 337.290,333.781 335.409,333.600 335.158 C 333.490 335.005,330.473 333.254,326.897 331.265 C 323.320 329.277,319.900 327.304,319.297 326.881 C 318.693 326.458,315.500 324.621,312.200 322.798 C 308.900 320.974,305.930 319.255,305.600 318.977 C 304.824 318.324,294.382 312.400,294.006 312.400 C 293.849 312.400,292.997 311.877,292.114 311.237 C 290.733 310.236,282.793 305.665,278.400 303.341 C 277.630 302.933,276.910 302.492,276.800 302.360 C 276.451 301.941,273.509 300.179,270.200 298.408 C 266.012 296.166,263.448 294.697,263.200 294.396 C 262.960 294.105,254.595 289.364,251.878 287.980 C 250.821 287.441,249.645 286.715,249.266 286.367 C 248.887 286.018,245.522 284.044,241.788 281.980 C 238.055 279.915,234.778 278.012,234.508 277.749 C 234.237 277.487,231.062 275.643,227.451 273.652 C 223.841 271.661,220.102 269.504,219.143 268.859 C 218.185 268.214,215.330 266.561,212.800 265.187 C 210.270 263.812,207.480 262.199,206.600 261.603 C 204.874 260.433,199.504 257.378,195.003 255.006 C 193.464 254.195,192.108 253.375,191.990 253.183 C 191.101 251.746,185.143 249.294,184.497 250.100 M144.456 276.017 C 142.733 279.151,142.588 278.954,149.261 282.577 C 152.417 284.291,155.450 286.025,156.000 286.430 C 156.550 286.835,159.790 288.726,163.200 290.632 C 166.610 292.537,169.670 294.318,170.000 294.588 C 170.638 295.110,179.129 300.000,179.398 300.000 C 179.646 300.000,184.576 302.904,184.800 303.182 C 185.026 303.462,191.067 306.900,195.600 309.328 C 197.250 310.212,198.780 311.156,199.000 311.426 C 199.220 311.697,200.840 312.680,202.600 313.611 C 204.360 314.542,207.001 316.001,208.470 316.852 C 209.938 317.703,211.333 318.400,211.570 318.400 C 211.806 318.400,212.000 318.580,212.000 318.800 C 212.000 319.020,212.255 319.200,212.567 319.200 C 212.878 319.200,213.193 319.360,213.267 319.556 C 213.340 319.751,216.370 321.572,220.000 323.603 C 223.630 325.633,226.690 327.408,226.800 327.547 C 226.910 327.686,227.630 328.139,228.400 328.553 C 232.833 330.937,240.629 335.380,240.800 335.619 C 240.995 335.892,245.384 338.394,251.767 341.872 C 253.509 342.821,255.219 343.847,255.567 344.151 C 256.068 344.588,262.512 348.268,268.200 351.364 C 268.640 351.604,269.090 351.915,269.200 352.056 C 269.437 352.360,273.086 354.482,277.000 356.594 C 280.914 358.705,283.365 360.120,283.600 360.403 C 283.853 360.708,289.327 363.844,293.449 366.045 C 295.182 366.971,297.140 368.128,297.800 368.617 C 298.460 369.106,300.260 370.188,301.800 371.021 C 303.340 371.854,305.233 372.930,306.006 373.413 C 306.779 373.896,308.386 374.785,309.577 375.388 C 310.768 375.992,311.981 376.724,312.273 377.016 C 312.564 377.307,314.969 378.736,317.616 380.193 C 320.264 381.649,324.517 384.101,327.068 385.641 C 329.618 387.181,332.806 388.993,334.152 389.667 C 335.499 390.342,337.770 391.651,339.200 392.578 C 340.630 393.504,343.690 395.310,346.000 396.591 C 353.273 400.625,353.795 400.925,354.000 401.186 C 354.342 401.624,357.073 403.200,357.489 403.200 C 357.944 403.200,360.800 398.835,360.800 398.139 C 360.800 397.883,358.865 396.566,356.500 395.213 C 354.135 393.861,350.850 391.935,349.200 390.933 C 347.550 389.932,344.670 388.299,342.800 387.305 C 340.930 386.310,338.860 385.106,338.200 384.629 C 336.998 383.761,331.681 380.708,326.800 378.084 C 325.370 377.316,324.110 376.566,324.000 376.419 C 323.767 376.107,318.987 373.200,318.707 373.200 C 318.604 373.200,316.795 372.210,314.688 371.000 C 312.582 369.790,310.687 368.800,310.478 368.800 C 310.269 368.800,309.870 368.526,309.592 368.190 C 309.314 367.855,307.267 366.565,305.043 365.323 C 302.819 364.081,298.030 361.324,294.400 359.196 C 290.770 357.069,286.360 354.553,284.600 353.606 C 282.840 352.659,281.301 351.733,281.180 351.548 C 280.974 351.233,279.309 350.287,271.400 345.990 C 269.640 345.034,267.660 343.857,267.000 343.373 C 266.048 342.676,259.567 338.975,253.800 335.836 C 253.360 335.596,252.910 335.283,252.800 335.139 C 252.565 334.832,244.936 330.400,244.643 330.400 C 244.366 330.400,239.447 327.524,239.200 327.218 C 238.964 326.925,232.670 323.353,228.400 321.088 C 226.750 320.213,225.040 319.184,224.600 318.803 C 224.160 318.422,222.810 317.575,221.600 316.921 C 220.390 316.268,217.921 314.893,216.114 313.867 C 214.307 312.840,212.675 312.000,212.489 312.000 C 212.303 312.000,211.769 311.644,211.302 311.209 C 210.835 310.774,207.516 308.776,203.926 306.770 C 200.337 304.763,196.265 302.410,194.877 301.540 C 193.489 300.670,190.339 298.866,187.877 297.531 C 185.415 296.197,183.040 294.794,182.600 294.415 C 182.160 294.035,180.450 292.998,178.800 292.109 C 171.838 288.358,168.188 286.298,168.000 286.014 C 167.812 285.730,158.012 280.157,155.400 278.849 C 154.740 278.518,153.982 278.032,153.715 277.768 C 152.948 277.008,146.894 273.600,146.311 273.600 C 146.021 273.600,145.187 274.688,144.456 276.017 M106.554 297.700 C 106.188 298.415,105.760 299.090,105.604 299.200 C 104.383 300.059,104.232 302.800,105.407 302.800 C 105.711 302.800,106.734 303.317,107.680 303.948 C 108.626 304.580,110.578 305.727,112.018 306.499 C 116.278 308.780,119.386 310.543,119.600 310.798 C 119.818 311.058,127.317 315.366,131.800 317.807 C 133.340 318.645,134.695 319.473,134.812 319.647 C 134.929 319.821,137.809 321.485,141.212 323.346 C 144.615 325.207,147.860 327.089,148.421 327.530 C 148.983 327.970,151.434 329.417,153.869 330.746 C 156.304 332.075,159.174 333.702,160.248 334.362 C 162.174 335.547,167.155 338.410,173.400 341.921 C 175.160 342.911,176.690 343.835,176.800 343.975 C 177.021 344.256,182.922 347.621,187.582 350.121 C 189.222 351.002,190.877 352.010,191.260 352.361 C 191.643 352.712,192.821 353.447,193.878 353.993 C 194.935 354.539,197.455 355.934,199.479 357.093 C 201.502 358.252,203.313 359.200,203.503 359.200 C 203.694 359.200,204.200 359.527,204.629 359.927 C 205.393 360.639,210.938 364.000,211.348 364.000 C 211.463 364.000,214.311 365.643,217.678 367.651 C 221.045 369.659,225.780 372.377,228.200 373.690 C 230.620 375.004,232.690 376.218,232.800 376.389 C 232.992 376.687,237.077 379.027,243.767 382.672 C 245.509 383.621,247.219 384.647,247.567 384.951 C 248.169 385.477,258.062 391.089,260.600 392.344 C 261.260 392.670,261.890 393.069,262.000 393.229 C 262.224 393.557,268.307 397.200,268.630 397.200 C 268.912 397.200,275.349 400.894,275.600 401.200 C 275.860 401.517,281.425 404.700,285.449 406.833 C 287.182 407.752,289.140 408.899,289.800 409.382 C 290.978 410.244,295.956 413.098,301.163 415.896 C 302.613 416.676,303.890 417.434,304.000 417.581 C 304.246 417.910,309.021 420.800,309.320 420.800 C 309.438 420.800,311.365 421.880,313.602 423.201 C 319.230 426.524,319.128 426.517,320.700 423.638 C 322.391 420.541,322.411 420.617,319.500 419.162 C 318.125 418.475,316.640 417.599,316.200 417.214 C 315.561 416.656,310.068 413.515,302.600 409.437 C 302.160 409.197,301.710 408.883,301.600 408.739 C 301.365 408.433,294.430 404.400,294.138 404.400 C 293.863 404.400,288.246 401.126,288.000 400.821 C 287.732 400.491,277.672 394.800,277.356 394.800 C 277.219 394.800,275.913 394.023,274.454 393.073 C 271.005 390.828,261.826 385.600,261.333 385.600 C 261.123 385.600,260.600 385.273,260.171 384.873 C 259.402 384.157,253.861 380.800,253.447 380.800 C 253.330 380.800,250.481 379.155,247.117 377.144 C 243.753 375.133,239.200 372.508,237.000 371.310 C 234.800 370.112,232.100 368.539,231.000 367.814 C 229.900 367.090,227.051 365.440,224.668 364.149 C 222.285 362.857,219.405 361.195,218.268 360.455 C 216.207 359.114,206.479 353.583,204.200 352.456 C 203.540 352.130,202.910 351.731,202.800 351.571 C 202.580 351.249,196.496 347.600,196.179 347.600 C 195.919 347.600,189.458 343.883,189.200 343.585 C 188.937 343.281,179.689 338.000,179.420 338.000 C 179.165 338.000,175.078 335.531,174.800 335.209 C 174.575 334.948,167.509 330.950,163.713 328.935 C 162.345 328.209,160.856 327.297,160.403 326.910 C 159.951 326.522,158.513 325.637,157.209 324.944 C 153.222 322.822,147.508 319.553,145.400 318.187 C 144.300 317.475,141.330 315.766,138.800 314.391 C 136.270 313.016,133.750 311.576,133.200 311.192 C 132.007 310.359,125.864 306.831,121.400 304.416 C 119.640 303.463,118.110 302.547,118.000 302.380 C 117.786 302.055,107.794 296.400,107.434 296.400 C 107.317 296.400,106.921 296.985,106.554 297.700 M65.821 321.166 C 65.277 322.028,64.645 322.849,64.416 322.990 C 63.369 323.637,64.077 324.785,66.300 326.044 C 67.565 326.761,68.690 327.470,68.800 327.620 C 69.005 327.899,81.153 334.800,81.439 334.800 C 81.527 334.800,82.454 335.406,83.499 336.146 C 84.545 336.886,86.930 338.305,88.800 339.298 C 90.670 340.292,93.100 341.651,94.200 342.319 C 98.347 344.837,105.173 348.800,105.361 348.800 C 105.611 348.800,110.467 351.641,111.000 352.099 C 111.220 352.288,114.100 353.948,117.400 355.787 C 120.700 357.627,123.940 359.492,124.600 359.932 C 125.260 360.372,128.770 362.398,132.400 364.435 C 136.030 366.472,139.090 368.260,139.200 368.409 C 139.389 368.664,141.229 369.724,149.800 374.512 C 151.780 375.618,153.670 376.742,154.000 377.009 C 154.330 377.276,157.120 378.888,160.200 380.590 C 163.280 382.292,166.700 384.269,167.800 384.983 C 169.922 386.360,174.645 389.068,179.102 391.463 C 180.586 392.261,181.890 393.038,182.000 393.190 C 182.228 393.505,187.138 396.400,187.444 396.400 C 187.554 396.400,189.327 397.390,191.383 398.600 C 193.439 399.810,195.319 400.800,195.560 400.800 C 195.802 400.800,196.000 400.938,196.000 401.107 C 196.000 401.459,198.784 403.160,203.400 405.629 C 205.160 406.571,207.410 407.838,208.400 408.445 C 209.390 409.052,212.720 410.982,215.800 412.733 C 218.880 414.485,222.435 416.580,223.700 417.389 C 224.965 418.198,228.745 420.369,232.100 422.212 C 235.455 424.056,238.644 425.921,239.187 426.358 C 239.730 426.794,241.710 427.972,243.587 428.977 C 245.464 429.982,248.292 431.568,249.872 432.502 C 252.542 434.080,254.368 435.142,263.732 440.557 C 265.675 441.681,269.515 443.905,272.266 445.501 C 278.982 449.396,278.709 449.365,280.325 446.420 C 281.779 443.773,281.747 443.501,279.875 442.541 C 279.174 442.182,278.510 441.767,278.400 441.618 C 278.200 441.348,273.487 438.662,268.200 435.805 C 266.660 434.972,265.040 433.988,264.600 433.618 C 263.887 433.018,259.352 430.438,252.728 426.866 C 251.478 426.191,250.100 425.335,249.665 424.962 C 249.229 424.590,247.642 423.624,246.137 422.815 C 244.632 422.007,241.942 420.503,240.161 419.473 C 238.379 418.443,236.714 417.600,236.461 417.600 C 236.207 417.600,236.000 417.457,236.000 417.283 C 236.000 416.992,229.128 412.800,228.652 412.800 C 228.538 412.800,225.690 411.153,222.323 409.139 C 218.955 407.126,214.400 404.496,212.200 403.295 C 210.000 402.094,208.110 400.972,208.000 400.802 C 207.890 400.633,204.830 398.868,201.200 396.881 C 197.570 394.895,194.150 392.924,193.600 392.503 C 193.050 392.081,189.954 390.266,186.719 388.468 C 183.485 386.670,180.065 384.683,179.119 384.052 C 178.174 383.421,175.150 381.686,172.400 380.198 C 169.650 378.709,166.862 377.110,166.204 376.645 C 164.724 375.599,155.574 370.400,155.213 370.400 C 155.068 370.400,153.790 369.624,152.374 368.675 C 150.958 367.726,148.810 366.406,147.599 365.743 C 140.358 361.772,138.315 360.597,136.160 359.161 C 135.302 358.589,133.160 357.347,131.400 356.400 C 129.640 355.453,125.950 353.330,123.200 351.681 C 120.450 350.032,116.220 347.604,113.800 346.284 C 111.380 344.965,109.310 343.754,109.200 343.593 C 109.006 343.310,104.749 340.878,98.233 337.328 C 96.491 336.379,94.781 335.353,94.433 335.049 C 93.932 334.612,87.488 330.932,81.800 327.836 C 81.360 327.596,80.910 327.295,80.800 327.167 C 80.597 326.929,77.912 325.365,71.348 321.661 C 66.973 319.191,67.063 319.199,65.821 321.166 M25.823 342.089 C 25.480 342.578,25.200 343.163,25.200 343.389 C 25.199 343.615,24.749 344.323,24.200 344.962 C 23.650 345.601,23.200 346.260,23.200 346.425 C 23.200 346.788,31.355 351.600,31.969 351.600 C 32.206 351.600,32.400 351.742,32.400 351.917 C 32.400 352.091,34.335 353.328,36.700 354.666 C 39.065 356.005,42.260 357.828,43.800 358.719 C 45.340 359.610,49.120 361.778,52.200 363.538 C 55.280 365.299,58.610 367.248,59.600 367.869 C 61.605 369.129,65.232 371.207,70.615 374.181 C 72.587 375.270,74.394 376.351,74.630 376.583 C 74.867 376.814,76.536 377.813,78.338 378.802 C 80.141 379.791,83.997 382.012,86.908 383.739 C 89.819 385.465,94.180 387.960,96.600 389.284 C 99.020 390.608,101.900 392.273,103.000 392.983 C 104.948 394.241,111.579 398.052,115.200 399.995 C 116.190 400.526,117.305 401.239,117.678 401.580 C 118.051 401.921,119.221 402.647,120.278 403.193 C 121.335 403.739,123.855 405.134,125.879 406.293 C 127.902 407.452,129.702 408.400,129.879 408.400 C 130.055 408.401,130.677 408.806,131.261 409.300 C 131.844 409.795,133.965 411.100,135.973 412.200 C 137.981 413.300,142.004 415.614,144.912 417.343 C 147.821 419.071,152.180 421.564,154.600 422.882 C 157.020 424.200,159.274 425.521,159.609 425.819 C 159.944 426.116,163.004 427.883,166.409 429.744 C 169.814 431.606,173.065 433.494,173.633 433.939 C 174.579 434.682,176.848 435.974,185.200 440.528 C 186.850 441.428,188.425 442.385,188.701 442.654 C 188.977 442.924,191.407 444.353,194.101 445.829 C 196.795 447.305,199.900 449.089,201.000 449.794 C 203.171 451.184,210.247 455.213,213.300 456.797 C 214.345 457.340,215.200 457.922,215.200 458.092 C 215.200 458.261,215.387 458.400,215.616 458.400 C 215.845 458.400,216.520 458.734,217.116 459.141 C 218.889 460.354,227.333 465.071,228.229 465.351 C 228.686 465.493,229.418 465.943,229.856 466.352 C 231.185 467.589,236.927 470.800,237.812 470.800 C 238.574 470.800,239.586 469.312,240.876 466.298 C 241.230 465.469,240.578 465.018,233.200 460.987 C 230.450 459.484,228.110 458.131,228.000 457.980 C 227.890 457.830,226.090 456.755,224.000 455.592 C 221.910 454.428,218.796 452.650,217.079 451.638 C 215.363 450.627,212.933 449.198,211.679 448.461 C 210.426 447.725,207.430 446.044,205.021 444.726 C 202.613 443.409,200.183 441.971,199.621 441.533 C 199.060 441.094,196.620 439.639,194.200 438.300 C 186.674 434.135,186.138 433.828,184.548 432.768 C 183.697 432.200,181.740 431.052,180.200 430.216 C 178.660 429.381,176.199 428.000,174.730 427.148 C 173.262 426.297,171.867 425.600,171.630 425.600 C 171.394 425.600,171.200 425.462,171.200 425.293 C 171.200 424.924,168.562 423.333,162.400 419.985 C 159.870 418.610,157.710 417.367,157.600 417.222 C 157.490 417.077,154.790 415.503,151.600 413.723 C 148.410 411.943,144.540 409.684,143.000 408.702 C 141.460 407.721,137.770 405.592,134.800 403.973 C 131.830 402.353,129.206 400.841,128.970 400.612 C 128.733 400.383,127.064 399.387,125.262 398.398 C 123.459 397.409,119.603 395.188,116.692 393.461 C 113.781 391.735,109.420 389.240,107.000 387.916 C 104.580 386.592,102.063 385.125,101.406 384.655 C 100.283 383.850,95.904 381.337,90.000 378.108 C 88.570 377.327,87.310 376.562,87.200 376.410 C 86.997 376.129,82.079 373.200,81.810 373.200 C 81.729 373.200,79.949 372.210,77.853 371.000 C 75.757 369.790,73.909 368.800,73.747 368.800 C 73.585 368.800,73.080 368.456,72.626 368.035 C 72.172 367.615,69.010 365.715,65.600 363.814 C 62.190 361.913,58.050 359.538,56.400 358.537 C 54.750 357.535,51.420 355.635,49.000 354.314 C 46.580 352.992,44.510 351.772,44.400 351.602 C 44.290 351.432,43.210 350.754,42.000 350.097 C 35.977 346.823,30.955 343.998,30.569 343.666 C 29.962 343.146,26.854 341.200,26.631 341.200 C 26.529 341.200,26.165 341.600,25.823 342.089 " stroke="none" fill="#3cb4f4" fill-rule="evenodd"></path><path id="path1" d="" stroke="none" fill="#40b4f4" fill-rule="evenodd"></path><path id="path2" d="" stroke="none" fill="#40b4f4" fill-rule="evenodd"></path><path id="path3" d="" stroke="none" fill="#40b4f4" fill-rule="evenodd"></path><path id="path4" d="" stroke="none" fill="#40b4f4" fill-rule="evenodd"></path></g></svg>