<svg id="svg" version="1.1" width="400" height="146.79016288725646" viewBox="0 0 400 146.79016288725646" xmlns="http://www.w3.org/2000/svg" xmlns:xlink="http://www.w3.org/1999/xlink" ><g id="svgg"><path id="path0" d="M71.167 37.583 L 71.167 75.167 72.083 75.167 L 73.000 75.167 73.000 37.583 L 73.000 0.000 72.083 0.000 L 71.167 0.000 71.167 37.583 M63.667 5.252 C 62.194 6.110,59.543 7.622,59.333 7.724 C 58.936 7.918,58.388 8.248,58.143 8.441 C 58.018 8.539,57.504 8.842,57.000 9.114 C 55.605 9.868,53.261 11.220,53.167 11.324 C 53.121 11.375,52.746 11.590,52.333 11.802 C 51.921 12.013,51.208 12.416,50.750 12.696 C 50.292 12.977,49.429 13.471,48.833 13.794 C 48.237 14.117,47.648 14.462,47.524 14.559 C 47.258 14.768,46.860 14.994,45.833 15.519 C 45.421 15.730,44.783 16.101,44.417 16.343 C 44.050 16.586,43.337 17.009,42.833 17.282 C 42.058 17.703,41.166 18.216,39.697 19.083 C 38.543 19.765,35.249 21.647,34.500 22.052 C 33.996 22.325,33.482 22.628,33.357 22.726 C 33.113 22.918,32.569 23.246,32.167 23.443 C 32.029 23.510,31.279 23.934,30.500 24.384 C 29.721 24.835,28.596 25.468,28.000 25.792 C 27.404 26.116,26.804 26.471,26.667 26.582 C 26.529 26.692,26.304 26.835,26.167 26.898 C 26.029 26.961,25.766 27.104,25.581 27.215 C 25.000 27.565,22.615 28.934,21.833 29.367 C 20.762 29.959,19.212 30.868,18.694 31.206 C 18.450 31.366,18.137 31.549,18.000 31.613 C 17.862 31.678,16.956 32.191,15.985 32.754 C 15.014 33.317,14.114 33.828,13.985 33.890 C 13.856 33.953,13.525 34.153,13.250 34.336 C 12.975 34.518,12.525 34.781,12.250 34.920 C 11.975 35.058,11.637 35.244,11.500 35.333 C 11.109 35.586,7.613 37.589,7.333 37.720 C 7.196 37.784,6.858 37.982,6.583 38.159 C 6.308 38.336,5.896 38.586,5.667 38.713 C 5.438 38.841,4.953 39.115,4.591 39.323 C 0.965 41.395,0.129 41.905,0.061 42.082 C -0.032 42.323,0.633 43.667,0.845 43.667 C 0.986 43.667,5.090 41.366,5.971 40.794 C 6.216 40.634,6.529 40.451,6.667 40.386 C 6.804 40.321,7.554 39.899,8.333 39.449 C 9.112 38.999,10.237 38.365,10.833 38.041 C 11.429 37.717,12.018 37.372,12.143 37.274 C 12.391 37.079,12.942 36.748,13.333 36.559 C 13.471 36.492,14.183 36.088,14.917 35.659 C 15.650 35.231,16.587 34.694,17.000 34.466 C 17.638 34.113,18.899 33.385,19.969 32.750 C 20.124 32.658,21.225 32.021,22.417 31.333 C 23.608 30.646,24.733 29.994,24.917 29.885 C 25.100 29.776,25.475 29.570,25.750 29.427 C 26.025 29.284,26.475 29.018,26.750 28.836 C 27.025 28.653,27.363 28.451,27.500 28.386 C 27.637 28.322,28.537 27.811,29.500 27.250 C 30.462 26.689,31.363 26.176,31.500 26.109 C 31.897 25.915,32.445 25.586,32.691 25.393 C 32.815 25.295,33.404 24.950,34.000 24.627 C 34.596 24.304,35.915 23.555,36.932 22.964 C 37.948 22.373,38.886 21.839,39.015 21.777 C 39.144 21.715,39.550 21.479,39.917 21.253 C 40.647 20.802,43.106 19.388,43.808 19.016 C 44.051 18.887,44.288 18.737,44.333 18.683 C 44.379 18.628,44.717 18.433,45.083 18.250 C 45.450 18.067,46.050 17.721,46.417 17.482 C 46.783 17.243,47.683 16.724,48.417 16.330 C 49.150 15.935,50.050 15.421,50.417 15.189 C 50.783 14.956,51.308 14.641,51.583 14.490 C 51.858 14.338,52.421 14.020,52.833 13.783 C 53.246 13.546,53.771 13.248,54.000 13.120 C 55.278 12.408,57.445 11.138,57.973 10.794 C 58.217 10.634,58.529 10.451,58.667 10.386 C 58.804 10.321,59.554 9.899,60.333 9.449 C 61.112 8.999,62.237 8.363,62.833 8.037 C 65.325 6.672,65.413 6.575,64.833 5.833 C 64.654 5.604,64.506 5.323,64.504 5.208 C 64.499 4.935,64.183 4.951,63.667 5.252 M83.167 44.000 L 83.167 81.667 84.167 81.667 L 85.167 81.667 85.167 44.000 L 85.167 6.333 84.167 6.333 L 83.167 6.333 83.167 44.000 M95.167 50.667 L 95.167 88.333 96.083 88.333 L 97.000 88.333 97.000 50.667 L 97.000 13.000 96.083 13.000 L 95.167 13.000 95.167 50.667 M62.833 20.245 C 62.146 20.646,61.508 21.037,61.417 21.112 C 61.325 21.188,60.887 21.438,60.444 21.667 C 59.422 22.195,59.091 22.386,58.809 22.608 C 58.685 22.706,57.983 23.109,57.250 23.504 C 56.517 23.899,55.617 24.413,55.250 24.648 C 54.883 24.882,54.246 25.250,53.833 25.465 C 52.821 25.993,52.412 26.229,52.143 26.441 C 52.018 26.539,51.504 26.842,51.000 27.116 C 49.896 27.715,48.303 28.642,47.694 29.040 C 47.450 29.199,47.137 29.383,47.000 29.448 C 46.862 29.513,46.112 29.934,45.333 30.384 C 44.554 30.835,43.429 31.469,42.833 31.793 C 42.237 32.117,41.427 32.596,41.033 32.858 C 40.639 33.119,40.285 33.333,40.247 33.333 C 40.208 33.333,39.556 33.698,38.797 34.143 C 38.038 34.589,37.079 35.140,36.667 35.367 C 35.848 35.820,34.231 36.755,33.833 37.006 C 33.134 37.448,30.978 38.667,30.896 38.667 C 30.844 38.667,30.602 38.807,30.359 38.978 C 30.116 39.149,29.392 39.572,28.750 39.918 C 28.108 40.264,27.471 40.638,27.333 40.748 C 27.196 40.859,26.971 41.001,26.833 41.065 C 26.696 41.128,26.431 41.271,26.246 41.382 C 26.060 41.493,25.122 42.033,24.162 42.582 C 23.202 43.131,22.267 43.672,22.083 43.783 C 21.900 43.895,21.564 44.069,21.337 44.170 C 21.109 44.271,20.884 44.407,20.837 44.472 C 20.789 44.537,20.563 44.682,20.333 44.794 C 20.104 44.906,19.804 45.074,19.667 45.167 C 19.339 45.388,15.823 47.402,15.500 47.553 C 15.362 47.618,15.025 47.817,14.750 47.997 C 14.475 48.176,14.025 48.440,13.750 48.582 C 13.475 48.725,13.100 48.934,12.917 49.046 C 12.733 49.158,11.608 49.813,10.417 50.500 C 9.225 51.188,8.100 51.841,7.917 51.952 C 7.733 52.063,7.471 52.205,7.333 52.269 C 7.196 52.332,6.971 52.474,6.833 52.585 C 6.696 52.696,6.058 53.069,5.417 53.415 C 4.219 54.061,1.613 55.546,1.167 55.838 C 1.029 55.927,0.755 56.071,0.558 56.157 C -0.020 56.408,-0.058 56.645,0.358 57.428 C 0.845 58.347,0.913 58.340,2.750 57.173 C 3.025 56.998,3.587 56.685,4.000 56.476 C 4.412 56.268,5.050 55.899,5.417 55.656 C 5.783 55.413,6.683 54.891,7.417 54.496 C 8.150 54.102,9.050 53.589,9.417 53.357 C 9.783 53.126,10.421 52.751,10.833 52.526 C 12.029 51.872,12.375 51.675,13.083 51.245 C 13.874 50.765,16.348 49.348,16.975 49.016 C 17.218 48.887,17.442 48.718,17.472 48.641 C 17.503 48.563,17.605 48.500,17.699 48.500 C 17.793 48.500,18.481 48.134,19.227 47.687 C 19.973 47.239,21.108 46.589,21.750 46.242 C 22.392 45.894,23.217 45.421,23.583 45.190 C 23.950 44.958,24.553 44.607,24.923 44.408 C 25.956 43.854,26.394 43.600,26.667 43.399 C 26.804 43.297,27.404 42.950,28.000 42.627 C 28.596 42.304,29.458 41.807,29.917 41.523 C 30.375 41.239,30.936 40.925,31.163 40.826 C 31.391 40.727,31.616 40.593,31.663 40.528 C 31.711 40.463,31.938 40.320,32.167 40.211 C 32.684 39.964,34.358 39.013,34.583 38.838 C 34.675 38.766,35.275 38.425,35.917 38.080 C 36.558 37.734,37.185 37.372,37.309 37.274 C 37.593 37.051,38.144 36.729,38.599 36.521 C 38.792 36.433,39.429 36.068,40.016 35.710 C 40.603 35.352,41.496 34.833,42.000 34.556 C 42.801 34.117,44.271 33.269,45.136 32.747 C 45.290 32.654,46.790 31.791,48.469 30.830 C 50.148 29.870,51.723 28.953,51.969 28.794 C 52.215 28.634,52.529 28.451,52.667 28.386 C 52.804 28.321,53.554 27.899,54.333 27.449 C 55.112 26.999,56.237 26.365,56.833 26.041 C 57.429 25.717,58.018 25.372,58.143 25.274 C 58.400 25.072,58.963 24.736,59.333 24.563 C 59.471 24.499,60.108 24.134,60.750 23.751 C 61.392 23.369,62.404 22.789,63.000 22.463 C 65.494 21.097,65.398 21.221,64.792 20.159 C 64.331 19.353,64.363 19.352,62.833 20.245 M107.500 57.917 L 107.500 95.683 108.458 95.633 L 109.417 95.583 109.417 57.917 L 109.417 20.250 108.458 20.200 L 107.500 20.150 107.500 57.917 M136.500 48.989 L 136.500 72.500 141.333 72.500 L 146.167 72.500 146.167 66.250 L 146.167 60.000 155.436 60.000 C 166.112 60.000,168.269 59.803,171.131 58.569 C 171.432 58.440,171.774 58.333,171.892 58.333 C 172.086 58.333,173.976 57.416,175.000 56.824 C 184.299 51.453,185.071 35.974,176.373 29.290 C 176.166 29.130,175.966 29.000,175.929 29.000 C 175.893 29.000,175.464 28.738,174.977 28.417 C 174.490 28.096,174.002 27.833,173.892 27.833 C 173.783 27.833,173.481 27.727,173.222 27.597 C 172.017 26.992,169.845 26.347,167.500 25.897 C 166.058 25.620,164.601 25.588,151.208 25.535 L 136.500 25.477 136.500 48.989 M191.333 49.000 L 191.333 72.500 196.250 72.500 L 201.167 72.500 201.167 49.000 L 201.167 25.500 196.250 25.500 L 191.333 25.500 191.333 49.000 M213.000 49.000 L 213.000 72.500 233.333 72.500 L 253.667 72.500 253.667 68.167 L 253.667 63.833 238.167 63.833 L 222.667 63.833 222.667 57.500 L 222.667 51.167 236.083 51.167 L 249.500 51.167 249.500 47.167 L 249.500 43.167 236.083 43.167 L 222.667 43.167 222.667 38.583 L 222.667 34.000 237.833 34.000 L 253.000 34.000 253.000 29.750 L 253.000 25.500 233.000 25.500 L 213.000 25.500 213.000 49.000 M264.000 49.000 L 264.000 72.500 284.333 72.500 L 304.667 72.500 304.667 68.167 L 304.667 63.833 289.167 63.833 L 273.667 63.833 273.667 57.500 L 273.667 51.167 287.083 51.167 L 300.500 51.167 300.500 47.167 L 300.500 43.167 287.083 43.167 L 273.667 43.167 273.667 38.583 L 273.667 34.000 288.833 34.000 L 304.000 34.000 304.000 29.750 L 304.000 25.500 284.000 25.500 L 264.000 25.500 264.000 49.000 M119.333 65.167 L 119.333 102.833 120.333 102.833 L 121.333 102.833 121.333 65.167 L 121.333 27.500 120.333 27.500 L 119.333 27.500 119.333 65.167 M62.667 33.507 C 61.887 33.963,61.137 34.407,61.000 34.494 C 60.539 34.785,58.925 35.715,58.000 36.223 C 57.496 36.500,56.533 37.050,55.861 37.446 C 55.189 37.842,54.612 38.167,54.578 38.167 C 54.544 38.167,54.194 38.381,53.800 38.643 C 53.406 38.905,52.483 39.440,51.750 39.832 C 51.017 40.224,50.298 40.648,50.154 40.773 C 50.009 40.898,49.843 41.000,49.785 41.000 C 49.727 41.000,48.683 41.586,47.465 42.302 C 46.247 43.018,44.688 43.921,44.000 44.310 C 43.313 44.699,42.525 45.162,42.250 45.339 C 41.975 45.517,41.600 45.730,41.417 45.812 C 41.233 45.895,40.503 46.307,39.793 46.728 C 39.084 47.148,37.996 47.767,37.377 48.104 C 36.757 48.440,36.148 48.795,36.024 48.893 C 35.778 49.086,35.230 49.415,34.833 49.609 C 34.696 49.676,33.773 50.204,32.782 50.782 C 31.791 51.360,30.944 51.833,30.899 51.833 C 30.854 51.833,30.427 52.082,29.950 52.385 C 29.473 52.689,28.971 52.992,28.833 53.058 C 28.696 53.125,28.433 53.271,28.249 53.382 C 27.423 53.880,23.829 55.937,23.000 56.385 C 22.496 56.658,21.982 56.961,21.857 57.059 C 21.612 57.252,21.064 57.582,20.667 57.776 C 20.529 57.843,19.606 58.371,18.615 58.949 C 17.625 59.527,16.777 60.000,16.732 60.000 C 16.687 60.000,16.261 60.248,15.784 60.552 C 15.307 60.855,14.804 61.158,14.667 61.225 C 14.529 61.292,14.267 61.437,14.083 61.548 C 13.900 61.659,12.775 62.313,11.583 63.000 C 10.392 63.688,9.267 64.341,9.083 64.452 C 8.900 64.563,8.637 64.708,8.500 64.775 C 8.362 64.842,7.860 65.145,7.383 65.448 C 6.906 65.752,6.479 66.000,6.434 66.000 C 6.388 66.000,5.534 66.475,4.536 67.055 C 3.537 67.636,2.614 68.161,2.485 68.224 C 2.356 68.286,2.025 68.484,1.750 68.664 C 1.475 68.844,0.969 69.144,0.625 69.332 C -0.111 69.734,-0.107 69.716,0.374 70.625 C 0.763 71.359,1.143 71.514,1.500 71.083 C 1.614 70.946,1.771 70.833,1.849 70.833 C 1.926 70.833,2.611 70.469,3.370 70.023 C 4.129 69.578,5.087 69.027,5.500 68.799 C 6.319 68.347,7.935 67.412,8.333 67.160 C 9.033 66.719,11.189 65.500,11.271 65.500 C 11.323 65.500,11.564 65.360,11.808 65.189 C 12.051 65.018,12.775 64.595,13.417 64.248 C 14.058 63.902,14.685 63.538,14.809 63.441 C 15.056 63.247,15.604 62.917,16.000 62.725 C 16.137 62.658,17.044 62.143,18.015 61.580 C 18.986 61.017,19.886 60.505,20.015 60.443 C 20.144 60.381,20.475 60.183,20.750 60.003 C 21.025 59.824,21.475 59.564,21.750 59.425 C 22.025 59.287,22.363 59.096,22.500 59.002 C 22.817 58.785,26.332 56.770,26.667 56.613 C 26.804 56.549,27.142 56.351,27.417 56.174 C 27.692 55.997,28.104 55.747,28.333 55.619 C 28.563 55.490,29.837 54.761,31.167 53.997 C 32.496 53.234,33.771 52.505,34.000 52.379 C 34.229 52.252,34.642 52.006,34.917 51.833 C 35.192 51.660,35.604 51.414,35.833 51.286 C 37.337 50.448,38.071 50.030,39.250 49.341 C 39.983 48.912,40.696 48.510,40.833 48.446 C 40.971 48.382,41.308 48.185,41.583 48.008 C 41.858 47.830,42.271 47.581,42.500 47.453 C 42.729 47.326,43.217 47.050,43.583 46.841 C 46.366 45.252,46.927 44.924,47.000 44.842 C 47.046 44.791,47.421 44.578,47.833 44.369 C 48.599 43.980,48.929 43.790,49.666 43.314 C 49.896 43.166,50.608 42.761,51.250 42.414 C 51.892 42.068,52.739 41.570,53.133 41.309 C 53.528 41.047,53.880 40.833,53.918 40.833 C 53.955 40.833,54.349 40.619,54.793 40.357 C 55.237 40.095,55.934 39.693,56.342 39.464 C 58.064 38.496,59.866 37.456,60.333 37.160 C 60.949 36.772,63.184 35.500,63.252 35.500 C 63.293 35.500,63.741 35.235,64.247 34.912 C 65.250 34.270,65.369 33.951,64.833 33.333 C 64.650 33.122,64.500 32.885,64.500 32.808 C 64.500 32.525,64.055 32.695,62.667 33.507 M164.417 34.150 C 165.925 34.420,167.364 34.858,167.859 35.197 C 168.102 35.364,168.371 35.500,168.456 35.500 C 168.708 35.500,170.638 37.317,170.901 37.802 C 173.321 42.270,172.191 47.713,168.381 49.946 C 165.869 51.419,163.709 51.667,153.393 51.667 L 146.167 51.667 146.167 42.734 L 146.167 33.801 154.792 33.886 C 159.807 33.935,163.835 34.046,164.417 34.150 M63.333 47.691 C 61.983 48.418,61.310 48.804,60.750 49.170 C 60.475 49.349,60.144 49.547,60.015 49.610 C 59.886 49.672,58.963 50.198,57.964 50.778 C 56.966 51.358,56.112 51.833,56.066 51.833 C 56.021 51.833,55.594 52.082,55.117 52.385 C 54.640 52.689,54.137 52.992,54.000 53.058 C 53.862 53.125,53.600 53.271,53.417 53.382 C 53.233 53.493,52.108 54.146,50.917 54.833 C 49.725 55.521,48.600 56.174,48.417 56.285 C 48.233 56.396,47.971 56.539,47.833 56.602 C 47.696 56.665,47.471 56.808,47.333 56.918 C 47.196 57.029,46.558 57.403,45.917 57.748 C 45.275 58.094,44.129 58.743,43.370 59.189 C 42.611 59.635,41.958 60.000,41.920 60.000 C 41.881 60.000,41.528 60.214,41.133 60.475 C 40.739 60.737,39.929 61.216,39.333 61.539 C 38.737 61.862,37.875 62.361,37.417 62.646 C 36.958 62.931,36.377 63.247,36.125 63.349 C 35.873 63.450,35.667 63.600,35.667 63.683 C 35.667 63.766,35.598 63.833,35.513 63.833 C 35.429 63.833,34.697 64.217,33.888 64.685 C 33.079 65.153,31.929 65.802,31.333 66.126 C 30.738 66.450,30.148 66.795,30.024 66.893 C 29.776 67.087,29.224 67.419,28.833 67.608 C 28.696 67.674,27.983 68.079,27.250 68.508 C 26.517 68.936,25.579 69.473,25.167 69.701 C 24.529 70.053,23.268 70.782,22.198 71.417 C 22.043 71.508,20.942 72.146,19.750 72.833 C 18.558 73.521,17.433 74.174,17.250 74.285 C 17.067 74.396,16.804 74.540,16.667 74.604 C 16.529 74.668,16.229 74.849,16.000 75.005 C 15.771 75.161,15.058 75.574,14.417 75.923 C 13.775 76.271,12.950 76.748,12.583 76.982 C 12.217 77.216,11.579 77.583,11.167 77.798 C 10.155 78.326,9.745 78.563,9.476 78.774 C 9.352 78.872,8.837 79.176,8.333 79.449 C 7.415 79.947,5.803 80.875,5.333 81.175 C 4.679 81.593,0.530 83.953,0.282 84.048 C -0.108 84.198,-0.070 84.746,0.374 85.382 C 0.580 85.676,0.761 85.941,0.775 85.970 C 0.799 86.019,1.860 85.468,2.481 85.083 C 2.629 84.992,3.725 84.354,4.917 83.667 C 6.108 82.979,7.233 82.326,7.417 82.215 C 7.600 82.104,7.862 81.958,8.000 81.892 C 8.137 81.825,8.640 81.522,9.117 81.218 C 9.594 80.915,10.021 80.667,10.066 80.667 C 10.111 80.667,10.958 80.194,11.949 79.615 C 12.939 79.037,13.862 78.511,14.000 78.447 C 14.137 78.382,14.475 78.185,14.750 78.008 C 15.025 77.830,15.438 77.581,15.667 77.453 C 16.925 76.752,19.110 75.473,19.640 75.127 C 19.884 74.967,20.196 74.784,20.333 74.719 C 20.471 74.654,21.221 74.233,22.000 73.782 C 22.779 73.332,23.904 72.698,24.500 72.374 C 25.096 72.050,25.906 71.570,26.300 71.309 C 26.694 71.047,27.046 70.833,27.082 70.833 C 27.118 70.833,27.958 70.360,28.949 69.782 C 29.939 69.204,30.863 68.678,31.000 68.614 C 31.137 68.549,31.475 68.350,31.750 68.170 C 32.025 67.991,32.475 67.727,32.750 67.584 C 33.025 67.441,33.400 67.233,33.583 67.121 C 33.767 67.008,34.892 66.354,36.083 65.667 C 37.275 64.979,38.400 64.326,38.583 64.215 C 38.767 64.104,39.029 63.960,39.167 63.896 C 39.304 63.832,39.604 63.651,39.833 63.495 C 40.063 63.339,40.775 62.926,41.417 62.577 C 42.058 62.229,42.883 61.752,43.250 61.518 C 43.617 61.284,44.254 60.919,44.667 60.706 C 45.079 60.494,45.642 60.177,45.917 60.003 C 46.192 59.828,46.604 59.581,46.833 59.453 C 47.728 58.955,50.107 57.575,50.500 57.327 C 51.200 56.885,53.355 55.667,53.437 55.667 C 53.489 55.667,53.731 55.527,53.974 55.356 C 54.218 55.185,54.942 54.761,55.583 54.414 C 56.225 54.068,57.073 53.570,57.467 53.309 C 57.861 53.047,58.215 52.833,58.254 52.833 C 58.292 52.833,58.870 52.511,59.537 52.117 C 60.204 51.723,60.862 51.349,61.000 51.287 C 61.137 51.225,61.550 50.985,61.917 50.755 C 62.283 50.525,62.733 50.260,62.917 50.167 C 63.100 50.073,63.550 49.807,63.917 49.574 C 64.283 49.342,64.715 49.109,64.875 49.057 C 65.257 48.932,65.244 48.643,64.833 48.121 C 64.650 47.888,64.500 47.620,64.500 47.525 C 64.500 47.172,64.224 47.211,63.333 47.691 M62.083 61.006 C 60.983 61.643,59.971 62.241,59.833 62.335 C 59.696 62.428,59.377 62.586,59.125 62.685 C 58.873 62.785,58.667 62.926,58.667 63.000 C 58.667 63.074,58.460 63.215,58.208 63.315 C 57.956 63.414,57.637 63.570,57.500 63.662 C 57.153 63.893,53.640 65.910,53.333 66.053 C 53.196 66.118,52.858 66.320,52.583 66.502 C 52.308 66.685,51.858 66.951,51.583 67.094 C 51.308 67.236,50.933 67.443,50.750 67.552 C 50.567 67.661,49.442 68.313,48.250 69.000 C 47.058 69.688,45.933 70.341,45.750 70.452 C 45.567 70.563,45.304 70.706,45.167 70.771 C 45.029 70.835,44.729 71.015,44.500 71.171 C 44.271 71.328,43.558 71.739,42.917 72.085 C 42.275 72.432,41.648 72.795,41.524 72.893 C 41.240 73.116,40.689 73.437,40.234 73.646 C 40.042 73.734,39.404 74.099,38.817 74.457 C 38.230 74.815,37.337 75.334,36.833 75.610 C 36.055 76.037,35.265 76.492,33.696 77.417 C 32.915 77.876,30.661 79.167,30.000 79.533 C 28.929 80.126,27.379 81.034,26.860 81.373 C 26.616 81.533,26.304 81.716,26.167 81.781 C 26.029 81.846,25.279 82.267,24.500 82.718 C 23.721 83.168,22.596 83.801,22.000 84.125 C 21.404 84.449,20.804 84.804,20.667 84.915 C 20.529 85.026,20.304 85.168,20.167 85.231 C 20.029 85.295,19.767 85.438,19.583 85.550 C 19.400 85.661,18.464 86.202,17.504 86.751 C 16.544 87.301,15.630 87.825,15.471 87.917 C 15.313 88.008,14.786 88.298,14.300 88.560 C 13.814 88.823,13.298 89.141,13.154 89.269 C 13.009 89.396,12.849 89.500,12.798 89.500 C 12.748 89.500,11.699 90.086,10.468 90.803 C 9.237 91.520,8.122 92.158,7.990 92.222 C 7.858 92.285,7.525 92.486,7.250 92.669 C 6.975 92.851,6.525 93.114,6.250 93.253 C 5.975 93.392,5.638 93.578,5.500 93.667 C 5.362 93.756,4.387 94.318,3.333 94.917 C 2.279 95.515,1.304 96.079,1.167 96.170 C 1.029 96.260,0.746 96.408,0.537 96.498 C -0.112 96.778,-0.032 97.570,0.754 98.630 C 0.773 98.656,1.455 98.292,2.269 97.820 C 3.084 97.349,4.237 96.698,4.833 96.374 C 5.429 96.050,6.018 95.705,6.143 95.607 C 6.388 95.414,6.936 95.085,7.333 94.891 C 7.471 94.824,8.371 94.311,9.333 93.750 C 10.296 93.189,11.196 92.678,11.333 92.614 C 11.471 92.549,11.808 92.350,12.083 92.170 C 12.358 91.991,12.808 91.727,13.083 91.584 C 13.358 91.441,13.733 91.233,13.917 91.121 C 14.100 91.008,15.225 90.354,16.417 89.667 C 17.608 88.979,18.733 88.326,18.917 88.215 C 19.100 88.104,19.362 87.961,19.500 87.898 C 19.637 87.835,19.862 87.692,20.000 87.581 C 20.137 87.470,20.850 87.056,21.583 86.662 C 22.317 86.268,23.217 85.756,23.583 85.524 C 23.950 85.292,24.587 84.918,25.000 84.692 C 26.105 84.088,26.527 83.849,27.083 83.515 C 27.358 83.349,27.846 83.065,28.167 82.883 C 29.363 82.203,30.710 81.408,31.140 81.127 C 31.384 80.967,31.696 80.784,31.833 80.719 C 31.971 80.654,32.721 80.233,33.500 79.782 C 34.279 79.332,35.404 78.698,36.000 78.374 C 36.596 78.050,37.406 77.570,37.800 77.309 C 38.194 77.047,38.546 76.833,38.582 76.833 C 38.618 76.833,39.458 76.360,40.449 75.782 C 41.439 75.204,42.362 74.678,42.500 74.614 C 42.637 74.549,42.975 74.350,43.250 74.170 C 43.525 73.991,43.975 73.727,44.250 73.584 C 44.525 73.441,44.900 73.233,45.083 73.121 C 45.267 73.008,46.129 72.509,47.000 72.011 C 47.871 71.513,48.621 71.062,48.667 71.011 C 48.712 70.959,49.087 70.745,49.500 70.535 C 50.265 70.146,50.595 69.956,51.333 69.481 C 51.562 69.333,52.275 68.926,52.917 68.577 C 53.558 68.229,54.383 67.754,54.750 67.523 C 55.117 67.292,55.717 66.940,56.083 66.741 C 56.450 66.543,57.012 66.224,57.333 66.032 C 57.654 65.841,58.104 65.580,58.333 65.453 C 59.051 65.054,60.510 64.209,62.138 63.250 C 62.293 63.158,63.038 62.725,63.794 62.287 C 65.291 61.419,65.308 61.396,64.862 60.814 C 64.694 60.596,64.509 60.285,64.450 60.125 C 64.302 59.718,64.313 59.714,62.083 61.006 M55.683 76.505 C 55.258 77.321,55.252 77.433,55.625 77.562 C 55.785 77.617,56.142 77.813,56.417 77.996 C 56.692 78.180,57.029 78.382,57.167 78.447 C 57.304 78.511,58.204 79.023,59.167 79.583 C 60.129 80.144,61.029 80.657,61.167 80.724 C 61.564 80.918,62.112 81.248,62.357 81.441 C 62.482 81.538,63.108 81.902,63.750 82.248 C 64.392 82.595,65.104 82.999,65.334 83.147 C 66.149 83.673,66.420 83.837,66.660 83.949 C 66.794 84.012,67.882 84.634,69.077 85.333 C 70.272 86.032,71.362 86.658,71.500 86.725 C 71.895 86.917,72.444 87.247,72.691 87.441 C 72.815 87.538,73.404 87.883,74.000 88.208 C 74.596 88.532,75.721 89.165,76.500 89.616 C 77.279 90.066,78.029 90.487,78.167 90.552 C 78.304 90.617,78.616 90.801,78.860 90.960 C 79.470 91.358,81.063 92.285,82.167 92.884 C 82.671 93.158,83.185 93.461,83.309 93.559 C 83.555 93.752,84.102 94.082,84.500 94.276 C 84.637 94.343,85.537 94.856,86.500 95.417 C 87.462 95.977,88.362 96.491,88.500 96.558 C 88.897 96.751,89.445 97.081,89.691 97.274 C 89.815 97.372,90.411 97.720,91.016 98.048 C 91.621 98.376,93.143 99.250,94.398 99.989 C 95.653 100.728,96.713 101.333,96.753 101.333 C 96.818 101.333,97.949 102.008,98.921 102.626 C 99.102 102.741,99.362 102.887,99.500 102.949 C 99.638 103.012,100.140 103.311,100.617 103.615 C 101.094 103.918,101.515 104.167,101.554 104.167 C 101.625 104.167,105.215 106.206,105.667 106.503 C 105.804 106.593,106.067 106.743,106.250 106.836 C 106.433 106.928,106.883 107.189,107.250 107.415 C 107.617 107.641,108.517 108.167,109.250 108.584 C 109.983 109.000,110.696 109.415,110.833 109.504 C 111.236 109.766,115.559 112.259,115.833 112.387 C 115.971 112.451,116.308 112.649,116.583 112.826 C 116.858 113.003,117.271 113.253,117.500 113.380 C 119.049 114.245,119.623 114.576,119.912 114.774 C 120.431 115.131,120.605 115.051,121.082 114.237 C 121.592 113.367,121.604 113.389,120.177 112.647 C 119.759 112.430,119.304 112.168,119.167 112.064 C 119.029 111.961,118.579 111.690,118.167 111.462 C 116.830 110.723,114.698 109.496,114.167 109.160 C 113.551 108.772,111.316 107.500,111.248 107.500 C 111.207 107.500,110.778 107.250,110.295 106.945 C 109.812 106.640,109.304 106.339,109.167 106.276 C 109.029 106.214,108.692 106.018,108.417 105.841 C 108.142 105.664,107.729 105.414,107.500 105.286 C 105.882 104.384,105.164 103.969,103.209 102.810 C 101.994 102.089,100.964 101.500,100.920 101.500 C 100.876 101.500,100.443 101.256,99.958 100.958 C 99.472 100.660,98.927 100.326,98.746 100.215 C 98.565 100.103,98.079 99.841,97.667 99.631 C 97.254 99.422,96.879 99.206,96.833 99.151 C 96.787 99.096,95.906 98.571,94.874 97.984 C 93.841 97.397,92.716 96.750,92.374 96.546 C 92.031 96.342,91.600 96.097,91.417 96.002 C 91.233 95.907,90.783 95.641,90.417 95.411 C 90.050 95.181,89.638 94.942,89.500 94.880 C 89.362 94.818,88.704 94.444,88.037 94.050 C 87.370 93.656,86.792 93.333,86.754 93.333 C 86.715 93.333,86.361 93.119,85.967 92.858 C 85.573 92.596,84.725 92.099,84.083 91.752 C 83.442 91.406,82.729 90.994,82.500 90.838 C 82.271 90.682,81.971 90.502,81.833 90.437 C 81.696 90.373,81.433 90.229,81.250 90.118 C 81.067 90.007,79.942 89.354,78.750 88.667 C 77.558 87.979,76.457 87.342,76.302 87.250 C 74.997 86.476,73.942 85.870,73.167 85.449 C 72.662 85.175,71.950 84.756,71.583 84.517 C 71.217 84.279,70.617 83.933,70.250 83.750 C 69.883 83.567,69.546 83.372,69.500 83.317 C 69.454 83.263,68.572 82.738,67.540 82.151 C 66.508 81.564,65.383 80.916,65.040 80.712 C 64.697 80.508,64.267 80.261,64.083 80.163 C 63.900 80.066,63.598 79.895,63.412 79.785 C 63.227 79.674,62.289 79.134,61.329 78.585 C 60.369 78.036,59.458 77.511,59.304 77.418 C 56.193 75.547,56.184 75.545,55.683 76.505 M382.833 80.667 C 382.833 82.500,382.800 84.000,382.759 84.000 C 382.717 84.000,382.474 83.803,382.217 83.563 C 379.442 80.963,375.124 82.638,374.218 86.667 C 373.087 91.696,375.273 95.923,379.000 95.914 C 380.080 95.911,382.000 95.314,382.000 94.981 C 382.000 94.900,382.085 94.833,382.190 94.833 C 382.294 94.833,382.477 94.702,382.596 94.542 C 382.788 94.283,382.825 94.329,382.927 94.958 C 383.043 95.666,383.043 95.667,383.771 95.667 L 384.500 95.667 384.500 86.500 L 384.500 77.333 383.667 77.333 L 382.833 77.333 382.833 80.667 M136.500 86.917 L 136.500 95.667 137.333 95.667 L 138.167 95.667 138.167 92.167 L 138.167 88.667 140.875 88.656 C 146.513 88.634,148.338 87.386,148.330 83.561 C 148.320 79.355,146.351 78.167,139.390 78.167 L 136.500 78.167 136.500 86.917 M280.667 86.917 L 280.667 95.667 281.500 95.667 L 282.333 95.667 282.333 86.917 L 282.333 78.167 281.500 78.167 L 280.667 78.167 280.667 86.917 M267.000 81.000 L 267.000 82.667 265.833 82.667 L 264.667 82.667 264.667 83.333 L 264.667 84.000 265.833 84.000 L 267.000 84.000 267.000 88.761 C 267.000 94.989,267.269 95.702,269.705 95.944 C 271.035 96.076,271.500 95.833,271.500 95.004 L 271.500 94.333 270.430 94.333 C 268.681 94.333,268.667 94.286,268.667 88.605 L 268.667 84.000 270.000 84.000 L 271.333 84.000 271.333 83.333 L 271.333 82.667 270.000 82.667 L 268.667 82.667 268.667 81.000 L 268.667 79.333 267.833 79.333 L 267.000 79.333 267.000 81.000 M300.500 81.000 L 300.500 82.667 299.333 82.667 L 298.167 82.667 298.167 83.333 L 298.167 84.000 299.324 84.000 L 300.482 84.000 300.535 89.042 C 300.582 93.506,300.622 94.144,300.885 94.616 C 301.776 96.214,304.857 96.533,304.968 95.038 L 305.018 94.349 303.893 94.299 C 302.108 94.221,302.097 94.186,302.028 88.542 L 301.972 84.000 303.403 84.000 L 304.833 84.000 304.833 83.333 L 304.833 82.667 303.417 82.667 L 302.000 82.667 302.000 81.000 L 302.000 79.333 301.250 79.333 L 300.500 79.333 300.500 81.000 M355.000 81.000 L 355.000 82.667 353.750 82.667 L 352.500 82.667 352.500 83.333 L 352.500 84.000 353.750 84.000 L 355.000 84.000 355.007 88.625 C 355.018 95.318,355.503 96.342,358.470 95.935 C 359.443 95.802,359.500 95.749,359.500 94.990 L 359.500 94.333 358.442 94.333 C 356.699 94.333,356.759 94.522,356.701 88.816 L 356.652 84.000 357.993 84.000 L 359.333 84.000 359.333 83.333 L 359.333 82.667 358.000 82.667 L 356.667 82.667 356.667 81.000 L 356.667 79.333 355.833 79.333 L 355.000 79.333 355.000 81.000 M144.098 79.943 C 147.460 81.003,147.648 85.558,144.384 86.892 C 143.738 87.156,143.060 87.234,140.875 87.296 L 138.167 87.372 138.167 83.520 L 138.167 79.667 140.694 79.667 C 142.584 79.667,143.442 79.736,144.098 79.943 M154.833 82.603 C 154.402 82.750,153.800 83.149,153.417 83.544 L 152.750 84.231 152.699 83.449 L 152.648 82.667 151.824 82.667 L 151.000 82.667 151.000 89.167 L 151.000 95.667 151.833 95.667 L 152.667 95.667 152.674 91.208 L 152.681 86.750 153.153 85.917 C 153.847 84.692,154.794 84.106,156.208 84.026 L 157.333 83.962 157.333 83.249 C 157.333 82.261,156.488 82.043,154.833 82.603 M162.405 82.636 C 159.897 83.469,158.597 85.330,158.247 88.583 C 157.347 96.967,168.610 98.873,169.819 90.542 C 170.601 85.149,166.857 81.157,162.405 82.636 M176.250 82.482 C 174.994 82.821,173.000 84.187,173.000 84.709 C 173.000 84.809,172.893 85.009,172.763 85.154 C 171.659 86.377,171.644 91.944,172.740 93.156 C 172.883 93.314,173.000 93.524,173.000 93.623 C 173.000 94.083,174.681 95.296,175.830 95.666 C 178.868 96.642,182.500 94.534,182.500 91.795 C 182.500 91.045,180.982 91.480,180.741 92.299 C 180.062 94.609,176.634 95.207,174.830 93.330 C 173.350 91.790,173.072 87.671,174.312 85.667 C 175.963 82.999,180.097 83.479,180.774 86.417 C 180.925 87.071,180.942 87.084,181.737 87.135 L 182.546 87.187 182.432 86.475 C 182.221 85.156,181.277 83.511,180.726 83.503 C 180.621 83.501,180.496 83.397,180.447 83.270 C 180.235 82.717,177.371 82.180,176.250 82.482 M202.167 82.607 C 201.754 82.748,201.146 83.125,200.814 83.444 C 200.170 84.064,200.000 83.986,200.000 83.070 C 200.000 82.703,199.932 82.667,199.250 82.667 L 198.500 82.667 198.500 89.167 L 198.500 95.667 199.333 95.667 L 200.167 95.667 200.167 91.161 C 200.167 86.274,200.206 86.019,201.101 85.052 C 201.736 84.367,202.667 84.000,203.770 84.000 L 204.667 84.000 204.667 83.269 C 204.667 82.274,203.803 82.045,202.167 82.607 M209.741 82.626 C 208.635 83.007,207.274 84.003,206.781 84.788 C 204.771 87.998,205.565 93.504,208.250 94.969 C 210.631 96.268,212.792 96.248,214.817 94.908 C 215.380 94.535,216.280 93.532,216.140 93.435 C 216.109 93.413,215.867 93.231,215.602 93.031 L 215.121 92.666 214.393 93.338 C 211.810 95.719,207.333 93.789,207.333 90.294 L 207.333 89.500 211.858 89.500 L 216.384 89.500 216.281 87.792 C 216.046 83.844,213.054 81.481,209.741 82.626 M222.851 82.669 C 221.993 82.977,221.709 83.161,220.928 83.917 L 220.583 84.250 220.533 83.458 L 220.482 82.667 219.658 82.667 L 218.833 82.667 218.833 89.167 L 218.833 95.667 219.667 95.667 L 220.500 95.667 220.500 91.157 L 220.500 86.647 220.924 85.888 C 221.718 84.465,222.510 84.000,224.135 84.000 C 226.890 84.000,227.167 84.637,227.167 90.989 L 227.167 95.667 227.917 95.667 L 228.667 95.667 228.667 91.280 L 228.667 86.893 229.125 85.988 C 230.030 84.202,232.290 83.428,234.092 84.288 C 235.262 84.846,235.333 85.218,235.333 90.781 L 235.333 95.667 236.173 95.667 L 237.013 95.667 236.965 90.458 C 236.917 85.311,236.912 85.241,236.510 84.454 C 235.233 81.955,231.372 81.644,229.155 83.861 C 228.351 84.664,228.328 84.675,228.182 84.300 C 227.569 82.729,224.929 81.921,222.851 82.669 M243.737 82.640 C 242.065 83.263,241.127 84.134,240.297 85.833 C 239.322 87.831,239.492 91.912,240.603 93.180 C 240.730 93.325,240.833 93.501,240.833 93.571 C 240.833 94.157,242.958 95.501,244.415 95.837 C 247.051 96.447,250.930 94.354,249.611 93.035 L 249.161 92.585 248.789 93.027 C 246.383 95.887,241.333 93.957,241.333 90.177 L 241.333 89.500 245.833 89.500 L 250.333 89.500 250.333 88.341 C 250.333 84.104,247.162 81.363,243.737 82.640 M257.168 82.611 C 256.268 82.926,255.156 83.667,254.786 84.197 C 254.525 84.572,254.517 84.556,254.509 83.625 L 254.500 82.667 253.667 82.667 L 252.833 82.667 252.833 89.167 L 252.833 95.667 253.667 95.667 L 254.500 95.667 254.500 91.264 C 254.500 86.689,254.587 86.067,255.292 85.617 C 255.406 85.543,255.502 85.393,255.504 85.283 C 255.520 84.354,258.729 83.593,259.908 84.238 C 261.002 84.836,261.071 85.198,261.135 90.708 L 261.193 95.667 262.032 95.667 L 262.871 95.667 262.802 90.458 C 262.727 84.786,262.684 84.534,261.601 83.374 C 260.810 82.527,258.529 82.135,257.168 82.611 M290.551 82.657 C 289.631 82.988,288.637 83.665,288.241 84.231 C 288.019 84.547,288.000 84.499,288.000 83.620 L 288.000 82.667 287.167 82.667 L 286.333 82.667 286.333 89.167 L 286.333 95.667 287.167 95.667 L 288.000 95.667 288.000 91.281 C 288.000 86.453,288.043 86.214,289.120 85.083 C 290.264 83.881,292.586 83.536,293.545 84.425 C 294.599 85.403,294.578 85.282,294.638 90.701 L 294.693 95.667 295.513 95.667 L 296.333 95.667 296.333 91.490 C 296.333 84.480,295.967 83.331,293.497 82.598 C 292.349 82.257,291.622 82.271,290.551 82.657 M310.705 82.662 C 304.479 84.902,305.741 95.264,312.321 95.940 C 314.682 96.182,317.880 94.116,316.757 93.075 L 316.293 92.645 315.780 93.169 C 313.371 95.634,309.213 94.330,308.597 90.917 C 308.531 90.550,308.437 90.081,308.387 89.875 L 308.297 89.500 312.918 89.500 L 317.540 89.500 317.422 87.875 C 317.358 86.981,317.199 86.032,317.069 85.766 C 316.939 85.500,316.833 85.190,316.833 85.077 C 316.833 84.964,316.440 84.453,315.958 83.941 C 314.567 82.461,312.596 81.981,310.705 82.662 M322.903 82.659 C 320.400 83.550,319.148 86.688,319.640 90.838 C 320.185 95.440,324.233 97.374,327.899 94.784 L 328.381 94.444 328.294 95.680 C 328.042 99.294,324.518 100.599,321.789 98.089 C 321.105 97.461,320.909 97.463,320.439 98.105 L 320.128 98.530 320.765 99.182 C 321.115 99.540,321.474 99.833,321.562 99.833 C 321.651 99.833,321.842 99.934,321.987 100.058 C 322.872 100.813,325.206 100.974,326.901 100.396 C 327.677 100.132,329.333 98.751,329.333 98.368 C 329.333 98.277,329.482 97.876,329.663 97.477 C 329.975 96.790,329.993 96.364,329.996 89.708 L 330.000 82.667 329.268 82.667 C 328.490 82.667,328.333 82.824,328.333 83.608 L 328.333 84.022 327.625 83.445 C 326.336 82.394,324.505 82.089,322.903 82.659 M337.490 82.491 C 336.783 82.706,336.274 83.016,335.801 83.521 C 335.254 84.104,335.167 84.115,335.167 83.597 C 335.167 82.825,335.008 82.667,334.232 82.667 L 333.500 82.667 333.500 89.167 L 333.500 95.667 334.333 95.667 L 335.167 95.667 335.167 91.311 C 335.167 85.218,335.765 84.000,338.756 84.000 L 339.667 84.000 339.667 83.269 C 339.667 82.356,338.872 82.072,337.490 82.491 M344.177 82.599 C 342.786 82.992,341.257 84.236,341.077 85.121 C 341.035 85.329,340.961 85.688,340.913 85.917 C 340.830 86.317,340.859 86.333,341.663 86.333 C 342.359 86.333,342.500 86.283,342.500 86.032 C 342.500 84.908,343.997 83.952,345.759 83.951 C 348.026 83.949,349.000 84.899,349.000 87.108 L 349.000 88.000 347.208 88.006 C 343.572 88.018,341.685 88.823,340.817 90.734 C 339.233 94.222,343.378 97.187,347.250 95.337 C 347.892 95.030,348.477 94.679,348.550 94.556 C 348.836 94.079,349.167 94.317,349.167 95.000 L 349.167 95.667 350.103 95.667 C 350.999 95.667,351.034 95.651,350.917 95.292 C 350.850 95.085,350.743 92.779,350.679 90.167 C 350.549 84.895,350.506 84.674,349.404 83.604 C 348.310 82.541,345.971 82.091,344.177 82.599 M365.200 82.672 C 364.049 83.080,362.357 84.400,362.339 84.904 C 362.336 84.988,362.218 85.184,362.078 85.339 C 360.783 86.771,360.933 91.541,362.335 93.476 C 364.458 96.407,368.900 96.806,371.130 94.267 C 371.776 93.531,371.776 93.518,371.157 93.029 L 370.667 92.641 370.229 93.161 C 367.858 95.979,362.833 93.812,362.833 89.973 L 362.833 89.505 367.375 89.461 L 371.917 89.417 371.970 88.674 C 372.269 84.476,368.794 81.395,365.200 82.672 M185.044 87.542 C 185.119 92.978,185.230 93.657,186.220 94.707 C 187.687 96.262,191.183 96.316,192.832 94.810 L 193.333 94.352 193.333 95.009 L 193.333 95.667 194.167 95.667 L 195.000 95.667 195.000 89.167 L 195.000 82.667 194.176 82.667 L 193.352 82.667 193.301 87.542 L 193.250 92.417 192.766 93.049 C 191.698 94.445,188.967 94.852,187.786 93.792 C 186.790 92.898,186.667 92.152,186.667 87.053 L 186.667 82.667 185.822 82.667 L 184.977 82.667 185.044 87.542 M44.170 83.375 C 43.416 84.535,43.368 84.769,43.849 84.922 C 44.041 84.983,44.510 85.241,44.891 85.496 C 45.272 85.751,45.958 86.162,46.417 86.408 C 46.875 86.655,47.475 87.002,47.750 87.179 C 48.025 87.356,48.475 87.615,48.750 87.756 C 49.025 87.896,49.475 88.154,49.750 88.329 C 50.276 88.665,50.473 88.777,52.083 89.669 C 52.633 89.974,53.363 90.398,53.705 90.611 C 54.047 90.825,54.362 91.000,54.405 91.000 C 54.448 91.000,54.806 91.214,55.200 91.476 C 55.594 91.738,56.517 92.273,57.250 92.666 C 57.983 93.058,58.696 93.470,58.833 93.581 C 58.971 93.692,59.196 93.835,59.333 93.898 C 59.471 93.961,59.733 94.104,59.917 94.215 C 60.100 94.326,61.225 94.979,62.417 95.667 C 63.608 96.354,64.710 96.992,64.864 97.083 C 66.116 97.826,67.225 98.464,68.000 98.890 C 68.504 99.166,69.397 99.685,69.984 100.043 C 70.571 100.401,71.208 100.766,71.401 100.854 C 71.856 101.063,72.407 101.384,72.691 101.607 C 72.815 101.705,73.442 102.068,74.083 102.415 C 74.725 102.761,75.438 103.172,75.667 103.329 C 75.896 103.485,76.196 103.665,76.333 103.729 C 76.471 103.794,76.733 103.937,76.917 104.048 C 77.100 104.159,78.225 104.813,79.417 105.500 C 80.608 106.188,81.733 106.841,81.917 106.952 C 82.100 107.063,82.362 107.205,82.500 107.269 C 82.637 107.332,82.862 107.475,83.000 107.586 C 83.137 107.697,83.850 108.109,84.583 108.501 C 85.317 108.893,86.239 109.428,86.633 109.690 C 87.028 109.952,87.375 110.167,87.405 110.167 C 87.469 110.167,91.959 112.749,92.333 113.000 C 92.471 113.093,92.696 113.218,92.833 113.278 C 92.971 113.338,93.271 113.515,93.500 113.671 C 93.729 113.828,94.442 114.240,95.083 114.589 C 95.725 114.937,96.775 115.535,97.417 115.918 C 98.058 116.300,98.696 116.666,98.833 116.730 C 99.204 116.903,99.767 117.239,100.024 117.441 C 100.148 117.539,100.662 117.842,101.167 118.116 C 101.943 118.537,102.831 119.047,104.303 119.917 C 108.773 122.557,108.636 122.505,109.125 121.750 C 109.511 121.155,109.623 120.500,109.340 120.500 C 109.252 120.500,108.183 119.913,106.965 119.195 C 104.961 118.015,103.874 117.387,102.667 116.714 C 102.438 116.586,102.025 116.340,101.750 116.167 C 101.475 115.994,101.063 115.747,100.833 115.620 C 100.365 115.358,99.183 114.689,97.925 113.973 C 97.462 113.709,96.971 113.422,96.833 113.334 C 96.696 113.247,95.721 112.676,94.667 112.066 C 93.612 111.457,92.525 110.818,92.250 110.647 C 91.975 110.476,91.638 110.285,91.500 110.223 C 91.362 110.161,90.462 109.645,89.500 109.076 C 86.773 107.465,86.286 107.184,85.750 106.911 C 85.475 106.771,85.025 106.509,84.750 106.330 C 84.475 106.150,84.144 105.953,84.015 105.890 C 83.753 105.764,80.227 103.752,79.833 103.504 C 79.213 103.114,76.445 101.499,75.333 100.880 C 75.104 100.752,74.692 100.503,74.417 100.326 C 74.142 100.149,73.804 99.951,73.667 99.886 C 73.371 99.748,69.863 97.736,69.500 97.497 C 69.362 97.407,69.064 97.253,68.837 97.156 C 68.609 97.059,68.384 96.921,68.337 96.850 C 68.289 96.779,67.837 96.497,67.333 96.222 C 66.579 95.811,63.217 93.888,62.137 93.250 C 60.665 92.380,59.776 91.870,59.000 91.449 C 58.496 91.176,57.982 90.872,57.857 90.774 C 57.622 90.590,57.088 90.266,56.682 90.062 C 56.552 89.997,55.652 89.483,54.682 88.920 C 53.711 88.357,52.804 87.844,52.667 87.780 C 52.529 87.716,52.218 87.533,51.976 87.373 C 51.733 87.214,50.646 86.574,49.559 85.952 C 48.472 85.330,47.471 84.750,47.333 84.662 C 46.932 84.406,44.494 83.000,44.452 83.000 C 44.431 83.000,44.304 83.169,44.170 83.375 M165.934 84.353 C 168.174 85.699,169.013 89.547,167.640 92.181 C 165.867 95.582,161.267 95.006,160.210 91.250 C 158.895 86.576,162.469 82.271,165.934 84.353 M212.949 84.344 C 213.982 85.144,214.406 85.844,214.586 87.044 L 214.705 87.833 211.019 87.833 C 206.827 87.833,207.024 87.918,207.727 86.417 C 208.162 85.486,209.356 84.203,209.897 84.085 C 211.013 83.842,212.460 83.965,212.949 84.344 M246.428 84.090 C 247.303 84.262,248.435 85.815,248.609 87.080 L 248.712 87.833 245.005 87.833 L 241.297 87.833 241.398 87.432 C 242.076 84.731,243.816 83.575,246.428 84.090 M314.000 84.309 C 314.924 84.880,315.833 86.358,315.833 87.290 L 315.833 87.833 312.171 87.833 L 308.508 87.833 308.611 87.292 C 309.109 84.673,312.000 83.073,314.000 84.309 M368.986 84.819 C 369.723 85.537,370.333 86.820,370.333 87.651 C 370.333 87.778,369.194 87.833,366.592 87.833 L 362.851 87.833 363.156 86.958 C 364.204 83.944,367.025 82.909,368.986 84.819 M326.564 84.302 C 328.133 85.143,328.334 85.708,328.332 89.291 C 328.331 92.750,328.175 93.168,326.564 94.032 C 323.089 95.894,319.896 91.275,321.501 86.707 C 322.361 84.261,324.549 83.222,326.564 84.302 M381.128 84.397 C 381.779 84.812,382.274 85.327,382.625 85.956 C 383.033 86.685,382.901 91.954,382.456 92.739 C 381.215 94.926,377.465 94.908,376.360 92.711 C 375.185 90.371,375.458 86.307,376.884 84.917 C 377.973 83.856,379.909 83.619,381.128 84.397 M349.000 90.746 L 349.000 92.159 348.208 92.961 C 346.011 95.189,342.167 94.640,342.167 92.099 C 342.167 90.259,343.825 89.426,347.625 89.358 L 349.000 89.333 349.000 90.746 M32.183 90.593 C 31.697 91.417,31.740 91.748,32.375 92.072 C 32.673 92.224,33.142 92.491,33.417 92.665 C 33.692 92.839,34.104 93.086,34.333 93.214 C 34.802 93.475,35.983 94.144,37.241 94.860 C 37.704 95.124,38.196 95.414,38.333 95.504 C 38.471 95.595,38.771 95.761,39.000 95.873 C 39.229 95.985,39.456 96.130,39.503 96.195 C 39.551 96.259,39.776 96.392,40.003 96.489 C 40.231 96.586,40.562 96.760,40.740 96.875 C 41.441 97.327,42.763 98.116,43.000 98.224 C 43.255 98.340,43.473 98.465,46.083 99.991 C 47.519 100.830,48.600 101.451,49.500 101.953 C 49.729 102.081,50.142 102.327,50.417 102.500 C 50.692 102.673,51.104 102.920,51.333 103.049 C 53.847 104.463,55.125 105.192,55.333 105.328 C 55.471 105.418,56.446 105.990,57.500 106.600 C 58.554 107.210,59.642 107.849,59.917 108.020 C 60.192 108.191,60.529 108.381,60.667 108.444 C 60.804 108.506,61.312 108.806,61.795 109.112 C 62.278 109.417,62.703 109.667,62.739 109.667 C 62.807 109.667,65.211 111.040,65.667 111.338 C 65.804 111.429,66.104 111.594,66.333 111.706 C 66.563 111.818,66.789 111.963,66.837 112.028 C 66.884 112.093,67.109 112.225,67.337 112.323 C 67.564 112.420,67.897 112.593,68.077 112.708 C 68.742 113.132,69.775 113.737,70.667 114.224 C 71.171 114.500,71.782 114.843,72.025 114.987 C 74.268 116.319,75.794 117.207,76.833 117.787 C 77.063 117.914,77.475 118.164,77.750 118.341 C 78.025 118.518,78.362 118.716,78.500 118.780 C 78.637 118.845,79.561 119.371,80.551 119.949 C 81.542 120.527,82.382 121.000,82.418 121.000 C 82.454 121.000,82.806 121.214,83.200 121.475 C 83.594 121.737,84.442 122.234,85.083 122.581 C 85.725 122.928,86.438 123.339,86.667 123.495 C 86.896 123.651,87.196 123.829,87.333 123.891 C 87.471 123.953,87.846 124.160,88.167 124.352 C 89.750 125.300,91.968 126.579,93.833 127.620 C 94.063 127.747,94.475 127.993,94.750 128.164 C 95.387 128.562,96.805 129.333,96.899 129.333 C 96.968 129.333,97.833 127.853,97.833 127.735 C 97.833 127.680,95.315 126.174,94.833 125.941 C 94.442 125.752,93.890 125.421,93.643 125.226 C 93.518 125.128,93.004 124.824,92.500 124.551 C 91.725 124.130,90.674 123.526,89.364 122.750 C 89.210 122.658,88.108 122.021,86.917 121.333 C 85.725 120.646,84.600 119.993,84.417 119.882 C 84.233 119.771,83.971 119.625,83.833 119.558 C 83.696 119.492,83.193 119.189,82.716 118.885 C 82.239 118.582,81.818 118.333,81.780 118.333 C 81.741 118.333,80.894 117.860,79.897 117.282 C 78.899 116.703,77.971 116.178,77.833 116.113 C 77.696 116.049,77.384 115.866,77.140 115.706 C 76.527 115.306,74.932 114.378,73.833 113.783 C 73.329 113.510,72.798 113.185,72.654 113.060 C 72.509 112.935,72.348 112.833,72.297 112.833 C 72.245 112.833,71.201 112.248,69.977 111.532 C 68.752 110.816,67.637 110.175,67.500 110.108 C 67.105 109.917,66.556 109.586,66.309 109.393 C 66.185 109.295,65.578 108.941,64.961 108.606 C 64.344 108.271,63.205 107.623,62.430 107.165 C 61.656 106.708,60.942 106.333,60.844 106.333 C 60.747 106.333,60.667 106.277,60.667 106.208 C 60.667 106.139,60.310 105.897,59.875 105.671 C 59.156 105.296,57.929 104.581,57.079 104.041 C 56.898 103.925,56.637 103.780,56.500 103.717 C 56.362 103.655,55.860 103.355,55.383 103.052 C 54.906 102.748,54.479 102.500,54.434 102.500 C 54.389 102.500,53.542 102.027,52.551 101.449 C 51.561 100.871,50.637 100.345,50.500 100.280 C 50.362 100.216,50.025 100.018,49.750 99.841 C 49.475 99.664,49.063 99.413,48.833 99.284 C 46.410 97.921,45.041 97.142,44.833 97.009 C 44.400 96.731,40.861 94.656,40.378 94.396 C 40.124 94.260,39.692 94.006,39.417 93.833 C 39.142 93.660,38.729 93.414,38.500 93.286 C 38.032 93.025,36.850 92.356,35.592 91.640 C 35.129 91.376,34.637 91.086,34.500 90.996 C 34.362 90.905,34.063 90.739,33.833 90.626 C 33.604 90.513,33.318 90.326,33.196 90.210 C 32.832 89.862,32.552 89.968,32.183 90.593 M20.228 97.128 C 20.124 97.195,19.882 97.531,19.690 97.874 L 19.341 98.497 19.795 98.775 C 20.045 98.927,20.512 99.214,20.833 99.413 C 21.154 99.611,21.529 99.825,21.667 99.889 C 21.804 99.952,22.142 100.152,22.417 100.333 C 22.692 100.515,23.029 100.716,23.167 100.780 C 23.304 100.844,24.233 101.370,25.230 101.948 C 26.227 102.527,27.067 103.000,27.097 103.000 C 27.126 103.000,27.472 103.214,27.867 103.475 C 28.261 103.737,29.071 104.216,29.667 104.539 C 30.262 104.862,31.125 105.357,31.583 105.637 C 32.042 105.918,32.754 106.320,33.167 106.532 C 33.579 106.743,33.954 106.959,34.000 107.011 C 34.046 107.062,34.796 107.513,35.667 108.011 C 36.537 108.509,37.376 108.992,37.531 109.083 C 38.601 109.718,39.862 110.447,40.500 110.799 C 40.912 111.027,41.850 111.564,42.583 111.992 C 43.317 112.421,44.029 112.826,44.167 112.892 C 44.558 113.081,45.109 113.413,45.357 113.607 C 45.482 113.705,46.108 114.068,46.750 114.415 C 47.392 114.761,48.104 115.172,48.333 115.329 C 48.563 115.485,48.862 115.665,49.000 115.729 C 49.137 115.794,49.400 115.937,49.583 116.048 C 49.767 116.159,50.892 116.813,52.083 117.500 C 53.275 118.188,54.400 118.841,54.583 118.952 C 54.767 119.063,55.029 119.205,55.167 119.269 C 55.304 119.332,55.529 119.474,55.667 119.585 C 55.804 119.696,56.442 120.068,57.083 120.413 C 57.725 120.758,58.860 121.406,59.606 121.853 C 60.353 122.301,61.040 122.667,61.134 122.667 C 61.228 122.667,61.331 122.727,61.361 122.801 C 61.392 122.875,62.129 123.344,63.000 123.843 C 63.871 124.342,64.733 124.841,64.917 124.951 C 65.100 125.062,65.400 125.229,65.583 125.323 C 65.767 125.417,66.217 125.683,66.583 125.913 C 66.950 126.143,67.362 126.384,67.500 126.448 C 67.637 126.512,68.537 127.023,69.500 127.583 C 70.462 128.144,71.362 128.657,71.500 128.724 C 71.897 128.918,72.445 129.248,72.691 129.441 C 72.815 129.538,73.411 129.887,74.016 130.215 C 74.621 130.543,76.143 131.416,77.398 132.156 C 78.653 132.895,79.713 133.500,79.753 133.500 C 79.794 133.500,80.222 133.750,80.705 134.055 C 81.188 134.360,81.696 134.661,81.833 134.724 C 81.971 134.786,82.282 134.967,82.526 135.127 C 83.097 135.501,84.526 136.333,84.597 136.333 C 84.628 136.333,84.845 136.006,85.079 135.605 C 85.561 134.784,85.508 134.437,84.862 134.179 C 84.617 134.081,84.117 133.814,83.750 133.587 C 83.383 133.360,82.446 132.817,81.667 132.381 C 80.887 131.945,80.124 131.512,79.970 131.419 C 78.634 130.611,76.378 129.295,75.333 128.713 C 75.104 128.586,74.692 128.340,74.417 128.167 C 74.142 127.994,73.729 127.747,73.500 127.620 C 72.545 127.087,71.384 126.423,70.626 125.976 C 70.182 125.714,69.788 125.500,69.751 125.500 C 69.714 125.500,69.361 125.286,68.967 125.025 C 68.573 124.763,67.725 124.266,67.083 123.919 C 66.442 123.572,65.729 123.161,65.500 123.005 C 65.271 122.849,64.971 122.668,64.833 122.604 C 64.696 122.540,64.433 122.396,64.250 122.285 C 64.067 122.174,62.942 121.521,61.750 120.833 C 60.558 120.146,59.433 119.492,59.250 119.379 C 59.067 119.267,58.692 119.059,58.417 118.916 C 58.142 118.773,57.692 118.509,57.417 118.330 C 57.142 118.150,56.811 117.953,56.682 117.890 C 56.404 117.757,52.863 115.734,52.500 115.502 C 52.247 115.340,48.765 113.313,48.000 112.883 C 47.771 112.754,47.358 112.503,47.083 112.326 C 46.808 112.149,46.471 111.951,46.333 111.886 C 46.196 111.822,45.273 111.296,44.282 110.718 C 43.291 110.140,42.451 109.667,42.415 109.667 C 42.379 109.667,42.028 109.453,41.633 109.191 C 41.239 108.930,40.412 108.442,39.794 108.106 C 39.177 107.771,38.038 107.123,37.264 106.665 C 36.489 106.208,35.782 105.833,35.691 105.833 C 35.601 105.833,35.503 105.774,35.472 105.701 C 35.422 105.580,33.499 104.439,31.000 103.047 C 30.771 102.919,30.358 102.670,30.083 102.492 C 29.808 102.315,29.471 102.118,29.333 102.053 C 29.196 101.989,28.296 101.477,27.333 100.917 C 26.371 100.356,25.471 99.843,25.333 99.776 C 24.936 99.582,24.388 99.252,24.143 99.059 C 24.018 98.962,23.407 98.605,22.784 98.267 C 22.161 97.929,21.411 97.506,21.117 97.327 C 20.519 96.962,20.492 96.956,20.228 97.128 M213.583 100.801 C 212.385 101.046,212.651 102.833,213.886 102.833 C 214.476 102.833,215.000 102.361,215.000 101.828 C 215.000 101.069,214.399 100.634,213.583 100.801 M288.344 100.827 C 287.620 101.005,287.548 102.458,288.251 102.727 C 289.314 103.135,290.262 102.282,289.788 101.345 C 289.559 100.892,288.956 100.676,288.344 100.827 M136.000 109.583 L 136.000 118.333 141.500 118.333 L 147.000 118.333 147.000 117.667 L 147.000 117.000 142.333 117.000 L 137.667 117.000 137.667 113.583 L 137.667 110.167 141.667 110.167 L 145.667 110.167 145.667 109.417 L 145.667 108.667 141.667 108.667 L 137.667 108.667 137.667 105.583 L 137.667 102.500 142.250 102.500 L 146.833 102.500 146.833 101.667 L 146.833 100.833 141.417 100.833 L 136.000 100.833 136.000 109.583 M249.333 109.581 L 249.333 118.333 254.833 118.333 L 260.333 118.333 260.333 117.667 L 260.333 117.000 255.667 117.000 L 251.000 117.000 251.000 113.583 L 251.000 110.167 255.083 110.167 L 259.167 110.167 259.167 109.417 L 259.167 108.667 255.083 108.667 L 251.000 108.667 251.000 105.583 L 251.000 102.500 255.676 102.500 L 260.352 102.500 260.301 101.708 L 260.250 100.917 254.792 100.873 L 249.333 100.829 249.333 109.581 M163.667 103.658 L 163.667 105.333 162.417 105.333 L 161.167 105.333 161.167 106.083 L 161.167 106.833 162.417 106.833 L 163.667 106.833 163.667 111.757 C 163.667 116.398,163.686 116.718,164.010 117.353 C 164.504 118.322,165.783 118.812,167.245 118.593 L 168.000 118.480 168.000 117.781 L 168.000 117.083 167.082 117.141 C 166.245 117.193,166.122 117.154,165.706 116.709 L 165.250 116.221 165.297 111.527 L 165.343 106.833 166.588 106.833 L 167.833 106.833 167.833 106.083 L 167.833 105.333 166.589 105.333 L 165.345 105.333 165.298 103.708 L 165.250 102.083 164.458 102.033 L 163.667 101.982 163.667 103.658 M376.167 103.667 L 376.167 105.333 375.000 105.333 L 373.833 105.333 373.833 106.083 L 373.833 106.833 375.000 106.833 L 376.167 106.833 376.168 111.375 C 376.171 117.399,376.375 118.095,378.266 118.518 C 379.769 118.855,380.571 118.589,380.633 117.732 L 380.684 117.047 379.866 117.126 C 377.972 117.308,377.833 116.908,377.833 111.255 L 377.833 106.833 379.167 106.833 L 380.500 106.833 380.500 106.083 L 380.500 105.333 379.167 105.333 L 377.833 105.333 377.833 103.667 L 377.833 102.000 377.000 102.000 L 376.167 102.000 376.167 103.667 M7.475 104.430 L 7.094 105.194 7.505 105.504 C 7.732 105.675,8.217 105.972,8.583 106.164 C 8.950 106.356,9.398 106.603,9.579 106.715 C 9.760 106.826,10.306 107.160,10.791 107.458 C 11.276 107.756,11.706 108.000,11.747 108.000 C 11.787 108.000,12.817 108.587,14.035 109.305 C 16.039 110.485,17.126 111.113,18.333 111.786 C 18.563 111.914,18.975 112.160,19.250 112.334 C 19.525 112.507,20.087 112.821,20.500 113.032 C 20.912 113.244,21.287 113.460,21.333 113.514 C 21.379 113.568,21.941 113.906,22.582 114.264 C 23.223 114.623,23.872 114.992,24.024 115.083 C 24.773 115.536,28.361 117.605,29.167 118.049 C 29.671 118.327,30.344 118.730,30.664 118.944 C 30.983 119.158,31.298 119.333,31.364 119.333 C 31.429 119.333,31.806 119.547,32.200 119.809 C 32.594 120.071,33.367 120.532,33.917 120.835 C 35.470 121.689,35.714 121.829,36.250 122.174 C 36.525 122.351,36.858 122.548,36.990 122.612 C 37.257 122.739,41.605 125.239,42.000 125.492 C 42.371 125.729,44.730 127.098,45.667 127.620 C 45.896 127.748,46.308 127.997,46.583 128.174 C 46.858 128.351,47.196 128.549,47.333 128.614 C 47.471 128.678,48.371 129.189,49.333 129.750 C 50.296 130.311,51.196 130.822,51.333 130.886 C 51.471 130.951,51.808 131.153,52.083 131.336 C 52.358 131.518,52.808 131.781,53.083 131.920 C 53.358 132.058,53.696 132.246,53.833 132.336 C 54.241 132.605,58.701 135.167,58.761 135.167 C 58.792 135.167,59.139 135.381,59.533 135.643 C 59.927 135.905,60.850 136.440,61.583 136.833 C 62.317 137.225,63.018 137.627,63.143 137.725 C 63.377 137.910,63.910 138.233,64.318 138.438 C 64.448 138.503,65.348 139.017,66.318 139.580 C 67.289 140.143,68.196 140.656,68.333 140.720 C 68.471 140.784,68.808 140.982,69.083 141.160 C 71.857 142.953,72.325 143.061,72.925 142.052 L 73.340 141.353 72.378 140.792 C 71.849 140.483,71.304 140.178,71.167 140.114 C 71.029 140.050,70.692 139.858,70.417 139.689 C 70.142 139.519,69.617 139.212,69.250 139.007 C 68.883 138.801,68.161 138.378,67.645 138.066 C 67.129 137.755,66.664 137.500,66.612 137.500 C 66.559 137.500,66.194 137.286,65.800 137.024 C 65.406 136.762,64.483 136.226,63.750 135.834 C 63.017 135.441,62.315 135.040,62.191 134.942 C 61.956 134.757,61.424 134.434,61.015 134.228 C 60.886 134.164,59.986 133.650,59.015 133.087 C 58.044 132.524,57.137 132.011,57.000 131.947 C 56.862 131.882,56.550 131.699,56.306 131.540 C 55.697 131.142,54.104 130.215,53.000 129.616 C 52.496 129.342,51.982 129.039,51.857 128.941 C 51.612 128.748,51.064 128.418,50.667 128.224 C 50.529 128.157,49.629 127.644,48.667 127.083 C 47.704 126.523,46.804 126.009,46.667 125.942 C 46.270 125.749,45.722 125.419,45.476 125.226 C 45.352 125.128,44.762 124.784,44.167 124.460 C 43.571 124.137,42.230 123.376,41.187 122.769 C 40.144 122.163,39.266 121.667,39.237 121.667 C 39.207 121.667,38.861 121.452,38.467 121.190 C 38.073 120.928,37.150 120.393,36.417 120.000 C 35.683 119.608,34.982 119.206,34.857 119.108 C 34.623 118.923,34.090 118.600,33.682 118.395 C 33.552 118.330,32.652 117.817,31.682 117.254 C 30.711 116.691,29.804 116.178,29.667 116.113 C 29.529 116.049,29.192 115.851,28.917 115.673 C 28.642 115.495,27.854 115.032,27.167 114.643 C 25.543 113.723,19.491 110.208,19.167 109.996 C 19.029 109.906,18.729 109.752,18.500 109.655 C 18.271 109.557,17.971 109.379,17.834 109.260 C 17.696 109.141,17.228 108.848,16.793 108.609 C 16.015 108.182,12.404 106.109,11.751 105.715 C 11.567 105.604,11.304 105.460,11.167 105.396 C 11.029 105.332,10.729 105.152,10.500 104.996 C 9.827 104.540,8.199 103.667,8.021 103.667 C 7.931 103.667,7.685 104.010,7.475 104.430 M154.000 105.270 C 153.302 105.402,152.451 105.884,151.750 106.545 L 151.083 107.173 151.033 106.253 L 150.983 105.333 150.242 105.333 L 149.500 105.333 149.500 111.833 L 149.500 118.333 150.250 118.333 L 151.000 118.333 151.000 114.005 C 151.000 108.906,151.083 108.630,153.099 107.000 C 153.605 106.591,156.154 106.652,156.610 107.083 C 157.653 108.072,157.665 108.145,157.666 113.458 L 157.667 118.333 158.517 118.333 L 159.368 118.333 159.303 113.125 C 159.232 107.520,159.181 107.197,158.193 106.164 C 157.515 105.456,155.400 105.005,154.000 105.270 M174.167 105.321 C 173.331 105.515,172.333 105.976,172.333 106.169 C 172.333 106.259,172.255 106.333,172.159 106.333 C 171.891 106.333,171.121 107.230,170.616 108.129 C 169.541 110.046,169.572 113.938,170.677 115.787 C 172.611 119.023,177.343 119.642,179.753 116.975 C 180.676 115.953,179.762 115.020,178.774 115.976 C 177.307 117.396,174.642 117.602,173.378 116.393 C 173.265 116.285,173.112 116.171,173.038 116.140 C 172.494 115.912,171.741 114.340,171.513 112.958 L 171.383 112.167 175.961 112.167 L 180.539 112.167 180.473 110.519 C 180.436 109.613,180.325 108.770,180.226 108.644 C 180.127 108.519,180.000 108.223,179.943 107.986 C 179.510 106.167,176.502 104.779,174.167 105.321 M187.000 105.320 C 186.271 105.464,185.608 105.894,185.079 106.565 L 184.670 107.083 184.669 106.208 L 184.667 105.333 183.917 105.333 L 183.167 105.333 183.167 111.833 L 183.167 118.333 183.993 118.333 L 184.819 118.333 184.868 113.612 L 184.917 108.890 185.483 108.153 C 186.248 107.157,186.928 106.833,188.257 106.833 L 189.333 106.833 189.333 106.103 C 189.333 105.165,188.759 104.973,187.000 105.320 M195.417 105.312 C 194.634 105.457,194.119 105.733,193.375 106.408 L 192.833 106.899 192.833 106.116 L 192.833 105.333 192.083 105.333 L 191.333 105.333 191.333 114.333 L 191.333 123.333 192.083 123.333 L 192.833 123.333 192.833 120.250 C 192.833 118.306,192.895 117.167,193.000 117.167 C 193.092 117.167,193.167 117.235,193.167 117.319 C 193.167 117.608,194.635 118.291,195.723 118.507 C 199.315 119.221,201.833 116.497,201.833 111.897 C 201.833 107.169,199.322 104.592,195.417 105.312 M208.549 105.287 C 208.211 105.329,207.704 105.632,207.174 106.109 L 206.333 106.864 206.333 106.099 L 206.333 105.333 205.500 105.333 L 204.667 105.333 204.667 111.833 L 204.667 118.333 205.500 118.333 L 206.333 118.333 206.333 113.860 C 206.333 108.750,206.400 108.458,207.817 107.375 C 208.459 106.884,208.634 106.833,209.680 106.833 L 210.833 106.833 210.833 106.101 C 210.833 105.149,210.526 105.040,208.549 105.287 M221.250 105.313 C 219.045 105.723,217.705 107.625,218.221 109.612 C 218.423 110.387,218.921 111.167,219.216 111.167 C 219.293 111.167,219.466 111.275,219.599 111.408 C 219.819 111.629,220.654 111.912,223.167 112.617 C 226.274 113.489,226.973 115.554,224.583 116.801 C 222.557 117.858,219.841 116.931,219.425 115.039 C 219.311 114.519,219.277 114.500,218.477 114.500 L 217.646 114.500 217.758 115.292 C 218.420 119.989,227.667 119.625,227.667 114.901 C 227.667 113.734,226.339 111.833,225.523 111.833 C 225.425 111.833,225.098 111.729,224.797 111.602 C 224.251 111.372,222.317 110.789,221.470 110.599 C 220.695 110.426,219.833 109.468,219.833 108.780 C 219.833 106.134,224.452 105.748,225.667 108.292 C 226.177 109.363,227.790 109.714,227.575 108.708 C 226.995 106.000,224.566 104.696,221.250 105.313 M234.167 105.312 C 229.058 106.435,228.141 115.255,232.852 117.950 C 234.857 119.098,237.840 118.753,239.542 117.178 C 240.679 116.124,239.907 114.962,238.747 115.981 C 235.877 118.500,231.500 116.598,231.500 112.830 L 231.500 112.167 236.103 112.167 L 240.705 112.167 240.590 111.042 C 240.126 106.538,237.846 104.504,234.167 105.312 M267.333 105.271 C 266.637 105.401,265.785 105.883,265.083 106.545 L 264.417 107.173 264.367 106.253 L 264.317 105.333 263.575 105.333 L 262.833 105.333 262.833 111.833 L 262.833 118.333 263.583 118.333 L 264.333 118.333 264.333 114.102 C 264.333 110.410,264.371 109.788,264.628 109.227 C 265.501 107.320,266.351 106.749,268.311 106.753 L 269.705 106.755 270.250 107.405 C 270.960 108.250,271.000 108.600,271.000 113.940 L 271.000 118.333 271.848 118.333 L 272.695 118.333 272.638 113.125 C 272.575 107.505,272.520 107.161,271.524 106.201 C 270.745 105.451,268.743 105.007,267.333 105.271 M297.167 105.320 C 296.316 105.488,295.416 106.092,295.036 106.750 C 294.872 107.033,294.843 106.953,294.838 106.208 L 294.833 105.333 294.083 105.333 L 293.333 105.333 293.333 111.833 L 293.333 118.333 294.074 118.333 L 294.814 118.333 294.865 113.708 C 294.922 108.616,294.902 108.715,296.057 107.611 C 296.711 106.986,297.159 106.833,298.344 106.833 L 299.333 106.833 299.333 106.101 C 299.333 105.146,298.878 104.982,297.167 105.320 M304.738 105.338 C 301.943 105.892,300.496 108.168,300.505 111.994 C 300.513 115.786,301.987 117.897,305.051 118.506 C 309.142 119.319,311.917 116.619,311.910 111.833 C 311.903 106.998,309.112 104.470,304.738 105.338 M319.167 105.313 C 318.346 105.492,317.640 105.891,316.938 106.574 L 316.333 107.161 316.333 106.247 L 316.333 105.333 315.500 105.333 L 314.667 105.333 314.667 111.833 L 314.667 118.333 315.500 118.333 L 316.333 118.333 316.333 113.956 C 316.333 108.930,316.385 108.717,317.913 107.419 C 318.685 106.763,318.712 106.755,320.056 106.752 C 322.730 106.748,322.880 107.095,322.967 113.458 L 323.033 118.333 323.767 118.333 L 324.500 118.333 324.500 113.188 C 324.500 107.032,324.425 106.723,322.667 105.615 C 322.183 105.311,320.030 105.125,319.167 105.313 M332.333 105.323 C 331.468 105.497,330.651 105.970,330.042 106.648 L 329.500 107.250 329.500 106.292 L 329.500 105.333 328.750 105.333 L 328.000 105.333 328.000 111.833 L 328.000 118.333 328.833 118.333 L 329.667 118.333 329.667 113.930 C 329.667 108.334,330.151 107.081,332.448 106.737 C 335.771 106.238,336.162 106.980,336.165 113.792 L 336.167 118.333 337.000 118.333 L 337.833 118.333 337.833 114.240 C 337.833 107.897,338.394 106.787,341.613 106.761 C 344.294 106.739,344.479 107.179,344.491 113.625 L 344.500 118.333 345.333 118.333 L 346.167 118.333 346.165 113.542 C 346.163 107.545,345.960 106.724,344.221 105.649 C 342.437 104.546,337.667 105.778,337.667 107.341 C 337.667 107.464,337.442 107.211,337.167 106.778 C 336.892 106.344,336.536 105.941,336.375 105.882 C 336.215 105.823,336.042 105.713,335.991 105.639 C 335.746 105.279,333.509 105.085,332.333 105.323 M353.083 105.311 C 351.939 105.589,350.167 106.801,350.167 107.306 C 350.167 107.413,350.106 107.500,350.031 107.500 C 349.161 107.500,348.457 112.329,349.045 114.270 C 350.383 118.697,355.578 120.148,358.715 116.972 C 359.708 115.966,358.699 115.076,357.642 116.025 C 354.718 118.649,350.418 116.451,350.336 112.292 C 350.334 112.223,352.396 112.167,354.917 112.167 L 359.500 112.167 359.500 110.938 C 359.500 109.760,359.073 107.948,358.680 107.459 C 357.770 106.328,357.351 105.941,356.733 105.659 C 355.951 105.303,353.916 105.109,353.083 105.311 M366.500 105.321 C 365.646 105.519,364.895 105.953,364.243 106.625 L 363.667 107.218 363.667 106.276 L 363.667 105.333 362.917 105.333 L 362.167 105.333 362.167 111.833 L 362.167 118.333 362.917 118.333 L 363.667 118.333 363.674 113.958 C 363.682 109.300,363.689 109.255,364.564 108.068 C 365.668 106.572,368.359 106.166,369.471 107.329 C 370.227 108.120,370.333 108.924,370.333 113.836 L 370.333 118.333 371.167 118.333 L 372.000 118.333 372.000 113.614 C 372.000 107.665,371.793 106.777,370.165 105.749 C 369.460 105.304,367.540 105.080,366.500 105.321 M213.000 111.833 L 213.000 118.333 213.833 118.333 L 214.667 118.333 214.667 111.833 L 214.667 105.333 213.833 105.333 L 213.000 105.333 213.000 111.833 M274.667 105.419 C 274.667 105.475,274.824 105.910,275.016 106.386 C 275.208 106.861,275.478 107.550,275.616 107.917 C 275.754 108.283,275.972 108.830,276.100 109.131 C 276.228 109.432,276.333 109.758,276.333 109.855 C 276.333 109.953,276.437 110.269,276.564 110.558 C 276.691 110.847,276.961 111.533,277.163 112.083 C 277.853 113.962,278.452 115.542,278.836 116.500 C 279.002 116.912,279.228 117.494,279.339 117.792 C 279.523 118.286,279.602 118.333,280.250 118.333 C 281.038 118.333,280.961 118.441,281.683 116.333 C 281.887 115.737,282.117 115.179,282.194 115.092 C 282.270 115.005,282.333 114.797,282.333 114.631 C 282.333 114.465,282.408 114.199,282.499 114.039 C 282.590 113.880,282.769 113.450,282.898 113.083 C 283.027 112.717,283.296 112.004,283.497 111.500 C 283.697 110.996,283.899 110.433,283.945 110.250 C 283.990 110.067,284.093 109.767,284.172 109.583 C 284.251 109.400,284.511 108.725,284.750 108.083 C 284.989 107.442,285.293 106.670,285.426 106.369 C 285.829 105.454,285.762 105.333,284.853 105.333 C 284.223 105.333,284.018 105.399,283.948 105.625 C 283.898 105.785,283.579 106.667,283.239 107.583 C 282.218 110.340,281.481 112.397,281.388 112.750 C 281.339 112.933,281.157 113.401,280.983 113.790 C 280.809 114.178,280.664 114.591,280.661 114.707 C 280.638 115.511,280.226 115.686,279.947 115.011 C 279.264 113.360,278.674 111.766,277.752 109.083 C 277.532 108.442,277.139 107.354,276.879 106.667 L 276.406 105.417 275.536 105.366 C 275.058 105.339,274.667 105.362,274.667 105.419 M287.833 111.833 L 287.833 118.333 288.667 118.333 L 289.500 118.333 289.500 111.833 L 289.500 105.333 288.667 105.333 L 287.833 105.333 287.833 111.833 M177.198 107.129 C 177.801 107.484,178.396 108.356,178.735 109.381 C 179.194 110.762,179.454 110.667,175.232 110.667 C 171.712 110.667,171.472 110.648,171.577 110.375 C 171.639 110.215,171.733 109.858,171.786 109.583 C 172.247 107.196,175.112 105.896,177.198 107.129 M237.373 107.222 C 237.945 107.645,238.585 108.711,238.742 109.500 C 238.806 109.821,238.895 110.215,238.940 110.375 C 239.017 110.647,238.764 110.667,235.261 110.667 C 233.193 110.667,231.500 110.617,231.500 110.556 C 231.500 107.752,235.227 105.636,237.373 107.222 M308.333 107.213 C 310.941 108.941,311.043 114.654,308.499 116.418 C 304.794 118.985,300.706 114.642,302.324 109.858 C 302.673 108.825,303.597 107.353,303.904 107.340 C 303.988 107.336,304.176 107.226,304.322 107.094 C 305.006 106.474,307.322 106.543,308.333 107.213 M355.456 106.829 C 356.679 107.145,357.837 108.790,357.834 110.208 L 357.833 110.667 354.167 110.667 C 352.150 110.667,350.500 110.619,350.500 110.561 C 350.500 109.740,351.680 107.602,352.366 107.181 C 352.854 106.880,354.172 106.516,354.500 106.590 C 354.637 106.621,355.068 106.729,355.456 106.829 M198.188 107.085 C 200.974 109.187,200.794 115.211,197.896 116.847 C 196.324 117.734,194.018 116.957,193.042 115.211 C 192.705 114.608,192.755 109.304,193.104 108.617 C 193.977 106.900,196.810 106.046,198.188 107.085 " stroke="none" fill="#3cb4f4" fill-rule="evenodd"></path><path id="path1" d="" stroke="none" fill="#40b4f4" fill-rule="evenodd"></path><path id="path2" d="" stroke="none" fill="#40b4f4" fill-rule="evenodd"></path><path id="path3" d="" stroke="none" fill="#40b4f4" fill-rule="evenodd"></path><path id="path4" d="" stroke="none" fill="#40b4f4" fill-rule="evenodd"></path></g></svg>