<svg id="svg" version="1.1" width="400" height="483.28075709779176" viewBox="0 0 400 483.28075709779176" xmlns="http://www.w3.org/2000/svg" xmlns:xlink="http://www.w3.org/1999/xlink" ><g id="svgg"><path id="path0" d="M234.000 124.000 L 234.000 248.000 237.200 248.000 L 240.400 248.000 240.400 124.000 L 240.400 0.000 237.200 0.000 L 234.000 0.000 234.000 124.000 M209.040 17.654 C 207.963 18.310,205.713 19.577,204.040 20.470 C 200.041 22.605,198.367 23.621,197.429 24.483 C 197.006 24.872,196.286 25.307,195.829 25.449 C 194.847 25.755,186.658 30.362,183.800 32.216 C 182.700 32.930,180.540 34.185,179.000 35.005 C 175.192 37.032,169.845 40.101,169.600 40.400 C 169.360 40.692,162.918 44.400,162.650 44.400 C 162.217 44.400,155.388 48.501,155.267 48.835 C 155.193 49.036,154.954 49.200,154.734 49.200 C 154.514 49.200,153.224 49.854,151.867 50.654 C 150.510 51.454,147.600 53.094,145.400 54.299 C 143.200 55.504,141.310 56.624,141.200 56.788 C 141.090 56.952,139.830 57.716,138.400 58.485 C 134.169 60.759,127.138 64.790,126.029 65.576 C 125.463 65.978,123.920 66.886,122.600 67.595 C 119.855 69.068,113.461 72.731,110.800 74.355 C 109.810 74.959,107.740 76.139,106.200 76.978 C 101.525 79.526,99.829 80.511,99.181 81.056 C 98.841 81.343,97.761 82.007,96.781 82.532 C 92.137 85.024,84.579 89.344,84.400 89.611 C 84.290 89.774,82.940 90.578,81.400 91.397 C 77.525 93.456,72.584 96.282,70.200 97.802 C 69.100 98.503,66.940 99.755,65.400 100.584 C 62.555 102.116,57.387 105.099,53.848 107.251 C 52.774 107.904,49.897 109.529,47.455 110.861 C 45.013 112.194,42.503 113.716,41.877 114.242 C 41.251 114.769,40.555 115.200,40.330 115.200 C 40.105 115.200,38.274 116.167,36.260 117.348 C 34.247 118.530,31.675 119.963,30.544 120.533 C 29.414 121.102,28.244 121.811,27.944 122.107 C 27.645 122.403,26.590 123.079,25.600 123.610 C 21.644 125.733,15.289 129.371,13.400 130.595 C 12.300 131.308,10.140 132.563,8.600 133.385 C 2.142 136.830,-0.000 138.181,-0.000 138.809 C -0.000 139.676,2.360 144.000,2.833 144.000 C 3.300 144.000,10.181 140.141,11.800 138.971 C 12.460 138.494,14.620 137.244,16.600 136.193 C 18.580 135.142,22.369 132.983,25.020 131.395 C 27.671 129.808,31.001 127.887,32.420 127.127 C 37.111 124.615,39.529 123.168,40.016 122.580 C 40.281 122.261,40.665 122.000,40.870 122.000 C 41.075 122.000,43.078 120.957,45.321 119.682 C 47.564 118.407,50.087 117.012,50.927 116.582 C 51.767 116.152,52.765 115.512,53.145 115.161 C 53.525 114.810,55.246 113.766,56.969 112.842 C 61.474 110.427,66.290 107.676,68.600 106.197 C 69.700 105.493,72.143 104.096,74.028 103.091 C 75.913 102.087,79.513 100.019,82.028 98.496 C 84.543 96.973,88.220 94.861,90.200 93.804 C 92.180 92.747,94.502 91.414,95.360 90.841 C 96.218 90.269,97.118 89.675,97.360 89.522 C 98.259 88.954,103.502 86.041,106.600 84.390 C 108.360 83.452,110.160 82.374,110.600 81.994 C 111.040 81.614,112.750 80.587,114.400 79.712 C 118.670 77.447,124.964 73.875,125.200 73.582 C 125.447 73.276,130.366 70.400,130.643 70.400 C 130.869 70.400,136.893 66.913,140.800 64.520 C 142.230 63.644,145.020 62.068,147.000 61.017 C 148.980 59.966,151.633 58.407,152.895 57.553 C 154.158 56.699,155.297 56.000,155.426 56.000 C 155.555 56.000,156.862 55.303,158.330 54.452 C 159.799 53.600,162.260 52.225,163.800 51.396 C 165.340 50.568,166.960 49.578,167.400 49.196 C 167.840 48.815,169.550 47.787,171.200 46.912 C 175.225 44.777,181.752 41.085,182.000 40.803 C 182.265 40.502,187.202 37.600,187.450 37.600 C 187.889 37.600,195.411 33.101,195.533 32.765 C 195.607 32.564,195.841 32.400,196.055 32.400 C 196.268 32.400,198.157 31.410,200.253 30.200 C 202.349 28.990,204.123 28.000,204.196 28.000 C 204.514 28.000,210.213 24.644,210.668 24.189 C 210.946 23.912,211.989 23.290,212.986 22.807 C 215.061 21.802,215.115 21.622,213.935 19.647 C 211.849 16.155,211.642 16.071,209.040 17.654 M274.000 144.800 L 274.000 268.800 277.200 268.800 L 280.400 268.800 280.400 144.800 L 280.400 20.800 277.200 20.800 L 274.000 20.800 274.000 144.800 M313.200 167.000 L 313.200 291.200 316.400 291.200 L 319.600 291.200 319.600 167.000 L 319.600 42.800 316.400 42.800 L 313.200 42.800 313.200 167.000 M210.600 64.478 C 210.160 64.727,209.710 65.047,209.600 65.188 C 209.366 65.488,203.622 68.800,203.335 68.800 C 202.868 68.800,196.000 72.997,196.000 73.283 C 196.000 73.457,195.810 73.600,195.579 73.600 C 195.347 73.600,193.496 74.545,191.465 75.700 C 189.435 76.855,186.736 78.340,185.468 79.000 C 184.200 79.660,182.856 80.479,182.481 80.820 C 182.106 81.161,181.260 81.732,180.600 82.088 C 175.730 84.717,168.728 88.701,167.400 89.599 C 166.520 90.194,164.270 91.498,162.400 92.497 C 160.530 93.496,157.650 95.133,156.000 96.134 C 152.335 98.359,148.930 100.322,145.962 101.918 C 141.091 104.540,139.200 105.692,139.200 106.038 C 139.200 106.237,138.986 106.400,138.725 106.400 C 138.464 106.400,136.439 107.444,134.225 108.719 C 132.011 109.995,129.335 111.480,128.278 112.019 C 127.221 112.559,126.043 113.288,125.660 113.639 C 125.277 113.990,123.622 114.998,121.982 115.879 C 116.834 118.642,111.447 121.728,110.200 122.629 C 109.540 123.106,107.380 124.356,105.400 125.407 C 103.420 126.458,99.640 128.609,97.000 130.187 C 94.360 131.766,90.940 133.745,89.400 134.586 C 83.845 137.619,82.457 138.449,81.984 139.020 C 81.719 139.339,81.335 139.600,81.130 139.600 C 80.925 139.600,78.922 140.643,76.679 141.918 C 74.436 143.193,71.913 144.588,71.073 145.018 C 70.233 145.448,69.229 146.093,68.841 146.452 C 68.453 146.811,66.981 147.721,65.568 148.474 C 61.037 150.892,53.806 154.968,53.600 155.221 C 53.335 155.546,48.784 158.178,47.931 158.499 C 47.563 158.637,44.593 160.351,41.331 162.306 C 38.069 164.262,33.780 166.729,31.800 167.790 C 29.820 168.850,27.498 170.186,26.640 170.759 C 25.782 171.331,24.882 171.925,24.640 172.078 C 23.741 172.646,18.498 175.559,15.400 177.210 C 13.640 178.148,11.840 179.226,11.400 179.606 C 10.960 179.986,9.250 181.012,7.600 181.887 C -0.986 186.440,-0.524 185.904,1.256 189.244 C 2.734 192.017,2.968 192.056,6.264 190.078 C 8.802 188.556,14.581 185.239,20.200 182.079 C 21.960 181.089,23.490 180.161,23.600 180.017 C 23.793 179.765,25.782 178.637,32.576 174.927 C 34.322 173.973,36.662 172.588,37.776 171.848 C 38.889 171.109,42.230 169.184,45.200 167.571 C 48.170 165.957,51.590 163.974,52.800 163.164 C 54.010 162.353,56.260 161.046,57.800 160.260 C 59.340 159.473,61.770 158.117,63.200 157.246 C 66.120 155.469,72.045 152.068,76.080 149.854 C 77.553 149.045,78.993 148.153,79.280 147.872 C 79.566 147.591,81.330 146.537,83.200 145.530 C 90.471 141.615,94.208 139.504,94.400 139.203 C 94.510 139.030,96.580 137.806,99.000 136.483 C 101.420 135.160,104.414 133.475,105.652 132.739 C 110.514 129.849,113.990 127.834,118.400 125.347 C 120.930 123.920,123.878 122.215,124.952 121.558 C 126.026 120.900,128.896 119.275,131.331 117.946 C 133.766 116.617,136.217 115.170,136.779 114.731 C 137.340 114.291,140.770 112.305,144.400 110.319 C 148.030 108.332,151.090 106.573,151.200 106.410 C 151.310 106.247,153.578 104.929,156.241 103.480 C 158.903 102.032,161.963 100.302,163.041 99.637 C 164.118 98.972,166.849 97.387,169.108 96.114 C 171.368 94.841,175.778 92.290,178.908 90.445 C 182.039 88.600,186.573 86.011,188.984 84.690 C 191.395 83.370,193.607 82.050,193.899 81.758 C 194.191 81.466,195.278 80.797,196.315 80.271 C 199.476 78.667,207.762 73.964,208.400 73.411 C 208.730 73.126,210.305 72.214,211.900 71.385 C 214.969 69.790,215.195 69.417,214.135 67.686 C 211.677 63.671,211.810 63.792,210.600 64.478 M354.000 191.017 L 354.000 315.234 357.100 315.117 L 360.200 315.000 360.301 190.900 L 360.401 66.800 357.201 66.800 L 354.000 66.800 354.000 191.017 M393.200 214.800 L 393.200 338.800 396.200 338.800 L 399.200 338.800 399.200 214.800 L 399.200 90.800 396.200 90.800 L 393.200 90.800 393.200 214.800 M206.200 110.408 C 203.560 111.907,200.950 113.482,200.400 113.908 C 199.850 114.334,197.222 115.868,194.559 117.318 C 191.897 118.768,188.837 120.494,187.759 121.155 C 184.835 122.948,179.401 126.071,175.901 127.972 C 174.197 128.897,172.577 129.874,172.301 130.143 C 172.026 130.412,171.080 131.005,170.200 131.463 C 166.742 133.260,158.895 137.729,157.000 138.982 C 155.900 139.709,152.480 141.691,149.400 143.387 C 146.320 145.083,142.720 147.147,141.400 147.973 C 140.080 148.800,136.750 150.707,134.000 152.211 C 131.250 153.715,128.910 155.059,128.800 155.199 C 128.609 155.440,124.489 157.791,118.720 160.949 C 117.247 161.756,115.807 162.648,115.520 162.932 C 115.234 163.216,114.460 163.719,113.800 164.050 C 110.910 165.500,100.552 171.401,100.085 171.864 C 99.802 172.144,98.632 172.843,97.485 173.418 C 94.431 174.950,88.443 178.353,86.600 179.605 C 85.720 180.203,83.380 181.558,81.400 182.615 C 79.420 183.673,76.540 185.302,75.000 186.236 C 71.863 188.138,65.928 191.547,62.000 193.703 C 60.570 194.487,58.967 195.505,58.439 195.965 C 57.910 196.424,57.342 196.800,57.177 196.800 C 57.012 196.800,55.735 197.452,54.338 198.249 C 52.942 199.045,50.000 200.686,47.800 201.893 C 45.600 203.101,43.710 204.229,43.600 204.400 C 43.490 204.571,41.420 205.794,39.000 207.117 C 36.580 208.440,33.586 210.125,32.348 210.861 C 28.040 213.422,24.175 215.669,20.000 218.041 C 17.690 219.353,14.180 221.379,12.200 222.542 C 10.220 223.705,7.070 225.497,5.200 226.525 C 3.330 227.553,1.387 228.745,0.882 229.175 L -0.035 229.957 0.950 231.878 C 2.839 235.559,2.750 235.516,5.377 234.013 C 6.640 233.290,8.718 232.137,9.995 231.450 C 11.271 230.762,12.740 229.883,13.258 229.495 C 13.776 229.108,17.170 227.145,20.800 225.134 C 24.430 223.123,27.490 221.361,27.600 221.218 C 27.877 220.858,30.021 219.602,33.800 217.586 C 35.560 216.647,39.186 214.570,41.858 212.971 C 44.529 211.372,48.129 209.306,49.858 208.380 C 51.586 207.454,53.723 206.214,54.607 205.624 C 55.491 205.035,59.234 202.877,62.925 200.829 C 66.616 198.782,69.854 196.889,70.119 196.623 C 70.385 196.358,72.222 195.277,74.201 194.222 C 76.181 193.166,77.980 192.171,78.200 192.010 C 78.420 191.848,79.860 191.035,81.400 190.202 C 82.940 189.370,84.290 188.567,84.400 188.418 C 84.642 188.090,89.077 185.523,90.140 185.095 C 90.557 184.927,93.891 183.024,97.549 180.867 C 101.207 178.709,106.055 175.919,108.321 174.668 C 110.588 173.416,112.827 172.034,113.297 171.596 C 113.766 171.158,114.311 170.800,114.506 170.800 C 114.701 170.800,116.062 170.102,117.530 169.249 C 118.999 168.396,121.280 167.127,122.600 166.429 C 123.920 165.730,125.990 164.523,127.200 163.746 C 128.410 162.968,132.010 160.872,135.200 159.087 C 138.390 157.302,141.090 155.723,141.200 155.578 C 141.310 155.433,143.470 154.190,146.000 152.815 C 152.162 149.467,154.800 147.876,154.800 147.507 C 154.800 147.338,155.009 147.200,155.265 147.200 C 155.520 147.200,157.421 146.210,159.487 145.000 C 161.554 143.790,163.339 142.800,163.453 142.800 C 163.748 142.800,169.359 139.522,169.600 139.208 C 169.710 139.065,171.413 138.060,173.385 136.974 C 178.665 134.067,182.369 131.945,184.400 130.665 C 185.390 130.041,188.900 128.004,192.200 126.139 C 195.500 124.274,199.082 122.209,200.160 121.551 C 201.237 120.892,203.416 119.654,205.000 118.800 C 206.584 117.946,208.763 116.702,209.840 116.036 C 210.918 115.370,212.475 114.456,213.300 114.005 C 215.083 113.029,215.145 112.464,213.735 110.035 C 211.948 106.958,212.307 106.940,206.200 110.408 M208.200 157.251 C 206.660 158.151,204.025 159.633,202.345 160.544 C 200.665 161.455,198.865 162.518,198.345 162.906 C 197.510 163.530,191.716 166.829,186.913 169.415 C 185.985 169.914,184.185 170.988,182.913 171.802 C 181.641 172.616,178.080 174.715,175.000 176.467 C 171.920 178.218,168.590 180.148,167.600 180.755 C 166.610 181.362,164.360 182.629,162.600 183.571 C 157.984 186.040,155.200 187.741,155.200 188.093 C 155.200 188.262,155.010 188.400,154.779 188.400 C 154.547 188.400,152.696 189.345,150.665 190.500 C 148.635 191.655,145.936 193.140,144.668 193.800 C 143.400 194.460,142.056 195.279,141.681 195.620 C 141.306 195.961,140.460 196.532,139.800 196.888 C 134.929 199.518,127.928 203.501,126.600 204.399 C 125.720 204.994,123.638 206.206,121.974 207.092 C 119.170 208.585,115.280 210.838,110.736 213.601 C 109.711 214.224,107.281 215.590,105.336 216.636 C 101.659 218.613,98.744 220.346,98.400 220.760 C 98.290 220.892,97.570 221.333,96.800 221.741 C 92.851 223.830,84.575 228.550,84.400 228.813 C 84.290 228.978,82.850 229.839,81.200 230.725 C 78.311 232.277,73.926 234.797,68.142 238.226 C 66.634 239.121,63.330 240.990,60.800 242.379 C 58.270 243.769,55.930 245.129,55.600 245.402 C 55.270 245.675,52.300 247.392,49.000 249.217 C 45.700 251.043,42.550 252.881,42.000 253.303 C 41.450 253.724,38.030 255.695,34.400 257.681 C 30.770 259.668,27.710 261.433,27.600 261.603 C 27.490 261.773,25.420 262.994,23.000 264.317 C 18.802 266.612,17.640 267.281,11.339 271.029 C 9.832 271.925,6.665 273.721,4.300 275.021 C 1.173 276.739,0.000 277.591,0.000 278.143 C 0.000 278.984,2.290 283.200,2.748 283.200 C 3.154 283.200,10.365 279.177,11.806 278.146 C 12.463 277.677,14.260 276.617,15.800 275.791 C 20.165 273.450,24.940 270.718,25.600 270.183 C 25.930 269.915,29.045 268.122,32.523 266.197 C 36.001 264.272,39.061 262.484,39.323 262.225 C 39.585 261.965,40.340 261.482,41.000 261.151 C 43.590 259.854,53.411 254.271,53.600 253.989 C 53.710 253.824,55.627 252.692,57.860 251.474 C 64.265 247.980,67.751 245.976,68.400 245.416 C 68.730 245.131,71.250 243.681,74.000 242.194 C 76.750 240.707,79.900 238.913,81.000 238.208 C 83.174 236.815,87.617 234.271,92.499 231.625 C 94.203 230.701,95.823 229.724,96.099 229.455 C 96.374 229.185,97.950 228.228,99.600 227.328 C 107.967 222.766,110.217 221.490,110.400 221.203 C 110.510 221.030,112.636 219.778,115.124 218.421 C 117.613 217.065,120.943 215.165,122.524 214.200 C 124.106 213.236,126.930 211.598,128.800 210.561 C 130.670 209.524,133.640 207.817,135.400 206.769 C 137.160 205.721,140.580 203.745,143.000 202.378 C 150.296 198.256,152.990 196.680,153.200 196.409 C 153.310 196.267,154.750 195.418,156.400 194.522 C 163.992 190.399,167.015 188.695,167.200 188.437 C 167.470 188.061,169.580 186.812,173.200 184.888 C 174.850 184.011,177.550 182.469,179.200 181.462 C 180.850 180.455,183.730 178.786,185.600 177.753 C 187.470 176.720,190.440 175.017,192.200 173.969 C 193.960 172.921,197.380 170.945,199.800 169.578 C 207.384 165.293,209.794 163.876,210.000 163.577 C 210.110 163.418,211.010 162.877,212.000 162.376 C 214.865 160.926,214.874 160.912,214.027 159.261 C 212.016 155.343,211.669 155.223,208.200 157.251 M208.200 198.852 C 206.660 199.753,204.410 201.019,203.200 201.666 C 201.990 202.312,200.010 203.477,198.800 204.254 C 197.590 205.032,193.990 207.128,190.800 208.913 C 187.610 210.698,184.910 212.277,184.800 212.422 C 184.690 212.567,182.379 213.895,179.664 215.372 C 176.950 216.849,172.049 219.664,168.774 221.629 C 165.499 223.593,162.711 225.200,162.579 225.200 C 162.270 225.200,156.664 228.451,156.400 228.783 C 156.290 228.922,153.410 230.581,150.000 232.470 C 146.590 234.360,142.900 236.487,141.800 237.199 C 140.700 237.910,137.100 240.013,133.800 241.872 C 130.500 243.731,126.918 245.791,125.840 246.449 C 124.763 247.108,122.584 248.346,121.000 249.200 C 119.416 250.054,117.237 251.291,116.160 251.948 C 113.172 253.770,106.258 257.780,105.803 257.955 C 105.117 258.219,99.812 261.317,99.600 261.578 C 99.425 261.793,97.264 263.019,88.600 267.818 C 87.500 268.427,86.060 269.324,85.400 269.811 C 84.740 270.298,82.670 271.510,80.800 272.505 C 78.930 273.500,75.870 275.222,74.000 276.332 C 72.130 277.442,69.250 279.106,67.600 280.030 C 64.047 282.021,59.039 284.917,54.581 287.559 C 52.811 288.608,50.111 290.148,48.581 290.980 C 45.001 292.926,43.051 294.089,42.800 294.427 C 42.690 294.574,41.610 295.224,40.400 295.871 C 36.291 298.066,29.001 302.175,28.800 302.408 C 28.530 302.721,24.439 305.200,24.192 305.200 C 23.989 305.200,15.572 310.026,12.400 311.961 C 11.410 312.565,8.980 313.927,7.000 314.988 C 2.116 317.606,0.406 318.718,0.120 319.464 C -0.133 320.124,1.900 324.354,2.613 324.648 C 3.028 324.820,11.278 320.398,12.400 319.403 C 12.730 319.110,14.530 318.057,16.400 317.063 C 18.270 316.069,21.330 314.351,23.200 313.246 C 25.070 312.140,28.400 310.212,30.600 308.961 C 38.747 304.328,40.203 303.456,40.333 303.132 C 40.407 302.949,40.624 302.800,40.816 302.800 C 41.008 302.800,42.082 302.259,43.202 301.599 C 44.323 300.938,47.246 299.302,49.699 297.964 C 52.151 296.625,54.617 295.169,55.179 294.727 C 55.740 294.285,58.722 292.545,61.804 290.861 C 64.886 289.178,68.486 287.113,69.804 286.274 C 71.122 285.435,74.670 283.365,77.688 281.674 C 80.706 279.983,84.576 277.773,86.288 276.762 C 88.000 275.750,91.110 273.972,93.200 272.808 C 95.290 271.645,97.090 270.570,97.200 270.419 C 97.310 270.268,98.390 269.603,99.600 268.942 C 108.382 264.141,111.125 262.585,112.000 261.906 C 112.550 261.478,115.785 259.607,119.188 257.746 C 122.591 255.885,125.471 254.217,125.588 254.039 C 125.705 253.860,127.870 252.590,130.400 251.216 C 132.930 249.841,137.340 247.325,140.200 245.624 C 143.060 243.922,147.290 241.491,149.600 240.220 C 151.910 238.949,153.890 237.784,154.000 237.632 C 154.191 237.368,155.336 236.717,163.241 232.376 C 165.133 231.337,167.765 229.747,169.089 228.843 C 170.414 227.940,171.655 227.200,171.849 227.199 C 172.042 227.198,173.190 226.602,174.400 225.874 C 175.610 225.145,177.860 223.861,179.400 223.019 C 180.940 222.177,182.290 221.360,182.400 221.202 C 182.510 221.044,184.625 219.813,187.099 218.466 C 189.574 217.119,193.396 214.931,195.593 213.604 C 197.791 212.277,201.436 210.185,203.694 208.955 C 205.952 207.725,208.833 206.017,210.095 205.160 C 211.358 204.302,212.533 203.600,212.706 203.600 C 212.880 203.600,213.421 203.321,213.908 202.979 L 214.795 202.358 214.036 200.879 C 212.015 196.941,211.671 196.821,208.200 198.852 M184.497 250.100 C 183.800 250.970,182.400 253.944,182.400 254.555 C 182.400 254.877,183.345 255.670,184.500 256.317 C 189.340 259.027,194.790 262.167,197.553 263.837 C 199.177 264.819,202.057 266.448,203.953 267.457 C 205.849 268.466,207.940 269.684,208.600 270.165 C 209.796 271.035,215.063 274.062,220.000 276.716 C 221.430 277.484,222.690 278.234,222.800 278.381 C 223.046 278.711,227.822 281.600,228.121 281.600 C 228.239 281.600,230.106 282.598,232.268 283.819 C 236.546 286.233,236.380 286.133,238.640 287.639 C 239.498 288.211,241.614 289.440,243.342 290.371 C 245.071 291.302,248.761 293.427,251.542 295.094 C 254.324 296.761,258.580 299.202,261.000 300.519 C 263.420 301.837,265.495 303.060,265.612 303.239 C 265.729 303.417,268.609 305.085,272.012 306.946 C 275.415 308.807,278.650 310.676,279.200 311.100 C 279.750 311.525,283.260 313.557,287.000 315.617 C 290.740 317.677,293.890 319.486,294.000 319.636 C 294.272 320.006,297.456 321.862,301.800 324.183 C 303.780 325.240,306.300 326.689,307.400 327.403 C 309.327 328.654,315.873 332.398,319.600 334.382 C 320.590 334.909,321.490 335.471,321.600 335.632 C 321.783 335.898,328.206 339.574,333.600 342.499 C 334.810 343.156,335.890 343.822,336.000 343.981 C 336.238 344.323,341.833 347.600,342.179 347.600 C 342.311 347.600,345.160 349.246,348.510 351.258 C 351.859 353.270,356.580 355.997,359.000 357.318 C 361.420 358.640,363.940 360.117,364.600 360.601 C 365.260 361.085,368.050 362.702,370.800 364.195 C 373.550 365.688,376.700 367.505,377.800 368.232 C 378.900 368.959,382.590 371.085,386.000 372.956 C 389.410 374.827,392.394 376.525,392.631 376.730 C 393.415 377.408,396.378 379.200,396.715 379.200 C 397.093 379.200,399.839 373.692,399.574 373.465 C 399.007 372.979,392.314 369.200,392.018 369.200 C 391.822 369.200,391.153 368.784,390.531 368.275 C 389.371 367.327,387.889 366.442,383.000 363.778 C 381.460 362.939,379.390 361.761,378.400 361.160 C 374.442 358.756,367.623 354.800,367.439 354.800 C 367.165 354.800,362.245 351.921,362.000 351.618 C 361.777 351.341,355.794 347.935,351.202 345.470 C 349.553 344.585,347.969 343.626,347.681 343.339 C 347.394 343.051,345.953 342.154,344.480 341.345 C 337.967 337.768,334.165 335.604,333.720 335.220 C 333.455 334.992,330.935 333.521,328.120 331.953 C 325.304 330.384,321.290 328.070,319.200 326.811 C 317.110 325.553,313.240 323.312,310.600 321.832 C 307.960 320.352,305.260 318.780,304.600 318.339 C 302.832 317.157,294.350 312.400,294.011 312.400 C 293.851 312.400,292.997 311.877,292.114 311.237 C 290.733 310.236,282.793 305.665,278.400 303.341 C 277.630 302.933,276.910 302.492,276.800 302.360 C 276.451 301.941,273.509 300.179,270.200 298.408 C 266.012 296.166,263.448 294.697,263.200 294.396 C 262.960 294.105,254.595 289.364,251.878 287.980 C 250.821 287.441,249.645 286.714,249.264 286.365 C 248.616 285.769,243.541 282.846,237.600 279.647 C 236.170 278.877,234.774 278.024,234.499 277.751 C 234.223 277.478,232.603 276.499,230.899 275.575 C 225.930 272.882,221.552 270.372,219.400 268.982 C 218.300 268.272,215.330 266.569,212.800 265.198 C 210.270 263.826,207.660 262.311,207.000 261.831 C 205.751 260.923,199.827 257.554,195.003 255.008 C 193.464 254.196,192.108 253.375,191.990 253.183 C 191.101 251.746,185.143 249.294,184.497 250.100 M144.456 276.017 C 142.608 279.378,141.888 278.660,153.200 284.722 C 154.630 285.488,156.160 286.423,156.600 286.800 C 157.040 287.177,160.100 288.974,163.400 290.793 C 166.700 292.613,169.670 294.322,170.000 294.591 C 170.642 295.114,179.131 300.000,179.398 300.000 C 179.646 300.000,184.576 302.904,184.800 303.182 C 185.023 303.459,191.004 306.864,195.582 309.321 C 197.222 310.202,198.876 311.210,199.256 311.561 C 199.636 311.912,200.807 312.650,201.859 313.200 C 202.910 313.750,205.413 315.145,207.420 316.300 C 209.428 317.455,211.246 318.400,211.460 318.400 C 211.674 318.400,212.234 318.758,212.703 319.196 C 213.173 319.634,215.412 321.015,217.679 322.267 C 219.945 323.518,223.960 325.831,226.600 327.407 C 229.240 328.983,233.470 331.409,236.000 332.798 C 238.530 334.188,240.690 335.454,240.800 335.612 C 240.994 335.891,245.303 338.350,251.767 341.872 C 253.509 342.821,255.219 343.847,255.567 344.151 C 256.068 344.588,262.512 348.268,268.200 351.364 C 268.640 351.604,269.090 351.901,269.200 352.024 C 269.491 352.351,273.759 354.853,277.000 356.597 C 280.875 358.683,283.363 360.117,283.600 360.403 C 283.841 360.694,289.133 363.734,293.000 365.802 C 294.540 366.626,296.994 368.088,298.454 369.050 C 299.913 370.013,301.210 370.800,301.336 370.800 C 301.462 370.800,302.487 371.344,303.614 372.008 C 304.740 372.672,307.035 373.956,308.712 374.861 C 310.390 375.765,312.003 376.746,312.298 377.041 C 312.592 377.335,314.401 378.418,316.317 379.447 C 318.233 380.475,322.590 382.971,326.000 384.992 C 329.410 387.013,333.640 389.439,335.400 390.382 C 337.160 391.326,339.140 392.491,339.800 392.972 C 341.033 393.870,342.856 394.915,349.800 398.706 C 352.000 399.907,353.890 401.014,354.000 401.166 C 354.317 401.605,357.054 403.200,357.489 403.200 C 357.944 403.200,360.800 398.835,360.800 398.139 C 360.800 397.883,358.865 396.566,356.500 395.213 C 354.135 393.861,350.850 391.935,349.200 390.933 C 347.550 389.932,344.670 388.299,342.800 387.305 C 340.930 386.310,338.860 385.106,338.200 384.629 C 336.998 383.761,331.681 380.708,326.800 378.084 C 325.370 377.316,324.110 376.566,324.000 376.419 C 323.749 376.083,318.976 373.200,318.670 373.200 C 318.546 373.200,316.754 372.210,314.687 371.000 C 312.621 369.790,310.743 368.800,310.514 368.800 C 310.285 368.800,309.870 368.526,309.592 368.190 C 309.314 367.855,307.267 366.565,305.043 365.323 C 302.819 364.081,298.030 361.324,294.400 359.196 C 290.770 357.069,286.366 354.553,284.614 353.606 C 282.861 352.659,281.216 351.673,280.957 351.414 C 280.698 351.155,277.902 349.535,274.743 347.813 C 271.584 346.090,267.830 343.923,266.400 342.996 C 264.248 341.600,260.918 339.708,253.800 335.835 C 253.360 335.596,252.910 335.283,252.800 335.139 C 252.565 334.832,244.936 330.400,244.643 330.400 C 244.366 330.400,239.447 327.524,239.200 327.218 C 238.964 326.925,232.670 323.353,228.400 321.088 C 226.750 320.213,225.040 319.185,224.600 318.804 C 224.160 318.422,222.540 317.432,221.000 316.604 C 219.460 315.775,216.999 314.400,215.530 313.548 C 214.062 312.697,212.701 312.000,212.506 312.000 C 212.311 312.000,211.790 311.664,211.350 311.254 C 210.909 310.843,209.120 309.701,207.374 308.715 C 201.326 305.300,196.191 302.338,194.200 301.117 C 193.100 300.442,190.220 298.813,187.800 297.497 C 185.380 296.181,183.040 294.795,182.600 294.416 C 182.160 294.038,180.540 293.045,179.000 292.209 C 170.919 287.825,168.181 286.283,168.000 286.011 C 167.811 285.729,157.990 280.146,155.400 278.849 C 154.740 278.518,153.982 278.032,153.715 277.768 C 152.948 277.008,146.894 273.600,146.311 273.600 C 146.021 273.600,145.187 274.688,144.456 276.017 M106.554 297.700 C 106.188 298.415,105.760 299.090,105.604 299.200 C 105.211 299.477,104.400 301.060,104.400 301.552 C 104.400 301.774,104.825 302.191,105.344 302.478 C 105.864 302.765,106.989 303.468,107.844 304.039 C 108.700 304.611,110.814 305.840,112.542 306.771 C 114.271 307.702,117.961 309.827,120.742 311.494 C 123.524 313.161,127.780 315.602,130.200 316.919 C 132.620 318.237,134.695 319.460,134.812 319.639 C 134.929 319.817,137.809 321.485,141.212 323.346 C 144.615 325.207,147.850 327.074,148.400 327.496 C 148.950 327.918,152.100 329.757,155.400 331.583 C 158.700 333.408,161.670 335.121,162.000 335.389 C 162.330 335.658,164.220 336.782,166.200 337.888 C 174.667 342.618,176.611 343.735,176.800 343.975 C 177.026 344.264,183.085 347.712,187.600 350.123 C 189.250 351.003,190.690 351.859,190.800 352.023 C 190.982 352.296,197.310 355.922,202.800 358.899 C 204.010 359.556,205.090 360.222,205.200 360.381 C 205.438 360.723,211.033 364.000,211.379 364.000 C 211.511 364.000,214.360 365.646,217.710 367.658 C 221.059 369.670,225.780 372.397,228.200 373.718 C 230.620 375.040,233.140 376.517,233.800 377.001 C 234.460 377.485,237.250 379.102,240.000 380.595 C 242.750 382.088,245.900 383.902,247.000 384.625 C 248.936 385.898,256.938 390.449,260.200 392.131 C 261.080 392.585,261.890 393.084,262.000 393.239 C 262.230 393.563,268.317 397.200,268.630 397.200 C 268.912 397.200,275.349 400.894,275.600 401.200 C 275.860 401.517,281.425 404.700,285.449 406.833 C 287.182 407.752,289.140 408.894,289.800 409.371 C 291.002 410.239,296.318 413.291,301.200 415.916 C 302.630 416.684,303.890 417.434,304.000 417.581 C 304.238 417.900,309.016 420.800,309.303 420.800 C 309.412 420.800,311.540 421.970,314.030 423.400 C 319.501 426.541,319.105 426.527,320.700 423.624 C 322.398 420.533,322.429 420.637,319.300 418.981 C 317.815 418.195,315.790 417.012,314.800 416.351 C 313.810 415.691,311.020 414.064,308.600 412.736 C 306.180 411.408,303.660 410.024,303.000 409.661 C 302.340 409.297,301.710 408.883,301.600 408.739 C 301.365 408.433,294.430 404.400,294.138 404.400 C 293.863 404.400,288.246 401.126,288.000 400.821 C 287.736 400.496,277.675 394.800,277.364 394.800 C 277.231 394.800,275.620 393.810,273.783 392.600 C 271.945 391.390,270.329 390.400,270.190 390.400 C 270.051 390.400,268.090 389.320,265.832 388.000 C 263.574 386.680,261.551 385.600,261.338 385.600 C 261.125 385.600,260.600 385.273,260.171 384.873 C 259.402 384.157,253.861 380.800,253.447 380.800 C 253.330 380.800,250.481 379.155,247.117 377.144 C 243.753 375.133,239.020 372.406,236.600 371.083 C 234.180 369.761,231.660 368.283,231.000 367.799 C 230.340 367.315,227.550 365.698,224.800 364.205 C 222.050 362.712,218.900 360.898,217.800 360.175 C 215.864 358.902,207.862 354.351,204.600 352.669 C 203.720 352.215,202.910 351.725,202.800 351.581 C 202.465 351.143,199.592 349.432,195.800 347.412 C 193.820 346.358,191.300 344.911,190.200 344.197 C 187.812 342.647,179.733 338.000,179.427 338.000 C 179.167 338.000,175.083 335.536,174.800 335.209 C 174.575 334.948,167.509 330.950,163.713 328.935 C 162.345 328.209,160.856 327.297,160.403 326.910 C 159.951 326.522,158.513 325.637,157.209 324.944 C 153.222 322.822,147.508 319.553,145.400 318.187 C 144.300 317.475,141.330 315.766,138.800 314.391 C 136.270 313.016,133.750 311.576,133.200 311.192 C 132.007 310.359,125.864 306.831,121.400 304.416 C 119.640 303.463,118.110 302.547,118.000 302.380 C 117.786 302.055,107.794 296.400,107.434 296.400 C 107.317 296.400,106.921 296.985,106.554 297.700 M65.821 321.166 C 65.277 322.028,64.645 322.849,64.416 322.990 C 63.369 323.637,64.077 324.785,66.300 326.044 C 67.565 326.761,68.690 327.470,68.800 327.620 C 68.910 327.769,70.080 328.488,71.400 329.216 C 72.720 329.945,75.447 331.499,77.460 332.670 C 79.474 333.842,81.210 334.800,81.320 334.800 C 81.430 334.800,82.483 335.449,83.660 336.243 C 84.837 337.036,86.801 338.191,88.024 338.810 C 89.247 339.429,93.450 341.852,97.364 344.195 C 101.278 346.539,104.777 348.568,105.140 348.705 C 105.927 349.001,110.430 351.609,111.000 352.099 C 111.220 352.288,114.100 353.948,117.400 355.787 C 120.700 357.627,123.940 359.492,124.600 359.932 C 125.260 360.372,128.770 362.398,132.400 364.435 C 136.030 366.472,139.090 368.266,139.200 368.423 C 139.310 368.580,141.290 369.750,143.600 371.023 C 145.910 372.296,150.140 374.725,153.000 376.419 C 155.860 378.114,159.910 380.440,162.000 381.589 C 164.090 382.737,166.700 384.264,167.800 384.981 C 169.664 386.196,173.692 388.498,179.400 391.611 C 180.720 392.331,181.890 393.053,182.000 393.215 C 182.110 393.378,184.000 394.496,186.200 395.701 C 188.400 396.906,191.310 398.546,192.667 399.346 C 194.024 400.146,195.329 400.800,195.567 400.800 C 195.805 400.800,196.000 400.938,196.000 401.107 C 196.000 401.459,198.784 403.160,203.400 405.629 C 205.160 406.571,207.410 407.838,208.400 408.445 C 209.390 409.052,212.720 410.982,215.800 412.733 C 218.880 414.485,222.435 416.580,223.700 417.389 C 224.965 418.198,228.745 420.369,232.100 422.212 C 235.455 424.056,238.644 425.921,239.187 426.358 C 239.730 426.794,241.710 427.972,243.587 428.977 C 245.464 429.982,248.292 431.568,249.872 432.502 C 252.542 434.080,254.368 435.142,263.732 440.557 C 265.675 441.681,269.515 443.905,272.266 445.501 C 279.000 449.406,278.703 449.375,280.367 446.345 C 281.691 443.934,281.709 443.839,280.967 443.304 C 278.972 441.870,274.955 439.477,270.400 437.011 C 267.650 435.523,265.040 433.999,264.600 433.625 C 263.888 433.020,259.407 430.468,252.728 426.866 C 251.478 426.191,250.085 425.323,249.633 424.935 C 249.180 424.547,247.502 423.533,245.905 422.681 C 244.307 421.829,241.634 420.338,239.965 419.366 C 238.296 418.395,236.721 417.600,236.465 417.600 C 236.209 417.600,236.000 417.440,236.000 417.245 C 236.000 416.934,229.125 412.800,228.609 412.800 C 228.500 412.800,225.844 411.250,222.706 409.356 C 219.568 407.462,215.020 404.832,212.600 403.512 C 210.180 402.192,208.110 400.973,208.000 400.803 C 207.890 400.633,204.830 398.868,201.200 396.881 C 197.570 394.895,194.150 392.924,193.600 392.503 C 193.050 392.081,189.900 390.237,186.600 388.404 C 183.300 386.570,180.150 384.753,179.600 384.364 C 179.050 383.975,177.041 382.790,175.135 381.729 C 171.844 379.897,170.448 379.092,161.849 374.068 C 159.842 372.896,156.872 371.223,155.248 370.349 C 153.625 369.476,151.735 368.345,151.048 367.836 C 150.362 367.327,148.540 366.232,147.000 365.403 C 144.539 364.079,139.404 361.210,138.160 360.464 C 137.918 360.319,137.018 359.732,136.160 359.161 C 135.302 358.589,133.160 357.347,131.400 356.400 C 129.640 355.453,125.950 353.330,123.200 351.681 C 120.450 350.032,116.220 347.604,113.800 346.284 C 111.380 344.965,109.310 343.753,109.200 343.591 C 109.090 343.430,106.300 341.810,103.000 339.991 C 99.700 338.173,96.100 336.094,95.000 335.372 C 93.340 334.283,88.321 331.415,82.200 328.058 C 81.540 327.696,80.910 327.295,80.800 327.167 C 80.315 326.601,67.739 319.600,67.208 319.600 C 66.989 319.600,66.365 320.305,65.821 321.166 M25.823 342.089 C 25.480 342.578,25.200 343.163,25.200 343.389 C 25.199 343.615,24.749 344.323,24.200 344.962 C 23.160 346.171,22.894 347.200,23.622 347.200 C 23.854 347.200,25.727 348.190,27.783 349.400 C 29.839 350.610,31.719 351.600,31.960 351.600 C 32.202 351.600,32.400 351.742,32.400 351.917 C 32.400 352.091,34.335 353.328,36.700 354.666 C 39.065 356.005,42.260 357.828,43.800 358.719 C 45.340 359.610,49.120 361.774,52.200 363.528 C 55.280 365.283,58.835 367.380,60.100 368.189 C 61.365 368.998,65.145 371.169,68.500 373.012 C 71.855 374.856,75.044 376.721,75.587 377.158 C 76.130 377.594,78.110 378.768,79.987 379.767 C 81.864 380.766,84.750 382.385,86.400 383.365 C 88.050 384.345,91.200 386.176,93.400 387.433 C 97.197 389.604,99.366 390.869,106.930 395.327 C 108.729 396.386,111.718 398.075,113.574 399.080 C 115.430 400.085,117.265 401.198,117.652 401.553 C 118.039 401.909,119.221 402.640,120.278 403.178 C 121.335 403.716,123.847 405.111,125.860 406.278 C 127.874 407.445,129.631 408.400,129.765 408.400 C 129.899 408.400,131.042 409.102,132.305 409.960 C 133.567 410.817,136.490 412.546,138.800 413.802 C 141.110 415.058,144.530 417.028,146.400 418.181 C 148.270 419.334,152.050 421.500,154.800 422.995 C 157.550 424.491,159.895 425.860,160.012 426.038 C 160.129 426.217,163.009 427.885,166.412 429.746 C 169.815 431.607,173.065 433.494,173.633 433.939 C 174.579 434.682,176.848 435.974,185.200 440.528 C 186.850 441.428,188.415 442.374,188.677 442.630 C 188.939 442.887,191.999 444.675,195.477 446.605 C 198.955 448.534,201.890 450.226,202.000 450.364 C 202.253 450.682,207.998 453.991,211.974 456.108 C 213.638 456.994,215.720 458.210,216.600 458.809 C 218.768 460.286,227.199 465.028,228.229 465.350 C 228.686 465.493,229.424 465.949,229.870 466.365 C 231.286 467.684,237.108 470.876,237.840 470.735 C 238.479 470.612,240.252 468.051,240.912 466.298 C 241.223 465.471,240.519 464.986,233.200 460.987 C 230.450 459.484,228.110 458.128,228.000 457.973 C 227.890 457.818,225.910 456.647,223.600 455.371 C 221.290 454.096,218.166 452.320,216.658 451.426 C 210.434 447.736,206.488 445.467,204.600 444.493 C 203.500 443.925,201.430 442.711,200.000 441.795 C 198.570 440.878,195.328 438.975,192.796 437.564 C 186.640 434.136,186.338 433.960,184.549 432.768 C 183.697 432.200,181.740 431.052,180.200 430.216 C 178.660 429.381,176.199 428.000,174.730 427.148 C 173.262 426.297,171.867 425.600,171.630 425.600 C 171.394 425.600,171.200 425.462,171.200 425.293 C 171.200 424.924,168.562 423.333,162.400 419.985 C 159.870 418.610,157.710 417.367,157.600 417.222 C 157.490 417.077,154.790 415.503,151.600 413.723 C 148.410 411.943,144.540 409.684,143.000 408.702 C 141.460 407.721,137.770 405.595,134.800 403.978 C 131.830 402.362,129.310 400.925,129.200 400.786 C 128.975 400.502,125.432 398.444,119.216 394.987 C 116.915 393.707,114.305 392.175,113.416 391.582 C 112.527 390.990,109.731 389.381,107.203 388.008 C 104.675 386.634,101.885 385.017,101.003 384.414 C 99.516 383.397,95.612 381.158,89.800 377.989 C 88.480 377.269,87.310 376.557,87.200 376.407 C 86.970 376.093,82.059 373.200,81.756 373.200 C 81.646 373.200,79.873 372.210,77.817 371.000 C 75.761 369.790,73.903 368.800,73.689 368.800 C 73.474 368.800,73.089 368.549,72.834 368.241 C 72.402 367.720,69.749 366.143,62.400 362.038 C 60.750 361.116,58.050 359.541,56.400 358.539 C 54.750 357.536,51.420 355.635,49.000 354.314 C 46.580 352.992,44.510 351.773,44.400 351.603 C 44.290 351.433,41.230 349.662,37.600 347.667 C 33.970 345.673,30.806 343.873,30.569 343.669 C 29.968 343.151,26.856 341.200,26.631 341.200 C 26.529 341.200,26.165 341.600,25.823 342.089 " stroke="none" fill="#3cb4f4" fill-rule="evenodd"></path><path id="path1" d="" stroke="none" fill="#40b4f4" fill-rule="evenodd"></path><path id="path2" d="" stroke="none" fill="#40b4f4" fill-rule="evenodd"></path><path id="path3" d="" stroke="none" fill="#40b4f4" fill-rule="evenodd"></path><path id="path4" d="" stroke="none" fill="#40b4f4" fill-rule="evenodd"></path></g></svg>