<?xml version="1.0" standalone="no"?>
<!DOCTYPE svg PUBLIC "-//W3C//DTD SVG 20010904//EN"
 "http://www.w3.org/TR/2001/REC-SVG-20010904/DTD/svg10.dtd">
<svg version="1.0" xmlns="http://www.w3.org/2000/svg"
 width="900.000000pt" height="900.000000pt" viewBox="0 0 900.000000 900.000000"
 preserveAspectRatio="xMidYMid meet">
<metadata>
Created by potrace 1.15, written by Peter Selinger 2001-2017
</metadata>
<g transform="translate(0.000000,900.000000) scale(0.100000,-0.100000)"
fill="#000000" stroke="none">
<path d="M0 4500 l0 -4500 4500 0 4500 0 0 4500 0 4500 -4500 0 -4500 0 0
-4500z m2860 3279 c22 -29 40 -56 40 -59 0 -4 -28 -27 -62 -51 -89 -62 -228
-179 -329 -276 -47 -46 -90 -83 -95 -83 -6 0 -32 23 -59 51 l-50 51 80 75
c145 136 421 360 432 349 2 -2 22 -27 43 -57z m2145 36 c1096 -145 1982 -941
2244 -2018 40 -165 61 -311 70 -497 7 -146 10 -161 45 -250 20 -52 66 -151
102 -220 102 -196 190 -324 450 -655 137 -175 130 -330 -19 -427 -73 -47 -343
-181 -472 -233 -49 -20 -96 -42 -103 -49 -10 -10 -9 -44 4 -177 11 -105 17
-257 17 -424 1 -403 -22 -493 -146 -578 -145 -99 -478 -167 -817 -167 -175 0
-287 -62 -345 -192 -28 -62 -29 -68 -33 -268 -4 -229 -8 -242 -69 -260 -25 -7
-154 -10 -378 -8 l-340 3 -3 163 -2 162 45 0 46 0 -3 82 -3 83 -42 0 c-24 -1
-329 -2 -678 -3 l-636 -2 3 -77 3 -78 38 -3 37 -3 0 -165 0 -164 -360 0 c-394
0 -407 2 -428 57 -6 15 -15 107 -22 203 -24 364 -77 690 -150 911 -64 195
-149 350 -534 973 -179 289 -251 417 -310 552 -95 216 -165 460 -202 699 -23
151 -27 589 -6 730 63 416 196 773 415 1108 432 661 1151 1110 1917 1196 52 6
111 13 130 15 72 9 420 -4 535 -19z m-2914 -781 c27 -20 49 -39 49 -43 0 -5
-40 -69 -89 -142 -73 -109 -230 -382 -244 -424 -2 -6 -33 4 -71 23 l-67 32 68
133 c103 196 270 457 295 457 6 0 32 -16 59 -36z m-501 -981 c69 -19 69 -19
40 -113 -28 -92 -76 -323 -96 -470 -23 -159 -26 -613 -6 -770 87 -671 358
-1280 784 -1759 26 -30 48 -60 48 -65 0 -6 -23 -31 -51 -55 l-50 -43 -26 23
c-14 13 -69 78 -123 145 -592 734 -850 1688 -710 2620 31 211 102 504 122 504
4 0 35 -7 68 -17z"/>
<path d="M4576 5808 c-267 -419 -284 -447 -273 -456 7 -5 80 -32 164 -61 l152
-52 161 57 c124 44 160 60 155 71 -12 32 -308 493 -317 493 -4 0 -23 -24 -42
-52z"/>
</g>
</svg>
