<?xml version="1.0" standalone="no"?>
<!DOCTYPE svg PUBLIC "-//W3C//DTD SVG 20010904//EN"
 "http://www.w3.org/TR/2001/REC-SVG-20010904/DTD/svg10.dtd">
<svg version="1.0" xmlns="http://www.w3.org/2000/svg"
 width="900.000000pt" height="900.000000pt" viewBox="0 0 900.000000 900.000000"
 preserveAspectRatio="xMidYMid meet">
<metadata>
Created by potrace 1.15, written by Peter Selinger 2001-2017
</metadata>
<g transform="translate(0.000000,900.000000) scale(0.100000,-0.100000)"
fill="#000000" stroke="none">
<path d="M0 4500 l0 -4500 4500 0 4500 0 0 4500 0 4500 -4500 0 -4500 0 0
-4500z m7560 2475 l0 -805 -65 0 -65 0 0 728 c0 553 -3 731 -12 740 -9 9 -199
12 -795 12 l-783 0 0 65 0 65 860 0 860 0 0 -805z m-2088 -127 l3 -303 318 -3
317 -2 0 -595 c0 -326 -3 -596 -8 -599 -4 -2 -25 7 -47 20 -90 56 -245 128
-355 165 -118 39 -337 83 -388 77 l-27 -3 0 -290 0 -290 59 -7 c32 -4 89 -16
125 -26 409 -117 696 -433 780 -860 l17 -87 288 -2 c159 -1 291 -5 294 -8 3
-3 45 -5 94 -5 l88 0 0 -90 0 -90 -57 -1 c-32 -1 -204 -5 -383 -8 l-325 -6
-21 -105 c-79 -385 -336 -686 -695 -814 -52 -19 -130 -40 -174 -47 -44 -7 -84
-16 -88 -19 -11 -9 -9 -562 2 -573 11 -11 207 19 317 48 153 42 325 115 443
189 22 15 45 26 51 26 7 0 10 -229 10 -695 l0 -695 -1970 0 -1970 0 0 303 c0
222 -3 306 -12 315 -9 9 -90 12 -305 12 l-293 0 0 2685 0 2685 1955 0 1955 0
2 -302z m2072 -1224 c14 -6 16 -78 16 -715 l0 -709 -65 0 -65 0 0 709 c0 558
3 710 13 714 18 8 83 8 101 1z m16 -2219 l0 -255 -65 0 -65 0 0 255 0 255 65
0 65 0 0 -255z"/>
<path d="M3600 6025 l0 -75 630 0 630 0 0 75 0 75 -630 0 -630 0 0 -75z"/>
<path d="M4955 5593 c-158 -22 -381 -91 -526 -164 -296 -148 -588 -439 -733
-728 -96 -191 -176 -476 -176 -627 l0 -24 282 2 282 3 13 78 c75 446 444 815
890 890 l78 13 3 282 2 282 -42 -1 c-24 -1 -56 -4 -73 -6z"/>
<path d="M3600 5505 l0 -75 215 0 215 0 0 75 0 75 -215 0 -215 0 0 -75z"/>
<path d="M2574 5046 c-3 -7 -4 -40 -2 -72 l3 -59 153 -3 152 -3 0 76 0 75
-150 0 c-118 0 -152 -3 -156 -14z"/>
<path d="M3094 5046 c-3 -7 -4 -40 -2 -72 l3 -59 208 -3 207 -2 0 75 0 75
-205 0 c-164 0 -207 -3 -211 -14z"/>
<path d="M5109 4610 c-117 -15 -243 -98 -293 -194 -24 -44 -19 -56 43 -103
110 -84 287 -95 448 -28 48 21 125 49 170 64 l82 26 -28 51 c-79 137 -238 207
-422 184z"/>
<path d="M2577 4533 c-8 -7 -9 -115 -2 -135 4 -10 72 -13 363 -11 l357 3 3 75
3 75 -359 0 c-197 0 -362 -3 -365 -7z"/>
<path d="M2577 4013 c-8 -7 -9 -115 -2 -135 4 -10 47 -13 208 -11 l202 2 3 76
3 75 -204 0 c-112 0 -207 -3 -210 -7z"/>
<path d="M3527 3833 c-21 -20 21 -261 73 -415 209 -625 744 -1054 1413 -1133
l57 -6 0 284 0 285 -22 6 c-13 3 -35 6 -49 6 -50 0 -204 51 -304 100 -307 149
-540 452 -595 774 -6 33 -13 71 -15 84 l-5 22 -274 0 c-150 0 -276 -3 -279 -7z"/>
<path d="M2577 3493 c-8 -7 -9 -115 -2 -135 4 -10 73 -13 363 -11 l357 2 3 76
3 75 -359 0 c-197 0 -362 -3 -365 -7z"/>
<path d="M2574 2966 c-3 -7 -4 -42 -2 -77 l3 -64 468 -3 467 -2 0 80 0 80
-465 0 c-383 0 -467 -2 -471 -14z"/>
<path d="M2574 2446 c-3 -7 -4 -42 -2 -77 l3 -64 152 -3 151 -3 4 77 c2 41 1
78 -1 80 -2 2 -71 4 -153 4 -116 0 -150 -3 -154 -14z"/>
<path d="M3094 2446 c-3 -7 -4 -42 -2 -77 l3 -64 468 -3 467 -2 0 80 0 80
-465 0 c-383 0 -467 -2 -471 -14z"/>
<path d="M2577 1933 c-3 -5 -4 -39 -3 -78 l1 -70 152 -3 151 -3 4 77 c2 41 1
78 -1 80 -8 7 -300 4 -304 -3z"/>
<path d="M3094 1926 c-3 -7 -4 -42 -2 -77 l3 -64 882 -3 881 -2 4 76 c2 42 1
78 -1 80 -2 2 -400 4 -883 4 -730 0 -880 -2 -884 -14z"/>
</g>
</svg>
