<?xml version="1.0" standalone="no"?>
<!DOCTYPE svg PUBLIC "-//W3C//DTD SVG 20010904//EN"
 "http://www.w3.org/TR/2001/REC-SVG-20010904/DTD/svg10.dtd">
<svg version="1.0" xmlns="http://www.w3.org/2000/svg"
 width="900.000000pt" height="900.000000pt" viewBox="0 0 900.000000 900.000000"
 preserveAspectRatio="xMidYMid meet">
<metadata>
Created by potrace 1.15, written by Peter Selinger 2001-2017
</metadata>
<g transform="translate(0.000000,900.000000) scale(0.100000,-0.100000)"
fill="#000000" stroke="none">
<path d="M0 4500 l0 -4500 4500 0 4500 0 0 4500 0 4500 -4500 0 -4500 0 0
-4500z m7520 2525 l0 -815 -75 0 -75 0 -2 738 -3 737 -790 5 -790 5 -3 73 -3
72 871 0 870 0 0 -815z m-2088 -122 l3 -308 313 -3 312 -2 0 -611 0 -610 -42
29 c-75 52 -248 133 -368 173 -112 37 -315 79 -386 79 l-34 0 2 -282 3 -283
35 -3 c131 -11 330 -87 467 -178 250 -166 425 -438 474 -734 l12 -70 241 0
c133 0 305 -3 384 -7 l142 -6 0 -99 0 -98 -97 0 c-54 0 -226 -1 -383 -3 l-285
-2 -21 -105 c-45 -221 -133 -386 -289 -546 -175 -178 -377 -287 -603 -323 -34
-5 -67 -13 -72 -16 -13 -8 -14 -552 -1 -560 13 -8 208 22 303 46 145 36 332
115 455 191 21 14 44 28 51 32 9 6 12 -138 12 -703 l0 -711 -1975 0 -1975 0
-2 313 -3 312 -302 3 -303 2 0 2695 0 2695 1965 0 1965 0 2 -307z m2088 -1938
l0 -715 -75 0 -75 0 0 715 0 715 75 0 75 0 0 -715z m0 -1510 l0 -265 -75 0
-75 0 0 265 0 265 75 0 75 0 0 -265z"/>
<path d="M3550 6075 l0 -75 630 0 630 0 0 75 0 75 -630 0 -630 0 0 -75z"/>
<path d="M4905 5643 c-158 -22 -381 -91 -526 -164 -296 -148 -588 -439 -733
-728 -96 -191 -176 -476 -176 -627 l0 -24 282 2 282 3 13 78 c75 446 444 815
890 890 l78 13 3 282 2 282 -42 -1 c-24 -1 -56 -4 -73 -6z"/>
<path d="M3550 5555 l0 -75 215 0 215 0 0 75 0 75 -215 0 -215 0 0 -75z"/>
<path d="M2524 5096 c-3 -7 -4 -40 -2 -72 l3 -59 153 -3 152 -3 0 76 0 75
-150 0 c-118 0 -152 -3 -156 -14z"/>
<path d="M3044 5096 c-3 -7 -4 -40 -2 -72 l3 -59 208 -3 207 -2 0 75 0 75
-205 0 c-164 0 -207 -3 -211 -14z"/>
<path d="M5059 4660 c-117 -15 -243 -98 -293 -194 -24 -44 -19 -56 43 -103
110 -84 287 -95 448 -28 48 21 125 49 170 64 l82 26 -28 51 c-79 137 -238 207
-422 184z"/>
<path d="M2527 4583 c-8 -7 -9 -115 -2 -135 4 -10 72 -13 363 -11 l357 3 3 75
3 75 -359 0 c-197 0 -362 -3 -365 -7z"/>
<path d="M2527 4063 c-8 -7 -9 -115 -2 -135 4 -10 47 -13 208 -11 l202 2 3 76
3 75 -204 0 c-112 0 -207 -3 -210 -7z"/>
<path d="M3477 3883 c-21 -20 21 -261 73 -415 209 -625 744 -1054 1413 -1133
l57 -6 0 284 0 285 -22 6 c-13 3 -35 6 -49 6 -50 0 -204 51 -304 100 -307 149
-540 452 -595 774 -6 33 -13 71 -15 84 l-5 22 -274 0 c-150 0 -276 -3 -279 -7z"/>
<path d="M2527 3543 c-8 -7 -9 -115 -2 -135 4 -10 73 -13 363 -11 l357 2 3 76
3 75 -359 0 c-197 0 -362 -3 -365 -7z"/>
<path d="M2524 3016 c-3 -7 -4 -42 -2 -77 l3 -64 468 -3 467 -2 0 80 0 80
-465 0 c-383 0 -467 -2 -471 -14z"/>
<path d="M2524 2496 c-3 -7 -4 -42 -2 -77 l3 -64 152 -3 151 -3 4 77 c2 41 1
78 -1 80 -2 2 -71 4 -153 4 -116 0 -150 -3 -154 -14z"/>
<path d="M3044 2496 c-3 -7 -4 -42 -2 -77 l3 -64 468 -3 467 -2 0 80 0 80
-465 0 c-383 0 -467 -2 -471 -14z"/>
<path d="M2527 1983 c-3 -5 -4 -39 -3 -78 l1 -70 152 -3 151 -3 4 77 c2 41 1
78 -1 80 -8 7 -300 4 -304 -3z"/>
<path d="M3044 1976 c-3 -7 -4 -42 -2 -77 l3 -64 882 -3 881 -2 4 76 c2 42 1
78 -1 80 -2 2 -400 4 -883 4 -730 0 -880 -2 -884 -14z"/>
</g>
</svg>
