<?xml version="1.0" standalone="no"?>
<!DOCTYPE svg PUBLIC "-//W3C//DTD SVG 20010904//EN"
 "http://www.w3.org/TR/2001/REC-SVG-20010904/DTD/svg10.dtd">
<svg version="1.0" xmlns="http://www.w3.org/2000/svg"
 width="900.000000pt" height="900.000000pt" viewBox="0 0 900.000000 900.000000"
 preserveAspectRatio="xMidYMid meet">
<metadata>
Created by potrace 1.15, written by Peter Selinger 2001-2017
</metadata>
<g transform="translate(0.000000,900.000000) scale(0.100000,-0.100000)"
fill="#000000" stroke="none">
<path d="M8214 6319 c-22 -11 -44 -48 -44 -75 0 -24 47 -64 75 -64 33 0 75 41
75 73 0 51 -61 88 -106 66z"/>
<path d="M695 5825 c-14 -13 -25 -36 -25 -50 0 -33 42 -75 75 -75 28 0 75 40
75 64 0 28 -22 64 -47 75 -36 16 -51 14 -78 -14z"/>
<path d="M8105 5495 c-14 -13 -25 -36 -25 -50 0 -14 11 -37 25 -50 13 -14 36
-25 50 -25 28 0 75 40 75 64 0 28 -22 64 -47 75 -36 16 -51 14 -78 -14z"/>
<path d="M1535 5028 c-50 -27 -60 -80 -22 -116 66 -62 165 24 105 91 -28 31
-56 40 -83 25z"/>
<path d="M1264 4370 c-26 -10 -54 -48 -54 -71 0 -32 39 -69 74 -69 82 0 103
99 29 138 -25 14 -21 13 -49 2z"/>
</g>
</svg>
