<?xml version="1.0" standalone="no"?>
<!DOCTYPE svg PUBLIC "-//W3C//DTD SVG 20010904//EN"
 "http://www.w3.org/TR/2001/REC-SVG-20010904/DTD/svg10.dtd">
<svg version="1.0" xmlns="http://www.w3.org/2000/svg"
 width="900.000000pt" height="900.000000pt" viewBox="0 0 900.000000 900.000000"
 preserveAspectRatio="xMidYMid meet">
<metadata>
Created by potrace 1.15, written by Peter Selinger 2001-2017
</metadata>
<g transform="translate(0.000000,900.000000) scale(0.100000,-0.100000)"
fill="#000000" stroke="none">
<path d="M0 4500 l0 -4500 4500 0 4500 0 0 4500 0 4500 -4500 0 -4500 0 0
-4500z m6060 3010 c20 -20 20 -33 20 -1195 0 -1162 0 -1175 -20 -1195 -20 -20
-33 -20 -633 -20 -597 0 -614 -1 -632 -20 -36 -39 3 -137 84 -213 102 -95 261
-147 454 -147 119 0 157 -9 157 -35 0 -13 -124 -15 -960 -15 -836 0 -960 2
-960 15 0 27 38 35 158 35 251 0 459 96 528 245 28 59 30 92 7 117 -15 17 -48
18 -630 18 -600 0 -613 0 -633 20 -20 20 -20 33 -20 1195 0 1162 0 1175 20
1195 20 20 33 20 1530 20 1497 0 1510 0 1530 -20z m-3520 -1140 l0 -30 -635 0
-635 0 0 30 0 30 635 0 635 0 0 -30z m4870 -525 l0 -35 -500 0 -500 0 0 35 0
35 500 0 500 0 0 -35z m-4790 -360 l0 -35 -670 0 -670 0 0 35 0 35 670 0 670
0 0 -35z m5600 -390 l0 -35 -820 0 -820 0 0 35 0 35 820 0 820 0 0 -35z m-540
-430 l0 -35 -540 0 -540 0 0 35 0 35 540 0 540 0 0 -35z m-4910 -55 l0 -30
-920 0 -920 0 0 30 0 30 920 0 920 0 0 -30z m478 -2157 l-3 -658 -341 -3
c-319 -2 -342 -3 -358 -21 -25 -28 -11 -67 44 -122 57 -57 122 -81 245 -89 50
-4 -144 -7 -430 -7 -286 0 -475 3 -420 7 121 8 192 37 247 98 47 52 57 86 33
112 -17 19 -35 20 -359 22 l-341 3 -3 645 c-1 355 0 651 3 658 3 9 182 12 845
12 l840 0 -2 -657z m2126 641 c8 -20 8 -1268 0 -1288 -5 -14 -45 -16 -342 -16
-298 0 -337 -2 -354 -17 -30 -27 -22 -60 27 -112 63 -68 125 -93 250 -101 55
-4 -136 -7 -425 -7 -289 0 -480 3 -425 7 125 8 187 33 250 101 48 51 56 81 28
111 -15 17 -39 18 -353 18 l-338 0 -6 23 c-8 29 -8 1261 0 1281 6 14 89 16
844 16 755 0 838 -2 844 -16z m2121 -644 l0 -655 -341 -3 c-322 -2 -342 -3
-359 -22 -24 -26 -7 -74 43 -123 54 -53 128 -79 242 -87 52 -4 -139 -7 -425
-7 -286 0 -477 3 -425 7 122 9 182 31 241 90 54 54 68 93 43 121 -16 18 -39
19 -358 21 l-341 3 -3 658 -2 657 842 -2 843 -3 0 -655z"/>
</g>
</svg>
