<?xml version="1.0" standalone="no"?>
<!DOCTYPE svg PUBLIC "-//W3C//DTD SVG 20010904//EN"
 "http://www.w3.org/TR/2001/REC-SVG-20010904/DTD/svg10.dtd">
<svg version="1.0" xmlns="http://www.w3.org/2000/svg"
 width="900.000000pt" height="900.000000pt" viewBox="0 0 900.000000 900.000000"
 preserveAspectRatio="xMidYMid meet">
<metadata>
Created by potrace 1.15, written by Peter Selinger 2001-2017
</metadata>
<g transform="translate(0.000000,900.000000) scale(0.100000,-0.100000)"
fill="#000000" stroke="none">
<path d="M8109 6348 c-38 -13 -57 -62 -38 -97 20 -36 63 -50 97 -30 81 45 29
157 -59 127z"/>
<path d="M600 5867 c-33 -16 -47 -58 -32 -92 25 -55 101 -57 131 -4 19 33 1
81 -35 98 -31 14 -33 14 -64 -2z"/>
<path d="M8010 5537 c-52 -26 -49 -104 5 -129 58 -26 119 33 95 91 -6 16 -23
33 -36 40 -31 14 -33 14 -64 -2z"/>
<path d="M1400 5040 c-44 -44 -8 -120 57 -120 57 0 89 67 53 113 -27 34 -80
37 -110 7z"/>
<path d="M1125 4380 c-41 -45 -10 -120 50 -120 38 0 75 35 75 71 0 60 -85 93
-125 49z"/>
</g>
</svg>
