<?xml version="1.0" standalone="no"?>
<!DOCTYPE svg PUBLIC "-//W3C//DTD SVG 20010904//EN"
 "http://www.w3.org/TR/2001/REC-SVG-20010904/DTD/svg10.dtd">
<svg version="1.0" xmlns="http://www.w3.org/2000/svg"
 width="900.000000pt" height="900.000000pt" viewBox="0 0 900.000000 900.000000"
 preserveAspectRatio="xMidYMid meet">
<metadata>
Created by potrace 1.15, written by Peter Selinger 2001-2017
</metadata>
<g transform="translate(0.000000,900.000000) scale(0.100000,-0.100000)"
fill="#000000" stroke="none">
<path d="M0 4500 l0 -4500 4500 0 4500 0 0 4500 0 4500 -4500 0 -4500 0 0
-4500z m2592 3361 c60 -30 91 -64 127 -132 l28 -54 376 -3 377 -2 0 -75 0 -75
-377 -2 -376 -3 -28 -54 c-38 -72 -62 -96 -136 -133 l-63 -31 0 -317 c0 -353
-5 -328 71 -362 126 -57 195 -214 155 -353 -30 -102 -85 -164 -181 -205 l-45
-19 2 -303 3 -303 303 -3 302 -2 0 -75 0 -75 -375 0 -375 0 -2 382 -3 383 -56
26 c-116 56 -175 161 -167 298 7 122 62 203 172 255 l56 27 0 325 0 325 -45
19 c-111 47 -178 152 -179 276 0 60 4 81 32 136 34 69 71 104 144 139 62 28
194 23 260 -10z m4368 -772 c58 -25 123 -92 153 -157 29 -64 29 -178 0 -243
-50 -112 -140 -172 -270 -177 -71 -4 -88 -1 -141 23 -71 32 -105 65 -147 143
l-30 57 -680 0 -680 0 -3 -207 -2 -208 -75 0 -75 0 0 280 0 280 757 2 758 3
27 54 c31 62 67 103 118 134 81 50 195 57 290 16z m739 -1160 c104 -52 154
-137 155 -264 0 -64 -5 -90 -24 -129 -31 -64 -81 -113 -147 -143 l-53 -24 0
-484 0 -484 53 -25 c113 -54 172 -149 171 -276 0 -119 -53 -211 -147 -258
-163 -81 -348 -21 -421 137 -32 71 -29 189 6 257 36 68 76 107 143 139 l55 26
-2 202 -3 202 -712 3 -713 2 0 75 0 75 713 2 712 3 3 201 2 201 -65 32 c-217
107 -221 417 -6 528 55 29 72 33 140 33 67 0 86 -4 140 -31z m-2649 -374 c87
-52 164 -95 172 -95 22 0 199 84 262 124 32 20 59 36 61 34 16 -18 88 -181
108 -244 53 -168 62 -234 62 -459 0 -178 -4 -227 -23 -323 -31 -155 -72 -276
-141 -417 -76 -155 -160 -272 -278 -386 l-95 -91 18 -71 c36 -149 135 -289
255 -363 33 -21 58 -38 57 -40 -2 -1 -217 -106 -478 -232 -261 -127 -476 -234
-477 -239 -2 -4 96 -58 217 -118 136 -68 219 -114 216 -122 -3 -6 -52 -72
-110 -146 l-105 -135 89 -476 c50 -262 90 -481 90 -486 0 -6 -167 -11 -413
-12 l-413 -3 93 489 92 489 -105 134 c-58 74 -107 140 -110 146 -3 8 80 54
216 122 121 60 220 113 220 117 0 4 -51 32 -112 62 -211 101 -843 408 -846
410 -1 2 24 19 57 39 121 75 208 198 251 356 l21 74 -109 111 c-206 212 -334
456 -398 759 -35 168 -44 424 -20 586 20 132 80 333 111 369 2 2 42 -23 91
-55 145 -94 303 -155 494 -190 181 -32 488 -18 665 31 28 8 69 20 93 26 l42
11 0 148 c0 132 3 161 18 161 2 0 75 -43 162 -95z m-1920 -960 l0 -75 -767 -2
-768 -3 -3 -302 -2 -303 -70 0 -70 0 0 380 0 380 840 0 840 0 0 -75z m4500
-1760 l0 -535 -70 0 -70 0 0 535 0 535 70 0 70 0 0 -535z m-6040 -135 l0 -170
-70 0 -70 0 0 170 0 170 70 0 70 0 0 -170z m0 -1020 l0 -430 -70 0 -70 0 0
430 0 430 70 0 70 0 0 -430z m6040 35 l0 -155 -70 0 -70 0 0 155 0 155 70 0
70 0 0 -155z"/>
</g>
</svg>
