<?xml version="1.0" standalone="no"?>
<!DOCTYPE svg PUBLIC "-//W3C//DTD SVG 20010904//EN"
 "http://www.w3.org/TR/2001/REC-SVG-20010904/DTD/svg10.dtd">
<svg version="1.0" xmlns="http://www.w3.org/2000/svg"
 width="2470.000000pt" height="2090.000000pt" viewBox="0 0 2470.000000 2090.000000"
 preserveAspectRatio="xMidYMid meet">
<metadata>
Created by potrace 1.15, written by Peter Selinger 2001-2017
</metadata>
<g transform="translate(0.000000,2090.000000) scale(0.100000,-0.100000)"
fill="#000000" stroke="none">
<path d="M12760 15661 c-18 -35 -11 -56 35 -101 25 -24 45 -48 45 -54 0 -5
-20 -31 -45 -57 -49 -52 -57 -85 -27 -112 32 -29 64 -21 112 28 24 25 49 45
55 45 6 0 31 -20 55 -45 46 -47 73 -55 104 -32 33 24 23 64 -30 118 l-48 49
48 49 c50 51 61 86 36 116 -25 30 -71 18 -122 -32 l-48 -47 -48 47 c-54 53
-102 64 -122 28z"/>
<path d="M10510 15250 c-11 -11 -20 -29 -20 -40 0 -11 9 -29 20 -40 17 -17 33
-20 103 -20 93 0 117 13 117 63 0 42 -33 57 -122 57 -65 0 -81 -3 -98 -20z"/>
<path d="M10887 15252 c-22 -24 -21 -65 1 -85 14 -13 38 -17 100 -17 69 0 85
3 102 20 11 11 20 29 20 40 0 11 -9 29 -20 40 -28 28 -178 30 -203 2z"/>
<path d="M11260 15250 c-11 -11 -20 -29 -20 -40 0 -11 9 -29 20 -40 17 -17 33
-20 103 -20 93 0 117 13 117 63 0 42 -33 57 -122 57 -65 0 -81 -3 -98 -20z"/>
<path d="M11637 15252 c-21 -23 -22 -66 -1 -86 12 -12 36 -16 100 -16 71 0 87
3 104 20 11 11 20 29 20 40 0 11 -9 29 -20 40 -28 28 -178 30 -203 2z"/>
<path d="M14287 15102 c-19 -21 -21 -45 -7 -73 10 -17 22 -19 110 -19 88 0
100 2 110 19 14 28 12 57 -6 75 -24 25 -185 23 -207 -2z"/>
<path d="M14662 15108 c-16 -16 -15 -73 2 -87 9 -8 47 -11 107 -9 89 3 94 4
108 29 13 24 13 29 -2 53 -17 25 -21 26 -110 26 -59 0 -97 -4 -105 -12z"/>
<path d="M15037 15102 c-19 -21 -21 -45 -7 -73 10 -17 22 -19 110 -19 88 0
100 2 110 19 14 28 12 57 -6 75 -24 25 -185 23 -207 -2z"/>
<path d="M15410 15105 c-16 -19 -16 -61 0 -80 10 -13 32 -15 109 -13 91 3 96
4 110 29 13 24 13 29 -2 53 -17 25 -21 26 -111 26 -71 0 -97 -4 -106 -15z"/>
<path d="M13007 14946 c-59 -16 -145 -75 -174 -118 -11 -18 -62 -112 -113
-208 -100 -190 -130 -229 -204 -267 -45 -23 -71 -26 -300 -43 -366 -26 -358
-29 -554 238 -73 99 -149 195 -170 212 -51 42 -159 74 -223 66 -27 -4 -128
-39 -225 -78 -194 -79 -240 -112 -283 -204 -36 -76 -36 -123 -1 -368 32 -222
32 -227 15 -279 -9 -28 -28 -66 -41 -84 -39 -51 -380 -336 -432 -360 -79 -38
-128 -32 -361 44 -243 79 -305 86 -403 40 -72 -32 -118 -81 -197 -208 -115
-185 -126 -210 -126 -303 0 -123 20 -157 218 -363 158 -164 201 -223 182 -253
-4 -6 -119 -10 -325 -10 -379 0 -346 15 -337 -149 10 -188 64 -395 144 -555
19 -38 31 -72 26 -76 -4 -4 -45 -20 -90 -34 -125 -41 -178 -87 -225 -193 -24
-55 -26 -122 -8 -344 12 -154 34 -213 100 -273 57 -52 108 -74 207 -91 115
-20 113 -19 148 -68 33 -45 88 -85 150 -109 l40 -16 3 -691 2 -691 -163 0
-164 0 -109 111 c-203 206 -388 341 -639 464 -219 108 -406 168 -655 212 -84
14 -157 18 -365 18 -292 0 -410 -15 -638 -81 -849 -244 -1494 -967 -1642
-1837 l-6 -38 -33 21 c-32 19 -49 20 -314 20 -242 0 -283 -2 -296 -16 -35 -34
-20 -63 114 -228 98 -122 127 -163 120 -175 -5 -9 -63 -70 -129 -136 -128
-126 -142 -153 -103 -188 16 -15 52 -17 299 -17 266 0 282 1 306 20 14 11 28
17 30 13 3 -5 12 -48 21 -96 56 -295 195 -630 364 -872 184 -264 429 -498 697
-665 110 -69 332 -173 458 -215 63 -22 113 -43 111 -47 -3 -4 -403 -8 -890 -8
l-884 0 0 -120 0 -120 7605 0 7605 0 0 120 0 120 -1660 0 c-1326 0 -1660 3
-1660 13 0 6 26 57 58 112 55 96 58 100 95 103 l37 3 0 53 c0 45 -3 54 -20 59
-15 4 -20 14 -20 41 0 29 4 36 20 36 18 0 20 7 20 60 0 53 -2 60 -20 60 -16 0
-20 7 -20 36 0 27 5 37 20 41 17 5 20 14 20 64 0 52 -2 59 -20 59 -18 0 -20 7
-20 63 0 174 286 919 487 1268 90 155 127 234 166 346 111 318 126 685 42
1013 -83 323 -277 642 -519 851 -218 190 -458 309 -748 370 -84 18 -137 22
-283 23 -199 0 -286 -12 -459 -65 l-99 -31 -149 149 c-226 226 -227 229 -143
573 87 356 87 356 404 461 228 75 280 102 324 166 56 81 60 103 53 278 -11
269 -30 340 -108 410 -66 60 -107 74 -345 116 -326 57 -321 53 -458 388 -82
201 -95 242 -95 291 0 31 5 72 12 91 6 19 67 113 136 209 156 218 167 241 166
345 0 107 -16 137 -165 313 -152 180 -179 197 -320 197 l-95 0 -210 -103
c-197 -97 -212 -102 -271 -102 -79 0 -97 7 -218 89 -55 38 -149 96 -210 131
-134 76 -138 78 -175 153 l-30 60 0 227 c0 254 -8 299 -63 372 -59 78 -106
101 -314 152 -203 50 -214 51 -286 32z m261 -148 c138 -34 180 -48 208 -71 66
-55 68 -64 74 -347 l5 -255 32 -67 c41 -87 98 -142 203 -198 46 -25 147 -86
223 -137 157 -104 197 -118 319 -111 77 5 86 8 286 107 300 149 317 147 497
-68 61 -72 115 -143 122 -158 15 -34 16 -103 4 -136 -5 -14 -68 -106 -139
-205 -72 -100 -138 -203 -149 -229 -13 -35 -18 -75 -18 -143 l0 -95 98 -240
c113 -276 140 -318 238 -381 50 -31 114 -48 327 -84 206 -35 216 -38 260 -75
51 -43 63 -76 73 -208 17 -224 15 -259 -14 -310 -15 -25 -41 -54 -59 -65 -18
-11 -114 -46 -213 -77 -99 -32 -204 -69 -233 -83 -62 -30 -146 -115 -172 -176
-11 -24 -47 -155 -81 -292 -55 -222 -61 -256 -56 -317 10 -119 47 -180 204
-339 75 -76 135 -139 132 -141 -2 -3 -42 -26 -88 -52 -162 -93 -349 -252 -463
-393 l-34 -44 -68 21 c-85 26 -175 27 -255 2 -65 -20 -97 -41 -201 -131 -36
-31 -91 -78 -122 -104 l-58 -48 -12 28 c-37 86 -100 141 -191 169 -16 4 -5 18
58 77 42 39 96 99 120 133 99 138 167 333 181 513 6 83 5 91 -15 111 -16 16
-33 21 -76 21 -30 0 -55 4 -55 10 0 5 19 40 41 77 514 840 371 1931 -342 2607
-421 400 -963 596 -1564 565 -482 -24 -966 -235 -1307 -567 -37 -36 -69 -64
-71 -61 -2 2 -20 39 -40 83 -48 102 -160 217 -257 264 -326 158 -699 1 -811
-340 -33 -100 -34 -283 -1 -370 l21 -58 -43 0 c-42 0 -44 1 -51 37 -14 77 -56
136 -212 297 -161 165 -192 211 -193 279 0 51 14 83 109 235 88 141 112 163
197 183 48 11 57 9 274 -61 216 -69 228 -72 305 -68 118 6 167 33 358 194 220
186 254 220 287 284 53 104 55 148 20 384 -36 248 -36 267 -9 324 28 57 61 77
250 152 237 95 251 90 432 -158 142 -195 185 -240 259 -275 89 -42 140 -45
409 -26 258 19 296 26 372 67 76 41 127 105 212 267 134 258 152 281 233 305
43 13 49 12 230 -32z m-548 -1474 c625 -89 1196 -508 1471 -1081 303 -632 259
-1355 -120 -1935 l-70 -108 -132 0 -131 0 6 23 c4 12 10 57 13 99 6 82 -5 143
-38 212 l-19 41 59 115 c284 550 204 1212 -202 1679 -209 239 -502 410 -828
483 -90 20 -131 23 -304 23 -157 0 -218 -4 -285 -19 -201 -43 -382 -117 -535
-216 -79 -52 -217 -163 -264 -214 l-24 -26 -208 0 c-125 0 -210 4 -214 10 -3
5 3 38 13 72 11 35 23 93 26 130 l7 66 107 104 c168 163 303 259 512 364 346
173 754 235 1160 178z m-2178 -241 c88 -41 137 -82 188 -155 106 -151 117
-326 30 -504 -32 -65 -36 -89 -20 -114 8 -13 72 -16 442 -20 l433 -5 -3 -55
c-2 -30 -12 -98 -22 -151 -81 -427 -368 -774 -750 -909 -81 -29 -90 -36 -90
-71 0 -56 11 -59 237 -59 225 0 262 -6 318 -52 56 -47 78 -99 73 -178 -6 -106
-67 -177 -173 -200 -34 -7 -321 -10 -895 -8 l-845 3 -41 22 c-163 87 -166 301
-5 385 l53 28 212 0 c232 0 249 4 249 55 0 29 -32 65 -58 65 -23 0 -159 60
-228 101 -178 106 -346 288 -445 484 -68 135 -132 376 -132 495 l0 50 447 2
447 3 15 27 c14 25 13 31 -29 119 -40 83 -44 102 -48 182 -8 153 41 273 155
379 96 89 179 119 318 115 88 -2 108 -6 167 -34z m2106 -338 c124 -20 266 -67
385 -126 395 -197 666 -551 754 -986 25 -124 25 -396 0 -513 -31 -146 -113
-364 -159 -423 -13 -17 -17 -16 -72 17 -71 43 -148 60 -242 54 -234 -15 -416
-248 -375 -481 6 -35 11 -69 11 -75 0 -9 -71 -12 -272 -12 -150 0 -278 -4
-284 -8 -25 -17 -33 -51 -27 -122 l6 -73 -85 6 c-229 18 -485 119 -697 275
-73 54 -251 226 -251 243 0 4 23 30 51 56 28 26 63 70 77 98 24 44 27 62 27
145 0 84 -3 102 -28 152 -52 105 -155 172 -287 186 l-72 7 73 50 c151 103 312
293 406 479 81 160 140 404 146 594 2 77 0 85 -22 103 -19 16 -39 19 -113 19
-106 0 -106 0 3 81 173 128 385 218 598 254 107 18 337 18 449 0z m-3413
-1274 c40 -58 212 -222 280 -267 l58 -39 -74 -8 c-173 -18 -299 -139 -316
-302 -5 -49 -8 -55 -29 -55 -53 0 -123 23 -157 51 -61 50 -68 75 -83 273 l-14
180 24 52 c13 28 38 61 55 73 31 22 181 79 212 80 9 1 29 -17 44 -38z m4235
-845 c49 -25 118 -93 142 -141 14 -26 23 -66 26 -116 4 -65 1 -84 -23 -140
-36 -86 -39 -101 -21 -124 14 -19 29 -20 303 -25 l288 -5 -4 -50 c-8 -113 -81
-302 -156 -405 -81 -110 -212 -211 -333 -256 -78 -30 -94 -43 -94 -78 0 -52
11 -56 176 -56 127 0 157 -3 185 -18 65 -35 89 -118 51 -179 -39 -65 -17 -63
-675 -63 -651 0 -625 -2 -669 57 -27 36 -27 104 0 140 39 54 74 63 236 63
l148 0 17 26 c26 41 3 71 -80 105 -193 78 -335 213 -422 402 -38 82 -75 220
-75 280 l0 37 292 0 c257 0 294 2 310 17 25 22 23 50 -9 119 -37 80 -38 185
-3 259 31 64 88 120 153 151 44 21 63 24 127 21 45 -2 89 -11 110 -21z m-2375
-831 l0 -680 -757 -3 -758 -2 0 685 0 685 758 -2 757 -3 0 -680z m190 604 c28
-33 82 -89 120 -124 252 -226 574 -366 900 -393 l89 -7 18 -50 c48 -134 108
-241 184 -331 35 -41 50 -65 42 -70 -23 -14 -390 -7 -498 10 -314 49 -614 171
-862 350 l-57 41 -1 318 c0 174 3 317 8 317 4 0 30 -28 57 -61z m5050 -484
c555 -90 1009 -486 1195 -1043 56 -167 80 -319 80 -505 0 -309 -62 -547 -206
-798 -191 -331 -374 -760 -490 -1149 -20 -69 -38 -126 -39 -128 -2 -2 -433 -4
-482 -2 -10 0 -13 57 -13 250 l0 250 -60 0 -60 0 0 -249 0 -249 -122 -4 c-68
-2 -131 -2 -140 0 -16 4 -18 26 -20 251 l-3 246 -57 3 -58 3 0 -251 c0 -137
-3 -250 -7 -250 -101 -2 -486 0 -488 2 -1 2 -21 66 -45 143 -123 402 -279 769
-466 1101 -41 72 -91 169 -110 215 -43 101 -87 271 -104 395 -18 134 -8 421
20 549 125 586 549 1043 1103 1190 52 14 121 29 153 34 97 14 322 12 419 -4z
m-8635 -139 c457 -78 858 -282 1192 -606 l100 -97 -50 -47 c-90 -85 -124 -215
-84 -328 11 -32 19 -58 18 -58 -2 0 -27 33 -57 73 -237 319 -614 572 -1006
672 -249 64 -575 72 -820 21 -738 -155 -1302 -730 -1437 -1465 l-23 -126 -130
-3 -131 -3 -43 34 c-51 39 -51 37 -18 207 38 194 124 426 227 615 334 611 951
1029 1652 1120 137 18 479 13 610 -9z m3616 -162 c338 -213 699 -315 1112
-316 100 0 182 -3 182 -7 0 -5 -10 -16 -21 -27 -61 -54 -81 -191 -41 -271 28
-53 73 -97 122 -119 l41 -18 -3 -141 -3 -140 -155 -11 c-184 -13 -208 -18
-281 -55 -91 -45 -130 -95 -244 -309 -154 -290 -174 -303 -395 -250 -197 48
-227 58 -264 91 -58 50 -67 91 -64 279 l3 165 165 5 c154 5 168 7 216 32 151
79 210 260 135 413 -34 69 -77 111 -151 147 -41 21 -62 23 -247 26 l-203 4 0
279 c0 153 2 279 4 279 2 0 44 -25 92 -56z m3430 -299 l35 -15 -26 -42 c-295
-483 -325 -1152 -74 -1651 17 -34 59 -109 92 -167 138 -239 290 -598 411 -968
59 -180 66 -211 66 -281 0 -67 -3 -79 -18 -83 -29 -8 -26 -118 3 -118 24 0 20
-76 -4 -83 -16 -4 -18 -13 -17 -58 2 -42 6 -55 19 -57 25 -5 24 -79 0 -84 -15
-3 -18 -14 -18 -56 0 -51 0 -52 31 -52 17 0 38 -8 46 -17 27 -31 117 -196 112
-205 -6 -10 -484 -11 -484 0 0 4 14 27 30 51 101 149 32 340 -140 388 -48 13
-59 20 -54 32 34 77 46 130 41 183 -10 113 -74 200 -183 249 -58 26 -64 32
-70 66 -20 109 -91 226 -176 289 -80 59 -139 76 -285 83 l-123 6 -1 372 c0
205 2 377 6 382 4 7 53 11 126 11 137 0 173 11 232 68 83 81 88 217 10 303
-61 67 -98 80 -247 88 l-131 6 0 55 c0 53 1 56 52 104 57 53 99 126 109 193 4
26 -6 126 -27 272 -32 225 -32 233 -16 284 9 29 27 66 39 83 40 53 400 353
443 368 53 19 147 20 191 1z m-7072 -25 c536 -106 971 -439 1216 -929 133
-264 194 -582 170 -878 -15 -187 -11 -179 -112 -230 -116 -58 -219 -165 -276
-285 -38 -80 -72 -190 -72 -236 0 -15 -8 -23 -27 -28 -149 -33 -249 -107 -308
-229 -42 -87 -50 -210 -20 -304 4 -13 -11 -26 -62 -55 -677 -376 -1519 -247
-2060 317 -233 243 -392 554 -448 876 -24 136 -50 122 211 119 l226 -3 28
-110 c33 -129 57 -193 112 -295 169 -315 447 -531 807 -628 87 -23 115 -25
291 -26 180 -1 203 1 301 26 233 59 405 156 580 328 194 190 298 379 356 642
25 117 25 380 -1 498 -83 382 -321 697 -656 865 -495 249 -1070 159 -1456
-229 -177 -178 -283 -368 -340 -608 l-18 -78 -229 0 -229 0 7 53 c12 91 61
268 104 377 80 206 194 379 361 553 270 281 603 453 990 512 138 21 412 14
554 -15z m3977 -335 c54 -38 83 -94 83 -160 0 -61 -23 -105 -77 -149 l-39 -31
-1241 -3 c-683 -1 -1257 0 -1275 3 -48 9 -117 79 -132 135 -23 85 20 178 102
219 l43 21 1247 -2 1246 -3 43 -30z m2179 -560 l0 -445 -497 2 -498 3 -3 443
-2 442 500 0 500 0 0 -445z m-6206 316 c209 -55 369 -146 521 -296 114 -112
166 -183 230 -318 201 -420 126 -913 -191 -1255 -166 -181 -403 -307 -645
-347 -439 -71 -877 121 -1125 493 -73 109 -147 288 -168 405 l-7 37 262 -2
261 -3 19 -48 c64 -162 218 -304 389 -358 326 -104 687 90 784 421 96 326
-109 685 -439 770 -292 75 -583 -60 -719 -333 l-31 -62 -258 -3 -257 -2 0 24
c0 14 12 62 26 108 126 401 443 688 859 778 122 27 371 22 489 -9z m1404 -199
c51 -23 72 -26 199 -30 l143 -5 29 -76 c53 -139 52 -126 49 -621 l-3 -465
-139 -3 -139 -3 7 58 c50 432 -38 845 -255 1200 l-41 67 46 -48 c26 -26 72
-59 104 -74z m2072 -682 l5 -645 260 -5 c258 -5 261 -5 318 -32 80 -37 183
-142 225 -229 35 -72 67 -183 57 -199 -8 -14 -3231 -14 -3240 0 -9 15 24 129
58 200 42 85 142 187 222 226 l60 29 255 5 255 5 3 648 2 647 758 -2 757 -3 5
-645z m1610 371 l0 -248 -117 -5 c-130 -6 -169 -17 -226 -67 -49 -44 -70 -104
-65 -184 5 -77 36 -132 100 -174 39 -26 50 -28 172 -33 l131 -5 3 -381 2 -381
-122 -6 c-130 -5 -209 -26 -264 -69 l-27 -22 -47 27 c-26 15 -71 33 -100 40
l-53 14 -18 87 c-52 255 -233 454 -458 502 -41 8 -128 14 -233 14 l-168 0 0
350 c0 193 2 350 5 350 3 0 20 -16 37 -35 50 -57 103 -81 278 -126 184 -46
250 -51 327 -25 95 32 138 82 249 293 54 103 114 205 133 226 71 78 154 101
389 106 l72 1 0 -249z m-5235 -106 c224 -59 376 -252 378 -480 1 -193 -107
-367 -278 -450 -191 -92 -406 -60 -559 84 -41 39 -116 146 -116 167 0 10 59
13 263 16 291 3 295 4 355 72 73 84 47 226 -52 279 -39 21 -55 22 -298 25
-197 2 -258 6 -258 16 0 22 56 100 106 147 128 119 300 165 459 124z m-2378
-310 l126 -95 1087 0 c1042 0 1089 -1 1111 -18 15 -13 22 -30 22 -52 0 -22 -7
-39 -22 -52 -22 -17 -69 -18 -1112 -18 l-1088 0 -127 -95 -127 -95 -173 0
c-96 0 -174 3 -174 8 0 4 43 50 95 102 64 64 95 102 95 117 0 14 -41 73 -105
153 -58 71 -105 132 -105 135 0 3 83 5 185 5 l185 0 127 -95z m9108 31 c84
-36 85 -160 1 -200 -31 -14 -116 -16 -863 -16 -930 0 -879 -4 -917 73 -16 34
-17 42 -4 75 8 20 29 47 47 59 l34 23 834 0 c698 0 839 -2 868 -14z m-373
-778 l3 -443 190 -5 c216 -6 239 -12 309 -90 42 -46 86 -132 86 -167 l0 -23
-978 0 -978 0 -12 62 c-6 34 -23 85 -37 113 -14 29 -25 54 -25 57 0 3 22 15
49 27 44 19 69 21 220 21 l171 0 0 445 0 445 500 0 500 0 2 -442z m-8285 297
c90 -628 526 -1179 1123 -1422 384 -156 849 -174 1237 -49 56 19 103 32 103
29 0 -3 -9 -16 -20 -30 -55 -70 -77 -219 -45 -308 8 -22 15 -43 15 -46 0 -3
-42 -15 -92 -27 -337 -77 -621 -82 -948 -16 -809 162 -1473 790 -1680 1588
-31 120 -65 304 -57 312 2 3 22 18 43 34 l39 30 134 -3 135 -2 13 -90z m6590
-760 c68 -20 143 -88 174 -157 50 -115 21 -248 -72 -332 -92 -82 71 -76 -1899
-76 -2001 0 -1813 -9 -1912 90 -43 43 -60 69 -72 110 -34 115 -11 206 72 290
97 97 -90 88 1903 89 1538 1 1762 -1 1806 -14z m2461 -418 c121 -79 102 -266
-31 -316 -19 -8 -322 -11 -947 -11 l-918 0 -22 35 c-47 77 -150 133 -260 142
-39 3 -70 8 -70 10 0 2 13 24 30 47 16 24 37 62 46 85 l16 41 1057 -2 1057 -3
42 -28z m2262 -17 l0 -30 -745 0 -745 0 0 30 0 30 745 0 745 0 0 -30z m0 -190
l0 -40 -745 0 -745 0 0 40 0 40 745 0 745 0 0 -40z m-4377 -73 c78 -33 147
-129 147 -206 0 -85 -58 -177 -134 -212 -39 -18 -123 -19 -2154 -19 -2334 0
-2149 -5 -2221 63 -63 60 -85 142 -61 228 13 48 75 118 124 140 39 18 123 19
2154 19 1750 0 2118 -2 2145 -13z m4377 -127 l0 -40 -742 2 -743 3 -3 38 -3
37 745 0 746 0 0 -40z m-2024 -81 c63 -63 53 -165 -20 -210 -30 -18 -71 -19
-1089 -19 l-1057 0 29 53 c29 51 57 166 47 192 -2 7 -2 16 1 19 4 4 467 5
1030 4 l1023 -3 36 -36z m1964 -80 c0 -6 -19 -42 -41 -80 l-41 -69 -602 0
-602 0 -41 72 c-23 40 -39 76 -37 80 8 13 1364 10 1364 -3z"/>
<path d="M12293 11945 c-105 -23 -189 -70 -273 -155 -123 -122 -170 -237 -170
-413 0 -334 274 -594 605 -574 154 9 275 65 385 176 108 110 160 240 160 401
0 164 -53 293 -167 408 -141 142 -342 200 -540 157z m319 -147 c174 -84 270
-232 270 -418 0 -175 -93 -329 -247 -408 -183 -93 -385 -61 -531 83 -248 245
-148 656 186 767 42 14 77 17 152 15 85 -3 104 -8 170 -39z"/>
<path d="M15809 9606 c-121 -34 -234 -132 -265 -231 -17 -51 -21 -56 -58 -66
-172 -46 -319 -219 -345 -404 -11 -78 -1 -178 24 -239 l16 -37 -50 -55 c-116
-126 -157 -309 -111 -490 26 -99 69 -172 143 -239 54 -49 59 -58 72 -119 50
-238 254 -408 519 -432 87 -8 181 6 289 43 l77 26 78 -26 c246 -84 476 -45
655 112 72 64 156 226 157 304 0 22 17 45 73 100 82 80 120 147 143 255 36
172 -11 353 -121 471 l-44 47 20 65 c25 78 28 203 6 275 -49 166 -183 303
-333 343 -37 10 -41 15 -58 66 -31 101 -144 198 -270 231 -75 20 -196 18 -256
-5 -49 -19 -51 -19 -100 0 -59 22 -188 25 -261 5z m224 -115 l27 -11 0 -150 0
-150 60 0 60 0 0 150 0 150 28 12 c36 15 146 15 199 0 72 -21 135 -71 166
-131 25 -50 27 -64 27 -166 0 -117 -6 -135 -46 -135 -25 0 -34 17 -34 66 l0
34 -54 0 c-30 0 -58 -5 -61 -11 -4 -6 -4 -36 0 -67 6 -47 13 -63 44 -93 63
-63 153 -65 219 -4 35 32 37 36 40 112 4 107 4 107 48 88 96 -40 181 -136 214
-242 25 -82 25 -134 0 -215 -17 -55 -29 -74 -84 -126 -64 -62 -101 -77 -113
-46 -3 9 5 26 21 43 14 15 26 32 26 37 0 5 -17 27 -38 47 l-39 38 -46 -50
c-42 -45 -47 -55 -47 -96 0 -104 81 -170 185 -151 20 4 59 28 95 57 l60 51 32
-34 c17 -18 45 -62 62 -98 29 -60 31 -73 31 -175 0 -100 -3 -116 -28 -171 -16
-35 -49 -82 -77 -109 l-48 -48 -29 21 c-15 11 -43 36 -62 56 -29 30 -32 38
-21 51 18 22 35 19 74 -15 l35 -31 40 43 41 43 -41 37 c-54 49 -105 65 -159
49 -88 -26 -132 -98 -111 -178 9 -33 28 -57 91 -113 92 -84 92 -85 34 -207
-56 -117 -173 -205 -313 -234 -79 -16 -212 -6 -291 23 l-65 23 -3 148 -3 147
-59 0 -59 0 -3 -147 -3 -148 -65 -23 c-79 -29 -212 -39 -291 -23 -139 29 -257
117 -313 234 -59 122 -59 123 26 202 40 37 78 77 85 89 19 33 16 107 -7 144
-22 35 -88 72 -130 72 -36 0 -101 -33 -132 -66 l-27 -29 37 -43 37 -43 38 31
c41 35 70 36 75 4 2 -15 -13 -35 -53 -69 l-56 -48 -49 48 c-28 27 -61 74 -77
109 -25 55 -28 71 -28 171 0 102 2 115 31 175 17 36 45 80 63 99 l31 33 46
-42 c79 -73 147 -88 219 -47 66 37 94 122 61 185 -8 15 -31 43 -50 62 l-37 34
-38 -44 -39 -45 30 -32 c34 -35 32 -63 -4 -63 -33 1 -135 101 -160 158 -17 36
-22 68 -22 137 -1 83 2 96 32 157 36 75 104 148 163 178 63 33 69 29 69 -42 1
-118 59 -188 157 -188 91 0 153 65 153 162 l0 59 -57 -3 -58 -3 -5 -45 c-5
-42 -7 -45 -35 -45 l-30 0 -3 110 c-3 121 7 173 44 222 67 88 240 135 347 94z"/>
<path d="M9766 14775 c-100 -35 -166 -133 -166 -244 0 -83 22 -132 82 -187
107 -98 265 -91 361 16 152 168 34 432 -192 430 -25 -1 -63 -7 -85 -15z m161
-125 c90 -55 86 -186 -7 -239 -47 -26 -80 -26 -131 0 -72 36 -96 128 -52 197
37 59 129 79 190 42z"/>
<path d="M15840 14185 c-57 -18 -124 -75 -153 -129 -29 -54 -31 -174 -3 -226
81 -155 274 -196 403 -85 135 116 110 340 -47 420 -62 31 -141 39 -200 20z
m151 -128 c90 -60 88 -181 -4 -237 -97 -60 -218 19 -205 134 12 103 126 159
209 103z"/>
<path d="M7038 12869 c-21 -12 -24 -69 -6 -87 8 -8 46 -12 104 -12 100 0 124
10 124 54 0 43 -29 56 -121 56 -46 0 -92 -5 -101 -11z"/>
<path d="M7403 12854 c-15 -24 -15 -29 -2 -53 14 -25 19 -26 108 -29 105 -3
121 4 121 52 0 49 -14 56 -117 56 -89 0 -93 -1 -110 -26z"/>
<path d="M7788 12869 c-21 -12 -24 -69 -6 -87 8 -8 46 -12 103 -12 98 0 125
12 125 57 0 40 -30 53 -121 53 -46 0 -92 -5 -101 -11z"/>
<path d="M8153 12854 c-15 -24 -15 -29 -2 -53 14 -25 19 -26 108 -29 105 -3
121 4 121 52 0 49 -14 56 -117 56 -89 0 -93 -1 -110 -26z"/>
<path d="M15907 12772 c-23 -25 -21 -58 3 -82 17 -17 33 -20 98 -20 90 0 122
15 122 59 0 48 -26 61 -122 61 -70 0 -88 -3 -101 -18z"/>
<path d="M16288 12778 c-30 -24 -31 -56 -4 -83 23 -23 33 -25 105 -25 74 0 81
2 100 27 23 28 20 59 -7 81 -10 7 -47 12 -97 12 -50 0 -87 -5 -97 -12z"/>
<path d="M16657 12772 c-23 -25 -21 -58 3 -82 17 -17 33 -20 98 -20 90 0 122
15 122 59 0 48 -26 61 -122 61 -70 0 -88 -3 -101 -18z"/>
<path d="M17038 12778 c-30 -24 -31 -56 -4 -83 22 -22 33 -25 101 -25 68 0 79
3 101 25 18 19 23 31 19 48 -12 38 -34 47 -120 47 -50 0 -87 -5 -97 -12z"/>
<path d="M7996 12234 c-28 -27 -19 -62 30 -114 l47 -50 -47 -50 c-49 -52 -58
-87 -30 -114 28 -29 65 -19 116 31 l47 46 50 -46 c71 -67 131 -64 131 7 0 23
-12 42 -47 78 l-47 48 47 48 c35 36 47 55 47 78 0 71 -63 75 -132 7 l-48 -47
-48 47 c-51 50 -87 60 -116 31z"/>
<path d="M17016 11794 c-28 -27 -19 -62 30 -114 l47 -50 -47 -50 c-46 -50 -55
-75 -36 -111 20 -36 68 -25 122 28 l48 47 48 -47 c36 -35 55 -47 78 -47 71 0
75 63 7 132 l-47 48 47 48 c53 54 64 102 28 122 -36 19 -61 10 -112 -37 l-50
-46 -47 46 c-51 50 -88 60 -116 31z"/>
<path d="M6272 11734 c-242 -121 -155 -484 117 -484 235 0 346 286 171 443
-81 73 -192 89 -288 41z m194 -115 c91 -55 81 -185 -17 -237 -149 -79 -279
138 -142 236 49 35 102 35 159 1z"/>
<path d="M7427 10595 c-35 -18 -44 -42 -27 -73 15 -26 19 -27 107 -30 73 -2
94 0 107 13 19 19 21 68 4 83 -17 14 -167 19 -191 7z"/>
<path d="M7875 10602 c-88 -3 -105 -12 -105 -53 0 -48 21 -59 120 -59 85 0 90
1 106 26 21 31 10 74 -21 83 -11 3 -56 5 -100 3z"/>
<path d="M8242 10600 c-84 -5 -101 -14 -102 -50 0 -9 7 -26 16 -38 14 -20 24
-22 104 -22 99 0 120 11 120 59 0 50 -23 58 -138 51z"/>
<path d="M17185 10600 c-62 -4 -71 -8 -84 -31 -13 -24 -13 -29 2 -53 17 -25
22 -26 103 -26 104 0 124 9 124 54 0 55 -25 65 -145 56z"/>
<path d="M6340 10581 c-29 -56 2 -91 82 -91 76 0 107 36 78 91 -9 16 -22 19
-80 19 -58 0 -71 -3 -80 -19z"/>
<path d="M6656 10584 c-20 -20 -20 -43 0 -72 14 -20 24 -22 100 -22 103 0 124
9 124 53 0 50 -13 57 -116 57 -71 0 -96 -4 -108 -16z"/>
<path d="M7032 10588 c-17 -17 -15 -64 4 -82 24 -25 185 -23 207 2 19 21 21
45 7 73 -10 17 -22 19 -108 19 -63 0 -102 -4 -110 -12z"/>
<path d="M16422 10588 c-7 -7 -12 -27 -12 -45 0 -40 21 -53 85 -53 64 0 85 13
85 53 0 47 -15 57 -85 57 -34 0 -66 -5 -73 -12z"/>
<path d="M16732 10588 c-17 -17 -15 -64 4 -82 24 -25 185 -23 207 2 19 21 21
45 7 73 -10 17 -22 19 -108 19 -63 0 -102 -4 -110 -12z"/>
<path d="M17482 10588 c-17 -17 -15 -64 4 -82 24 -25 185 -23 207 2 19 21 21
45 7 73 -10 17 -22 19 -108 19 -63 0 -102 -4 -110 -12z"/>
<path d="M17853 10574 c-15 -24 -15 -29 -2 -53 14 -25 19 -26 102 -29 104 -3
127 6 127 51 0 50 -13 57 -117 57 -89 0 -93 -1 -110 -26z"/>
<path d="M18232 10588 c-17 -17 -15 -64 4 -82 24 -25 185 -23 207 2 19 21 21
45 7 73 -10 17 -22 19 -108 19 -63 0 -102 -4 -110 -12z"/>
<path d="M18731 9819 c-130 -24 -224 -153 -206 -283 8 -66 36 -116 89 -163 49
-43 101 -63 166 -63 65 0 117 20 166 63 78 68 108 158 85 254 -32 131 -165
216 -300 192z m129 -139 c59 -42 75 -110 43 -177 -21 -46 -67 -73 -122 -73
-135 0 -193 171 -84 248 53 37 112 38 163 2z"/>
<path d="M18130 8210 c-25 -25 -26 -62 -2 -83 14 -13 39 -17 104 -17 94 0 118
13 118 63 0 42 -33 57 -122 57 -65 0 -81 -3 -98 -20z"/>
<path d="M18512 8214 c-26 -18 -30 -65 -6 -88 12 -12 36 -16 100 -16 71 0 87
3 104 20 32 32 25 66 -17 89 -33 17 -154 14 -181 -5z"/>
<path d="M18880 8210 c-11 -11 -20 -31 -20 -44 0 -41 34 -56 126 -56 90 0 114
13 114 63 0 42 -33 57 -122 57 -65 0 -81 -3 -98 -20z"/>
<path d="M19262 8214 c-29 -20 -31 -79 -3 -94 11 -5 56 -10 100 -10 68 0 84 3
101 20 26 26 25 46 -5 75 -21 22 -33 25 -97 25 -50 0 -81 -5 -96 -16z"/>
<path d="M3177 7722 c-28 -30 -20 -60 28 -111 25 -26 45 -52 45 -57 0 -6 -20
-30 -45 -54 -25 -24 -45 -52 -45 -61 0 -31 12 -50 37 -60 30 -11 65 6 113 55
l34 36 46 -44 c59 -58 83 -64 115 -32 14 14 25 32 25 41 0 9 -22 40 -50 69
l-50 52 36 35 c49 47 66 82 55 112 -10 25 -29 37 -60 37 -9 0 -37 -20 -61 -45
-24 -25 -48 -45 -54 -45 -5 0 -31 20 -57 45 -52 49 -85 57 -112 27z"/>
<path d="M17976 7054 c-28 -27 -19 -62 30 -114 l47 -50 -47 -50 c-49 -52 -58
-87 -30 -114 28 -29 65 -19 116 31 l47 46 50 -46 c71 -67 131 -64 131 7 0 23
-12 42 -47 78 l-47 48 47 48 c35 36 47 55 47 78 0 71 -63 75 -132 7 l-48 -47
-48 47 c-51 50 -87 60 -116 31z"/>
<path d="M4375 6354 c-101 -36 -165 -131 -165 -243 0 -83 22 -133 83 -188 43
-40 121 -73 172 -73 60 0 131 33 181 84 60 62 79 117 71 206 -15 167 -182 271
-342 214z m156 -119 c41 -22 69 -71 69 -123 0 -149 -189 -194 -258 -61 -62
120 67 246 189 184z"/>
<path d="M18130 5990 c-11 -11 -20 -29 -20 -40 0 -11 9 -29 20 -40 17 -17 33
-20 103 -20 93 0 117 13 117 63 0 42 -33 57 -122 57 -65 0 -81 -3 -98 -20z"/>
<path d="M18507 5992 c-21 -23 -22 -66 -1 -86 12 -12 36 -16 100 -16 71 0 87
3 104 20 11 11 20 29 20 40 0 11 -9 29 -20 40 -28 28 -178 30 -203 2z"/>
<path d="M18880 5990 c-11 -11 -20 -29 -20 -40 0 -11 9 -29 20 -40 17 -17 33
-20 103 -20 93 0 117 13 117 63 0 42 -33 57 -122 57 -65 0 -81 -3 -98 -20z"/>
<path d="M19257 5992 c-21 -23 -22 -66 -1 -86 12 -12 36 -16 100 -16 71 0 87
3 104 20 11 11 20 29 20 40 0 11 -9 29 -20 40 -28 28 -178 30 -203 2z"/>
<path d="M2410 5250 l0 -120 465 0 465 0 0 120 0 120 -465 0 -465 0 0 -120z"/>
<path d="M3790 5250 l0 -120 415 0 415 0 0 120 0 120 -415 0 -415 0 0 -120z"/>
<path d="M20970 5250 l0 -120 463 2 462 3 3 118 3 117 -466 0 -465 0 0 -120z"/>
</g>
</svg>
