<?xml version="1.0" standalone="no"?>
<!DOCTYPE svg PUBLIC "-//W3C//DTD SVG 20010904//EN"
 "http://www.w3.org/TR/2001/REC-SVG-20010904/DTD/svg10.dtd">
<svg version="1.0" xmlns="http://www.w3.org/2000/svg"
 width="2470.000000pt" height="2090.000000pt" viewBox="0 0 2470.000000 2090.000000"
 preserveAspectRatio="xMidYMid meet">
<metadata>
Created by potrace 1.15, written by Peter Selinger 2001-2017
</metadata>
<g transform="translate(0.000000,2090.000000) scale(0.100000,-0.100000)"
fill="#000000" stroke="none">
<path d="M12763 16652 c-147 -52 -221 -157 -231 -325 l-5 -88 -636 -630 -636
-629 -1757 0 -1758 0 0 -120 0 -120 213 -2 212 -3 0 -1405 0 -1405 -350 -5
c-381 -5 -377 -5 -439 -66 -50 -51 -70 -102 -70 -179 0 -104 43 -174 139 -223
l40 -21 -421 -1 c-241 0 -444 -4 -475 -10 -167 -32 -254 -194 -186 -344 28
-60 26 -63 -13 -41 -20 11 -76 14 -268 15 -263 0 -279 -3 -321 -56 -28 -35
-29 -116 -2 -160 36 -59 76 -66 343 -62 l235 3 36 28 c50 38 67 93 45 153 -8
24 -14 44 -12 44 3 0 23 -12 46 -27 40 -27 48 -28 203 -33 184 -6 206 -14 226
-79 9 -32 9 -44 -6 -75 -31 -66 -33 -66 -438 -66 -362 0 -364 0 -408 -23 -127
-68 -140 -255 -22 -344 l36 -28 656 0 c654 0 656 0 736 23 148 42 247 99 471
271 115 88 212 156 217 152 4 -4 6 -173 5 -377 l-3 -369 -1435 -5 -1435 -5
-58 -23 c-105 -43 -193 -130 -235 -234 -16 -40 -17 -172 -22 -1793 l-5 -1750
-138 -5 c-176 -6 -170 0 -165 -165 3 -109 6 -124 31 -169 15 -27 27 -50 27
-52 0 -2 -115 -4 -255 -4 l-255 0 0 -120 0 -120 8125 0 8125 0 0 120 0 120
-460 0 c-253 0 -460 2 -460 5 0 2 23 25 50 51 57 53 105 142 120 223 15 79 14
2403 -1 2473 -30 141 -125 248 -269 305 -41 16 -106 18 -720 23 l-675 5 -3 37
-3 38 -207 2 -207 3 -3 2878 -2 2877 210 0 210 0 0 120 0 120 -1757 0 -1758 0
-661 655 -661 654 -5 73 c-8 123 -83 230 -196 281 -66 29 -181 33 -249 9z
m223 -137 c71 -42 97 -91 104 -194 l5 -87 624 -620 624 -619 -107 -3 -107 -3
-467 462 c-257 253 -477 466 -490 472 -18 8 -28 7 -50 -10 l-27 -20 -3 -452
-2 -451 -216 2 -216 3 -1 421 c-2 400 -3 423 -21 443 -43 48 -44 47 -521 -424
l-450 -444 -110 0 -110 0 603 599 c331 330 602 603 603 607 0 4 2 49 4 98 2
50 8 102 13 116 17 44 64 91 117 116 64 31 135 26 201 -12z m601 -1167 c194
-194 353 -356 353 -361 0 -4 -163 -6 -362 -5 l-363 3 -3 358 c-2 281 0 357 10
357 7 0 172 -159 365 -352z m-1059 -25 l-3 -338 -325 -3 c-179 -1 -331 0 -339
3 -10 4 92 113 319 340 184 184 338 335 343 335 4 0 6 -152 5 -337z m-2239
-588 c-3 -2 -57 -18 -120 -34 -647 -163 -1116 -667 -1235 -1326 -24 -136 -24
-422 0 -552 23 -126 59 -248 107 -363 22 -52 43 -102 45 -110 3 -10 -23 -37
-76 -77 -44 -35 -84 -63 -89 -63 -6 0 -22 16 -37 35 -46 61 -58 56 -339 -139
-137 -95 -253 -171 -257 -169 -5 2 -8 634 -8 1404 l0 1399 1007 0 c553 0 1004
-2 1002 -5z m7219 -2872 l-3 -2878 -4610 0 -4610 0 -3 945 -2 945 482 370
c265 204 493 380 505 392 28 27 29 60 3 93 -11 14 -20 28 -20 32 0 4 38 37 85
73 l85 67 78 -65 c460 -383 1072 -490 1636 -286 339 122 660 389 850 706 241
402 296 916 147 1363 -116 348 -345 649 -646 851 -159 107 -387 205 -560 240
-33 7 -67 16 -75 20 -8 5 1487 9 3323 9 l3337 0 -2 -2877z m-6820 2767 c264
-24 498 -103 711 -244 348 -228 584 -574 673 -990 29 -136 32 -423 5 -566
-105 -560 -511 -1021 -1052 -1193 -312 -100 -636 -97 -951 8 -225 75 -413 192
-589 369 -222 223 -355 464 -425 771 -27 117 -37 366 -21 498 45 356 206 677
465 924 250 239 585 392 925 423 126 11 135 11 259 0z m-1492 -2457 c21 -32
61 -84 87 -116 27 -32 46 -64 43 -72 -6 -17 -135 -115 -150 -115 -10 0 -150
178 -179 226 -5 9 17 32 70 73 43 33 81 60 84 60 3 1 23 -25 45 -56z m-224
-250 c85 -115 157 -213 161 -219 7 -12 -1361 -1072 -1478 -1145 -33 -21 -91
-50 -130 -64 -139 -53 -170 -55 -803 -55 l-586 0 -23 22 c-30 28 -31 83 -1
115 l21 23 361 0 c203 0 376 4 396 10 47 13 106 63 130 110 48 95 34 195 -39
270 -59 61 -91 70 -259 70 -151 0 -180 9 -206 64 -26 54 -21 91 18 134 l34 37
559 5 558 5 85 59 c47 33 95 68 108 79 31 28 29 70 -4 96 -25 19 -40 21 -204
21 l-177 0 -26 26 c-56 56 -56 133 -1 185 l26 24 413 3 413 3 238 164 c132 90
244 164 251 165 6 0 81 -93 165 -207z m-2634 -1010 c-3 -16 -22 -18 -212 -21
-121 -1 -214 2 -219 7 -26 26 10 31 219 31 200 0 215 -1 212 -17z m1827 -1118
l0 -100 -1427 -5 c-1353 -5 -1428 -6 -1445 -23 -17 -17 -18 -96 -18 -1648 0
-1603 0 -1631 19 -1645 30 -21 5432 -21 5462 0 19 14 19 39 22 1190 l2 1176
90 0 90 0 -2 -1262 -3 -1263 -2930 0 -2930 0 0 1730 0 1730 24 53 c28 63 103
134 164 155 37 14 223 15 1462 14 l1420 -2 0 -100z m0 -234 c3 -6 2 -136 -1
-290 l-7 -281 -211 -2 -211 -3 0 -120 0 -120 1101 -3 1100 -2 0 -1124 c-1
-619 -4 -1127 -7 -1130 -3 -3 -9 172 -12 390 -4 279 -10 400 -18 410 -9 11
-63 14 -290 14 -276 0 -278 0 -293 -22 -14 -19 -16 -75 -16 -410 0 -252 -4
-388 -10 -388 -7 0 -10 185 -10 535 0 522 0 535 -20 555 -19 19 -33 20 -283
20 -221 0 -266 -2 -285 -16 l-22 -15 0 -540 c0 -353 -3 -539 -10 -539 -7 0
-10 294 -10 862 0 788 -1 863 -17 880 -15 17 -37 18 -293 18 -246 0 -279 -2
-291 -17 -12 -13 -14 -166 -17 -880 -2 -626 -6 -862 -14 -857 -8 5 -10 215 -7
746 l4 740 -24 19 c-22 18 -42 19 -287 19 -251 0 -265 -1 -284 -20 -20 -20
-20 -33 -20 -765 0 -490 -3 -745 -10 -745 -7 0 -10 145 -10 414 l0 415 -22 15
c-19 14 -63 16 -283 16 -220 0 -264 -2 -283 -16 l-22 -15 0 -415 c0 -269 -3
-414 -10 -414 -7 0 -10 187 -10 540 0 527 0 540 -20 560 -19 19 -33 20 -287
20 -152 0 -275 -4 -283 -10 -13 -8 -16 -84 -20 -555 -3 -356 -8 -544 -15 -543
-7 2 -10 261 -11 752 l0 749 -23 18 c-21 17 -45 19 -287 19 -251 0 -265 -1
-284 -20 -20 -20 -20 -33 -20 -775 l0 -755 -55 0 -55 0 0 1538 c0 846 3 1542
7 1545 10 11 2761 8 2768 -2z m11276 -807 c55 -26 111 -79 141 -137 l23 -42 0
-1245 0 -1245 -22 -40 c-29 -54 -87 -110 -142 -137 l-46 -23 -2085 -3 c-2376
-3 -2152 -11 -2251 87 -96 96 -89 -11 -89 1361 0 1363 -6 1263 84 1356 l52 54
1471 0 c1469 0 1471 0 1476 20 5 20 10 21 674 18 657 -3 669 -3 714 -24z
m-8781 -1144 l0 -1130 -55 0 -55 0 0 1114 c0 613 -3 1121 -6 1130 -5 14 3 16
55 16 l61 0 0 -1130z m1869 583 l0 -548 -277 -306 c-152 -168 -443 -489 -646
-715 l-370 -409 -80 0 -81 0 -3 1250 c-1 688 0 1256 3 1263 3 9 159 12 730 12
l725 0 -1 -547z m561 -30 l5 -572 31 -33 c97 -103 1604 -1779 1604 -1783 0 -3
-90 -5 -199 -5 l-200 0 -23 29 c-13 15 -270 301 -573 635 -506 559 -552 606
-581 606 -61 0 -59 25 -64 -654 l-5 -621 -212 -3 -213 -2 0 597 c0 329 -5 616
-10 637 -10 44 -23 56 -62 56 -23 0 -111 -92 -609 -640 l-582 -640 -194 0
c-159 0 -193 2 -186 13 4 8 373 418 818 911 446 494 813 906 817 915 4 9 7
261 7 561 0 300 1 551 1 558 0 10 46 12 213 10 l212 -3 5 -572z m1838 570
c-40 -80 -59 -130 -67 -183 -15 -89 -15 -2351 0 -2440 14 -92 50 -162 114
-226 30 -30 55 -57 55 -60 0 -3 -39 -3 -87 -2 l-88 3 -713 790 c-392 435 -762
845 -822 913 l-110 122 0 538 c0 296 3 542 7 545 9 10 1716 9 1711 0z m-4498
-1173 l0 -1080 -190 0 -190 0 0 1073 c0 591 3 1077 7 1080 3 4 89 7 190 7
l183 0 0 -1080z m-1907 533 c0 -13 -1 -381 -2 -818 l-1 -795 -180 0 -180 0 0
820 0 820 182 -2 c182 -3 182 -3 181 -25z m-2533 -903 l0 -710 -180 0 -180 0
0 710 0 710 180 0 180 0 0 -710z m1908 -7 l2 -703 -190 0 -190 0 0 705 0 705
188 -2 187 -3 3 -702z m-1268 -203 l0 -500 -187 2 -188 3 -3 485 c-1 267 0
491 3 498 3 9 51 12 190 12 l185 0 0 -500z m2530 -5 l0 -495 -185 0 -185 0 0
495 0 495 185 0 185 0 0 -495z m-1905 -125 l0 -365 -180 0 -180 0 -3 355 c-1
195 0 361 3 368 3 10 45 12 182 10 l178 -3 0 -365z m2535 -20 l0 -350 -180 0
-180 0 0 350 0 350 180 0 180 0 0 -350z m2740 -510 l0 -500 -456 0 c-251 0
-454 4 -452 8 5 15 893 991 901 991 4 1 7 -224 7 -499z m1139 3 c243 -268 441
-491 441 -495 0 -5 -201 -7 -447 -6 l-448 3 -3 493 c-1 287 2 492 7 492 5 0
207 -219 450 -487z m-2559 -239 c0 -7 -44 -57 -132 -151 l-50 -53 -3026 0
c-3008 0 -3027 0 -3060 20 -40 25 -52 54 -52 131 l0 59 3160 0 c1738 0 3160
-3 3160 -6z"/>
<path d="M15102 14044 l-22 -15 0 -569 c0 -504 2 -570 16 -584 13 -13 44 -16
179 -16 135 0 166 3 179 16 14 14 16 80 16 584 l0 569 -22 15 c-18 13 -53 16
-173 16 -120 0 -155 -3 -173 -16z m256 -586 l2 -478 -85 0 -85 0 0 473 c0 261
3 477 7 481 4 4 41 5 83 4 l75 -3 3 -477z"/>
<path d="M13395 13326 c-14 -21 -16 -56 -13 -231 3 -191 4 -208 22 -221 15
-11 58 -14 181 -14 144 0 164 2 178 18 15 16 17 47 17 226 0 124 -4 215 -10
227 -10 18 -23 19 -185 19 -173 0 -175 0 -190 -24z m270 -216 l0 -125 -82 -3
-83 -3 0 131 0 131 83 -3 82 -3 0 -125z"/>
<path d="M12844 12546 c-17 -13 -19 -27 -19 -158 l0 -143 55 0 55 0 3 98 3 97
104 0 105 0 0 60 0 60 -143 0 c-108 0 -148 -4 -163 -14z"/>
<path d="M13330 12500 l0 -60 165 0 165 0 0 60 0 60 -165 0 -165 0 0 -60z"/>
<path d="M13830 12500 l0 -60 163 2 162 3 0 55 0 55 -162 3 -163 2 0 -60z"/>
<path d="M14330 12500 l0 -60 165 0 165 0 0 60 0 60 -165 0 -165 0 0 -60z"/>
<path d="M14830 12500 l0 -60 165 0 165 0 0 60 0 60 -165 0 -165 0 0 -60z"/>
<path d="M15330 12500 l0 -60 165 0 165 0 0 60 0 60 -165 0 -165 0 0 -60z"/>
<path d="M15830 12500 l0 -60 165 0 165 0 0 60 0 60 -165 0 -165 0 0 -60z"/>
<path d="M16337 12553 c-4 -3 -7 -30 -7 -60 l0 -53 165 0 165 0 0 60 0 60
-158 0 c-87 0 -162 -3 -165 -7z"/>
<path d="M16837 12553 c-4 -3 -7 -30 -7 -60 l0 -53 105 0 104 0 3 -97 3 -98
55 0 55 0 3 133 c3 129 2 133 -22 157 -24 24 -30 25 -159 25 -73 0 -137 -3
-140 -7z"/>
<path d="M12820 11905 l0 -165 60 0 60 0 0 165 0 165 -60 0 -60 0 0 -165z"/>
<path d="M17040 11905 l0 -165 60 0 60 0 0 165 0 165 -60 0 -60 0 0 -165z"/>
<path d="M12824 11557 c-2 -7 -3 -82 -2 -167 l3 -155 58 -3 57 -3 0 171 0 170
-55 0 c-36 0 -57 -5 -61 -13z"/>
<path d="M17040 11421 l0 -150 60 32 61 31 -3 115 -3 116 -57 3 -58 3 0 -150z"/>
<path d="M16853 11131 c-73 -38 -217 -113 -320 -167 -104 -53 -203 -105 -220
-116 l-33 -19 30 -26 c17 -14 38 -39 46 -55 15 -30 21 -118 9 -137 -3 -6 -4
-11 -1 -11 2 0 151 77 330 170 179 94 330 170 335 170 6 0 12 -45 13 -107 l3
-108 55 0 55 0 0 109 0 109 -30 10 c-85 27 -141 111 -133 198 3 27 2 49 -1 49
-3 0 -66 -31 -138 -69z"/>
<path d="M8970 11135 l0 -55 465 0 465 0 0 55 0 55 -465 0 -465 0 0 -55z"/>
<path d="M10100 11135 l0 -55 275 0 275 0 0 55 0 55 -275 0 -275 0 0 -55z"/>
<path d="M10850 11135 l0 -55 620 0 620 0 0 55 0 55 -620 0 -620 0 0 -55z"/>
<path d="M14847 11076 c8 -66 -4 -112 -38 -151 -22 -25 -27 -36 -17 -40 7 -2
284 -74 615 -160 332 -86 610 -158 620 -162 13 -5 15 -3 9 13 -33 81 -31 130
10 189 14 21 24 39 22 40 -6 6 -1198 315 -1214 315 -8 0 -10 -15 -7 -44z"/>
<path d="M13910 10921 c-311 -103 -645 -214 -742 -246 l-177 -59 34 -38 c41
-45 49 -71 43 -142 l-4 -53 280 92 c155 51 496 163 758 250 l477 157 -35 36
c-39 41 -59 100 -50 154 5 27 3 38 -6 37 -7 0 -267 -85 -578 -188z"/>
<path d="M12822 10893 l3 -168 55 0 55 0 3 168 2 167 -60 0 -60 0 2 -167z"/>
<path d="M8972 10823 l3 -58 644 -2 c354 -2 646 -1 650 1 3 2 4 29 3 60 l-4
56 -649 0 -650 0 3 -57z"/>
<path d="M10412 10823 l3 -58 305 0 305 0 3 58 3 57 -311 0 -311 0 3 -57z"/>
<path d="M11222 10823 l3 -58 430 0 430 0 3 58 3 57 -436 0 -436 0 3 -57z"/>
<path d="M8970 10510 l0 -60 465 0 465 0 0 60 0 60 -465 0 -465 0 0 -60z"/>
<path d="M10100 10510 l0 -60 275 0 275 0 0 60 0 60 -275 0 -275 0 0 -60z"/>
<path d="M10850 10510 l0 -60 618 2 617 3 3 58 3 57 -621 0 -620 0 0 -60z"/>
<path d="M17047 10554 c-4 -4 -7 -81 -7 -171 l0 -163 60 0 60 0 -2 168 -3 167
-50 3 c-28 2 -54 0 -58 -4z"/>
<path d="M8977 10253 c-4 -3 -7 -30 -7 -60 l0 -53 653 0 652 0 -1 57 -2 58
-644 3 c-355 1 -648 -1 -651 -5z"/>
<path d="M10410 10200 l0 -60 310 0 311 0 -3 58 -3 57 -307 3 -308 2 0 -60z"/>
<path d="M11227 10253 c-4 -3 -7 -30 -7 -60 l0 -53 435 0 436 0 -3 58 -3 57
-426 3 c-234 1 -429 -1 -432 -5z"/>
<path d="M12824 10037 c-2 -7 -3 -82 -2 -167 l3 -155 58 -3 57 -3 0 171 0 170
-55 0 c-36 0 -57 -5 -61 -13z"/>
<path d="M17040 9880 l0 -171 58 3 57 3 0 165 0 165 -57 3 -58 3 0 -171z"/>
<path d="M8970 9885 l0 -55 465 0 465 0 0 55 0 55 -465 0 -465 0 0 -55z"/>
<path d="M10100 9885 l0 -55 275 0 275 0 0 55 0 55 -275 0 -275 0 0 -55z"/>
<path d="M10850 9885 l0 -55 620 0 620 0 0 55 0 55 -620 0 -620 0 0 -55z"/>
<path d="M8972 9573 l3 -58 649 0 649 0 0 55 0 55 -652 3 -652 2 3 -57z"/>
<path d="M10412 9573 l3 -58 305 0 305 0 0 55 0 55 -308 3 -308 2 3 -57z"/>
<path d="M11222 9573 l3 -58 430 0 430 0 3 58 3 57 -436 0 -436 0 3 -57z"/>
<path d="M12822 9384 c3 -140 5 -157 22 -170 15 -10 55 -14 163 -14 l143 0 0
60 0 60 -105 0 -105 0 0 110 0 110 -61 0 -60 0 3 -156z"/>
<path d="M17040 9430 l0 -110 -105 0 -105 0 0 -60 0 -60 143 0 c190 0 181 -9
185 191 l3 149 -60 0 -61 0 0 -110z"/>
<path d="M13330 9260 l0 -60 165 0 165 0 0 60 0 60 -165 0 -165 0 0 -60z"/>
<path d="M13830 9260 l0 -60 163 2 162 3 0 55 0 55 -162 3 -163 2 0 -60z"/>
<path d="M14330 9260 l0 -60 165 0 165 0 0 60 0 60 -165 0 -165 0 0 -60z"/>
<path d="M14830 9260 l0 -60 165 0 165 0 0 60 0 60 -165 0 -165 0 0 -60z"/>
<path d="M15330 9260 l0 -60 165 0 165 0 0 60 0 60 -165 0 -165 0 0 -60z"/>
<path d="M15830 9260 l0 -60 165 0 165 0 0 60 0 60 -165 0 -165 0 0 -60z"/>
<path d="M16330 9260 l0 -60 165 0 165 0 0 60 0 60 -165 0 -165 0 0 -60z"/>
<path d="M10430 14469 c-455 -44 -876 -326 -1084 -727 -59 -116 -91 -199 -124
-332 -25 -97 -27 -121 -27 -310 0 -189 2 -213 27 -310 47 -188 107 -321 212
-475 199 -292 524 -500 891 -571 133 -26 368 -24 502 5 200 42 386 123 545
238 98 71 267 244 331 341 274 411 313 928 102 1367 -212 441 -628 728 -1120
775 -121 11 -132 11 -255 -1z m385 -134 c443 -93 800 -411 946 -843 81 -240
82 -532 2 -777 -141 -434 -517 -767 -968 -856 -93 -18 -368 -18 -460 0 -454
90 -828 419 -970 855 -47 144 -60 230 -58 396 2 343 123 632 367 876 207 207
449 326 751 368 66 9 314 -3 390 -19z"/>
<path d="M10608 14253 c-17 -18 -18 -58 -18 -530 0 -481 1 -511 18 -526 28
-26 61 -21 153 24 46 22 246 118 444 211 198 94 366 175 373 180 57 47 -112
283 -308 430 -169 126 -380 210 -565 224 -71 6 -82 4 -97 -13z m208 -123 c171
-44 336 -131 463 -246 69 -62 175 -194 164 -205 -8 -7 -721 -349 -729 -349 -2
0 -4 185 -4 410 0 336 2 410 13 410 8 0 49 -9 93 -20z"/>
<path d="M15212 8634 l-22 -15 0 -1308 c0 -1003 3 -1310 12 -1319 9 -9 475
-12 2034 -12 l2023 0 15 22 c14 20 16 161 16 1315 0 1280 0 1293 -20 1313 -20
20 -33 20 -2028 20 -1801 0 -2010 -2 -2030 -16z m3958 -1319 l0 -1215 -1935 0
-1935 0 0 1215 0 1215 1935 0 1935 0 0 -1215z"/>
<path d="M15456 8318 c-14 -20 -16 -132 -16 -1010 0 -975 0 -988 20 -1008 20
-20 33 -20 1775 -20 1742 0 1755 0 1775 20 20 20 20 33 20 883 0 675 -3 867
-12 879 -7 9 -100 63 -207 119 l-194 103 -405 -203 -405 -203 -136 134 c-217
214 -278 268 -298 268 -11 0 -75 -47 -143 -105 l-124 -105 -182 0 -182 0 -212
105 c-116 58 -220 105 -231 105 -12 0 -103 -43 -204 -95 -100 -52 -188 -95
-195 -95 -6 0 -94 56 -193 125 -192 132 -222 144 -251 103z m268 -258 c84 -58
154 -100 168 -100 13 1 110 45 217 100 l194 98 199 -99 198 -99 229 0 230 0
100 85 c55 47 105 85 111 85 7 0 100 -85 207 -190 128 -126 202 -190 216 -191
12 0 202 91 422 202 l400 202 148 -79 147 -79 0 -797 0 -798 -1672 2 -1673 3
-3 878 c-1 539 1 877 7 877 5 0 75 -45 155 -100z"/>
<path d="M11604 8360 c-25 -10 -39 -53 -25 -78 5 -9 28 -35 50 -57 l41 -39
-47 -48 c-52 -53 -62 -99 -28 -124 31 -23 54 -16 104 31 26 25 52 45 56 45 4
0 30 -20 56 -45 53 -49 79 -55 109 -25 31 31 24 57 -29 113 l-49 52 49 52 c51
54 58 76 35 108 -25 34 -72 24 -124 -28 l-46 -46 -52 49 c-54 51 -64 55 -100
40z"/>
<path d="M13953 8200 c-60 -13 -96 -34 -140 -84 -128 -145 -54 -375 134 -417
154 -35 300 70 311 222 6 83 -13 141 -64 198 -63 70 -150 99 -241 81z m135
-139 c17 -12 38 -41 47 -65 59 -153 -150 -259 -246 -125 -45 64 -18 167 54
203 41 21 105 16 145 -13z"/>
<path d="M14316 16655 c-138 -49 -206 -215 -142 -350 43 -94 125 -145 231
-145 106 0 188 51 231 145 97 206 -105 427 -320 350z m187 -143 c60 -56 56
-144 -8 -201 -48 -42 -93 -49 -149 -21 -88 42 -108 145 -42 217 53 58 140 60
199 5z"/>
<path d="M9972 16574 c-27 -19 -29 -64 -4 -87 28 -26 136 -23 162 3 11 11 20
29 20 40 0 11 -9 29 -20 40 -25 25 -124 28 -158 4z"/>
<path d="M10300 16570 c-11 -11 -20 -29 -20 -40 0 -11 9 -29 20 -40 17 -17 33
-20 103 -20 93 0 117 13 117 63 0 42 -33 57 -122 57 -65 0 -81 -3 -98 -20z"/>
<path d="M10682 16574 c-14 -10 -22 -26 -22 -44 0 -45 31 -60 122 -60 84 0
118 17 118 60 0 43 -34 60 -118 60 -54 0 -84 -5 -100 -16z"/>
<path d="M11050 16570 c-11 -11 -20 -29 -20 -40 0 -11 9 -29 20 -40 17 -17 33
-20 103 -20 93 0 117 13 117 63 0 42 -33 57 -122 57 -65 0 -81 -3 -98 -20z"/>
<path d="M11432 16574 c-14 -10 -22 -26 -22 -44 0 -45 31 -60 122 -60 84 0
118 17 118 60 0 43 -34 60 -118 60 -54 0 -84 -5 -100 -16z"/>
<path d="M17902 16474 c-37 -26 -29 -67 25 -125 l46 -50 -46 -47 c-51 -52 -60
-87 -29 -115 30 -27 55 -20 102 28 24 25 48 45 54 45 5 0 31 -20 57 -45 52
-49 85 -57 112 -27 29 32 21 64 -28 112 -25 24 -45 49 -45 55 0 6 20 31 45 55
52 51 59 89 23 114 -34 24 -45 20 -104 -35 l-54 -52 -54 52 c-59 55 -70 59
-104 35z"/>
<path d="M8771 16038 c-112 -32 -184 -129 -184 -248 0 -117 70 -213 177 -245
63 -19 90 -19 155 1 61 18 123 69 154 128 31 58 30 174 0 232 -57 107 -189
165 -302 132z m127 -122 c50 -26 75 -62 80 -115 14 -150 -179 -208 -258 -79
-68 112 63 254 178 194z"/>
<path d="M15353 15944 c-15 -24 -15 -29 -2 -53 14 -24 20 -26 90 -29 83 -3
102 6 102 53 0 45 -19 55 -99 55 -68 0 -75 -2 -91 -26z"/>
<path d="M15696 15954 c-9 -8 -16 -26 -16 -39 0 -44 24 -55 120 -55 96 0 120
11 120 54 0 43 -29 56 -123 56 -64 0 -89 -4 -101 -16z"/>
<path d="M16072 15958 c-7 -7 -12 -26 -12 -43 0 -48 14 -55 116 -55 99 0 117
8 117 55 0 47 -18 55 -117 55 -58 0 -96 -4 -104 -12z"/>
<path d="M16446 15954 c-18 -18 -20 -47 -6 -75 9 -17 22 -19 105 -19 101 0
125 10 125 54 0 43 -29 56 -123 56 -64 0 -89 -4 -101 -16z"/>
<path d="M16820 15955 c-7 -8 -12 -26 -12 -40 0 -47 17 -55 116 -55 102 0 116
7 116 55 0 48 -14 55 -116 55 -69 0 -95 -4 -104 -15z"/>
<path d="M10760 15830 c-32 -32 -25 -61 25 -110 25 -24 45 -49 45 -55 0 -6
-20 -31 -45 -55 -53 -52 -60 -90 -20 -116 33 -21 67 -8 120 46 l39 40 52 -50
c57 -54 68 -58 102 -34 37 25 29 68 -22 122 l-44 47 44 47 c51 55 59 97 22
122 -33 24 -44 20 -97 -29 -26 -25 -52 -45 -56 -45 -4 0 -30 20 -56 45 -53 49
-79 55 -109 25z"/>
<path d="M6244 14346 c-44 -20 -90 -80 -125 -166 -53 -130 -86 -197 -108 -219
-20 -20 -32 -21 -200 -21 -197 0 -211 -4 -211 -59 0 -49 9 -51 232 -51 l207 0
37 32 c48 42 71 81 123 206 92 219 130 225 211 32 83 -197 131 -250 224 -250
94 0 134 41 212 220 102 237 129 237 223 -2 51 -129 90 -191 133 -218 29 -18
51 -20 194 -20 143 0 163 2 177 18 22 24 21 55 -1 75 -15 14 -42 17 -156 17
l-138 0 -27 29 c-15 16 -49 84 -76 151 -77 191 -122 240 -222 240 -76 0 -122
-43 -180 -170 -73 -158 -97 -203 -119 -217 -36 -23 -65 12 -128 155 -31 71
-71 146 -88 167 -51 61 -125 81 -194 51z"/>
<path d="M4261 13759 c-77 -23 -150 -95 -171 -170 -26 -90 -5 -180 57 -249
100 -111 272 -114 372 -5 53 57 71 104 71 179 0 172 -162 292 -329 245z m139
-124 c66 -34 92 -104 65 -173 -57 -143 -265 -107 -265 46 0 24 7 56 15 73 32
61 121 87 185 54z"/>
<path d="M18138 13088 c-37 -30 -32 -55 23 -113 l53 -56 -46 -47 c-55 -57 -63
-78 -43 -108 26 -40 67 -32 126 23 l50 46 47 -46 c51 -50 88 -60 116 -31 27
27 19 57 -29 104 -25 24 -45 48 -45 54 0 5 20 31 45 57 48 52 54 72 29 107
-24 35 -59 28 -113 -23 -26 -25 -52 -45 -57 -45 -6 0 -30 20 -54 45 -45 46
-74 55 -102 33z"/>
<path d="M5737 12918 c-28 -22 -32 -63 -8 -87 17 -17 33 -21 84 -21 67 0 91
11 102 47 4 17 -1 29 -19 48 -21 21 -34 25 -84 25 -32 0 -66 -6 -75 -12z"/>
<path d="M6070 12910 c-11 -11 -20 -31 -20 -44 0 -40 34 -56 120 -56 86 0 120
16 120 56 0 47 -31 64 -120 64 -67 0 -83 -3 -100 -20z"/>
<path d="M6452 12914 c-29 -20 -31 -79 -3 -94 28 -14 174 -13 193 3 30 23 31
55 4 82 -22 22 -33 25 -98 25 -50 0 -81 -5 -96 -16z"/>
<path d="M6820 12910 c-27 -27 -26 -65 2 -84 34 -24 179 -22 201 2 23 25 21
58 -3 82 -17 17 -33 20 -100 20 -67 0 -83 -3 -100 -20z"/>
<path d="M7194 12905 c-18 -19 -23 -31 -19 -48 12 -38 34 -47 120 -47 86 0
108 9 120 47 4 17 -1 29 -19 48 -22 22 -33 25 -101 25 -68 0 -79 -3 -101 -25z"/>
<path d="M6528 12329 c-35 -20 -23 -69 29 -121 l47 -48 -47 -48 c-35 -36 -47
-55 -47 -78 0 -71 60 -74 131 -7 l50 46 47 -46 c51 -50 88 -60 116 -31 28 27
19 62 -30 114 l-47 50 47 50 c49 52 58 87 30 114 -28 29 -65 19 -116 -31 l-47
-46 -50 46 c-51 47 -79 56 -113 36z"/>
<path d="M18583 11740 c-159 -38 -242 -216 -168 -365 78 -160 290 -193 411
-63 54 57 69 95 69 178 0 57 -5 84 -22 116 -56 105 -177 161 -290 134z m123
-126 c127 -60 80 -264 -61 -264 -103 0 -174 110 -128 200 37 71 117 98 189 64z"/>
<path d="M19665 10673 c-63 -15 -106 -74 -179 -242 -49 -112 -79 -154 -110
-149 -28 4 -50 39 -105 166 -77 175 -122 222 -215 222 -89 0 -143 -56 -206
-213 -17 -43 -40 -97 -51 -120 -40 -80 -32 -77 -228 -77 -202 0 -221 -6 -221
-65 0 -53 15 -57 238 -53 188 3 198 4 230 27 42 30 73 78 118 188 107 260 136
262 239 17 65 -156 122 -214 210 -214 43 0 80 18 117 57 24 25 48 72 128 250
29 66 61 97 89 88 21 -6 64 -86 121 -227 39 -96 78 -150 123 -171 45 -22 323
-25 349 -4 30 23 31 55 4 82 -24 24 -29 25 -165 25 l-141 0 -24 38 c-13 20
-43 84 -67 142 -64 158 -103 211 -170 230 -35 10 -51 11 -84 3z"/>
<path d="M19296 9524 c-29 -29 -19 -65 31 -116 l47 -48 -47 -48 c-68 -69 -64
-132 7 -132 23 0 42 12 78 47 l48 47 48 -47 c54 -53 102 -64 122 -28 19 36 10
61 -36 111 l-47 50 47 50 c50 53 58 86 28 113 -30 28 -60 20 -112 -29 l-50
-47 -50 47 c-52 49 -87 58 -114 30z"/>
<path d="M4164 8465 c-21 -33 -8 -67 46 -120 l40 -39 -50 -52 c-54 -57 -58
-68 -34 -102 25 -37 68 -29 122 22 l47 44 47 -44 c52 -49 93 -57 121 -26 26
29 21 49 -28 101 -25 26 -45 51 -45 56 0 4 20 30 45 57 49 54 53 71 29 106
-25 36 -63 29 -114 -23 -24 -25 -49 -45 -55 -45 -6 0 -31 20 -55 45 -52 53
-90 60 -116 20z"/>
<path d="M2629 7369 c-24 -24 -20 -65 8 -86 18 -14 131 -18 149 -5 23 15 34
50 25 75 -12 31 -29 37 -102 37 -46 0 -63 -4 -80 -21z"/>
<path d="M2970 7370 c-11 -11 -20 -29 -20 -40 0 -43 34 -60 118 -60 91 0 122
15 122 60 0 45 -31 60 -122 60 -65 0 -81 -3 -98 -20z"/>
<path d="M3347 7372 c-24 -26 -21 -68 5 -86 16 -11 46 -16 99 -16 72 0 79 2
98 27 23 28 20 59 -7 81 -10 7 -47 12 -97 12 -67 0 -85 -3 -98 -18z"/>
<path d="M3722 7374 c-28 -19 -29 -57 -2 -84 17 -17 33 -20 98 -20 91 0 122
15 122 60 0 44 -31 60 -120 60 -52 0 -82 -5 -98 -16z"/>
<path d="M4097 7372 c-22 -24 -21 -65 1 -85 14 -13 38 -17 100 -17 75 0 82 2
101 27 23 28 20 59 -7 81 -10 7 -47 12 -97 12 -67 0 -85 -3 -98 -18z"/>
<path d="M20386 7015 c-101 -36 -166 -132 -166 -244 0 -80 22 -131 76 -183 52
-49 100 -68 177 -68 108 0 190 51 233 145 95 204 -107 426 -320 350z m161
-125 c42 -25 63 -68 63 -126 0 -40 -5 -51 -38 -85 -63 -63 -136 -65 -196 -4
-61 60 -56 146 10 205 28 24 44 30 82 30 29 0 59 -8 79 -20z"/>
<path d="M3155 6651 c-51 -23 -118 -98 -133 -149 -42 -140 26 -282 157 -327
205 -70 392 116 329 327 -15 51 -82 126 -133 149 -26 12 -63 19 -110 19 -47 0
-84 -7 -110 -19z m175 -110 c47 -25 83 -94 75 -141 -29 -160 -257 -158 -281 1
-7 47 31 117 76 141 44 23 86 23 130 -1z"/>
<path d="M2730 5700 l0 -120 465 0 465 0 0 120 0 120 -465 0 -465 0 0 -120z"/>
<path d="M21290 5700 l0 -120 465 0 465 0 0 120 0 120 -465 0 -465 0 0 -120z"/>
</g>
</svg>
