<?xml version="1.0" standalone="no"?>
<!DOCTYPE svg PUBLIC "-//W3C//DTD SVG 20010904//EN"
 "http://www.w3.org/TR/2001/REC-SVG-20010904/DTD/svg10.dtd">
<svg version="1.0" xmlns="http://www.w3.org/2000/svg"
 width="2470.000000pt" height="2090.000000pt" viewBox="0 0 2470.000000 2090.000000"
 preserveAspectRatio="xMidYMid meet">
<metadata>
Created by potrace 1.15, written by Peter Selinger 2001-2017
</metadata>
<g transform="translate(0.000000,2090.000000) scale(0.100000,-0.100000)"
fill="#000000" stroke="none">
<path d="M11505 15891 c-124 -32 -198 -127 -199 -251 -1 -232 282 -347 440
-178 148 157 53 411 -161 432 -27 3 -63 1 -80 -3z m113 -125 c73 -38 101 -118
67 -189 -62 -131 -265 -81 -265 65 0 96 115 167 198 124z"/>
<path d="M12853 15334 c-15 -24 -15 -29 -2 -53 14 -25 19 -26 108 -29 105 -3
121 4 121 52 0 49 -14 56 -117 56 -89 0 -93 -1 -110 -26z"/>
<path d="M13230 15341 c-14 -28 -12 -57 6 -75 24 -25 185 -23 207 2 22 24 21
55 -1 75 -14 13 -39 17 -110 17 -80 0 -93 -2 -102 -19z"/>
<path d="M13603 15334 c-15 -24 -15 -29 -2 -53 14 -25 19 -26 108 -29 105 -3
121 4 121 52 0 49 -14 56 -117 56 -89 0 -93 -1 -110 -26z"/>
<path d="M13982 15348 c-17 -17 -15 -64 4 -82 12 -12 37 -16 104 -16 80 0 90
2 104 22 21 29 20 51 -2 71 -23 21 -190 25 -210 5z"/>
<path d="M14353 15334 c-15 -24 -15 -29 -2 -53 14 -25 19 -26 102 -29 104 -3
127 6 127 51 0 50 -13 57 -117 57 -89 0 -93 -1 -110 -26z"/>
<path d="M11046 15115 c-356 -58 -669 -218 -926 -475 -143 -143 -230 -265
-320 -445 -235 -475 -239 -1007 -10 -1480 191 -396 509 -690 926 -855 64 -26
161 -54 287 -84 l27 -6 0 -354 c0 -194 -3 -356 -7 -359 -3 -4 -27 38 -54 92
-59 123 -112 202 -197 293 -161 171 -384 291 -636 343 -164 33 -448 37 -478 7
-17 -17 -13 -209 8 -348 21 -148 57 -264 124 -399 162 -328 447 -539 851 -629
93 -21 294 -45 372 -46 16 0 17 -27 17 -430 0 -236 -3 -430 -7 -430 -5 0 -25
38 -47 85 -134 294 -366 500 -679 603 -164 54 -289 74 -466 74 l-145 1 -23
-27 c-22 -26 -23 -32 -17 -139 4 -62 12 -149 18 -195 7 -45 10 -84 8 -86 -2
-2 -29 8 -60 22 l-57 27 -324 3 -324 3 -458 270 c-254 149 -470 269 -483 269
-13 0 -30 -7 -37 -16 -8 -9 -116 -191 -240 -403 -125 -212 -231 -384 -235
-383 -5 2 -73 178 -150 390 -116 316 -146 389 -165 401 -22 12 -63 -1 -494
-159 -258 -94 -485 -178 -502 -185 -63 -26 -62 -38 25 -275 44 -118 82 -224
86 -235 6 -20 1 -20 -592 -20 -674 0 -652 2 -740 -79 -83 -76 -87 -90 -90
-349 l-3 -229 -63 -61 c-81 -80 -109 -147 -109 -262 0 -115 27 -182 110 -262
l63 -63 0 -155 c0 -188 4 -195 99 -195 48 0 61 -3 65 -17 3 -10 97 -434 210
-943 198 -895 206 -927 250 -1015 62 -126 138 -211 254 -288 28 -18 49 -37 45
-40 -3 -4 -84 -7 -180 -7 l-173 0 0 -120 0 -120 7145 0 7145 0 0 120 0 120
-160 0 c-111 0 -160 3 -160 11 0 6 31 46 68 88 106 119 199 234 314 387 415
557 665 1090 734 1564 24 169 16 411 -19 543 -55 207 -148 372 -299 531 -363
383 -886 509 -1364 330 -50 -19 -95 -34 -98 -34 -3 0 -6 25 -6 55 0 46 3 55
18 55 9 0 50 12 90 27 85 30 112 59 94 98 -16 36 -52 40 -124 16 -34 -12 -65
-21 -70 -21 -4 0 -9 645 -10 1433 l-3 1432 -30 54 c-34 61 -90 111 -155 138
-43 17 -153 18 -2950 18 l-2905 0 -46 -21 c-60 -28 -114 -76 -147 -133 l-27
-46 -5 -552 c-3 -303 -7 -553 -10 -556 -3 -2 -48 -18 -100 -36 -301 -104 -525
-292 -661 -556 -30 -57 -57 -101 -61 -99 -5 3 -8 333 -8 733 0 571 3 731 13
738 6 5 55 20 107 32 315 75 639 272 856 519 515 587 573 1418 144 2064 -244
367 -622 623 -1065 718 -131 29 -463 37 -599 15z m422 -106 c610 -66 1124
-475 1325 -1055 65 -187 82 -293 82 -514 -1 -163 -5 -212 -23 -297 -73 -337
-227 -614 -466 -841 -217 -206 -499 -353 -782 -408 -49 -9 -97 -24 -106 -32
-17 -14 -18 -125 -20 -2001 l-3 -1986 -165 0 -165 0 -5 1992 c-3 1095 -8 1994
-12 1998 -3 4 -55 17 -115 30 -153 32 -249 66 -398 140 -438 217 -753 630
-852 1120 -25 127 -25 453 0 580 164 808 903 1362 1705 1274z m7011 -2849 c48
-24 87 -70 101 -118 12 -43 14 -3100 2 -3118 -4 -6 -36 -30 -72 -54 -81 -54
-255 -226 -305 -302 -21 -32 -41 -55 -46 -52 -5 3 -9 30 -9 60 0 53 2 57 65
129 68 78 79 110 49 139 -20 20 -68 21 -84 1 -7 -8 -16 -12 -21 -9 -5 3 -9
618 -9 1444 0 1294 -2 1440 -16 1454 -14 14 -261 16 -2568 16 -2187 0 -2555
-2 -2572 -14 -18 -14 -19 -32 -24 -308 l-5 -293 -132 -3 c-95 -2 -134 -6 -142
-16 -8 -10 -12 -187 -12 -622 l0 -609 22 -17 c18 -15 42 -18 145 -18 l124 0
-2 -692 -3 -693 -132 -3 c-95 -2 -134 -6 -142 -16 -8 -10 -11 -187 -12 -621 0
-556 2 -609 17 -626 15 -17 33 -19 146 -19 l128 0 0 -283 c0 -240 2 -286 16
-305 l15 -22 2563 0 c1979 0 2565 3 2574 12 9 9 12 73 12 224 0 117 4 215 8
218 5 3 24 -30 42 -72 77 -179 195 -396 317 -585 55 -86 62 -101 52 -120 -17
-33 -60 -77 -91 -93 -24 -12 -439 -14 -2913 -14 -2873 0 -2886 0 -2925 20 -22
11 -52 39 -67 62 l-28 42 -3 2874 c-1 1869 1 2887 8 2911 11 42 61 98 105 117
25 11 553 13 2908 14 2837 0 2878 0 2916 -20z m-8381 -485 c465 -88 776 -409
870 -895 27 -137 32 -180 24 -180 -4 0 -91 84 -194 187 l-188 188 0 172 0 173
-60 0 -60 0 0 -105 c0 -58 -3 -105 -7 -105 -4 0 -98 90 -208 200 l-201 200
-42 -43 -42 -43 75 -74 c41 -41 75 -78 75 -82 0 -5 -34 -8 -75 -8 l-75 0 0
-60 0 -60 142 0 143 0 152 -152 c84 -84 153 -156 153 -160 0 -5 -47 -8 -105
-8 l-105 0 0 -55 0 -55 168 0 167 0 105 -105 105 -105 -41 0 c-108 0 -343 59
-479 120 -91 41 -217 125 -292 194 -195 180 -310 445 -338 783 -4 44 -4 87 0
93 10 17 216 7 333 -15z m7932 -1580 l0 -1535 -23 0 c-31 0 -49 -21 -88 -104
-30 -63 -31 -71 -18 -94 8 -14 21 -30 30 -35 25 -15 67 0 83 31 15 26 15 23
16 -53 0 -49 -9 -118 -22 -175 -29 -128 -31 -407 -3 -550 16 -81 19 -154 22
-493 l4 -397 -2468 2 -2468 3 0 240 0 240 130 3 c102 2 133 6 147 19 17 15 18
52 18 623 0 507 -2 609 -14 626 -13 17 -31 20 -148 24 l-133 5 0 685 0 685
130 3 c118 2 132 4 148 23 16 20 17 65 17 623 0 504 -2 605 -14 622 -13 17
-31 20 -148 24 l-133 5 -3 230 c-1 126 0 235 2 242 4 11 485 13 2471 13 l2465
0 0 -1535z m-5062 802 l3 -118 -88 3 -88 3 -3 104 c-1 58 0 111 2 118 4 10 26
13 88 11 l83 -3 3 -118z m297 -402 l0 -520 -87 -3 -88 -3 0 159 c0 121 -3 163
-14 178 -13 17 -31 20 -148 24 l-133 5 0 160 0 160 133 5 c117 4 135 7 148 24
11 15 14 56 14 171 0 84 3 155 7 159 4 4 43 5 88 4 l80 -3 0 -520z m-845 233
l0 -133 -117 -117 c-65 -65 -121 -118 -125 -118 -5 0 -8 47 -8 105 l0 105 -60
0 -60 0 0 -173 0 -172 -208 -208 c-114 -114 -210 -205 -213 -203 -9 10 11 159
35 261 49 202 139 368 271 501 88 89 161 142 275 199 70 35 185 83 203 85 4 0
7 -60 7 -132z m0 -563 l0 -224 -46 -31 c-76 -53 -228 -120 -331 -146 -105 -27
-299 -52 -310 -40 -4 4 44 58 107 121 l115 115 167 0 168 0 0 55 0 55 -98 0
c-54 0 -102 3 -106 7 -10 10 296 313 316 313 17 0 18 -17 18 -225z m-5197
-295 l146 -400 -41 -76 -40 -75 -50 56 c-72 81 -132 109 -233 109 -105 1 -166
-26 -235 -101 l-49 -54 -127 3 -127 3 -113 305 c-62 168 -112 311 -111 319 2
13 778 307 818 310 12 1 50 -93 162 -399z m1102 210 c171 -100 314 -186 319
-191 6 -5 -39 -9 -117 -9 -101 0 -137 -4 -179 -20 -70 -26 -117 -66 -153 -131
-29 -53 -30 -58 -35 -233 l-5 -179 -29 42 c-63 91 -162 136 -280 129 -122 -8
-211 -70 -264 -186 -21 -47 -24 -64 -20 -136 5 -89 25 -139 79 -201 17 -19 27
-35 23 -35 -55 -3 -449 2 -452 5 -3 3 705 1218 765 1313 8 13 20 22 26 19 7
-2 152 -86 322 -187z m4643 7 l3 -118 -88 3 -88 3 -3 104 c-2 69 1 108 9 117
9 11 32 14 88 12 l76 -3 3 -118z m-2857 43 c409 -84 686 -330 814 -724 35
-111 71 -283 61 -293 -4 -4 -90 76 -191 177 l-185 185 0 172 0 173 -60 0 -60
0 0 -105 c0 -58 -3 -105 -7 -105 -4 0 -98 90 -208 200 l-201 200 -42 -43 -42
-43 75 -74 c41 -41 75 -78 75 -82 0 -5 -34 -8 -75 -8 l-75 0 0 -60 0 -60 143
0 142 0 153 -153 c84 -84 150 -156 146 -160 -4 -4 -52 -7 -106 -7 l-98 0 0
-55 0 -55 168 0 167 0 125 -125 c68 -68 121 -127 118 -130 -9 -9 -189 13 -283
35 -460 107 -751 380 -858 805 -28 110 -54 323 -43 351 6 15 18 16 127 11 66
-4 165 -16 220 -27z m2317 -495 c1 -83 1 -159 -2 -170 -4 -15 -28 -28 -93 -50
-313 -105 -560 -317 -689 -589 -20 -42 -40 -73 -45 -70 -12 7 -12 831 0 838 5
3 69 8 142 11 219 8 443 65 594 149 33 19 67 33 75 32 12 -1 15 -27 18 -151z
m-3890 106 c46 -23 67 -46 87 -94 12 -30 15 -87 15 -315 0 -154 -3 -307 -6
-341 l-7 -61 -173 0 -174 0 0 333 c0 202 4 347 11 370 28 100 154 155 247 108z
m512 10 c0 -5 -9 -13 -20 -16 -11 -4 -47 -31 -79 -60 -84 -78 -125 -171 -125
-280 0 -70 4 -89 33 -151 41 -88 113 -162 196 -201 53 -25 71 -28 160 -28 88
0 107 3 157 27 79 37 150 106 190 185 31 62 33 73 33 167 0 89 -3 108 -27 159
-34 69 -96 139 -157 175 l-46 27 70 3 c85 4 142 -16 184 -63 17 -19 33 -49 36
-67 3 -18 4 -235 3 -483 l-3 -450 -447 -3 -448 -2 0 477 c-1 403 -3 484 -16
518 -32 83 -46 75 140 75 96 0 166 -4 166 -9z m275 -115 c94 -43 155 -138 155
-241 0 -181 -175 -306 -352 -253 -52 15 -131 87 -158 143 -64 133 13 313 155
363 55 19 145 14 200 -12z m-3440 -228 c4 -3 -2 -21 -12 -40 -17 -31 -18 -79
-23 -698 l-5 -665 -445 0 -445 0 -3 638 c-2 528 0 643 12 671 15 36 63 77 111
94 33 12 798 12 810 0z m350 -11 c26 -12 65 -48 65 -59 0 -4 -68 -8 -151 -8
l-151 0 14 23 c8 12 34 32 58 45 36 18 54 21 95 16 27 -4 59 -11 70 -17z
m1733 -51 c80 -42 115 -163 72 -252 -80 -165 -340 -125 -358 56 -7 79 5 117
53 165 64 64 148 76 233 31z m1850 12 c36 -40 42 -74 42 -254 l0 -174 -34 0
c-33 0 -33 1 -40 53 -9 77 -7 397 2 397 5 0 18 -10 30 -22z m-2715 -18 c77
-53 110 -155 71 -215 -22 -34 -29 -32 -43 16 -23 75 -146 179 -213 179 -32 0
-29 20 4 35 49 22 137 15 181 -15z m5317 -132 l0 -113 -117 -117 c-65 -65
-121 -118 -125 -118 -5 0 -8 47 -8 105 l0 105 -60 0 -60 0 0 -173 0 -172 -211
-210 -211 -210 6 65 c15 158 88 377 167 500 89 138 216 258 357 337 59 33 234
111 255 112 4 1 7 -50 7 -111z m-5836 -9 c3 -3 -3 -29 -14 -57 -19 -50 -20
-79 -20 -702 l0 -650 -447 2 -448 3 0 40 0 40 147 5 c80 3 150 9 155 13 4 5
10 115 13 245 l5 237 25 -5 c14 -3 63 -5 110 -4 70 0 95 5 142 26 63 29 139
94 174 150 33 52 64 150 64 202 0 113 -75 253 -172 319 -82 56 -142 71 -254
64 l-94 -5 0 37 c0 21 3 41 7 45 9 9 598 4 607 -5z m375 -28 c47 -34 71 -91
71 -173 l0 -68 -165 0 c-91 0 -168 0 -172 0 -5 0 -8 40 -8 88 0 99 17 135 77
166 49 25 153 18 197 -13z m3077 -3 c49 -37 50 -39 29 -98 -8 -23 -15 -76 -15
-117 0 -63 5 -85 34 -148 140 -303 551 -312 701 -15 26 51 32 55 73 44 l22 -6
0 -414 0 -414 -447 2 -448 3 -3 598 c-1 328 1 597 4 597 4 0 26 -15 50 -32z
m253 -167 c109 -56 239 -104 330 -122 33 -6 61 -16 61 -21 0 -45 -89 -129
-162 -154 -169 -56 -348 76 -348 255 0 49 9 91 18 91 3 0 49 -22 101 -49z
m-4053 -26 c25 -15 58 -45 75 -68 104 -144 54 -329 -110 -405 -45 -21 -64 -24
-120 -20 -118 9 -111 -8 -111 263 0 226 1 235 20 245 63 34 174 27 246 -15z
m13170 0 c436 -76 805 -385 928 -775 61 -191 68 -377 27 -621 -91 -532 -465
-1206 -1019 -1839 -46 -52 -88 -97 -93 -99 -19 -6 -244 255 -407 474 -592 790
-844 1532 -697 2052 32 112 109 269 175 356 256 338 693 520 1086 452z m-6986
-329 l0 -244 -35 -26 c-103 -79 -304 -155 -480 -181 -107 -16 -215 -20 -215
-8 0 4 60 67 132 140 l133 133 167 0 168 0 0 55 0 55 -98 0 c-54 0 -102 3
-106 7 -10 10 296 313 316 313 17 0 18 -18 18 -244z m-1392 -302 l-3 -469 -35
-3 -35 -4 23 24 22 24 0 450 c0 248 3 454 7 458 4 3 10 3 15 -2 4 -4 7 -219 6
-478z m-2404 460 c13 -5 16 -24 16 -102 0 -143 -28 -132 342 -132 238 0 310
-3 313 -12 2 -7 6 -29 9 -49 8 -48 50 -109 94 -139 44 -29 140 -39 196 -20 73
24 128 93 142 179 3 22 15 48 25 57 16 15 19 32 19 115 0 97 0 99 25 105 56
14 56 16 53 -253 l-3 -248 -1590 0 -1590 0 -3 240 c-1 132 0 245 2 252 4 10
199 13 970 13 530 0 971 -3 980 -6z m992 -247 c16 -42 -44 -101 -102 -101 -44
0 -94 46 -94 86 l0 28 95 0 c70 0 97 -4 101 -13z m3352 -330 l3 -118 -88 3
-88 3 -3 95 c-4 146 -7 141 91 138 l82 -3 3 -118z m300 -404 l2 -523 -90 0
-90 0 0 158 c0 204 7 196 -171 200 l-129 4 2 161 3 162 133 5 c117 4 135 7
148 24 11 15 14 56 14 171 0 84 3 155 7 159 4 4 43 5 88 4 l80 -3 3 -522z
m-840 256 c1 -90 0 -174 -3 -187 l-5 -22 -413 2 -412 3 0 90 0 90 65 2 c275
10 480 56 665 151 44 23 85 40 90 38 6 -2 11 -68 13 -167z m-2568 -29 c3 -74
9 -141 13 -147 4 -7 22 -17 40 -22 l32 -8 -48 -22 c-99 -43 -153 -104 -182
-206 -29 -98 -3 -202 68 -282 l36 -39 -145 -650 c-160 -722 -164 -736 -269
-851 -72 -80 -157 -136 -258 -170 l-82 -28 -1530 0 c-1423 0 -1534 1 -1593 17
-129 36 -234 104 -313 201 -93 115 -90 107 -309 1093 -110 500 -202 916 -203
924 -2 13 21 15 152 15 l155 0 67 -287 c37 -158 72 -303 78 -321 27 -81 138
-145 229 -131 57 9 131 59 155 108 33 63 32 117 -2 260 -17 70 -31 137 -31
147 0 19 10 19 242 17 l242 -3 21 -191 c24 -219 36 -252 107 -300 88 -60 195
-51 270 23 72 70 73 89 34 461 -39 362 -44 382 -125 435 -42 28 -53 61 -29 85
9 9 372 11 1593 10 l1580 -3 5 -135z m-3145 -381 c14 -134 28 -267 32 -296 5
-50 4 -54 -30 -88 -19 -19 -45 -35 -56 -35 -30 0 -78 26 -90 48 -10 19 -41
273 -41 337 l0 35 53 0 c84 0 92 11 94 127 1 54 2 104 3 112 0 8 2 12 5 9 3
-2 16 -114 30 -249z m5705 -99 l0 -180 -1243 2 -1244 3 -37 29 c-107 81 -93
246 26 305 l43 21 1228 0 1227 0 0 -180z m-6625 78 c3 -13 19 -81 35 -151 33
-139 35 -168 20 -198 -16 -28 -67 -51 -99 -44 -54 12 -69 41 -111 220 -22 93
-40 175 -40 182 0 10 23 13 95 13 90 0 95 -1 100 -22z m7175 -233 l0 -116 -87
3 -88 3 -3 99 c-1 55 0 106 2 113 4 9 29 13 91 13 l85 0 0 -115z m-3000 -870
c5 -710 5 -721 27 -773 24 -59 86 -145 121 -168 12 -8 20 -19 17 -24 -8 -13
-835 -13 -835 -1 0 4 26 25 58 46 124 82 241 238 282 375 11 36 78 331 150
655 72 325 133 596 135 603 3 8 13 12 22 10 17 -3 18 -47 23 -723z m2452 203
l3 -513 27 -51 c15 -28 48 -70 74 -93 l47 -41 -5 -97 c-7 -140 -48 -221 -140
-279 -88 -56 -72 -55 -1129 -52 l-974 3 -57 28 c-65 32 -121 89 -152 156 -21
45 -21 55 -24 749 l-3 702 1165 0 1165 0 3 -512z m6288 -661 c73 -100 231
-295 324 -399 47 -53 86 -102 86 -108 0 -7 -175 -10 -555 -10 -356 0 -555 4
-555 10 0 5 18 33 39 61 60 80 83 147 90 269 l6 105 165 5 c189 6 237 20 306
91 21 21 41 39 44 39 3 0 25 -28 50 -63z m-5749 -172 c4 -55 11 -114 17 -130
16 -52 61 -133 92 -168 16 -19 27 -37 23 -41 -8 -8 -558 -8 -566 1 -4 3 16 30
44 60 27 29 64 83 81 119 26 57 32 82 36 166 l5 99 131 -3 131 -3 6 -100z
m3732 8 c3 -59 14 -121 26 -155 19 -54 82 -161 102 -174 5 -3 9 -9 9 -15 0
-10 -2512 -13 -2523 -3 -3 4 9 25 29 47 70 82 103 182 104 308 0 42 3 79 7 82
3 4 509 7 1123 7 l1117 0 6 -97z m-2378 -3 c-1 -70 -5 -95 -27 -141 -32 -69
-89 -129 -160 -166 l-53 -28 -375 0 -375 0 -50 27 c-62 32 -140 114 -167 174
-20 46 -36 179 -25 208 6 15 67 16 619 14 l613 -3 0 -85z m3700 0 c-1 -70 -5
-95 -27 -141 -32 -69 -89 -129 -160 -166 l-53 -28 -355 0 -355 0 -56 28 c-63
31 -126 93 -160 159 -18 33 -24 65 -27 141 l-4 97 598 -2 599 -3 0 -85z"/>
<path d="M11085 14765 c-558 -102 -995 -537 -1089 -1084 -21 -122 -21 -347 0
-466 103 -592 607 -1051 1201 -1093 401 -29 758 98 1039 370 189 183 317 413
380 683 24 101 27 411 5 520 -105 532 -503 939 -1037 1060 -100 23 -396 29
-499 10z m410 -116 c101 -14 247 -60 350 -112 251 -125 431 -308 556 -562 87
-177 111 -279 116 -490 4 -147 2 -184 -17 -275 -28 -136 -86 -283 -158 -401
-70 -114 -242 -293 -352 -366 -550 -366 -1263 -242 -1660 288 -106 142 -189
336 -221 519 -19 105 -17 315 5 423 56 289 211 543 444 728 194 155 429 245
672 258 125 7 145 6 265 -10z"/>
<path d="M11106 14384 c-601 -133 -923 -788 -661 -1342 233 -492 822 -691
1305 -441 227 117 410 343 482 594 20 69 23 103 23 250 0 182 -8 229 -62 363
-48 122 -103 202 -213 312 -135 135 -259 208 -435 256 -86 24 -347 29 -439 8z
m404 -124 c306 -77 541 -318 615 -630 25 -106 23 -280 -4 -384 -64 -243 -231
-445 -456 -552 -109 -52 -189 -72 -315 -80 -340 -22 -678 191 -813 511 -48
113 -61 181 -61 320 0 158 16 229 84 370 172 355 567 541 950 445z"/>
<path d="M11155 14137 c-20 -17 -28 -35 -32 -70 -5 -44 -8 -48 -49 -66 -62
-28 -139 -104 -171 -170 -23 -47 -27 -70 -28 -141 0 -115 21 -174 91 -249 65
-71 130 -106 296 -161 70 -23 130 -46 133 -50 10 -16 -37 -32 -95 -32 -61 0
-116 21 -179 67 -57 42 -82 34 -176 -54 -71 -66 -84 -86 -85 -125 0 -44 91
-129 186 -172 72 -34 74 -36 74 -70 0 -26 8 -43 29 -65 29 -29 31 -29 141 -29
110 0 112 0 141 29 20 21 29 39 29 63 0 30 5 35 54 56 113 49 180 119 210 222
21 72 20 134 -4 213 -39 126 -137 201 -358 272 -181 59 -201 97 -54 103 66 3
87 0 139 -22 99 -41 121 -31 201 95 46 71 54 118 26 157 -18 25 -84 61 -161
86 -48 16 -53 20 -53 48 0 19 -10 39 -29 59 -29 29 -31 29 -140 29 -100 0
-112 -2 -136 -23z m185 -121 c0 -44 18 -75 47 -81 80 -18 165 -48 169 -60 3
-8 -4 -29 -17 -47 -12 -18 -23 -34 -25 -36 -1 -2 -30 7 -65 19 -52 17 -80 20
-149 16 -141 -7 -206 -54 -204 -148 1 -88 51 -128 238 -189 168 -54 236 -100
270 -182 55 -130 -21 -269 -172 -314 -72 -22 -84 -33 -91 -86 l-6 -43 -45 0
-45 0 -6 42 c-7 56 -20 68 -94 93 -68 22 -145 72 -145 93 0 6 14 24 31 38 l32
26 68 -35 c168 -86 384 -34 384 92 0 90 -38 120 -238 186 -157 53 -219 93
-259 169 -34 65 -37 144 -9 206 24 54 96 116 160 139 57 20 71 38 71 90 l0 36
50 0 c46 0 50 -2 50 -24z"/>
<path d="M18445 9074 c-89 -59 -108 -90 -85 -135 18 -33 64 -24 135 27 72 50
84 73 61 109 -22 33 -60 32 -111 -1z"/>
<path d="M15490 10873 c-314 -23 -658 -158 -915 -358 -603 -471 -824 -1281
-544 -1989 216 -545 693 -939 1281 -1058 97 -20 143 -23 323 -22 189 0 223 3
336 27 508 107 930 422 1177 877 222 408 262 925 105 1373 -220 633 -792 1082
-1458 1147 -95 9 -208 10 -305 3z m400 -139 c499 -84 938 -407 1165 -859 222
-444 229 -949 19 -1394 -347 -735 -1186 -1093 -1954 -834 -423 142 -781 474
-959 889 -310 721 -40 1562 634 1981 325 203 715 280 1095 217z"/>
<path d="M15417 10525 c-348 -57 -665 -242 -871 -510 -202 -262 -296 -534
-296 -861 0 -157 20 -283 66 -424 72 -218 171 -377 339 -546 267 -269 593
-404 975 -404 366 0 689 128 951 378 122 116 207 232 284 387 112 226 150 404
142 660 -3 88 -13 193 -22 232 -120 544 -532 958 -1070 1075 -121 26 -377 33
-498 13z m237 -101 c14 -5 16 -46 16 -355 l0 -349 -40 0 -40 0 0 349 c0 270 3
350 13 354 18 8 33 8 51 1z m-186 -368 l2 -347 -52 -24 -53 -23 -247 246
c-137 136 -248 249 -248 252 0 11 130 91 221 135 52 25 123 55 159 66 78 23
191 48 205 45 6 -2 11 -129 13 -350z m427 333 c88 -17 199 -56 290 -101 81
-41 205 -118 205 -128 0 -3 -111 -116 -247 -252 l-248 -246 -52 23 -53 24 0
344 c0 189 3 347 7 350 4 4 14 5 22 3 9 -3 43 -10 76 -17z m-883 -556 c131
-131 238 -242 238 -247 0 -5 -10 -20 -22 -33 l-22 -24 -248 248 -247 247 21
23 c12 13 26 23 32 23 6 0 118 -107 248 -237z m1515 215 l24 -22 -248 -248
-247 -247 -23 21 c-13 12 -23 26 -23 32 0 13 471 486 484 486 5 0 20 -10 33
-22z m-1646 -375 l247 -248 -24 -52 -24 -53 -344 0 c-197 0 -347 4 -350 9 -16
25 50 250 109 375 34 72 124 216 135 216 3 0 116 -111 251 -247z m1796 185
c57 -87 117 -209 147 -298 28 -86 57 -220 50 -232 -3 -4 -160 -8 -350 -8
l-344 0 -24 53 -24 52 247 248 c135 136 248 247 251 247 3 0 24 -28 47 -62z
m-855 -300 c276 -137 338 -496 122 -712 -176 -176 -453 -177 -629 -1 -233 234
-138 624 180 738 38 13 74 17 151 15 93 -3 106 -6 176 -40z m-754 -401 l3 -37
-353 2 -353 3 -3 23 c-8 54 -20 52 355 50 l348 -3 3 -38z m1827 3 l0 -35 -352
-3 -353 -2 0 33 c0 19 3 37 7 40 4 4 162 6 352 5 l346 -3 0 -35z m-1788 -219
l20 -49 -249 -248 -249 -249 -20 25 c-36 45 -109 174 -139 245 -33 80 -74 218
-84 283 l-6 42 353 0 353 0 21 -49z m1767 12 c-34 -188 -124 -402 -224 -533
l-19 -25 -249 249 -249 248 20 49 21 49 353 0 354 0 -7 -37z m-1642 -190 c10
-9 18 -21 18 -27 0 -6 -109 -120 -242 -253 l-242 -243 -28 27 -29 27 243 243
c134 134 247 243 252 243 5 0 18 -7 28 -17z m1075 -225 l243 -242 -27 -28 -27
-29 -243 243 c-134 134 -243 247 -243 252 0 14 31 46 44 46 6 0 120 -109 253
-242z m-883 91 l46 -20 -2 -347 -3 -347 -44 3 c-56 5 -193 44 -286 82 -71 30
-200 103 -245 139 l-25 20 245 246 c135 135 250 245 256 245 6 0 32 -9 58 -21z
m726 -224 l245 -246 -25 -20 c-123 -98 -396 -211 -535 -221 l-40 -3 -3 347 -2
347 42 20 c24 10 50 20 58 20 8 1 125 -109 260 -244z m-485 -160 l0 -350 -35
0 -35 0 -3 340 c-1 187 0 346 3 353 3 8 17 12 37 10 l33 -3 0 -350z"/>
<path d="M17836 8191 c-9 -10 -23 -53 -31 -97 -15 -74 -15 -80 3 -104 22 -29
59 -37 85 -17 20 14 47 110 47 168 0 61 -65 93 -104 50z"/>
<path d="M17799 7819 c-20 -20 -21 -28 -16 -107 7 -94 22 -122 67 -122 54 0
65 20 62 112 -2 61 -7 90 -21 108 -24 33 -64 37 -92 9z"/>
<path d="M17862 7454 c-28 -19 -28 -54 0 -140 25 -77 52 -101 95 -87 45 15 51
50 23 139 -31 98 -66 125 -118 88z"/>
<path d="M5321 9338 c-114 -17 -236 -111 -289 -226 -24 -50 -27 -69 -27 -157
0 -95 2 -103 35 -164 177 -327 617 -280 726 78 19 63 17 118 -6 192 -60 197
-234 306 -439 277z m179 -138 c101 -51 154 -134 153 -240 0 -77 -17 -122 -69
-180 -51 -56 -105 -82 -184 -88 -59 -4 -71 -1 -130 30 -103 53 -158 153 -147
264 8 81 46 140 130 204 55 41 176 46 247 10z"/>
<path d="M19065 8703 c-176 -37 -324 -121 -451 -256 -92 -97 -150 -194 -196
-327 -31 -92 -32 -101 -32 -255 -1 -177 9 -229 69 -361 114 -252 344 -435 614
-489 102 -21 302 -16 396 10 192 52 377 185 492 355 149 220 185 519 92 774
-82 225 -273 422 -489 505 -155 60 -343 77 -495 44z m359 -123 c354 -90 602
-447 556 -803 -21 -171 -96 -324 -215 -442 -293 -294 -757 -294 -1050 -1 -83
83 -135 164 -177 278 -27 72 -32 100 -36 206 -3 75 0 147 8 185 53 274 271
506 544 577 100 26 268 26 370 0z"/>
<path d="M19100 8466 c-175 -45 -323 -160 -404 -315 -54 -104 -70 -171 -70
-296 1 -93 5 -122 27 -188 71 -205 236 -360 442 -412 32 -8 100 -15 150 -15
50 0 118 7 150 15 206 52 371 207 442 412 34 99 38 262 9 358 -59 198 -207
355 -398 422 -90 32 -260 41 -348 19z m270 -117 c163 -37 320 -195 365 -364
67 -258 -83 -524 -345 -611 -79 -26 -225 -24 -305 5 -207 74 -346 268 -345
481 1 131 47 244 142 346 126 134 300 185 488 143z"/>
<path d="M7480 8119 c-44 -18 -90 -59 -113 -102 -21 -40 -22 -53 -25 -352 -4
-363 0 -396 60 -461 94 -102 252 -90 333 24 l30 44 3 336 c2 226 0 349 -8 375
-14 49 -65 106 -115 128 -43 20 -125 24 -165 8z m141 -138 l29 -29 0 -317 c0
-198 -4 -324 -10 -336 -16 -28 -67 -51 -99 -44 -16 3 -39 17 -52 31 l-24 26
-3 306 c-2 218 1 314 9 334 26 64 100 78 150 29z"/>
<path d="M8411 8116 c-52 -17 -108 -67 -128 -116 -9 -20 -29 -167 -49 -350
-38 -359 -37 -371 28 -445 104 -118 300 -82 356 66 16 41 76 650 68 690 -22
116 -158 192 -275 155z m116 -126 c18 -11 35 -31 39 -47 9 -33 -51 -615 -66
-643 -16 -29 -67 -52 -99 -45 -31 7 -66 39 -74 70 -4 11 8 157 26 324 l33 303
32 29 c38 34 65 36 109 9z"/>
<path d="M9384 8121 c-52 -13 -103 -50 -128 -94 -34 -59 -170 -645 -163 -703
16 -148 174 -231 310 -165 81 39 91 64 173 414 41 172 74 328 74 348 0 58 -48
140 -100 171 -49 29 -117 41 -166 29z m95 -125 c28 -15 51 -53 51 -84 0 -9
-31 -149 -69 -310 -73 -312 -82 -334 -142 -347 -49 -11 -108 35 -109 85 0 29
125 571 142 613 11 29 50 56 81 57 10 0 30 -6 46 -14z"/>
<path d="M5802 7089 c-71 -21 -142 -122 -142 -201 0 -14 38 -184 84 -377 96
-400 105 -424 188 -465 162 -81 340 51 308 226 -21 112 -163 686 -177 716 -42
88 -155 131 -261 101z m133 -131 c23 -21 35 -62 110 -375 91 -381 92 -393 40
-427 -55 -36 -136 0 -150 67 -4 17 -40 171 -81 340 -41 170 -74 320 -74 333 0
15 12 38 29 55 37 37 88 39 126 7z"/>
<path d="M6632 7089 c-49 -14 -118 -88 -133 -141 -12 -47 -13 -36 31 -458 17
-162 35 -310 41 -328 25 -77 114 -141 195 -142 84 0 149 37 191 108 35 59 34
87 -10 502 -28 257 -38 323 -55 357 -47 90 -154 132 -260 102z m131 -129 c14
-11 28 -33 31 -48 4 -15 22 -177 41 -360 32 -303 33 -336 20 -362 -19 -36 -43
-50 -88 -50 -45 0 -83 43 -92 103 -11 81 -65 621 -65 650 0 69 96 112 153 67z"/>
<path d="M7459 7073 c-40 -21 -61 -40 -84 -77 l-30 -49 0 -386 0 -386 25 -45
c67 -119 225 -146 327 -57 72 63 73 67 73 487 0 420 -1 424 -73 487 -67 59
-154 68 -238 26z m162 -122 l29 -29 0 -362 0 -362 -29 -29 c-48 -47 -116 -38
-146 21 -13 24 -15 85 -15 370 0 232 4 348 11 363 32 63 102 75 150 28z"/>
<path d="M8296 7085 c-46 -16 -103 -68 -122 -111 -18 -43 -86 -672 -82 -756 3
-55 9 -75 33 -109 88 -124 282 -115 356 16 26 47 30 70 63 384 20 184 36 355
36 380 -1 90 -63 174 -149 200 -49 14 -87 13 -135 -4z m135 -134 c23 -24 29
-38 29 -73 0 -86 -69 -677 -81 -696 -26 -41 -91 -54 -134 -26 -45 29 -45 48
-5 419 l38 349 31 28 c42 38 83 37 122 -1z"/>
<path d="M9125 7089 c-42 -12 -99 -62 -119 -102 -8 -19 -52 -189 -97 -378 -92
-388 -95 -425 -45 -498 36 -51 112 -91 176 -91 62 0 144 41 176 89 17 27 47
133 109 396 47 198 85 371 85 384 0 50 -26 107 -66 148 -58 58 -137 76 -219
52z m136 -138 c16 -16 29 -40 29 -53 0 -13 -36 -176 -80 -363 -75 -318 -82
-342 -110 -367 -40 -37 -88 -38 -123 -3 -13 14 -27 36 -29 49 -3 12 33 180 78
372 74 311 86 351 109 372 38 32 89 30 126 -7z"/>
<path d="M9046 14894 c-27 -27 -19 -57 29 -104 25 -24 45 -48 45 -54 0 -5 -20
-31 -45 -57 -49 -53 -55 -79 -25 -109 30 -30 56 -24 109 25 26 25 52 45 57 45
6 0 30 -20 54 -45 45 -46 74 -55 102 -32 36 28 31 53 -22 112 l-51 57 50 53
c55 58 59 69 35 103 -27 38 -71 30 -126 -25 l-48 -47 -48 47 c-51 50 -87 60
-116 31z"/>
<path d="M14029 14257 c-87 -33 -137 -81 -165 -159 -31 -88 -13 -184 49 -254
57 -65 107 -88 192 -88 79 0 131 21 184 75 47 47 64 86 69 164 5 77 -8 120
-52 178 -57 74 -193 115 -277 84z m141 -122 c66 -34 92 -110 61 -179 -26 -61
-71 -88 -132 -83 -61 5 -103 36 -125 93 -17 44 -16 47 2 92 34 81 120 115 194
77z"/>
<path d="M15334 14062 c-6 -4 -17 -18 -24 -31 -10 -20 -9 -27 8 -50 18 -25 24
-26 107 -26 83 0 89 1 107 26 17 23 18 30 8 50 -19 36 -28 39 -115 39 -44 0
-85 -4 -91 -8z"/>
<path d="M15702 14054 c-14 -10 -22 -26 -22 -44 0 -45 31 -60 122 -60 86 0
118 17 118 64 0 40 -34 56 -120 56 -52 0 -82 -5 -98 -16z"/>
<path d="M16078 14058 c-27 -22 -30 -53 -7 -82 20 -26 24 -27 106 -24 79 3 87
5 105 29 17 23 18 30 8 50 -7 13 -18 27 -24 31 -19 13 -171 9 -188 -4z"/>
<path d="M16452 14054 c-14 -10 -22 -26 -22 -44 0 -45 31 -60 122 -60 86 0
118 17 118 64 0 40 -34 56 -120 56 -52 0 -82 -5 -98 -16z"/>
<path d="M6636 13854 c-24 -23 -20 -70 6 -88 24 -17 162 -23 184 -8 37 24 36
91 -1 106 -9 3 -52 6 -95 6 -58 0 -83 -4 -94 -16z"/>
<path d="M7010 13850 c-11 -11 -20 -29 -20 -40 0 -43 34 -60 118 -60 90 0 122
15 122 59 0 48 -26 61 -118 61 -69 0 -85 -3 -102 -20z"/>
<path d="M7386 13854 c-24 -23 -20 -70 6 -88 23 -16 130 -22 174 -10 45 12 51
91 9 108 -9 3 -52 6 -95 6 -58 0 -83 -4 -94 -16z"/>
<path d="M7762 13854 c-28 -19 -29 -57 -2 -84 17 -17 33 -20 98 -20 90 0 122
15 122 59 0 47 -26 61 -116 61 -56 0 -86 -5 -102 -16z"/>
<path d="M8136 13854 c-9 -8 -16 -28 -16 -44 0 -44 31 -60 118 -60 65 0 76 3
98 25 27 27 26 59 -4 83 -24 19 -176 16 -196 -4z"/>
<path d="M17302 13338 c-20 -20 -15 -76 7 -88 11 -5 58 -10 105 -10 76 0 86 2
100 22 21 29 20 51 -2 71 -23 21 -190 25 -210 5z"/>
<path d="M17673 13324 c-15 -24 -15 -29 -2 -53 14 -25 19 -26 108 -29 105 -3
121 4 121 52 0 49 -14 56 -117 56 -89 0 -93 -1 -110 -26z"/>
<path d="M18052 13338 c-20 -20 -15 -76 7 -88 11 -5 58 -10 105 -10 76 0 86 2
100 22 21 29 20 51 -2 71 -23 21 -190 25 -210 5z"/>
<path d="M18427 13332 c-21 -23 -21 -41 -1 -70 14 -20 24 -22 100 -22 103 0
124 9 124 53 0 50 -14 57 -115 57 -76 0 -95 -3 -108 -18z"/>
<path d="M8465 13291 c-162 -73 -202 -295 -75 -418 45 -44 95 -66 162 -71 105
-8 193 39 244 130 24 44 29 64 29 123 0 59 -5 79 -29 123 -31 55 -74 94 -131
118 -48 20 -151 18 -200 -5z m187 -123 c91 -65 73 -198 -34 -242 -45 -18 -48
-19 -92 -2 -158 61 -103 293 64 269 19 -2 47 -14 62 -25z"/>
<path d="M16382 13098 c-27 -27 -14 -71 35 -120 l47 -48 -47 -48 c-53 -54 -64
-102 -28 -122 36 -19 61 -10 111 36 l50 47 50 -47 c53 -50 86 -58 113 -28 28
30 20 60 -29 112 l-47 50 47 50 c49 52 58 87 30 114 -29 29 -65 19 -116 -31
l-48 -47 -48 47 c-49 49 -93 62 -120 35z"/>
<path d="M13866 12904 c-21 -20 -20 -68 1 -85 11 -9 43 -14 98 -14 67 0 87 4
104 19 26 23 27 57 3 79 -26 24 -183 24 -206 1z"/>
<path d="M14234 12895 c-14 -21 -15 -31 -6 -51 15 -31 49 -44 120 -44 77 0
106 16 110 60 5 50 -15 60 -120 60 -83 0 -88 -1 -104 -25z"/>
<path d="M14616 12904 c-21 -20 -20 -68 1 -85 11 -9 43 -14 98 -14 67 0 87 4
104 19 25 23 27 44 5 74 -14 20 -24 22 -104 22 -67 0 -92 -4 -104 -16z"/>
<path d="M14984 12895 c-21 -33 -7 -71 33 -86 35 -14 158 -6 178 11 22 18 19
77 -4 90 -11 5 -58 10 -105 10 -81 0 -87 -1 -102 -25z"/>
<path d="M15366 12904 c-21 -20 -20 -68 1 -85 11 -9 43 -14 98 -14 67 0 87 4
104 19 25 23 27 44 5 74 -14 20 -24 22 -104 22 -67 0 -92 -4 -104 -16z"/>
<path d="M8157 12288 c-28 -22 -32 -63 -8 -87 18 -18 33 -21 105 -21 95 0 116
11 116 60 0 45 -31 60 -120 60 -46 0 -83 -5 -93 -12z"/>
<path d="M8532 12284 c-27 -19 -29 -64 -4 -87 14 -13 38 -17 100 -17 69 0 85
3 102 20 11 11 20 29 20 40 0 43 -34 60 -118 60 -54 0 -84 -5 -100 -16z"/>
<path d="M8907 12288 c-28 -22 -32 -63 -8 -87 18 -18 33 -21 105 -21 95 0 116
11 116 60 0 45 -31 60 -120 60 -46 0 -83 -5 -93 -12z"/>
<path d="M9282 12284 c-27 -19 -29 -64 -4 -87 14 -13 38 -17 100 -17 69 0 85
3 102 20 11 11 20 29 20 40 0 43 -34 60 -118 60 -54 0 -84 -5 -100 -16z"/>
<path d="M6652 12094 c-37 -26 -29 -67 25 -125 l46 -50 -46 -47 c-51 -52 -60
-87 -29 -115 30 -27 55 -20 102 28 24 25 48 45 54 45 5 0 31 -20 57 -45 52
-49 85 -57 112 -27 29 32 21 64 -28 112 -25 24 -45 49 -45 55 0 6 20 31 45 55
62 61 61 105 -2 124 -18 6 -34 -3 -78 -45 l-55 -52 -54 52 c-59 55 -70 59
-104 35z"/>
<path d="M6632 11138 c-16 -16 -15 -73 2 -87 9 -8 47 -11 107 -9 89 3 94 4
108 29 13 24 13 29 -2 53 -17 25 -21 26 -110 26 -59 0 -97 -4 -105 -12z"/>
<path d="M7007 11132 c-21 -23 -22 -56 -1 -76 12 -12 37 -16 104 -16 96 0 120
11 120 55 0 44 -24 55 -119 55 -72 0 -91 -3 -104 -18z"/>
<path d="M7382 11138 c-16 -16 -15 -73 2 -87 9 -8 47 -11 107 -9 89 3 94 4
108 29 13 24 13 29 -2 53 -17 25 -21 26 -110 26 -59 0 -97 -4 -105 -12z"/>
<path d="M7757 11132 c-21 -23 -22 -56 -1 -76 12 -12 37 -16 104 -16 96 0 120
11 120 55 0 44 -24 55 -119 55 -72 0 -91 -3 -104 -18z"/>
<path d="M8132 11138 c-16 -16 -15 -73 2 -87 9 -8 47 -11 107 -9 89 3 94 4
108 29 13 24 13 29 -2 53 -17 25 -21 26 -110 26 -59 0 -97 -4 -105 -12z"/>
<path d="M9105 11046 c-95 -45 -144 -126 -145 -235 -1 -276 376 -349 491 -96
35 77 21 184 -34 257 -71 93 -205 125 -312 74z m152 -96 c25 0 83 -62 93 -99
20 -76 -36 -162 -114 -177 -85 -15 -177 77 -162 162 13 67 94 130 151 118 11
-2 25 -4 32 -4z"/>
<path d="M19316 10434 c-29 -28 -19 -65 31 -116 l46 -47 -46 -50 c-67 -71 -64
-131 7 -131 23 0 42 12 78 47 l48 47 48 -47 c36 -35 55 -47 78 -47 71 0 74 60
7 131 l-46 50 46 47 c51 52 60 87 29 115 -30 28 -60 20 -112 -29 l-50 -47 -50
47 c-52 49 -87 58 -114 30z"/>
<path d="M20853 10291 c-73 -25 -117 -62 -148 -125 -52 -106 -25 -243 63 -316
75 -62 194 -75 280 -31 51 26 115 99 130 149 42 138 -35 287 -169 326 -67 20
-92 20 -156 -3z m143 -117 c96 -46 99 -200 5 -249 -44 -22 -102 -19 -142 8
-146 97 -22 316 137 241z"/>
<path d="M19100 9311 c-51 -10 -60 -18 -60 -55 0 -51 19 -60 113 -57 92 3 117
16 117 62 0 52 -64 71 -170 50z"/>
<path d="M19427 9282 c-21 -23 -22 -65 -3 -81 8 -7 53 -19 101 -29 l87 -16 19
23 c11 13 19 29 19 36 0 29 -37 56 -95 70 -81 19 -109 18 -128 -3z"/>
<path d="M19786 9177 c-12 -9 -17 -23 -14 -47 3 -30 10 -38 68 -72 79 -45 125
-49 141 -14 21 45 5 71 -70 110 -74 39 -97 43 -125 23z"/>
<path d="M20102 8974 c-41 -29 -30 -66 41 -128 71 -64 106 -72 133 -31 22 34
12 55 -57 119 -64 59 -81 65 -117 40z"/>
<path d="M20347 8692 c-10 -10 -17 -27 -17 -36 0 -21 66 -135 88 -153 37 -30
92 -4 92 43 0 26 -60 130 -88 152 -23 17 -56 15 -75 -6z"/>
<path d="M20520 8360 c-25 -25 -25 -28 3 -120 18 -56 30 -79 49 -89 23 -13 29
-13 52 2 32 22 33 51 6 141 -27 85 -67 109 -110 66z"/>
<path d="M20596 7988 c-23 -32 -11 -176 16 -200 26 -23 51 -23 71 0 26 28 24
182 -1 205 -26 24 -68 21 -86 -5z"/>
<path d="M3975 7927 c-94 -45 -148 -130 -148 -232 -1 -148 105 -254 253 -255
195 0 318 197 231 368 -45 88 -118 134 -221 139 -53 3 -75 -1 -115 -20z m182
-117 c91 -55 81 -192 -17 -243 -112 -58 -243 71 -185 182 8 16 28 40 45 55 40
33 109 36 157 6z"/>
<path d="M20596 7627 c-17 -13 -45 -114 -46 -168 0 -50 60 -77 93 -41 14 15
47 138 47 173 0 16 -39 49 -58 49 -10 0 -26 -6 -36 -13z"/>
<path d="M20494 7272 c-24 -15 -86 -154 -80 -178 8 -29 40 -48 72 -40 27 7 94
128 94 170 0 43 -51 72 -86 48z"/>
<path d="M20602 6583 c-23 -8 -62 -34 -86 -59 -104 -104 -100 -277 9 -373 53
-46 99 -63 170 -63 73 0 127 21 179 70 54 52 76 103 76 183 0 184 -172 304
-348 242z m182 -133 c66 -59 71 -145 10 -205 -57 -58 -126 -59 -189 -4 -99 87
-38 239 97 239 38 0 54 -6 82 -30z"/>
<path d="M4117 6472 c-28 -30 -20 -60 29 -112 l47 -50 -47 -50 c-49 -52 -58
-87 -30 -114 28 -29 65 -19 116 31 l47 46 50 -46 c71 -67 131 -64 131 7 0 23
-12 42 -47 78 l-47 48 47 48 c53 54 64 102 28 122 -36 19 -61 10 -112 -37
l-50 -46 -47 46 c-52 51 -87 60 -115 29z"/>
<path d="M2807 5453 l2 -118 460 -3 461 -2 0 120 0 120 -462 0 -463 0 2 -117z"/>
<path d="M4180 5450 l0 -120 448 2 447 3 3 118 3 117 -451 0 -450 0 0 -120z"/>
<path d="M20350 5450 l0 -120 970 0 970 0 0 120 0 120 -970 0 -970 0 0 -120z"/>
</g>
</svg>
