<?xml version="1.0" standalone="no"?>
<!DOCTYPE svg PUBLIC "-//W3C//DTD SVG 20010904//EN"
 "http://www.w3.org/TR/2001/REC-SVG-20010904/DTD/svg10.dtd">
<svg version="1.0" xmlns="http://www.w3.org/2000/svg"
 width="900.000000pt" height="900.000000pt" viewBox="0 0 900.000000 900.000000"
 preserveAspectRatio="xMidYMid meet">
<metadata>
Created by potrace 1.15, written by Peter Selinger 2001-2017
</metadata>
<g transform="translate(0.000000,900.000000) scale(0.100000,-0.100000)"
fill="#000000" stroke="none">
<path d="M3377 6453 c-4 -3 -7 -37 -7 -75 l0 -68 540 0 541 0 -3 73 -3 72
-531 3 c-292 1 -534 -1 -537 -5z"/>
<path d="M4767 6453 c-4 -3 -7 -37 -7 -75 l0 -68 350 0 350 0 0 75 0 75 -343
0 c-189 0 -347 -3 -350 -7z"/>
<path d="M5780 6385 l0 -75 258 0 257 0 -3 75 -4 75 -254 0 -254 0 0 -75z"/>
<path d="M2760 6380 l0 -70 145 0 145 0 0 70 0 70 -145 0 -145 0 0 -70z"/>
<path d="M2760 5860 l0 -70 145 0 145 0 0 70 0 70 -145 0 -145 0 0 -70z"/>
<path d="M3372 5858 l3 -73 378 -3 377 -2 0 75 0 75 -380 0 -381 0 3 -72z"/>
<path d="M4452 5858 l3 -73 608 -3 607 -2 0 75 0 75 -610 0 -611 0 3 -72z"/>
<path d="M2760 5341 l0 -70 145 -3 145 -3 0 73 0 72 -145 0 -145 0 0 -69z"/>
<path d="M3372 5338 l3 -73 638 -3 637 -2 0 75 0 75 -640 0 -641 0 3 -72z"/>
<path d="M4972 5338 l3 -73 450 0 450 0 3 73 3 72 -456 0 -456 0 3 -72z"/>
<path d="M2760 4815 l0 -75 145 0 145 0 0 75 0 75 -145 0 -145 0 0 -75z"/>
<path d="M3370 4815 l0 -75 380 0 380 0 0 75 0 75 -380 0 -380 0 0 -75z"/>
<path d="M4450 4815 l0 -75 400 0 400 0 0 75 0 75 -400 0 -400 0 0 -75z"/>
<path d="M5570 4815 l0 -75 258 2 257 3 3 73 3 72 -261 0 -260 0 0 -75z"/>
<path d="M4354 4376 c-17 -13 -20 -31 -24 -142 l-5 -128 -80 -17 c-44 -10
-107 -27 -139 -38 -33 -12 -60 -21 -62 -21 -1 0 -26 41 -55 92 -61 106 -80
128 -113 128 -13 0 -77 -31 -142 -69 -154 -90 -154 -89 -80 -222 31 -55 56
-104 56 -109 0 -10 -197 -210 -206 -210 -4 0 -48 25 -99 55 -95 56 -129 65
-157 43 -17 -14 -122 -191 -138 -233 -17 -46 2 -70 107 -131 54 -31 100 -59
102 -61 3 -2 -7 -43 -22 -91 -15 -48 -33 -112 -40 -142 l-12 -55 -125 -3
c-163 -3 -160 1 -160 -168 l0 -124 -881 0 -880 0 3 -302 3 -303 27 -51 c15
-28 48 -70 73 -92 87 -76 19 -72 1151 -72 844 0 1013 -2 1023 -14 8 -9 11
-101 9 -317 l-3 -304 -622 -3 -623 -2 0 -100 0 -100 2285 0 2285 0 0 100 0
100 -613 0 c-463 0 -616 3 -625 12 -17 17 -17 599 0 616 9 9 250 12 1025 12
995 0 1013 0 1067 20 61 23 126 80 155 138 33 64 40 137 40 404 l-1 258 -896
2 -897 3 -3 130 c-1 71 -7 134 -13 140 -5 5 -67 12 -137 15 l-127 5 -13 55
c-7 30 -24 92 -37 136 -14 45 -25 86 -25 91 0 5 39 31 88 58 95 54 132 85 132
111 0 21 -127 244 -148 262 -28 22 -59 13 -157 -43 -52 -30 -97 -55 -100 -55
-3 0 -52 47 -109 104 l-104 104 54 94 c51 88 64 137 46 164 -15 24 -234 144
-261 144 -35 0 -45 -12 -110 -127 -29 -51 -54 -93 -55 -93 -2 0 -29 9 -62 21
-32 11 -95 28 -139 38 l-80 17 -5 128 c-4 111 -7 129 -24 142 -28 20 -294 20
-322 0z m340 -820 c331 -84 554 -367 559 -709 0 -53 -4 -102 -9 -107 -7 -7
-262 -9 -735 -8 l-724 3 1 135 c0 126 3 140 32 219 137 363 507 560 876 467z
m-97 -1126 c96 -58 76 -204 -33 -240 -64 -21 -138 16 -163 83 -15 39 -14 63 6
104 32 69 123 94 190 53z"/>
</g>
</svg>
