<?xml version="1.0" standalone="no"?>
<!DOCTYPE svg PUBLIC "-//W3C//DTD SVG 20010904//EN"
 "http://www.w3.org/TR/2001/REC-SVG-20010904/DTD/svg10.dtd">
<svg version="1.0" xmlns="http://www.w3.org/2000/svg"
 width="900.000000pt" height="900.000000pt" viewBox="0 0 900.000000 900.000000"
 preserveAspectRatio="xMidYMid meet">
<metadata>
Created by potrace 1.15, written by Peter Selinger 2001-2017
</metadata>
<g transform="translate(0.000000,900.000000) scale(0.100000,-0.100000)"
fill="#000000" stroke="none">
<path d="M0 4500 l0 -4500 4500 0 4500 0 0 4500 0 4500 -4500 0 -4500 0 0
-4500z m7655 2819 l208 -100 -7 -2514 -7 -2513 -85 -194 c-48 -106 -90 -197
-95 -203 -6 -6 -51 11 -124 48 l-115 57 -109 -55 c-83 -41 -112 -51 -119 -42
-6 7 -51 104 -101 217 l-91 204 0 2268 c0 1247 -3 2269 -8 2271 -7 5 -318
-147 -369 -179 l-23 -14 -2 -928 -3 -927 -45 -5 -45 -5 -5 -1712 -5 -1713
-2030 3 -2030 2 -5 305 -5 305 -312 3 -313 2 0 2710 0 2710 1720 2 c946 2
1861 3 2033 3 l312 0 3 -530 2 -530 247 -247 c136 -136 250 -245 255 -242 4 3
8 214 8 470 l0 464 310 155 310 155 0 94 c0 66 4 99 13 108 8 7 49 29 91 48
43 19 130 61 194 92 65 31 122 57 128 57 6 1 105 -44 219 -100z"/>
<path d="M3060 5655 l0 -75 200 0 200 0 0 75 0 75 -200 0 -200 0 0 -75z"/>
<path d="M3880 5655 l0 -75 524 0 524 0 4 71 c2 39 1 73 -1 75 -2 2 -240 4
-528 4 l-523 0 0 -75z"/>
<path d="M2990 3775 l0 -1325 1478 2 1477 3 3 1323 2 1322 -1480 0 -1480 0 0
-1325z m930 940 l0 -235 -390 0 -390 0 0 235 0 235 390 0 390 0 0 -235z m938
3 l-3 -233 -387 -3 -388 -2 0 235 0 235 390 0 390 0 -2 -232z m937 -3 l0 -230
-387 0 -388 0 -1 225 c0 124 0 228 0 233 1 4 175 6 389 5 l387 -3 0 -230z
m-1877 -783 l2 -392 -387 2 -388 3 -3 380 c-1 209 0 386 3 393 3 10 86 12 387
10 l383 -3 3 -393z m937 3 l0 -390 -387 -3 -388 -2 0 388 c0 214 3 392 7 395
4 4 178 6 387 5 l381 -3 0 -390z m940 0 l0 -390 -387 -3 c-257 -1 -388 1 -388
8 0 5 0 179 0 385 0 206 0 380 0 385 0 7 131 9 388 8 l387 -3 0 -390z m-1875
-935 l0 -390 -390 0 -390 0 0 390 0 390 390 0 390 0 0 -390z m938 -2 l2 -388
-390 0 -390 0 0 390 0 390 388 -2 387 -3 3 -387z m937 2 l0 -385 -388 0 -387
0 0 380 c-1 209 0 383 0 388 0 4 174 6 388 5 l387 -3 0 -385z"/>
<path d="M3060 1905 l0 -75 545 0 545 0 0 75 0 75 -545 0 -545 0 0 -75z"/>
<path d="M4570 1905 l0 -75 285 0 285 0 0 75 0 75 -285 0 -285 0 0 -75z"/>
</g>
</svg>
