<?xml version="1.0" standalone="no"?>
<!DOCTYPE svg PUBLIC "-//W3C//DTD SVG 20010904//EN"
 "http://www.w3.org/TR/2001/REC-SVG-20010904/DTD/svg10.dtd">
<svg version="1.0" xmlns="http://www.w3.org/2000/svg"
 width="900.000000pt" height="900.000000pt" viewBox="0 0 900.000000 900.000000"
 preserveAspectRatio="xMidYMid meet">
<metadata>
Created by potrace 1.15, written by Peter Selinger 2001-2017
</metadata>
<g transform="translate(0.000000,900.000000) scale(0.100000,-0.100000)"
fill="#000000" stroke="none">
<path d="M0 4500 l0 -4500 4500 0 4500 0 0 4500 0 4500 -4500 0 -4500 0 0
-4500z m6458 2393 l2 -213 213 -2 212 -3 3 -117 c3 -117 3 -118 27 -118 57 0
55 31 55 -718 0 -378 -4 -693 -8 -699 -6 -10 -264 -13 -1213 -13 -662 0 -1210
0 -1216 0 -10 0 -13 167 -13 799 l0 799 25 31 c14 16 34 32 43 35 15 5 17 25
14 221 l-3 215 928 -2 928 -3 3 -212z m1127 -878 l0 -30 -115 0 c-103 0 -115
2 -118 18 -9 44 1 48 120 45 l113 -3 0 -30z m345 -39 c0 -63 -3 -74 -19 -79
-31 -8 -51 11 -51 48 0 32 -2 34 -37 37 -27 2 -39 8 -41 21 -8 40 4 47 78 47
l70 0 0 -74z m-2 -397 c2 -99 0 -118 -13 -123 -9 -3 -25 -1 -36 4 -17 10 -19
22 -19 119 0 59 3 111 7 115 4 4 19 6 33 4 25 -3 25 -3 28 -119z m-6708 -54
c21 -25 8 -50 -30 -55 -32 -5 -35 -8 -38 -42 -4 -43 -23 -62 -52 -53 -18 6
-20 15 -20 86 l0 79 64 0 c43 0 67 -5 76 -15z m414 9 c10 -4 16 -18 16 -35 l0
-30 -117 3 c-104 3 -118 5 -121 21 -7 37 16 47 113 47 52 0 100 -3 109 -6z
m436 -9 c6 -8 10 -22 8 -32 -3 -16 -16 -18 -118 -18 -102 0 -115 2 -118 18 -7
38 15 47 118 47 73 0 101 -4 110 -15z m844 9 c10 -4 16 -18 16 -35 l0 -29
-115 0 c-98 0 -115 2 -124 17 -7 13 -5 23 6 35 13 15 33 18 109 18 51 0 99 -3
108 -6z m436 -9 c6 -8 10 -22 8 -32 -3 -16 -16 -18 -118 -18 -102 0 -115 2
-118 18 -7 38 15 47 118 47 73 0 101 -4 110 -15z m433 -6 c6 -9 7 -24 4 -33
-5 -13 -24 -16 -122 -16 l-115 0 0 29 c0 16 6 32 13 35 6 2 57 4 111 3 79 -2
101 -5 109 -18z m391 15 c10 -4 16 -18 16 -35 l0 -29 -114 0 c-109 0 -115 1
-122 22 -11 36 19 48 117 48 48 0 94 -3 103 -6z m3754 -395 c2 -99 0 -118 -13
-123 -9 -3 -25 -1 -36 4 -17 10 -19 22 -19 110 0 119 4 132 39 128 l26 -3 3
-116z m-6789 37 c8 -9 11 -50 9 -117 l-3 -104 -30 0 -30 0 -3 104 c-1 58 0
111 2 118 7 17 40 17 55 -1z m6789 -478 c2 -110 2 -117 -18 -123 -40 -13 -50
10 -50 115 0 119 4 132 39 128 l26 -3 3 -117z m-6783 -52 c0 -89 -3 -111 -16
-119 -9 -6 -24 -7 -33 -4 -13 5 -16 24 -16 115 0 60 3 112 7 116 4 4 19 6 33
4 l25 -3 0 -109z m6780 -416 l0 -115 -30 0 -30 0 -3 104 c-1 58 0 111 3 118 3
9 16 13 32 11 l28 -3 0 -115z m-6794 100 c17 -10 19 -22 19 -114 0 -111 -9
-134 -50 -121 -19 6 -20 14 -20 120 0 107 3 118 28 124 2 1 12 -4 23 -9z
m2949 -330 l0 -260 258 -2 257 -3 3 -142 3 -143 32 0 c67 0 62 65 65 -854 2
-827 2 -836 -18 -856 -20 -20 -28 -20 -1464 -20 -1210 0 -1445 2 -1455 14 -8
10 -11 266 -9 967 3 936 3 954 23 981 11 14 30 33 43 40 l23 14 -1 262 -1 262
1121 0 1120 0 0 -260z m1484 54 c3 -9 6 -45 6 -80 l0 -64 -63 0 c-69 0 -101
15 -95 46 2 14 14 20 43 24 36 4 40 8 43 35 2 17 5 36 7 43 6 17 52 15 59 -4z
m-357 -90 c3 -9 2 -24 -4 -33 -15 -24 -221 -24 -236 0 -6 9 -7 24 -4 33 9 24
235 24 244 0z m-4068 -68 c8 -9 11 -50 9 -117 l-3 -104 -30 0 -30 0 -3 104
c-1 58 0 111 2 118 7 17 40 17 55 -1z m6786 -106 l0 -115 -30 0 -30 0 -3 104
c-1 58 0 111 3 118 3 9 16 13 32 11 l28 -3 0 -115z m-6778 -330 c4 -17 14 -20
58 -20 58 0 81 -16 70 -50 -6 -18 -14 -20 -101 -20 l-94 0 0 48 c0 55 4 62 38
62 15 0 26 -7 29 -20z m6781 -113 l3 -118 -33 3 -33 3 -3 104 c-1 58 0 111 3
118 3 9 16 13 32 11 l28 -3 3 -118z m-6233 58 l0 -30 -112 -3 c-105 -2 -112
-2 -118 18 -13 42 9 51 124 48 l106 -3 0 -30z m6233 -477 l3 -78 -60 0 c-78 0
-91 6 -91 40 0 26 4 29 37 32 29 2 39 8 41 23 9 61 12 66 40 63 26 -3 27 -4
30 -80z m-2901 -24 c14 -37 -10 -49 -103 -52 -112 -4 -134 1 -134 32 0 12 3
26 7 29 3 4 55 7 115 7 91 0 110 -3 115 -16z m1711 -8 c7 -34 -25 -46 -119
-46 -107 0 -119 4 -119 41 l0 30 117 -3 c107 -3 118 -5 121 -22z m422 -5 c0
-17 -6 -31 -16 -35 -26 -10 -184 -7 -205 4 -19 10 -26 40 -12 53 3 4 57 7 120
7 l113 0 0 -29z m427 13 c3 -9 2 -24 -4 -33 -15 -24 -211 -24 -226 0 -6 9 -7
24 -4 33 9 24 225 24 234 0z"/>
</g>
</svg>
