<?xml version="1.0" standalone="no"?>
<!DOCTYPE svg PUBLIC "-//W3C//DTD SVG 20010904//EN"
 "http://www.w3.org/TR/2001/REC-SVG-20010904/DTD/svg10.dtd">
<svg version="1.0" xmlns="http://www.w3.org/2000/svg"
 width="900.000000pt" height="900.000000pt" viewBox="0 0 900.000000 900.000000"
 preserveAspectRatio="xMidYMid meet">
<metadata>
Created by potrace 1.15, written by Peter Selinger 2001-2017
</metadata>
<g transform="translate(0.000000,900.000000) scale(0.100000,-0.100000)"
fill="#000000" stroke="none">
<path d="M0 4500 l0 -4500 4500 0 4500 0 0 4500 0 4500 -4500 0 -4500 0 0
-4500z m1700 3250 l0 -210 -65 0 -65 0 0 210 0 210 65 0 65 0 0 -210z m5386
200 c118 -15 188 -35 289 -84 229 -110 399 -319 467 -576 22 -85 22 -88 25
-1022 l4 -938 -574 0 c-315 0 -576 -3 -580 -6 -13 -14 10 -37 91 -91 257 -170
451 -448 532 -761 45 -172 44 -441 -1 -617 -111 -440 -415 -767 -842 -910
-108 -36 -259 -65 -341 -65 -90 0 -86 20 -86 -402 0 -403 -5 -454 -60 -596
-46 -120 -106 -210 -199 -302 -93 -91 -154 -132 -278 -185 -163 -70 -58 -66
-1871 -65 -1008 0 -1653 4 -1684 10 -330 63 -567 256 -682 558 -28 72 -55 199
-56 259 l0 33 463 2 462 3 0 323 0 322 173 0 172 0 0 645 0 645 -635 0 -635 0
0 577 c0 555 1 578 20 617 11 23 36 52 57 66 l37 25 395 3 c257 2 399 6 407
13 10 8 14 197 16 897 4 870 4 888 25 963 97 345 339 579 673 650 80 17 197
18 2110 18 1307 1 2054 -3 2106 -9z m-5418 -745 l32 -6 0 -664 0 -665 -65 0
-65 0 0 664 c0 490 3 665 11 668 22 7 54 8 87 3z m6202 -3102 c0 -111 -39
-343 -58 -343 -7 0 -38 7 -66 15 l-53 16 13 51 c12 43 34 256 34 319 0 17 8
19 65 19 l65 0 0 -77z m-292 -796 c28 -15 52 -31 52 -35 0 -16 -93 -158 -158
-241 -184 -237 -447 -436 -736 -557 -61 -26 -117 -51 -123 -56 -10 -8 -13 -66
-13 -229 l0 -219 -65 0 -65 0 0 274 0 274 28 10 c15 5 56 20 92 33 333 116
666 379 862 681 35 53 65 96 68 95 3 -1 29 -15 58 -30z"/>
<path d="M2965 7278 c-33 -18 -45 -40 -45 -84 l0 -42 -70 -33 c-76 -35 -133
-88 -172 -161 -19 -36 -23 -58 -23 -133 0 -113 25 -175 97 -240 59 -53 117
-73 239 -84 143 -12 186 -44 195 -144 17 -184 -262 -253 -354 -88 -26 45 -48
61 -87 61 -33 0 -75 -42 -75 -75 0 -71 85 -167 185 -211 65 -28 65 -28 65 -70
0 -59 30 -94 80 -94 51 0 80 35 80 95 0 42 1 43 46 59 96 33 183 121 214 220
20 61 8 174 -24 240 -51 105 -137 154 -294 167 -146 13 -194 44 -208 134 -15
106 70 195 186 195 74 0 133 -34 177 -103 29 -46 61 -60 103 -46 58 21 66 80
21 150 -41 63 -77 93 -153 129 -67 31 -68 33 -68 70 0 52 -8 68 -41 85 -33 18
-47 18 -74 3z"/>
<path d="M6097 7183 c-4 -3 -7 -42 -7 -85 l0 -78 560 0 560 0 0 85 0 85 -553
0 c-305 0 -557 -3 -560 -7z"/>
<path d="M6097 6663 c-4 -3 -7 -42 -7 -85 l0 -78 248 2 247 3 3 60 c2 32 1 69
-3 82 l-5 23 -239 0 c-131 0 -241 -3 -244 -7z"/>
<path d="M6097 6143 c-4 -3 -7 -42 -7 -85 l0 -78 405 0 406 0 -3 83 -3 82
-396 3 c-217 1 -398 -1 -402 -5z"/>
<path d="M5960 5453 c-145 -15 -314 -65 -445 -130 -140 -69 -221 -128 -336
-243 -281 -279 -407 -624 -377 -1034 11 -141 58 -322 82 -313 6 2 160 59 341
125 182 66 342 125 356 130 l26 11 -13 52 c-29 110 -13 235 43 348 34 68 140
176 209 213 57 31 152 58 201 58 l33 0 0 395 0 395 -42 -2 c-24 0 -59 -3 -78
-5z"/>
<path d="M1795 5088 c-3 -7 -6 -60 -7 -118 l-3 -105 -112 -3 -113 -3 0 -74 0
-75 115 0 114 0 3 -117 3 -118 77 -3 77 -3 3 118 3 118 113 3 112 3 0 74 0 74
-112 3 -113 3 -3 118 -3 117 -75 0 c-51 0 -76 -4 -79 -12z"/>
<path d="M2862 4788 l3 -73 308 -3 307 -2 0 75 0 75 -310 0 -311 0 3 -72z"/>
<path d="M6090 4159 l0 -501 48 6 c126 18 244 82 326 177 161 187 156 475 -13
662 -75 83 -226 157 -322 157 l-39 0 0 -501z"/>
<path d="M2910 3745 l-54 -55 102 -103 102 -102 -102 -102 -103 -103 55 -55
54 -55 103 102 103 103 103 -103 103 -102 54 55 54 55 -97 98 c-53 53 -97 102
-97 107 0 5 44 54 97 107 l97 98 -49 50 c-27 27 -54 50 -59 50 -6 0 -55 -44
-108 -97 l-98 -98 -103 103 -103 102 -54 -55z"/>
</g>
</svg>
