<?xml version="1.0" standalone="no"?>
<!DOCTYPE svg PUBLIC "-//W3C//DTD SVG 20010904//EN"
 "http://www.w3.org/TR/2001/REC-SVG-20010904/DTD/svg10.dtd">
<svg version="1.0" xmlns="http://www.w3.org/2000/svg"
 width="900.000000pt" height="900.000000pt" viewBox="0 0 900.000000 900.000000"
 preserveAspectRatio="xMidYMid meet">
<metadata>
Created by potrace 1.15, written by Peter Selinger 2001-2017
</metadata>
<g transform="translate(0.000000,900.000000) scale(0.100000,-0.100000)"
fill="#000000" stroke="none">
<path d="M0 4500 l0 -4500 4500 0 4500 0 0 4500 0 4500 -4500 0 -4500 0 0
-4500z m5870 2410 l5 -515 513 -3 c281 -1 512 1 512 6 0 4 -40 48 -90 97 -49
49 -90 93 -90 98 0 4 224 7 498 5 l497 -3 55 -26 c67 -32 113 -77 148 -144
l27 -50 0 -2020 0 -2020 -3322 -3 -3323 -2 0 2018 0 2019 31 61 c35 70 71 104
149 141 l55 26 400 5 400 5 3 413 2 412 1763 -2 1762 -3 5 -515z m-1162 -4757
c46 -34 72 -81 72 -130 0 -93 -55 -153 -145 -161 -62 -5 -102 13 -141 63 -81
106 6 263 139 252 27 -2 60 -13 75 -24z"/>
<path d="M2960 6910 l0 -80 458 0 c251 0 463 4 470 9 9 5 12 28 10 77 l-3 69
-467 3 -468 2 0 -80z"/>
<path d="M4207 6983 c-11 -18 -4 -133 8 -143 8 -7 177 -9 521 -8 l509 3 3 78
3 77 -520 0 c-286 0 -522 -3 -524 -7z"/>
<path d="M2960 6390 l0 -80 258 2 257 3 3 78 3 77 -261 0 -260 0 0 -80z"/>
<path d="M3792 6393 l3 -78 410 0 410 0 3 78 3 77 -416 0 -416 0 3 -77z"/>
<path d="M5990 4310 l0 -80 206 2 206 3 0 68 c-1 37 -1 72 -1 77 -1 6 -76 10
-206 10 l-205 0 0 -80z"/>
<path d="M6714 4377 c-3 -8 -4 -43 -2 -78 l3 -64 410 0 410 0 0 75 0 75 -408
3 c-337 2 -408 0 -413 -11z"/>
<path d="M3799 4220 c-16 -9 -420 -158 -629 -232 -63 -22 -117 -42 -118 -44
-2 -1 17 -46 42 -100 130 -273 349 -499 611 -629 136 -67 237 -100 383 -126
311 -53 637 8 907 169 45 27 80 54 79 62 -1 8 -104 159 -229 335 -126 176
-230 321 -231 323 -1 2 -20 -8 -42 -22 -97 -61 -278 -87 -392 -56 -146 40
-297 167 -352 297 -10 25 -16 30 -29 23z"/>
<path d="M5223 4041 l-52 -38 136 -189 c75 -104 199 -277 275 -384 77 -107
149 -203 160 -212 19 -17 77 -18 904 -18 l884 0 0 71 c0 41 -4 68 -9 64 -5 -3
-391 -2 -858 2 l-848 7 -155 218 c-85 120 -202 286 -260 368 -58 82 -109 149
-115 149 -5 0 -33 -17 -62 -38z"/>
<path d="M5990 3790 l0 -80 613 0 c338 0 616 2 618 4 2 2 3 38 1 80 l-4 76
-614 0 -614 0 0 -80z"/>
</g>
</svg>
