<?xml version="1.0" standalone="no"?>
<!DOCTYPE svg PUBLIC "-//W3C//DTD SVG 20010904//EN"
 "http://www.w3.org/TR/2001/REC-SVG-20010904/DTD/svg10.dtd">
<svg version="1.0" xmlns="http://www.w3.org/2000/svg"
 width="900.000000pt" height="900.000000pt" viewBox="0 0 900.000000 900.000000"
 preserveAspectRatio="xMidYMid meet">
<metadata>
Created by potrace 1.15, written by Peter Selinger 2001-2017
</metadata>
<g transform="translate(0.000000,900.000000) scale(0.100000,-0.100000)"
fill="#000000" stroke="none">
<path d="M0 4500 l0 -4500 4500 0 4500 0 0 4500 0 4500 -4500 0 -4500 0 0
-4500z m6210 2447 l5 -428 295 -2 295 -2 3 -72 3 -73 -376 0 -375 0 0 505 0
506 73 -3 72 -3 5 -428z m1480 -502 l0 -75 -180 0 -180 0 0 68 c0 38 3 72 7
75 3 4 84 7 180 7 l173 0 0 -75z m0 -1720 l0 -1195 -727 -2 -728 -3 -3 -777
-2 -778 -518 0 -517 0 -624 -416 c-342 -228 -629 -413 -636 -410 -7 2 -290
189 -629 415 l-616 411 -515 0 -515 0 -2 778 -3 777 -63 7 c-222 24 -404 150
-497 343 -201 420 96 895 559 895 160 0 310 -60 430 -171 95 -86 173 -248 184
-376 2 -35 10 -67 17 -73 8 -7 152 -9 416 -8 l404 3 3 628 2 627 653 0 653 0
592 -395 c325 -217 594 -395 597 -395 3 0 5 295 5 655 l0 655 1040 0 1040 0 0
-1195z m-102 -1617 l-3 -73 -202 -3 -203 -2 0 75 0 75 205 0 206 0 -3 -72z
m-381 -490 c68 -68 123 -127 123 -133 0 -6 -23 -33 -50 -60 l-50 -50 -132 133
-133 132 50 50 c27 27 54 50 59 50 6 0 66 -55 133 -122z m-527 -293 l0 -205
-75 0 -75 0 0 205 0 205 75 0 75 0 0 -205z"/>
<path d="M5974 5317 c-3 -8 -4 -45 -2 -83 l3 -69 575 0 575 0 0 80 0 80 -573
3 c-475 2 -573 0 -578 -11z"/>
<path d="M5974 4797 c-3 -8 -4 -45 -2 -83 l3 -69 575 0 575 0 0 80 0 80 -573
3 c-475 2 -573 0 -578 -11z"/>
<path d="M3682 4723 l3 -78 670 0 670 0 3 78 3 77 -676 0 -676 0 3 -77z"/>
<path d="M1580 4150 l0 -310 75 0 75 0 0 310 0 310 -75 0 -75 0 0 -310z"/>
<path d="M3967 4283 l-288 -3 3 -78 3 -77 368 -3 368 -2 -3 82 -3 83 -80 0
c-44 1 -210 -1 -368 -2z"/>
<path d="M4937 4283 c-4 -3 -7 -42 -7 -85 l0 -78 785 0 786 0 -3 83 -3 82
-776 3 c-426 1 -779 -1 -782 -5z"/>
</g>
</svg>
