<?xml version="1.0" standalone="no"?>
<!DOCTYPE svg PUBLIC "-//W3C//DTD SVG 20010904//EN"
 "http://www.w3.org/TR/2001/REC-SVG-20010904/DTD/svg10.dtd">
<svg version="1.0" xmlns="http://www.w3.org/2000/svg"
 width="900.000000pt" height="900.000000pt" viewBox="0 0 900.000000 900.000000"
 preserveAspectRatio="xMidYMid meet">
<metadata>
Created by potrace 1.15, written by Peter Selinger 2001-2017
</metadata>
<g transform="translate(0.000000,900.000000) scale(0.100000,-0.100000)"
fill="#000000" stroke="none">
<path d="M6152 6388 c-9 -9 -59 -15 -148 -18 l-136 -5 -44 -105 c-24 -57 -44
-106 -44 -107 0 -2 87 -3 193 -3 l192 0 29 73 c16 39 39 93 52 120 12 26 18
45 14 42 -5 -3 -12 -1 -15 5 -4 6 -12 7 -18 3 -19 -14 -70 -17 -63 -4 9 15 3
14 -12 -1z"/>
<path d="M6698 6393 c6 -3 12 -9 12 -14 0 -6 -5 -7 -11 -3 -7 4 -21 7 -33 8
-17 1 -28 -16 -64 -99 -59 -140 -58 -132 -18 -139 19 -4 46 -16 60 -27 52 -41
56 -60 56 -296 l1 -218 121 288 c98 233 123 285 134 276 8 -6 14 -7 14 -3 0 5
-9 15 -21 22 -12 8 -18 19 -15 28 3 8 2 13 -3 10 -5 -3 -11 0 -14 8 -3 8 1 17
9 20 8 3 14 13 14 21 0 9 -5 13 -10 10 -6 -4 -8 -11 -5 -16 4 -5 0 -9 -8 -9
-16 0 -40 24 -32 32 3 3 -1 11 -10 18 -8 7 -15 9 -15 6 0 -4 -12 4 -27 18 -15
14 -30 23 -35 20 -4 -3 -8 -1 -8 4 0 17 13 22 29 9 14 -11 14 -10 2 6 -16 21
-16 21 -35 1 -9 -8 -21 -12 -27 -8 -8 4 -7 9 2 15 11 7 10 9 -3 9 -10 0 -18
-4 -18 -10 0 -5 -4 -10 -10 -10 -5 0 -7 6 -4 13 3 8 -4 13 -18 14 -13 0 -17
-1 -10 -4z"/>
<path d="M3073 6351 c-59 -27 -119 -93 -143 -158 -19 -50 -20 -73 -18 -261 l3
-207 133 315 c72 173 132 318 132 323 0 14 -65 6 -107 -12z"/>
<path d="M3561 6353 c-12 -24 -81 -192 -81 -198 0 -3 86 -4 192 -3 l192 3 42
100 c23 55 43 103 43 108 1 4 -84 7 -189 7 -170 0 -190 -2 -199 -17z"/>
<path d="M4288 6260 l-46 -110 193 0 193 0 35 83 c20 46 41 96 46 110 l11 27
-193 0 -192 0 -47 -110z"/>
<path d="M5070 6293 c-18 -43 -39 -93 -46 -110 l-14 -33 194 0 194 0 10 28 c5
15 26 64 46 110 l35 82 -193 0 -193 0 -33 -77z"/>
<path d="M3774 5796 c3 -31 9 -81 12 -113 l7 -56 -34 24 c-19 13 -61 43 -93
66 -32 24 -60 42 -61 41 -1 -2 -16 -27 -33 -56 l-33 -53 103 -48 102 -49 -94
-47 c-52 -26 -97 -49 -99 -51 -5 -5 36 -83 53 -101 8 -9 31 4 95 53 46 35 86
63 88 60 2 -2 0 -47 -6 -100 -6 -52 -11 -100 -11 -106 0 -11 117 -14 123 -2 2
4 0 50 -5 102 -4 52 -7 98 -6 102 2 4 39 -21 83 -57 44 -35 85 -64 91 -65 13
0 67 96 61 107 -3 5 -46 28 -96 53 -50 24 -91 47 -91 50 0 3 41 26 91 50 50
25 93 48 96 52 5 10 -49 108 -60 108 -5 0 -47 -30 -93 -66 l-85 -66 7 93 c4
52 8 101 8 109 1 12 -14 16 -63 18 l-63 3 6 -55z"/>
<path d="M4543 5808 c4 -24 9 -74 13 -112 l7 -70 -54 39 c-30 21 -71 52 -92
68 -21 16 -39 28 -41 26 -15 -19 -59 -109 -55 -113 3 -3 48 -25 100 -49 l94
-44 -95 -48 c-52 -26 -96 -49 -98 -50 -4 -4 32 -74 50 -97 12 -16 20 -12 98
47 46 36 86 65 88 65 5 0 -5 -118 -15 -182 l-6 -38 67 0 67 0 -6 58 c-3 31 -8
81 -11 111 l-6 55 39 -29 c21 -16 59 -46 84 -67 26 -21 51 -38 57 -38 6 0 23
24 40 52 l29 53 -91 48 c-50 26 -94 51 -98 56 -5 4 37 29 91 55 l98 49 -31 54
c-18 31 -36 51 -43 49 -7 -3 -46 -30 -86 -61 -41 -30 -77 -55 -81 -55 -4 0 -5
21 -2 48 3 26 8 73 11 105 l6 57 -66 0 -67 0 5 -42z"/>
<path d="M5314 5818 c3 -18 8 -69 12 -112 l7 -79 -79 58 c-43 32 -84 62 -91
67 -8 7 -21 -5 -42 -39 -17 -26 -31 -53 -31 -59 0 -6 44 -31 98 -56 l97 -45
-95 -47 c-52 -27 -97 -50 -99 -52 -2 -1 11 -28 29 -59 20 -34 36 -53 43 -48 7
3 41 29 77 57 36 27 71 54 79 60 12 9 13 -3 7 -79 -4 -50 -10 -100 -13 -112
-5 -22 -3 -23 61 -23 76 0 71 -12 56 125 -5 49 -8 90 -6 92 1 2 40 -26 85 -62
46 -36 86 -65 91 -65 5 0 22 23 38 52 l31 52 -101 55 -101 54 100 51 101 51
-30 53 c-16 28 -34 52 -38 52 -5 0 -30 -17 -57 -38 -26 -21 -65 -51 -87 -67
l-38 -29 5 39 c4 22 9 73 13 113 l6 72 -67 0 -67 0 6 -32z"/>
<path d="M3066 5178 c-49 -117 -90 -215 -92 -217 -2 -2 -12 3 -22 12 -71 65
-247 95 -369 64 -58 -15 -68 -15 -150 3 -477 103 -863 37 -1002 -171 -81 -122
-131 -339 -131 -574 0 -164 12 -256 36 -270 9 -5 29 -20 44 -32 l27 -23 7 55
c3 30 11 77 17 104 l10 49 62 7 c101 11 318 71 439 120 186 76 374 187 523
309 l70 57 65 -3 c146 -7 282 -119 382 -313 61 -120 118 -287 118 -348 l0 -39
31 26 c37 31 74 42 93 27 10 -9 15 -8 20 4 4 11 1 15 -12 13 -13 -2 -18 5 -20
36 -3 31 0 38 12 33 8 -3 18 -1 22 5 4 7 3 8 -4 4 -7 -4 -12 -2 -12 4 0 6 -4
8 -10 5 -6 -4 -9 15 -8 47 2 42 6 56 23 65 11 7 15 12 8 13 -7 0 -10 7 -7 18
5 14 4 14 -4 2 -6 -8 -8 -18 -6 -22 3 -4 1 -8 -4 -8 -5 0 -12 51 -15 113 -3
61 -13 148 -22 192 -19 101 -20 95 13 95 26 0 31 7 72 107 25 59 47 111 48
115 2 4 -9 8 -25 8 -39 0 -88 33 -110 72 -15 28 -19 66 -23 241 l-5 207 -89
-212z"/>
<path d="M6941 5269 c-5 -13 -66 -158 -135 -322 -69 -164 -126 -301 -126 -303
0 -3 24 -3 54 -2 30 2 52 6 50 9 -4 7 36 27 51 25 6 0 9 -5 7 -9 -1 -5 2 -6 7
-3 5 4 11 1 13 -6 3 -7 7 -5 11 6 4 9 3 15 -2 11 -5 -3 -12 -1 -16 5 -3 5 -1
10 5 10 6 0 9 4 6 9 -8 13 21 34 39 27 11 -4 15 1 15 17 0 18 -2 19 -10 7 -5
-8 -10 -10 -10 -5 1 15 26 45 33 40 4 -3 5 -2 3 1 -2 3 0 21 6 41 5 19 11 45
13 56 7 31 7 398 1 404 -3 3 -10 -5 -15 -18z"/>
<path d="M5800 5140 l0 -60 260 0 260 0 0 60 0 60 -260 0 -260 0 0 -60z"/>
<path d="M3657 4758 c-26 -61 -45 -113 -43 -115 7 -7 370 -3 377 5 10 9 89
199 89 212 0 6 -69 10 -189 10 l-188 0 -46 -112z"/>
<path d="M4463 4853 c-3 -10 -24 -58 -45 -107 -21 -49 -38 -93 -38 -98 0 -5
86 -7 191 -6 l191 3 44 103 c24 57 44 108 44 113 0 5 -83 9 -190 9 -172 0
-191 -2 -197 -17z"/>
<path d="M5237 4863 c-12 -21 -87 -203 -87 -212 0 -7 63 -11 188 -11 l189 0
46 110 c26 60 47 112 47 115 0 8 -378 6 -383 -2z"/>
<path d="M5979 4804 c-16 -36 -39 -88 -49 -115 l-20 -49 193 0 193 0 44 107
c25 59 47 111 48 115 2 4 -82 8 -188 8 l-191 0 -30 -66z"/>
<path d="M733 3580 c-68 -10 -182 -54 -241 -94 -25 -17 -57 -49 -69 -71 -22
-38 -23 -49 -23 -283 0 -271 3 -287 64 -316 29 -14 81 -16 385 -16 387 0 406
3 435 59 13 25 16 73 16 279 0 243 -1 250 -23 283 -29 44 -99 90 -186 124
-110 42 -231 53 -358 35z m-53 -530 c-9 -6 -10 -10 -3 -10 6 0 15 5 18 10 4 6
78 10 188 10 176 0 183 -1 209 -23 35 -30 33 -82 -4 -110 -22 -17 -44 -18
-229 -18 -112 0 -213 2 -224 4 -11 2 -21 13 -23 25 -2 12 -10 22 -18 22 -11 0
-13 6 -8 23 16 53 25 68 34 62 5 -3 10 -2 10 2 0 5 15 10 33 11 24 2 28 0 17
-8z"/>
<path d="M7310 3275 l0 -65 100 0 100 0 0 65 0 65 -100 0 -100 0 0 -65z"/>
<path d="M2738 2743 c21 -8 14 -32 -8 -26 -13 3 -20 0 -20 -8 0 -21 -81 -124
-125 -159 -94 -75 -199 -110 -333 -110 -180 0 -332 80 -423 222 -17 27 -37 47
-43 45 -34 -13 -199 -60 -321 -92 -525 -137 -708 -214 -871 -368 -92 -87 -150
-183 -177 -297 -18 -73 -25 -189 -13 -208 13 -21 99 -60 202 -90 464 -137
1358 -218 2009 -183 679 37 1331 151 1474 259 l33 25 -6 73 c-19 211 -110 374
-275 494 -45 33 -61 50 -57 63 4 15 2 16 -10 6 -11 -9 -14 -9 -14 0 0 7 -4 10
-10 6 -5 -3 -33 6 -62 21 -65 33 -63 31 -50 47 9 10 8 14 -3 14 -8 0 -15 -7
-15 -15 0 -10 -6 -12 -17 -7 -10 4 -26 10 -35 12 -10 3 -15 10 -12 15 4 6 -2
8 -15 3 -17 -5 -21 -2 -20 17 0 22 1 22 9 3 8 -19 9 -19 9 3 1 15 -4 22 -11
19 -7 -2 -20 -1 -29 4 -10 5 -23 3 -34 -5 -15 -11 -26 -11 -64 1 -25 7 -53 16
-61 20 -8 3 -19 7 -23 7 -4 1 -12 8 -17 16 -5 8 -10 10 -10 3 0 -10 -20 -9
-60 4 -13 4 -12 7 3 18 12 8 14 15 8 20 -6 3 -11 1 -11 -6 0 -8 -4 -8 -15 1
-13 11 -13 15 -3 21 8 6 9 9 2 9 -6 0 -17 -7 -24 -15 -10 -13 -11 -18 -1 -28
10 -9 11 -8 5 8 -7 18 -6 19 10 6 11 -9 14 -17 7 -24 -7 -7 -15 -6 -26 3 -8 7
-15 9 -15 5 0 -4 -7 -2 -15 5 -8 6 -20 8 -26 4 -9 -5 -10 -2 -6 9 3 9 1 19 -5
23 -7 4 -8 3 -4 -5 10 -16 -20 -25 -41 -11 -17 11 -17 11 0 6 11 -4 16 -2 11
5 -3 6 -17 8 -32 4 -27 -7 -122 14 -122 27 0 4 -3 7 -7 7 -20 -3 -27 2 -13 11
10 6 21 4 35 -8 20 -17 20 -17 2 4 -12 15 -25 20 -39 16 -14 -3 -19 -1 -14 6
4 7 2 12 -4 12 -6 0 -10 -8 -8 -17 2 -14 -3 -17 -25 -15 -16 2 -40 8 -55 14
-15 6 -30 11 -34 10 -12 -3 -9 23 3 35 7 7 2 10 -18 10 -15 0 -22 -2 -15 -4z"/>
</g>
</svg>
