<?xml version="1.0" standalone="no"?>
<!DOCTYPE svg PUBLIC "-//W3C//DTD SVG 20010904//EN"
 "http://www.w3.org/TR/2001/REC-SVG-20010904/DTD/svg10.dtd">
<svg version="1.0" xmlns="http://www.w3.org/2000/svg"
 width="900.000000pt" height="900.000000pt" viewBox="0 0 900.000000 900.000000"
 preserveAspectRatio="xMidYMid meet">
<metadata>
Created by potrace 1.15, written by Peter Selinger 2001-2017
</metadata>
<g transform="translate(0.000000,900.000000) scale(0.100000,-0.100000)"
fill="#000000" stroke="none">
<path d="M4356 8084 c-95 -23 -185 -72 -246 -133 -54 -54 -110 -144 -99 -156
4 -3 48 2 100 11 112 19 321 14 439 -11 84 -18 223 -65 350 -118 96 -41 176
-64 186 -55 11 12 -23 153 -52 214 -56 119 -183 213 -335 249 -80 19 -263 18
-343 -1z"/>
<path d="M2454 7790 c-180 -25 -316 -104 -385 -225 -37 -65 -37 -81 4 -94 153
-50 332 -55 520 -15 204 43 336 64 399 64 l59 0 -23 42 c-90 163 -335 260
-574 228z"/>
<path d="M6408 7790 c-174 -21 -325 -110 -387 -227 -6 -12 -11 -26 -11 -31 0
-21 235 -101 378 -128 116 -23 339 -23 443 0 117 25 180 46 185 61 9 23 -49
128 -101 181 -109 110 -310 167 -507 144z"/>
<path d="M1610 6509 c-72 -14 -200 -82 -253 -136 -62 -61 -121 -180 -136 -270
-8 -48 -11 -296 -9 -843 l3 -775 23 -41 c30 -51 68 -74 137 -81 107 -11 183
41 204 137 7 34 11 283 11 747 l0 696 44 43 c38 39 49 44 88 44 39 0 49 -5 88
-45 l45 -46 3 -1897 c3 -1734 2 -1900 -13 -1928 -34 -65 14 -197 96 -268 145
-124 382 -71 463 103 21 46 21 53 26 1026 4 761 8 985 18 1002 34 60 111 71
164 24 l33 -29 5 -984 5 -983 28 -57 c116 -237 455 -223 548 22 18 48 19 95
19 1140 l0 1090 -25 16 c-13 9 -36 39 -50 68 l-25 52 2 1035 c3 1021 3 1035
24 1092 l21 57 -176 0 -176 0 -145 -145 -145 -145 72 -72 72 -73 53 -488 52
-487 -124 -125 c-69 -69 -129 -125 -135 -125 -6 0 -67 57 -137 128 l-127 127
52 482 52 483 68 68 c37 37 67 72 67 77 0 6 -64 74 -143 153 l-142 142 -290
-1 c-160 -1 -310 -5 -335 -10z"/>
<path d="M4436 6441 l-66 -67 -50 -619 c-28 -340 -50 -637 -50 -660 0 -38 6
-46 128 -168 l127 -127 132 133 131 132 -53 654 -53 653 -67 68 c-44 44 -75
68 -90 68 -15 0 -46 -23 -89 -67z"/>
<path d="M5883 6504 c-9 -4 -7 -16 5 -47 16 -38 17 -130 17 -1082 l0 -1040
-24 -48 c-12 -26 -38 -59 -57 -74 l-34 -26 2 -1101 c3 -1057 4 -1102 22 -1136
59 -109 154 -171 264 -171 92 -1 157 25 217 85 94 94 88 14 93 1125 l4 975 33
33 c57 57 140 41 171 -33 12 -28 14 -194 14 -988 0 -938 0 -956 20 -1010 41
-108 152 -186 268 -188 155 -2 276 98 303 250 9 51 8 64 -5 84 -14 20 -16 141
-16 1243 0 817 -3 1224 -10 1231 -7 7 -10 234 -8 680 l3 671 29 37 c37 50 82
76 129 76 32 0 47 -8 90 -49 l52 -50 5 -728 c5 -688 6 -730 24 -766 24 -49 78
-77 148 -77 73 0 118 24 146 80 l22 44 0 776 c0 862 0 855 -66 980 -59 113
-159 189 -294 224 -37 9 -151 16 -348 21 l-293 8 -137 -136 -137 -136 82 -83
82 -83 51 -479 51 -480 -153 -153 -153 -153 -151 152 -152 153 20 175 c10 96
34 314 52 484 l34 309 78 78 79 79 -135 135 -135 135 -145 -1 c-80 0 -150 -3
-157 -5z"/>
<path d="M3807 4413 c-9 -8 -7 -1948 2 -2343 6 -277 8 -298 28 -336 30 -56
113 -129 170 -148 60 -20 146 -20 206 0 60 20 139 91 169 152 l23 47 5 1002 5
1002 29 30 c38 39 88 50 130 27 65 -35 61 35 66 -1061 l5 -1000 27 -50 c32
-60 77 -105 138 -137 64 -33 205 -33 267 0 61 32 112 87 141 151 l26 56 0
1305 1 1305 -716 3 c-393 1 -719 -1 -722 -5z"/>
</g>
</svg>
