<?xml version="1.0" standalone="no"?>
<!DOCTYPE svg PUBLIC "-//W3C//DTD SVG 20010904//EN"
 "http://www.w3.org/TR/2001/REC-SVG-20010904/DTD/svg10.dtd">
<svg version="1.0" xmlns="http://www.w3.org/2000/svg"
 width="900.000000pt" height="900.000000pt" viewBox="0 0 900.000000 900.000000"
 preserveAspectRatio="xMidYMid meet">
<metadata>
Created by potrace 1.15, written by Peter Selinger 2001-2017
</metadata>
<g transform="translate(0.000000,900.000000) scale(0.100000,-0.100000)"
fill="#000000" stroke="none">
<path d="M2271 7879 c-156 -30 -294 -156 -342 -310 -67 -215 31 -448 231 -549
88 -45 151 -52 400 -48 205 4 230 6 282 27 86 34 173 102 218 172 60 93 75
147 75 270 0 102 -1 107 -39 185 -66 133 -187 228 -325 254 -64 12 -438 11
-500 -1z"/>
<path d="M3890 7772 c0 -65 -3 -275 -7 -465 l-6 -347 274 -2 274 -3 3 -216 2
-216 -171 -139 c-95 -76 -202 -164 -239 -194 -37 -30 -169 -138 -293 -238
-125 -101 -227 -187 -227 -191 0 -3 209 -176 465 -384 l465 -378 0 -220 0
-220 73 3 72 3 5 221 5 222 380 307 c209 170 396 322 415 338 l36 30 219 1
220 1 0 75 0 75 -217 1 -217 1 -123 99 c-68 55 -244 199 -393 320 -148 120
-282 228 -297 239 l-27 20 -1 223 0 222 269 0 c185 0 272 3 277 11 3 6 3 215
-1 465 l-7 453 -614 1 -614 0 0 -118z"/>
<path d="M2463 6625 c-27 -19 -46 -75 -37 -109 9 -39 59 -76 101 -76 83 0 125
110 66 172 -21 22 -36 28 -68 28 -22 0 -50 -7 -62 -15z"/>
<path d="M2463 6102 c-51 -40 -52 -114 -1 -157 67 -57 158 -12 158 78 0 38 -5
49 -31 71 -36 31 -93 34 -126 8z"/>
<path d="M2473 5588 c-31 -15 -56 -72 -48 -108 4 -16 20 -41 37 -55 39 -33 87
-33 127 1 27 22 31 32 31 74 0 42 -4 52 -31 74 -33 28 -77 33 -116 14z"/>
<path d="M2462 5055 c-39 -33 -48 -74 -27 -118 29 -61 102 -75 154 -31 27 22
31 32 31 74 0 42 -4 52 -31 74 -40 34 -88 34 -127 1z"/>
<path d="M6368 4882 c-60 -103 -108 -190 -108 -194 0 -4 33 -8 73 -10 l72 -3
0 -250 0 -250 -637 -3 -638 -2 0 -75 0 -75 715 0 715 0 0 330 0 330 70 0 c42
0 70 4 70 10 0 14 -211 380 -219 380 -3 0 -54 -85 -113 -188z"/>
<path d="M3143 4095 l0 -75 369 0 369 0 -3 73 -3 72 -366 3 -367 2 1 -75z"/>
<path d="M1182 2589 l3 -295 30 -59 c33 -64 97 -121 163 -146 30 -11 228 -15
1062 -19 l1025 -5 0 -315 0 -315 -412 -3 -413 -2 0 -95 0 -95 1865 0 1865 0 0
95 0 95 -412 2 -413 3 0 315 0 315 1025 5 1025 5 50 23 c70 32 131 95 155 160
18 48 20 78 20 337 l0 285 -3321 2 -3320 3 3 -296z m3394 2 c32 -20 64 -74 64
-110 0 -74 -60 -131 -139 -131 -44 0 -56 5 -89 34 -35 33 -37 38 -37 96 0 58
2 63 37 96 32 29 45 34 85 34 29 0 60 -7 79 -19z"/>
</g>
</svg>
