<?xml version="1.0" standalone="no"?>
<!DOCTYPE svg PUBLIC "-//W3C//DTD SVG 20010904//EN"
 "http://www.w3.org/TR/2001/REC-SVG-20010904/DTD/svg10.dtd">
<svg version="1.0" xmlns="http://www.w3.org/2000/svg"
 width="1900.000000pt" height="505.000000pt" viewBox="0 0 1900.000000 505.000000"
 preserveAspectRatio="xMidYMid meet">
<metadata>
Created by potrace 1.15, written by Peter Selinger 2001-2017
</metadata>
<g transform="translate(0.000000,505.000000) scale(0.100000,-0.100000)"
fill="#000000" stroke="none">
<path d="M12043 4981 c148 -38 279 -73 292 -79 17 -8 22 -16 18 -33 -5 -19 -3
-20 18 -13 13 5 45 9 72 8 39 -1 47 2 47 17 0 42 -79 78 -212 95 -16 1 -45 8
-65 13 -21 6 -68 11 -105 11 -60 0 -67 2 -62 18 5 16 4 16 -9 -1 -10 -12 -16
-14 -19 -6 -2 7 -15 13 -29 15 -13 1 -44 5 -69 8 -138 17 -121 9 123 -53z"/>
<path d="M12536 4938 c-3 -62 -8 -270 -11 -463 -3 -192 -15 -739 -25 -1215
-11 -476 -22 -980 -25 -1120 -3 -140 -8 -333 -11 -427 -6 -164 -5 -173 12
-173 17 0 19 11 22 123 1 67 6 313 12 547 5 234 14 648 20 920 17 736 40 1701
42 1730 1 14 1 62 0 108 -2 63 -5 82 -16 82 -11 0 -15 -25 -20 -112z"/>
<path d="M12986 4943 c-4 -60 -11 -116 -16 -125 -13 -23 -13 -137 0 -213 10
-56 4 -560 -16 -1437 -6 -258 -5 -288 9 -288 9 0 18 4 21 8 3 5 8 152 11 328
3 175 8 389 10 475 2 86 7 271 11 410 4 148 11 257 16 260 7 4 6 9 -1 13 -13
8 -5 314 9 331 5 6 8 54 6 106 -2 51 -4 127 -5 167 -1 69 -2 72 -25 72 -24 0
-24 -2 -30 -107z"/>
<path d="M13430 5039 c0 -5 4 -8 9 -5 5 3 11 -4 14 -16 4 -12 5 -22 4 -23 -16
-3 -62 -37 -65 -47 -2 -9 0 -8 7 2 10 13 11 13 12 0 1 -8 1 -18 0 -22 0 -5 5
-8 12 -8 8 0 7 -4 -3 -10 -13 -8 -13 -10 2 -10 9 0 19 6 21 13 3 7 6 5 6 -5 1
-10 -6 -18 -14 -18 -8 0 -15 -5 -15 -11 0 -5 4 -7 10 -4 6 3 7 -1 4 -9 -4 -9
-1 -16 6 -16 7 0 10 -7 7 -14 -4 -10 -1 -13 9 -9 9 3 14 -1 14 -12 0 -9 -4
-14 -9 -10 -5 3 -12 1 -16 -5 -3 -5 3 -15 15 -22 11 -7 20 -16 20 -21 0 -4 -6
-5 -12 -1 -9 6 -9 3 1 -9 7 -9 10 -24 7 -33 -4 -11 1 -18 14 -21 15 -4 19 -12
16 -30 -6 -31 2 -53 20 -53 8 0 13 -3 13 -7 -3 -21 2 -33 15 -33 9 0 14 -12
14 -37 0 -21 5 -39 11 -41 6 -2 11 -10 11 -18 0 -8 4 -14 9 -14 5 0 7 -9 4
-21 -6 -23 16 -99 28 -99 5 0 6 7 3 15 -4 8 -1 15 4 15 18 0 4 -42 -18 -57
-17 -12 -19 -18 -9 -29 6 -8 9 -17 5 -21 -3 -3 2 -12 13 -19 12 -9 17 -23 15
-41 -2 -25 -1 -26 11 -10 11 16 13 14 16 -20 2 -21 1 -207 -2 -413 -4 -206
-10 -592 -14 -857 l-7 -483 -129 0 -129 0 6 28 c4 15 11 36 17 47 6 11 12 65
15 121 l4 100 -58 72 c-37 45 -75 79 -102 92 -49 24 -142 29 -187 10 -16 -7
-43 -14 -59 -16 -17 -3 -33 -10 -37 -16 -4 -6 -15 -13 -25 -14 -9 -2 -20 -8
-24 -14 -4 -7 -16 -9 -29 -5 -15 4 -21 2 -21 -8 0 -9 -4 -17 -9 -19 -14 -5
-21 -42 -12 -57 6 -9 38 -16 95 -21 48 -4 92 -12 98 -18 7 -7 9 -12 5 -12 -4
0 -1 -13 8 -30 20 -40 19 -72 -5 -103 -11 -14 -20 -30 -20 -35 0 -6 9 -14 20
-17 11 -3 20 -11 20 -16 0 -12 -30 -11 -69 2 -24 8 -35 8 -46 -1 -10 -8 -34
-10 -77 -6 -55 6 -61 5 -45 -7 9 -8 17 -19 17 -24 0 -6 9 -13 20 -16 15 -4 20
-14 21 -39 1 -30 2 -31 8 -8 7 26 18 29 144 45 53 6 57 5 57 -14 0 -46 -65
-131 -138 -179 -37 -25 -58 -46 -63 -65 -10 -37 -27 -57 -50 -57 -11 0 -28 -9
-39 -20 -12 -12 -25 -18 -30 -15 -6 4 -10 0 -10 -7 -1 -8 -6 -6 -15 6 -9 12
-15 42 -15 75 0 70 -3 101 -10 101 -3 0 -28 -13 -56 -29 -41 -24 -55 -39 -72
-78 -52 -122 -53 -242 -4 -405 17 -54 26 -96 22 -93 -5 3 -7 -20 -7 -50 l2
-56 105 7 c58 4 106 8 108 9 1 1 -4 23 -13 49 -9 25 -13 52 -9 58 13 21 33
133 34 186 0 28 4 52 9 52 5 0 12 17 16 37 9 49 22 73 40 73 8 0 18 8 24 17 8
16 12 15 36 -11 14 -15 29 -25 32 -22 4 4 -3 13 -15 22 -28 20 -28 34 1 34 26
0 82 33 109 63 37 43 50 79 44 116 -6 41 10 161 24 175 16 16 88 16 105 0 19
-19 19 -61 0 -94 -8 -14 -14 -36 -15 -50 0 -14 -9 -43 -19 -63 -16 -31 -16
-36 -3 -25 14 11 15 10 9 -6 -4 -10 -36 -67 -71 -125 -57 -95 -145 -261 -159
-301 -3 -8 -5 18 -4 59 1 64 4 75 25 92 l24 18 -29 36 c-28 35 -59 53 -71 40
-4 -3 -5 -21 -4 -39 2 -18 -6 -59 -17 -92 -12 -32 -21 -70 -21 -84 0 -14 -10
-43 -21 -65 -12 -21 -24 -65 -27 -97 l-5 -58 31 0 c17 0 34 -6 39 -12 8 -14
68 -234 130 -478 l36 -145 101 -1 c231 -2 649 -32 658 -47 19 -30 8 -45 -39
-53 -34 -5 -41 -9 -23 -11 87 -12 85 -11 100 -61 9 -31 30 -65 63 -99 l49 -52
-32 -52 c-32 -49 -61 -69 -100 -69 -17 0 -18 4 -10 26 6 15 20 40 31 56 12 16
19 31 17 33 -3 4 -93 -19 -623 -158 -297 -77 -472 -117 -511 -117 l-29 1 31
13 c60 26 54 37 -29 51 -28 4 -37 10 -33 20 3 8 0 17 -5 21 -6 4 -8 20 -5 39
8 39 -2 45 -78 45 -47 0 -52 -2 -51 -23 0 -12 3 -27 8 -33 12 -19 -13 -22
-123 -13 -116 9 -401 22 -612 27 l-138 3 0 -30 c0 -25 4 -31 21 -31 12 0 36
-8 53 -19 33 -20 61 -23 589 -61 149 -11 288 -17 309 -13 32 5 37 3 32 -10 -3
-9 -13 -18 -22 -21 -26 -8 -930 -224 -1102 -264 l-85 -20 353 -1 c338 -1 352
0 352 18 0 15 17 22 96 41 53 12 107 20 120 17 13 -2 24 0 24 5 0 5 5 6 10 3
6 -3 10 -24 10 -46 l0 -39 59 0 c48 0 60 3 63 17 3 16 4 16 20 0 15 -15 59
-17 476 -17 l459 0 28 108 c16 59 29 117 29 129 1 11 3 20 6 18 3 -2 23 30 44
70 41 83 47 89 76 80 30 -9 24 -43 -10 -64 -16 -10 -28 -20 -25 -23 3 -3 -10
-41 -28 -84 -19 -44 -42 -106 -51 -139 -9 -33 -19 -68 -22 -77 -5 -17 58 -18
1225 -18 l1229 0 7 67 c10 109 32 273 65 493 18 113 35 232 40 265 5 33 14 87
19 120 17 95 14 149 -10 179 -23 30 -33 31 -71 12 -16 -8 -58 -25 -95 -36 -38
-12 -85 -28 -106 -36 -20 -8 -41 -14 -46 -14 -8 0 -14 49 -27 223 -6 72 -4 80
15 93 22 16 41 71 41 121 0 51 -56 210 -102 287 -65 110 -148 191 -244 237
l-81 39 -7 55 c-4 35 -1 77 10 122 10 45 13 86 9 125 -6 51 -5 57 9 52 21 -8
20 2 -2 34 -18 26 -22 67 -9 88 8 14 -15 78 -37 102 -18 21 -41 88 -37 110 1
7 -11 34 -27 60 -16 26 -36 61 -44 77 -46 93 -93 173 -113 195 -13 14 -49 75
-80 135 -32 61 -63 117 -69 125 -27 33 -55 91 -76 156 -48 154 -96 213 -224
275 -111 54 -132 53 -271 -11 -81 -38 -166 -154 -196 -267 -35 -132 -36 -171
-4 -126 14 19 19 18 155 -31 25 -9 64 -21 88 -26 23 -6 42 -15 42 -20 0 -4
-28 -17 -62 -27 -55 -16 -63 -22 -63 -43 0 -23 2 -23 69 -21 50 2 73 7 82 18
9 14 14 9 30 -33 10 -27 23 -53 28 -57 6 -4 -23 -5 -65 -1 l-75 6 -30 -37
c-16 -20 -35 -42 -41 -50 -15 -16 -17 -35 -4 -35 5 0 11 -11 14 -25 4 -25 4
-25 -19 -10 -13 8 -24 12 -24 7 0 -13 -50 -9 -51 3 0 6 8 12 18 14 21 4 33 19
33 44 0 26 -17 21 -63 -18 -22 -19 -46 -35 -54 -35 -7 0 -15 -11 -19 -24 -3
-13 -19 -36 -35 -50 -32 -28 -38 -56 -13 -56 9 0 12 -5 8 -11 -5 -9 1 -10 20
-5 23 6 29 3 33 -14 7 -27 23 -26 20 2 -1 17 4 24 21 26 13 2 22 -2 22 -10 0
-7 3 -23 6 -35 6 -21 3 -23 -39 -23 -27 0 -49 -6 -57 -15 -14 -17 -50 -20 -50
-5 0 6 -8 10 -18 10 -10 0 -23 5 -30 12 -9 9 -12 9 -12 0 0 -6 13 -21 29 -33
16 -12 28 -27 25 -33 -5 -15 5 -28 38 -49 15 -9 31 -30 34 -45 4 -15 23 -43
43 -62 20 -20 43 -54 50 -78 8 -23 20 -42 28 -42 7 0 13 -11 13 -27 0 -14 3
-23 8 -19 4 4 7 42 7 84 l0 77 43 2 c23 1 42 -2 42 -8 0 -5 -7 -9 -15 -9 -21
0 -19 -7 11 -43 26 -31 27 -46 9 -118 -5 -19 -2 -28 10 -33 26 -9 32 -1 39 54
4 30 12 50 19 50 18 0 119 -103 141 -144 l19 -36 -37 -75 c-39 -80 -70 -107
-93 -78 -10 13 -14 12 -34 -6 -13 -12 -30 -21 -39 -21 -9 0 -61 -22 -117 -50
-79 -39 -106 -58 -126 -89 -25 -37 -25 -39 -7 -44 11 -3 24 1 30 9 16 19 83
57 73 41 -4 -7 -41 -56 -80 -109 -40 -53 -73 -101 -73 -107 0 -6 -4 -11 -10
-11 -5 0 -10 7 -10 15 0 11 -12 15 -50 15 -43 0 -52 -3 -59 -22 -8 -21 -5 -23
38 -29 26 -3 34 -7 19 -7 -16 -1 -32 -10 -38 -21 -14 -27 -13 -31 9 -31 11 0
26 -7 34 -15 13 -12 17 -8 30 38 l15 52 1 -39 1 -40 31 30 c17 16 49 53 71 82
22 28 45 52 50 52 15 0 -8 -32 -97 -133 -79 -90 -87 -102 -88 -143 -2 -38 -4
-43 -22 -39 -11 3 -14 2 -7 -1 6 -3 12 -12 12 -20 0 -9 11 -14 29 -14 17 0 33
-5 36 -10 4 -6 -5 -10 -19 -10 -20 0 -29 -8 -41 -36 -8 -20 -15 -45 -15 -56 0
-11 -13 -37 -30 -58 -16 -21 -44 -64 -60 -96 -17 -33 -39 -66 -49 -74 -10 -8
-29 -45 -41 -82 -12 -37 -25 -70 -30 -73 -4 -3 -15 11 -25 31 -16 34 -17 35
-36 18 -10 -9 -24 -35 -30 -57 -13 -49 -30 -32 -19 18 9 41 34 74 82 110 21
16 38 32 38 37 0 4 16 33 36 64 20 30 33 58 30 62 -8 7 -56 -38 -56 -53 0 -7
-12 -17 -26 -24 -18 -8 -24 -17 -20 -28 4 -10 -1 -21 -15 -31 -11 -8 -30 -28
-41 -46 -11 -17 -17 -22 -13 -11 4 11 11 35 15 53 4 18 14 39 20 47 10 13 8
20 -14 40 -19 18 -25 31 -21 45 4 13 1 22 -9 26 -18 7 -22 54 -6 70 7 7 -19
14 -79 23 -96 13 -92 11 -106 77 -5 26 -12 33 -40 38 -41 8 -49 18 -65 84 -6
28 -16 55 -21 58 -5 3 -9 18 -9 34 0 16 -11 59 -25 95 -13 36 -20 65 -15 65 5
0 25 14 44 30 25 22 37 44 46 83 17 69 17 69 49 53 27 -15 28 -14 128 87 l101
102 -2 105 -3 105 -44 12 c-24 6 -54 12 -66 12 l-22 1 6 610 c4 415 3 610 -4
610 -13 0 -6 64 7 68 13 5 13 229 0 237 -5 3 -10 19 -10 36 0 16 5 29 10 29 7
0 10 159 10 458 0 251 3 474 7 495 5 32 11 39 34 44 24 4 29 11 29 34 l0 29
-195 0 c-131 0 -195 -3 -195 -11z m1746 -2210 c60 -28 94 -63 94 -95 l0 -28
-24 33 c-30 40 -81 76 -118 83 -22 4 -12 -9 57 -76 88 -86 129 -150 122 -194
l-3 -27 -15 31 c-8 17 -38 57 -67 88 -28 32 -52 65 -52 74 0 14 -2 15 -10 2
-7 -12 -12 -12 -29 4 -18 16 -21 17 -26 3 -8 -19 25 -85 59 -116 14 -13 28
-37 32 -53 3 -17 15 -51 27 -77 11 -25 21 -57 23 -71 4 -51 71 -216 105 -258
10 -14 19 -29 19 -34 0 -11 -53 16 -70 37 -7 9 -28 22 -47 30 -19 8 -41 28
-51 47 -23 44 -99 116 -140 135 -38 16 -37 -3 -11 204 7 57 9 107 4 125 -5 16
-9 34 -9 39 0 6 -8 32 -18 58 -10 26 -18 53 -18 59 0 16 118 0 166 -23z
m-1419 -445 l53 -7 -6 -101 c-3 -55 -8 -103 -10 -105 -2 -2 -23 -6 -46 -8 -24
-3 -48 -9 -55 -15 -10 -8 -13 -4 -13 15 0 16 -7 28 -19 32 -11 3 -22 12 -25
20 -3 8 -13 15 -22 15 -12 0 -15 6 -10 25 3 14 9 36 12 50 4 15 2 25 -5 25 -6
0 -11 -4 -11 -10 0 -5 -5 -10 -10 -10 -19 0 10 40 35 50 13 5 26 14 30 19 7
13 29 13 102 5z m1338 -1573 c3 -5 -3 -16 -14 -23 -32 -22 -75 -154 -131 -402
-31 -135 -38 -156 -44 -129 -9 38 42 315 80 435 25 79 59 128 88 128 8 0 17
-4 21 -9z"/>
<path d="M17376 4988 c-3 -35 -8 -315 -11 -623 -3 -308 -8 -668 -10 -800 -3
-132 -10 -490 -15 -795 -23 -1258 -50 -2386 -65 -2672 l-5 -98 865 0 865 0 0
2525 0 2525 -809 0 -809 0 -6 -62z m404 -192 l0 -53 -96 -7 c-53 -4 -98 -6
-99 -4 -2 2 -1 26 3 53 l7 50 55 6 c30 3 72 6 93 7 l37 2 0 -54z m-20 -132
c91 -15 189 -28 218 -28 46 -1 54 -4 58 -23 3 -12 3 -93 0 -180 -3 -87 -5
-182 -5 -212 l-1 -53 -32 6 c-31 5 -208 26 -363 42 -38 3 -65 8 -60 10 6 2 9
30 7 63 -3 48 -7 60 -23 64 -22 6 -23 27 -12 225 6 117 7 121 27 117 12 -2 95
-17 186 -31z m-46 -529 c72 -8 172 -19 221 -23 l90 -7 -1 -90 c-3 -181 -16
-711 -19 -755 -2 -25 -4 -117 -5 -205 -2 -220 0 -211 -68 -219 -32 -3 -64 -6
-72 -6 -8 0 -28 0 -44 0 -15 0 -35 5 -42 11 -9 7 -30 9 -60 4 l-45 -6 2 -53
c1 -29 0 -56 -3 -62 -3 -5 -3 -26 -1 -46 6 -46 30 -59 31 -16 0 17 4 34 9 38
9 9 107 14 216 11 l67 -1 0 -34 c0 -18 -7 -39 -15 -46 -8 -7 -15 -21 -15 -31
0 -11 7 -19 15 -19 12 0 15 -17 15 -92 0 -119 -6 -141 -31 -125 -14 9 -27 8
-54 -2 -20 -7 -39 -10 -42 -7 -4 3 1 6 10 6 34 0 16 17 -19 18 -28 1 -35 -2
-30 -13 3 -8 2 -15 -3 -15 -10 0 -24 38 -22 58 3 17 -5 15 -34 -10 l-25 -22
22 -13 c22 -12 22 -12 -9 -13 -28 0 -33 3 -31 23 4 49 -22 85 -84 116 -32 17
-66 27 -73 24 -19 -7 -31 23 -16 40 7 9 8 24 2 44 -7 25 -5 35 10 52 11 12 31
21 45 21 15 0 23 4 19 11 -4 6 -13 8 -21 5 -7 -3 -20 5 -29 17 -8 12 -21 22
-27 22 -6 0 -13 6 -16 14 -4 11 5 13 46 8 29 -3 54 -2 57 4 4 5 -6 10 -22 10
-21 1 -23 3 -8 6 30 8 45 23 45 48 0 19 -7 23 -52 29 -29 4 -59 8 -67 8 -12 1
-13 71 -7 462 3 254 9 545 13 649 6 178 7 187 26 187 11 0 79 -7 151 -15z m20
-3230 c5 -20 13 -25 39 -25 23 0 41 -8 57 -25 13 -14 31 -25 41 -25 48 0 68
-29 22 -31 l-28 -2 28 -4 c21 -3 27 -10 27 -29 0 -13 -4 -24 -10 -24 -5 0 -10
-7 -10 -16 0 -12 -8 -14 -47 -9 -74 10 -83 14 -83 39 0 12 -4 26 -9 32 -4 5
-13 23 -19 39 -5 17 -17 47 -26 68 -14 31 -14 37 -2 37 8 0 17 -11 20 -25z
m-24 -77 c16 -46 26 -85 24 -87 -2 -2 -43 4 -93 14 -83 16 -89 19 -94 45 -3
15 -3 37 0 49 4 17 8 19 19 10 11 -9 18 -8 29 1 12 10 18 10 30 0 23 -19 45
-4 45 31 0 45 8 33 40 -63z m-21 -120 c56 -9 64 -14 76 -41 25 -60 17 -64
-101 -48 -58 8 -100 17 -94 21 6 4 5 13 -5 26 -19 25 -19 34 3 35 10 0 12 3 5
6 -7 2 -13 8 -13 12 0 8 34 6 129 -11z"/>
<path d="M11556 2978 c-3 -46 -6 -157 -6 -248 0 -104 -3 -166 -10 -168 -7 -3
-10 -92 -10 -255 0 -139 -2 -274 -3 -302 -2 -33 2 -56 13 -69 8 -11 9 -16 3
-12 -7 4 -13 3 -13 -2 0 -10 23 -22 41 -22 5 0 9 11 9 25 0 14 -4 25 -10 25
-6 0 -10 29 -9 68 1 46 3 59 8 42 5 -14 7 -33 5 -42 -2 -10 1 -18 7 -18 5 0 9
17 9 38 0 20 5 55 10 77 5 22 11 202 13 400 3 198 2 313 -2 255 -7 -99 -7 -93
-11 95 l-4 200 -6 -130 c-5 -113 -6 -119 -9 -50 -3 83 -10 168 -15 173 -2 1
-6 -35 -10 -80z"/>
<path d="M11498 2889 c-1 -57 -2 -111 -3 -119 -3 -28 -15 -542 -21 -918 -6
-343 -5 -372 10 -366 15 6 17 26 15 160 0 85 -5 156 -10 160 -5 3 -9 11 -9 17
0 9 2 9 8 0 4 -6 6 46 6 115 -1 88 1 111 6 77 8 -56 13 313 10 715 -2 259 -9
349 -12 159z"/>
<path d="M10077 2754 c-3 -3 -4 -11 -2 -17 2 -7 6 -31 9 -55 5 -31 3 -41 -6
-40 -13 3 -14 -7 -4 -51 4 -19 3 -22 -6 -13 -18 18 -38 14 -37 -5 0 -11 3 -13
6 -6 3 10 10 10 24 2 11 -5 24 -7 29 -4 5 3 11 1 14 -4 7 -10 25 -9 42 1 6 4
25 -2 42 -13 18 -10 40 -19 48 -19 18 0 53 38 54 58 0 6 7 12 16 12 11 0 14
-6 9 -20 -5 -16 -2 -20 18 -20 31 0 66 51 59 86 -2 14 -7 23 -9 20 -3 -3 -15
6 -28 19 -12 14 -25 21 -29 17 -4 -4 -13 0 -19 9 -16 21 -45 30 -50 16 -2 -8
-9 -6 -22 6 -12 12 -21 15 -28 8 -6 -6 -18 -4 -34 6 -22 15 -23 14 -16 -3 6
-18 6 -18 -14 -1 -19 17 -54 23 -66 11z"/>
<path d="M9831 2178 c-1 -10 -10 -23 -21 -30 -12 -8 -20 -24 -20 -39 0 -35
-10 -43 -27 -20 -8 13 -20 17 -34 14 -14 -4 -17 -8 -9 -13 7 -4 9 -13 6 -19
-5 -7 -18 -3 -40 14 -46 35 -59 31 -16 -5 27 -23 31 -33 22 -42 -14 -14 -16
-38 -3 -38 5 0 16 6 24 14 16 17 43 5 32 -15 -6 -9 -4 -11 8 -6 23 9 43 -19
27 -38 -6 -8 -9 -19 -6 -24 4 -5 2 -12 -2 -15 -5 -3 -7 -16 -5 -30 6 -30 -27
-52 -55 -37 -11 6 -27 5 -46 -3 l-28 -11 51 -25 c62 -29 74 -43 32 -35 -34 6
-43 -10 -12 -20 11 -3 24 -19 30 -35 6 -18 21 -35 38 -41 16 -6 22 -13 16 -16
-7 -3 -13 -11 -13 -19 0 -8 6 -14 13 -15 6 0 2 -4 -10 -9 -13 -5 -23 -14 -23
-20 0 -7 5 -8 13 -3 19 12 57 15 57 4 0 -5 7 -16 15 -25 14 -14 12 -20 -20
-61 -19 -26 -35 -50 -35 -55 0 -9 164 -5 180 5 5 3 10 0 10 -8 0 -9 -14 -17
-35 -21 -35 -7 -53 -22 -40 -34 3 -4 20 1 36 10 37 22 38 6 4 -45 -14 -20 -23
-42 -19 -48 10 -16 101 -5 122 15 41 36 35 3 -8 -41 -14 -16 -32 -23 -56 -23
-21 0 -33 -4 -29 -10 7 -11 84 -14 109 -4 9 3 13 10 10 15 -3 5 7 14 21 19 53
20 58 33 52 133 -6 113 -27 180 -72 244 -44 60 -116 208 -165 338 -51 134 -78
194 -79 173z"/>
<path d="M10182 1898 c-6 -6 -12 -22 -12 -34 0 -12 -10 -34 -22 -49 l-21 -27
23 -137 c15 -84 24 -179 25 -248 l0 -112 -37 -21 c-79 -44 -148 -194 -124
-267 17 -51 50 -62 257 -78 107 -9 239 -20 294 -25 55 -5 159 -12 230 -15
l130 -5 -25 19 c-15 12 -38 19 -55 18 -30 -2 -30 -2 -29 48 1 28 9 69 17 93
l15 42 -32 0 c-18 0 -58 5 -90 11 -63 11 -73 9 -187 -51 -80 -42 -91 -37 -35
16 34 34 50 43 56 34 8 -14 30 -5 30 12 0 7 -16 9 -43 6 -32 -4 -59 -17 -102
-51 -33 -26 -61 -44 -63 -42 -10 9 32 52 80 82 50 32 51 33 23 34 -17 0 -41 2
-54 5 -17 3 -22 0 -18 -10 3 -8 -1 -17 -9 -20 -11 -4 -13 0 -8 19 5 21 2 25
-14 25 -11 0 -27 -7 -36 -15 -8 -8 -26 -19 -41 -25 -14 -5 -25 -16 -24 -22 3
-17 -40 -88 -53 -88 -7 0 -9 23 -5 60 4 51 3 59 -9 49 -20 -17 -22 -11 -17 49
l6 54 43 -7 43 -6 -10 33 c-15 55 -12 58 34 33 70 -38 274 -103 397 -125 63
-12 149 -28 190 -35 128 -24 147 -22 380 49 47 14 107 26 133 26 30 0 46 4 42
10 -3 6 -17 10 -31 10 -14 0 -22 4 -19 10 10 16 65 12 65 -5 0 -18 17 -20 22
-3 3 8 14 2 31 -16 22 -24 24 -31 14 -47 -8 -14 -19 -18 -34 -14 -13 3 -23 1
-23 -5 0 -5 13 -10 29 -10 17 0 31 -6 35 -16 12 -31 27 -1 26 50 -3 81 1 162
7 149 3 -10 9 -9 20 3 14 13 14 17 2 25 -8 5 -26 12 -41 16 -16 3 -28 9 -28
14 0 12 17 11 41 -1 10 -6 20 -7 20 -3 6 37 4 53 -6 53 -34 0 -201 -91 -189
-103 3 -3 3 -18 0 -33 -6 -22 -11 -25 -36 -22 -22 3 -41 -4 -77 -32 -63 -47
-82 -54 -90 -33 -5 14 -8 12 -15 -7 -6 -16 -14 -21 -28 -17 -11 3 -27 -1 -34
-9 -8 -8 -19 -14 -25 -14 -6 0 -11 -5 -11 -12 0 -6 -3 -9 -6 -6 -9 10 16 87
32 96 10 6 13 16 9 34 -5 21 -16 27 -78 41 -40 10 -81 17 -91 17 -11 0 -37 12
-57 26 -31 21 -41 24 -58 14 -15 -8 -21 -8 -21 0 0 18 -145 79 -171 73 -13 -4
-20 -2 -16 4 3 5 -17 18 -46 28 -29 10 -61 26 -72 35 -11 10 -32 20 -48 24
-15 4 -35 15 -45 25 -77 81 -101 111 -117 141 -10 19 -31 52 -48 73 -18 24
-34 60 -41 93 -9 44 -14 52 -24 42z m-11 -667 c-27 -27 -36 -84 -23 -140 8
-35 7 -49 -2 -61 -7 -8 -16 -24 -20 -34 -3 -10 -9 -16 -13 -12 -3 3 -17 -1
-30 -9 -29 -20 -30 -14 -18 119 6 62 11 73 47 112 22 24 49 44 59 44 18 0 18
-1 0 -19z"/>
<path d="M11533 1880 c-6 -14 -13 -123 -17 -242 l-6 -216 41 16 c33 13 39 19
35 36 -3 12 -6 28 -6 36 0 21 -17 0 -24 -30 -2 -14 -3 38 -1 116 2 77 0 146
-5 154 -6 10 -9 7 -13 -11 -2 -13 -5 -2 -6 24 0 27 3 46 8 43 11 -7 19 56 10
81 -6 16 -8 15 -16 -7z"/>
<path d="M12889 1506 c-2 -2 -159 -9 -349 -16 -190 -7 -346 -13 -347 -14 -4
-3 137 -569 147 -593 6 -14 15 -20 27 -17 10 2 173 15 363 30 190 14 346 27
347 28 1 1 -4 24 -13 51 -8 28 -42 151 -75 275 -33 124 -62 233 -65 243 -5 15
-24 23 -35 13z"/>
<path d="M12000 1473 c-19 -1 -72 -6 -117 -9 -64 -4 -83 -9 -83 -21 0 -8 -6
-13 -12 -10 -7 2 -21 0 -30 -5 -13 -6 -18 -5 -18 7 0 12 -12 15 -55 15 -30 0
-55 -3 -55 -7 0 -5 22 -6 50 -5 42 3 50 1 50 -13 0 -11 -5 -15 -15 -11 -8 3
-15 1 -15 -4 0 -6 24 -10 52 -10 63 0 381 21 387 26 2 2 1 15 -3 29 -6 23 -11
25 -54 23 -26 0 -63 -3 -82 -5z"/>
<path d="M9518 1360 c-27 -8 -48 -18 -48 -22 0 -4 7 -5 15 -2 8 4 15 1 15 -5
0 -7 17 -9 45 -7 38 3 43 1 35 -13 -19 -33 -66 -69 -98 -76 -26 -5 -31 -10
-22 -20 9 -11 5 -15 -23 -20 -29 -6 -36 -13 -46 -45 -18 -60 -17 -61 42 -55
60 8 98 20 147 50 57 35 72 38 65 15 -5 -16 -3 -19 12 -13 10 3 29 13 42 22
l24 15 -16 -30 c-12 -24 -12 -31 -2 -41 11 -10 7 -24 -21 -77 -19 -36 -47 -75
-62 -87 l-27 -21 30 5 c17 4 102 14 190 23 88 10 164 20 168 24 4 4 -14 24
-42 46 -27 21 -88 75 -135 118 l-87 79 -92 -7 c-51 -3 -105 -9 -121 -13 -19
-4 -27 -2 -22 5 5 8 72 17 194 25 12 1 22 4 22 7 0 10 -102 120 -118 128 -10
4 -38 1 -64 -8z"/>
<path d="M9198 1177 c-107 -11 -105 -10 -92 -76 l7 -31 93 0 c101 0 101 0 104
65 3 43 1 55 -7 53 -5 0 -52 -6 -105 -11z"/>
<path d="M114 928 c-38 -10 -114 -93 -114 -123 l0 -25 100 2 c55 1 100 5 100
10 0 4 5 8 11 8 5 0 7 -5 4 -10 -8 -12 47 -2 55 10 3 5 17 6 33 5 15 -2 25 0
22 5 -3 5 14 8 38 8 86 0 131 12 155 40 l24 27 -6 -25 c-6 -25 -6 -25 6 -2 6
13 17 21 25 18 8 -3 11 -1 8 4 -4 6 -12 10 -18 9 -33 -4 -46 2 -40 18 5 13 2
15 -15 11 -12 -4 -22 -3 -22 1 0 5 -46 8 -101 7 -56 -1 -133 1 -170 4 -38 3
-81 2 -95 -2z"/>
<path d="M16431 909 c-14 -5 -31 -7 -38 -4 -8 2 -11 0 -8 -5 3 -6 14 -10 23
-10 29 0 -6 -18 -84 -41 l-72 -21 -6 -172 c-3 -94 -8 -280 -11 -413 l-5 -243
124 0 124 0 6 133 c3 72 8 273 11 446 6 293 5 314 -12 327 -21 16 -21 16 -52
3z"/>
<path d="M12300 881 c0 -25 23 -92 29 -82 4 5 34 4 76 -4 38 -7 73 -11 77 -9
5 3 14 2 21 -3 21 -14 200 -45 257 -44 38 0 49 -2 35 -8 l-20 -8 20 -6 c20 -6
108 -11 157 -8 15 0 33 8 42 16 8 8 21 12 30 9 8 -3 72 -9 143 -13 l128 -6
-195 -15 -195 -15 110 -6 c61 -3 153 -2 205 2 52 5 183 16 290 25 107 9 199
20 203 24 19 17 -60 21 -173 10 -103 -10 -127 -10 -191 5 -96 22 -139 37 -86
30 20 -3 54 -8 75 -12 33 -5 36 -4 24 10 -12 14 -10 15 10 13 13 -2 30 -6 38
-9 8 -3 29 -8 45 -11 l30 -6 -25 15 c-14 8 -33 14 -42 15 -10 0 -18 4 -18 9 0
5 -15 11 -32 14 -67 11 -223 49 -231 57 -5 4 -23 4 -40 -1 -39 -10 -302 -35
-537 -50 -199 -13 -223 -8 -245 43 -8 18 -14 27 -15 19z"/>
<path d="M1844 505 c1 -20 -2 -39 -5 -41 -4 -2 -5 -18 -2 -35 5 -34 4 -33 -50
3 -15 11 -24 24 -21 30 4 6 1 14 -7 18 -10 7 -10 12 2 26 9 11 9 15 2 10 -8
-4 -13 -2 -14 6 0 7 -4 2 -10 -10 -5 -13 -7 -28 -3 -33 3 -5 0 -9 -6 -9 -7 0
-9 -8 -5 -20 3 -11 2 -20 -3 -20 -6 0 -13 -7 -16 -16 -4 -11 -2 -15 6 -11 13
4 13 0 18 -168 1 -52 17 -187 26 -217 5 -16 19 -18 115 -18 60 0 109 2 109 4
0 4 -35 153 -92 391 -32 135 -47 173 -44 110z"/>
<path d="M17250 518 c0 -12 -9 -32 -21 -44 -20 -21 -23 -22 -61 -8 -61 21
-114 19 -121 -6 -3 -11 -1 -18 4 -14 5 3 9 1 9 -4 0 -5 -11 -15 -25 -22 -14
-7 -25 -17 -25 -22 0 -5 4 -6 10 -3 6 3 7 -1 4 -9 -3 -9 -11 -16 -16 -16 -6 0
-5 -7 2 -15 11 -13 10 -14 -3 -10 -8 4 -18 2 -22 -4 -3 -6 -1 -11 4 -11 6 0
11 -4 11 -10 0 -5 -3 -9 -7 -9 -21 3 -33 -3 -33 -17 0 -9 -5 -12 -12 -8 -7 4
-5 -2 5 -13 18 -21 18 -21 -1 -27 -11 -4 -19 -14 -19 -24 0 -34 -3 -43 -12
-37 -5 3 -12 1 -15 -4 -8 -13 4 -42 15 -35 5 3 6 -2 3 -10 -3 -9 -11 -13 -18
-9 -7 4 -7 1 1 -9 7 -8 10 -18 6 -21 -3 -4 -7 -27 -8 -52 l-1 -45 173 0 173 0
0 113 c0 61 3 183 7 270 3 86 3 157 -1 157 -3 0 -6 -10 -6 -22z"/>
<path d="M1014 492 c3 -6 2 -13 -4 -17 -5 -3 -10 0 -10 7 0 10 -3 9 -9 -2 -6
-8 -8 -17 -5 -21 2 -4 0 -18 -5 -31 -5 -12 -12 -81 -16 -153 -8 -163 -12 -217
-15 -230 -9 -39 -1 -45 63 -45 l62 0 -2 62 c-2 35 -4 95 -5 135 -2 39 -6 69
-9 68 -3 -2 -5 12 -4 31 1 19 -1 37 -5 39 -4 3 -5 16 -2 30 3 19 -3 34 -22 54
-27 28 -26 43 2 34 14 -4 14 -3 3 5 -7 5 -11 14 -7 20 3 6 1 14 -5 18 -7 4 -9
3 -5 -4z"/>
<path d="M2135 410 c-3 -5 -8 -40 -11 -77 -3 -37 -12 -88 -19 -113 -8 -25 -19
-74 -26 -110 -6 -36 -18 -75 -25 -88 l-14 -22 69 0 c69 0 70 0 73 28 2 15 0
63 -4 107 -4 44 -8 124 -9 177 -1 71 -5 98 -15 102 -7 3 -16 1 -19 -4z"/>
<path d="M7920 151 c0 -22 -9 -30 -41 -36 -15 -3 -19 0 -16 10 3 7 0 16 -7 18
-10 4 -12 -1 -8 -16 5 -19 3 -20 -10 -9 -10 8 -19 9 -22 3 -5 -7 -61 -8 -61
-1 0 1 -14 3 -31 4 -28 3 -31 0 -40 -34 -7 -23 -7 -44 -1 -58 9 -20 17 -22 91
-20 45 0 104 -2 133 -7 51 -8 51 -8 55 21 5 49 -13 144 -28 144 -8 0 -14 -9
-14 -19z"/>
</g>
</svg>
